<svg width="43" height="69" viewBox="0 0 43 69" fill="none" xmlns="http://www.w3.org/2000/svg">
<path fill-rule="evenodd" clip-rule="evenodd" d="M10.9384 44.7827C10.9384 44.143 11.457 43.6245 12.0966 43.6245H30.6275C31.2671 43.6245 31.7857 44.143 31.7857 44.7827C31.7857 45.4223 31.2671 45.9409 30.6275 45.9409H12.0966C11.457 45.9409 10.9384 45.4223 10.9384 44.7827Z" fill="black"/>
<path fill-rule="evenodd" clip-rule="evenodd" d="M8.87933 51.4746C8.87933 50.8349 9.39787 50.3164 10.0375 50.3164H32.429C33.0687 50.3164 33.5872 50.8349 33.5872 51.4746C33.5872 52.1142 33.0687 52.6328 32.429 52.6328H10.0375C9.39787 52.6328 8.87933 52.1142 8.87933 51.4746Z" fill="black"/>
<path fill-rule="evenodd" clip-rule="evenodd" d="M0 8.87939C0 3.97544 3.97544 0 8.87939 0H33.5873C38.4912 0 42.4666 3.97544 42.4666 8.87939V59.3246C42.4666 64.2286 38.4912 68.204 33.5873 68.204H8.87939C3.97544 68.204 0 64.2286 0 59.3246V8.87939ZM8.87939 2.31636C5.25473 2.31636 2.31636 5.25473 2.31636 8.87939V59.3246C2.31636 62.9493 5.25473 65.8876 8.87939 65.8876H33.5873C37.2119 65.8876 40.1503 62.9493 40.1503 59.3246V8.87939C40.1503 5.25473 37.2119 2.31636 33.5873 2.31636H8.87939Z" fill="black"/>
<circle cx="21.2334" cy="21.2331" r="5.91959" fill="url(#paint1_linear)"/>
<path fill-rule="evenodd" clip-rule="evenodd" d="M16.4718 21.233C16.4718 18.6034 18.6036 16.4716 21.2332 16.4716C23.8629 16.4716 25.9946 18.6034 25.9946 21.233C25.9946 23.8627 23.8629 25.9945 21.2332 25.9945C18.6036 25.9945 16.4718 23.8627 16.4718 21.233ZM21.2332 14.1553C17.3243 14.1553 14.1554 17.3241 14.1554 21.233C14.1554 23.624 15.341 25.7381 17.1563 27.0194C13.1457 28.5941 10.2949 32.4236 10.2949 36.9329C10.2949 37.5725 10.8134 38.0911 11.453 38.0911C12.0927 38.0911 12.6112 37.5725 12.6112 36.9329C12.6112 32.3421 16.4421 28.5682 21.2332 28.5682C26.0244 28.5682 29.8553 32.3421 29.8553 36.9329C29.8553 37.5725 30.3738 38.0911 31.0134 38.0911C31.6531 38.0911 32.1716 37.5725 32.1716 36.9329C32.1716 32.4236 29.3208 28.594 25.3101 27.0194C27.1254 25.7381 28.311 23.624 28.311 21.233C28.311 17.3241 25.1422 14.1553 21.2332 14.1553Z" fill="black"/>
<path fill-rule="evenodd" clip-rule="evenodd" d="M12.9973 6.69187C12.9973 6.05223 13.5158 5.53369 14.1555 5.53369H28.5684C29.2081 5.53369 29.7266 6.05223 29.7266 6.69187C29.7266 7.33152 29.2081 7.85005 28.5684 7.85005H14.1555C13.5158 7.85005 12.9973 7.33152 12.9973 6.69187Z" fill="black"/>
<circle cx="21.2333" cy="59.5815" r="2.57374" fill="black"/>
<defs>
<linearGradient id="paint1_linear" x1="16.9042" y1="16.8155" x2="24.9442" y2="25.8274" gradientUnits="userSpaceOnUse">
<stop stop-color="#42A4FF"/>
<stop offset="1" stop-color="white"/>
</linearGradient>
</defs>
</svg>
