<svg width="64" height="63" viewBox="0 0 64 63" fill="none" xmlns="http://www.w3.org/2000/svg">
<path fill-rule="evenodd" clip-rule="evenodd" d="M62.6591 61.0895L62.6591 31.0237L28.0702 61.0895H62.6591ZM56.0074 54.7038L56.0074 45.3914L45.3647 54.7038H56.0074Z" fill="url(#paint2_linear)"/>
<path fill-rule="evenodd" clip-rule="evenodd" d="M25.222 26.2949L29.7374 30.8102L45.9173 14.6303L41.4019 10.115L25.222 26.2949ZM43.0952 8.42172L47.6105 12.9371L49.4918 11.0557L44.9765 6.54037L43.0952 8.42172ZM51.1851 9.36246L53.4428 7.10478C53.7025 6.84501 53.7025 6.42385 53.4428 6.16408L49.8681 2.58944C49.6084 2.32968 49.1872 2.32968 48.9274 2.58944L46.6698 4.84712L51.1851 9.36246ZM23.6181 28.0774L27.9548 32.4141L22.8963 34.2313L21.801 33.1359L23.6181 28.0774ZM18.2655 35.8948C18.2109 36.0467 18.1826 36.1979 18.1773 36.3452H14.1017C13.4404 36.3452 12.9044 36.8812 12.9044 37.5425C12.9044 38.2038 13.4404 38.7398 14.1017 38.7398H44.9657C45.6269 38.7398 46.163 38.2038 46.163 37.5425C46.163 36.8812 45.6269 36.3452 44.9657 36.3452H24.0948L28.903 34.618C29.3275 34.4654 29.7131 34.2209 30.0321 33.9019L49.5395 14.3945H51.7504C54.175 14.3945 56.1405 16.3601 56.1405 18.7847L56.1405 35.1035L33.1322 55.1031C33.13 55.1031 33.1278 55.1031 33.1256 55.1031H33.009L32.9925 55.1029H7.84903C4.83795 55.1029 2.39674 52.663 2.39462 49.6525V49.6446C2.39674 46.634 4.83795 44.1941 7.84903 44.1941H9.04634C9.70759 44.1941 10.2436 43.6581 10.2436 42.9968V14.3945L33.7358 14.3945L22.1303 26.0001C21.8113 26.3191 21.5668 26.7047 21.4143 27.1293L18.2655 35.8948ZM30.3773 57.4977L6.78476 57.4977C3.03764 57.4977 0 54.46 0 50.7129V49.6485V42.1986V34.7488V10.4034C0 5.4807 3.99062 1.49008 8.9133 1.49008H9.04634C9.70759 1.49008 10.2436 2.02614 10.2436 2.68739V11.9999H36.1305L47.2342 0.896192C48.4291 -0.29873 50.3665 -0.298731 51.5614 0.896192L55.136 4.47083C56.3309 5.66576 56.3309 7.60311 55.136 8.79803L51.9318 12.0023C55.595 12.0984 58.5351 15.0982 58.5351 18.7847V33.022L61.8736 30.1201C62.2277 29.8123 62.7288 29.7397 63.1557 29.9342C63.5825 30.1288 63.8564 30.5546 63.8564 31.0237L63.8565 61.0895C63.8565 61.407 63.7303 61.7116 63.5058 61.9361C63.2813 62.1607 62.9767 62.2868 62.6592 62.2868H28.0702C27.5707 62.2868 27.1237 61.9767 26.9487 61.5088C26.7738 61.0409 26.9077 60.5136 27.2847 60.1859L30.3773 57.4977ZM7.84903 41.7995C5.72985 41.7995 3.80682 42.6393 2.39462 44.0043L2.39462 34.7488L2.39462 10.4034C2.39462 7.16564 4.7551 4.47922 7.84903 3.97115V41.7995ZM31.2727 59.8922H61.4619L61.4618 53.7725H59.9986C59.3373 53.7725 58.8013 53.2365 58.8013 52.5752C58.8013 51.914 59.3373 51.3779 59.9986 51.3779H61.4618L61.4618 47.1208H59.9986C59.3373 47.1208 58.8013 46.5848 58.8013 45.9235C58.8013 45.2623 59.3373 44.7262 59.9986 44.7262H61.4618L61.4618 41.1343H59.9986C59.3373 41.1343 58.8013 40.5982 58.8013 39.937C58.8013 39.2757 59.3373 38.7396 59.9986 38.7396H61.4618L61.4618 33.6509L31.2727 59.8922ZM56.5022 44.3011C56.93 44.4953 57.2047 44.9216 57.2047 45.3914L57.2048 54.7038C57.2048 55.0214 57.0786 55.3259 56.8541 55.5505C56.6295 55.775 56.325 55.9012 56.0074 55.9012H45.3647C44.8659 55.9012 44.4193 55.5919 44.2439 55.125C44.0684 54.658 44.2009 54.1312 44.5763 53.8028L55.219 44.4904C55.5726 44.181 56.0744 44.107 56.5022 44.3011ZM48.5513 53.5065H54.8101L54.8101 48.03L48.5513 53.5065Z" fill="black"/>
<defs>
<linearGradient id="paint2_linear" x1="46.562" y1="43.5289" x2="58.3003" y2="61.3988" gradientUnits="userSpaceOnUse">
<stop stop-color="#42A4FF"/>
<stop offset="1" stop-color="white"/>
</linearGradient>
</defs>
</svg>
