<svg width="60" height="55" viewBox="0 0 60 55" fill="none" xmlns="http://www.w3.org/2000/svg">
<path d="M55.3571 38.9288V7.54785C55.3571 5.891 54.0139 4.54785 52.3571 4.54785H31H6.92847C5.27161 4.54785 3.92847 5.891 3.92847 7.54785V38.9288C3.92847 40.5857 5.27161 41.9288 6.92847 41.9288H52.3571C54.0139 41.9288 55.3571 40.5857 55.3571 38.9288Z" stroke="url(#paint0_linear_1710_11048)" stroke-width="5"/>
<path fill-rule="evenodd" clip-rule="evenodd" d="M5.83334 3.00028C3.79514 3.00028 2.14286 4.65256 2.14286 6.69076V40.0241C2.14286 42.0623 3.79514 43.7146 5.83334 43.7146H53.2143C55.2525 43.7146 56.9048 42.0623 56.9048 40.0241V6.69076C56.9048 4.65256 55.2525 3.00028 53.2143 3.00028H13.5714H5.83334ZM13.5714 0.857422H53.2143C56.436 0.857422 59.0476 3.4691 59.0476 6.69076V40.0241C59.0476 43.2458 56.436 45.8574 53.2143 45.8574H36.1583L38.0763 52.7621H41.4285C42.0202 52.7621 42.4999 53.2418 42.4999 53.8336C42.4999 54.4253 42.0202 54.905 41.4285 54.905H17.857C17.2653 54.905 16.7856 54.4253 16.7856 53.8336C16.7856 53.2418 17.2653 52.7621 17.857 52.7621H21.2094L23.1274 45.8574H5.83334C2.61167 45.8574 0 43.2458 0 40.0241V6.69076C0 3.46909 2.61167 0.857422 5.83334 0.857422H13.5714ZM23.4334 52.7621L25.2192 46.3335H34.0666L35.8523 52.7621H23.4334ZM45.7143 8.23822H7.38094V38.4763H51.6667V8.23822H45.7143ZM7.26189 6.09536H45.7143H51.7857C52.9034 6.09536 53.8095 7.00145 53.8095 8.11917V38.5954C53.8095 39.7131 52.9034 40.6192 51.7857 40.6192H7.26189C6.14417 40.6192 5.23808 39.7131 5.23808 38.5954V8.11917C5.23808 7.00146 6.14417 6.09536 7.26189 6.09536Z" fill="black"/>
<path fill-rule="evenodd" clip-rule="evenodd" d="M30 23C32.7614 23 35 20.7614 35 18C35 15.2386 32.7614 13 30 13C27.2386 13 25 15.2386 25 18C25.0028 20.7603 27.2397 22.9972 30 23ZM30 14.6667C31.8409 14.6667 33.3333 16.1591 33.3333 18C33.3333 19.8409 31.8409 21.3333 30 21.3333C28.1591 21.3333 26.6667 19.8409 26.6667 18C26.6667 16.1591 28.1591 14.6667 30 14.6667Z" fill="black"/>
<path d="M30 23L29.9998 23.25H30V23ZM25 18L24.75 18L24.75 18.0002L25 18ZM30 23.25C32.8995 23.25 35.25 20.8995 35.25 18H34.75C34.75 20.6234 32.6234 22.75 30 22.75V23.25ZM35.25 18C35.25 15.1005 32.8995 12.75 30 12.75V13.25C32.6234 13.25 34.75 15.3766 34.75 18H35.25ZM30 12.75C27.1005 12.75 24.75 15.1005 24.75 18H25.25C25.25 15.3766 27.3766 13.25 30 13.25V12.75ZM24.75 18.0002C24.7529 20.8984 27.1016 23.2471 29.9998 23.25L30.0002 22.75C27.3778 22.7474 25.2526 20.6222 25.25 17.9998L24.75 18.0002ZM30 14.9167C31.7029 14.9167 33.0833 16.2971 33.0833 18H33.5833C33.5833 16.021 31.979 14.4167 30 14.4167V14.9167ZM33.0833 18C33.0833 19.7029 31.7029 21.0833 30 21.0833V21.5833C31.979 21.5833 33.5833 19.979 33.5833 18H33.0833ZM30 21.0833C28.2971 21.0833 26.9167 19.7029 26.9167 18H26.4167C26.4167 19.979 28.021 21.5833 30 21.5833V21.0833ZM26.9167 18C26.9167 16.2971 28.2971 14.9167 30 14.9167V14.4167C28.021 14.4167 26.4167 16.021 26.4167 18H26.9167Z" fill="black"/>
<path fill-rule="evenodd" clip-rule="evenodd" d="M30 24.6665C25.8598 24.6711 22.5046 28.0263 22.5 32.1665C22.5 32.6267 22.8731 32.9998 23.3333 32.9998C23.7936 32.9998 24.1667 32.6267 24.1667 32.1665C24.1667 28.9448 26.7783 26.3332 30 26.3332C33.2217 26.3332 35.8333 28.9448 35.8333 32.1665C35.8333 32.6267 36.2064 32.9998 36.6667 32.9998C37.1269 32.9998 37.5 32.6267 37.5 32.1665C37.4954 28.0263 34.1402 24.6711 30 24.6665Z" fill="black" stroke="black" stroke-width="0.5"/>
<defs>
<linearGradient id="paint0_linear_1710_11048" x1="10.8368" y1="9.29021" x2="34.165" y2="45.2647" gradientUnits="userSpaceOnUse">
<stop stop-color="#42A4FF"/>
<stop offset="1" stop-color="white"/>
</linearGradient>
</defs>
</svg>
