<svg width="68" height="61" viewBox="0 0 68 61" fill="none" xmlns="http://www.w3.org/2000/svg">
<path d="M43.5182 42.6261C43.0049 43.5215 42.2999 44.2922 41.4538 44.8832L35.8167 48.8206C35.1235 49.3047 34.1796 48.7636 34.2472 47.9208L34.797 41.0668C34.8795 40.038 35.1885 39.0402 35.7018 38.1448L51.9647 9.77853C53.2022 7.6201 55.9551 6.87351 58.1136 8.11098C60.272 9.34845 61.0186 12.1014 59.7811 14.2598L43.5182 42.6261Z" fill="url(#paint3_linear)"/>
<path fill-rule="evenodd" clip-rule="evenodd" d="M41.5604 43.3104L37.0388 46.4686L35.6599 45.678L36.1008 40.1804L41.5604 43.3104ZM54.5736 20.8732L42.8951 41.2432L37.2104 37.9841L48.889 17.614L54.5736 20.8732ZM56.7053 22.0953L57.398 22.4924C57.9866 22.8299 58.1903 23.5807 57.8528 24.1694L55.0422 29.0717C54.7047 29.6604 54.9083 30.4112 55.497 30.7486C56.0856 31.0861 56.8364 30.8825 57.1739 30.2939L59.9845 25.3915C60.997 23.6255 60.3861 21.3731 58.6201 20.3607L57.9275 19.9636L62.1372 12.6209C62.9997 11.1165 62.4793 9.19783 60.975 8.33535L56.4746 5.75522C54.9703 4.89274 53.0516 5.4131 52.1891 6.91746L47.3763 15.312L47.3682 15.326L47.3603 15.34L34.0694 38.5224C33.8392 38.924 33.7006 39.3715 33.6636 39.833L32.8994 49.3599C32.7979 50.6255 34.2152 51.4381 35.2561 50.711L43.0916 45.2382C43.4711 44.9731 43.7873 44.6274 44.0176 44.2258L56.7053 22.0953ZM52.6914 10.9818L54.3208 8.13963C54.5083 7.81259 54.9254 7.69947 55.2525 7.88697L59.7528 10.4671C60.0798 10.6546 60.193 11.0717 60.0055 11.3987L58.376 14.2409L52.6914 10.9818ZM51.4692 13.1135L50.1111 15.4823L55.7958 18.7414L57.1538 16.3726L51.4692 13.1135Z" fill="black"/>
<path fill-rule="evenodd" clip-rule="evenodd" d="M6.96217 2.45724C4.47416 2.45724 2.45724 4.47416 2.45724 6.96217V53.1036C2.45724 55.5916 4.47416 57.6086 6.96217 57.6086H39.7253C42.2133 57.6086 44.2303 55.5916 44.2303 53.1036V39.3158H46.6875V53.1036C46.6875 56.9487 43.5704 60.0658 39.7253 60.0658H6.96217C3.11707 60.0658 0 56.9487 0 53.1036V6.96217C0 3.11707 3.11707 0 6.96217 0H34.8383C35.671 0 36.4696 0.3308 37.0585 0.919627L45.7679 9.62903C46.3567 10.2179 46.6875 11.0165 46.6875 11.8492V20.8865H44.2303V13.9247H36.9952C34.6579 13.9247 32.7633 12.03 32.7633 9.69282V2.45724H6.96217ZM44.0303 11.3666C44.0615 11.3977 44.0893 11.4315 44.1136 11.4675H36.9952C36.015 11.4675 35.2205 10.6729 35.2205 9.69282V2.57427C35.2563 2.59846 35.29 2.62616 35.3209 2.65716L44.0303 11.3666ZM8.05432 11.1942C8.05432 10.5157 8.60439 9.96559 9.28294 9.96559H28.9408C29.6194 9.96559 30.1694 10.5157 30.1694 11.1942C30.1694 11.8728 29.6194 12.4228 28.9408 12.4228H9.28294C8.60439 12.4228 8.05432 11.8728 8.05432 11.1942ZM9.28294 36.9954C8.60439 36.9954 8.05432 37.5454 8.05432 38.224C8.05432 38.9025 8.60439 39.4526 9.28294 39.4526H30.306C30.9845 39.4526 31.5346 38.9025 31.5346 38.224C31.5346 37.5454 30.9845 36.9954 30.306 36.9954H9.28294ZM8.05432 20.2043C8.05432 19.5258 8.60439 18.9757 9.28294 18.9757H33.0362C33.7148 18.9757 34.2648 19.5258 34.2648 20.2043C34.2648 20.8829 33.7148 21.433 33.0362 21.433H9.28294C8.60439 21.433 8.05432 20.8829 8.05432 20.2043ZM9.28294 27.9855C8.60439 27.9855 8.05432 28.5356 8.05432 29.2142C8.05432 29.8927 8.60439 30.4428 9.28294 30.4428H35.7665C36.445 30.4428 36.9951 29.8927 36.9951 29.2142C36.9951 28.5356 36.445 27.9855 35.7665 27.9855H9.28294ZM10.6482 50.7252C10.6482 50.03 10.9157 48.6758 11.4265 47.5015C11.6789 46.9211 11.9572 46.4646 12.2266 46.173C12.3769 46.0103 12.4895 45.9345 12.5641 45.8993C12.575 45.9237 12.5871 45.9531 12.5999 45.9882C12.7394 46.3701 12.816 46.9632 12.8833 47.7698C12.8934 47.8908 12.9033 48.0169 12.9135 48.1466C12.9644 48.7964 13.0224 49.5361 13.1476 50.1652C13.2245 50.5513 13.3393 50.9704 13.5327 51.3512C13.7283 51.7363 14.0419 52.1547 14.5477 52.4146C15.3328 52.8179 16.0953 52.6854 16.6794 52.367C17.1924 52.0875 17.603 51.6507 17.8871 51.3275C18.0376 51.1563 18.1529 51.0182 18.2533 50.8979L18.2533 50.8978L18.3362 50.7988L18.3523 50.832L18.3877 50.9048C18.5257 51.1884 18.738 51.6221 19.0396 51.9796C19.3648 52.3653 19.903 52.789 20.6827 52.789C21.3788 52.789 21.8965 52.4693 22.2479 52.1405C22.5511 51.8568 22.7916 51.5059 22.9483 51.2774L22.9726 51.2419C23.1326 51.009 23.2277 50.8773 23.3051 50.7926L23.3179 50.8009C23.418 50.8679 23.5417 50.9828 23.752 51.2053C23.7857 51.2411 23.8222 51.2805 23.8615 51.3229C24.228 51.7189 24.8342 52.3739 25.6983 52.7068C27.0772 53.2382 28.3307 52.8602 29.14 52.4444C29.5503 52.2335 29.8809 51.9971 30.1089 51.8143C30.224 51.722 30.3161 51.641 30.3823 51.58C30.4025 51.5613 30.4204 51.5445 30.4359 51.5297C30.4459 51.5202 30.4549 51.5115 30.4628 51.5038L30.4884 51.4785L30.4975 51.4694L30.5011 51.4657L30.5026 51.4641L30.5033 51.4634C30.5037 51.463 30.504 51.4627 29.6235 50.6058L30.504 51.4627C30.9772 50.9764 30.9667 50.1986 30.4804 49.7253C29.996 49.2539 29.2223 49.2626 28.7486 49.7432L28.7468 49.745C28.7424 49.7493 28.7326 49.7588 28.7177 49.7725C28.6878 49.8 28.6384 49.8438 28.5721 49.897C28.4372 50.0051 28.2452 50.1415 28.017 50.2588C27.549 50.4992 27.0607 50.5985 26.5818 50.4139C26.2713 50.2943 26.0455 50.0552 25.5842 49.5667L25.5382 49.5179L25.5192 49.4978C25.1307 49.0862 24.3918 48.3034 23.2372 48.3034C22.5411 48.3034 22.0233 48.6231 21.672 48.9519C21.3688 49.2356 21.1283 49.5865 20.9716 49.8151L20.9472 49.8505C20.8673 49.967 20.8035 50.0581 20.7501 50.1307C20.7065 50.05 20.6564 49.9511 20.5973 49.8297L20.5527 49.7373C20.4325 49.4875 20.2579 49.1248 20.0499 48.8332C19.8154 48.5047 19.3138 47.9455 18.4765 47.9455C18.0429 47.9455 17.6942 48.1103 17.46 48.2596C17.2246 48.4095 17.0261 48.5942 16.8714 48.7529C16.6871 48.942 16.4603 49.2112 16.2725 49.4342L16.2724 49.4342C16.184 49.5392 16.1042 49.6339 16.0415 49.7052C15.8831 49.8854 15.7593 50.0097 15.6633 50.0927C15.6286 49.993 15.5922 49.8596 15.5576 49.6856C15.4635 49.2129 15.4191 48.6542 15.3676 48.0057C15.3563 47.8633 15.3447 47.7166 15.332 47.5656C15.2687 46.8061 15.1784 45.8854 14.9079 45.145C14.7684 44.7631 14.5477 44.3311 14.1724 43.9871C13.7666 43.6152 13.2498 43.4114 12.6707 43.4114C11.6996 43.4114 10.9448 43.9395 10.4219 44.5053C9.89543 45.0751 9.48506 45.8043 9.17316 46.5214C8.55518 47.9423 8.19094 49.6306 8.19094 50.7252C8.19094 51.4037 8.74101 51.9538 9.41955 51.9538C10.0981 51.9538 10.6482 51.4037 10.6482 50.7252ZM18.0257 50.2296C18.0257 50.2295 18.0275 50.2314 18.0311 50.2359C18.0275 50.232 18.0257 50.2298 18.0257 50.2296Z" fill="black"/>
<defs>
<linearGradient id="paint3_linear" x1="39.9852" y1="46.3552" x2="29.8842" y2="37.3776" gradientUnits="userSpaceOnUse">
<stop stop-color="#42A4FF"/>
<stop offset="1" stop-color="white"/>
</linearGradient>
</defs>
</svg>
