<svg width="58" height="68" viewBox="0 0 58 68" fill="none" xmlns="http://www.w3.org/2000/svg">
<path fill-rule="evenodd" clip-rule="evenodd" d="M7.4585 11.1199C7.4585 10.4458 8.00493 9.89941 8.67898 9.89941H18.4429C19.1169 9.89941 19.6633 10.4458 19.6633 11.1199C19.6633 11.794 19.1169 12.3404 18.4429 12.3404H8.67898C8.00493 12.3404 7.4585 11.794 7.4585 11.1199Z" fill="black"/>
<path fill-rule="evenodd" clip-rule="evenodd" d="M7.4585 17.3582C7.4585 16.6841 8.00493 16.1377 8.67898 16.1377H17.358C18.032 16.1377 18.5785 16.6841 18.5785 17.3582C18.5785 18.0322 18.032 18.5787 17.358 18.5787H8.67898C8.00493 18.5787 7.4585 18.0322 7.4585 17.3582Z" fill="black"/>
<path fill-rule="evenodd" clip-rule="evenodd" d="M7.4585 23.596C7.4585 22.9219 8.00493 22.3755 8.67898 22.3755H18.4429C19.1169 22.3755 19.6633 22.9219 19.6633 23.596C19.6633 24.27 19.1169 24.8165 18.4429 24.8165H8.67898C8.00493 24.8165 7.4585 24.27 7.4585 23.596Z" fill="black"/>
<path fill-rule="evenodd" clip-rule="evenodd" d="M32.0038 8.9502C32.0099 8.9502 32.0159 8.95024 32.0219 8.95033L32.0038 8.9502ZM32.0219 8.95033C36.5072 8.96012 40.1403 12.5992 40.1403 17.0869C40.1403 21.5806 36.4974 25.2234 32.0037 25.2234C27.51 25.2234 23.8672 21.5806 23.8672 17.0869C23.8672 12.5991 27.5004 8.96001 31.9858 8.95033M33.2243 16.4456V11.5224C35.7834 12.0811 37.6993 14.3602 37.6993 17.0869C37.6993 18.1827 37.3899 19.2062 36.8536 20.0749L33.2243 16.4456ZM35.1572 21.8305C34.2543 22.432 33.17 22.7825 32.0037 22.7825C28.8582 22.7825 26.3082 20.2325 26.3082 17.0869C26.3082 14.3602 28.2242 12.081 30.7834 11.5223V16.7265C30.7834 17.194 30.9691 17.6424 31.2997 17.973L35.1572 21.8305Z" fill="black"/>
<path fill-rule="evenodd" clip-rule="evenodd" d="M13.9678 30.3762C13.9678 29.7022 13.4213 29.1558 12.7473 29.1558C12.0732 29.1558 11.5268 29.7022 11.5268 30.3762V31.2843C9.39052 31.7159 7.72973 33.5861 7.72973 36.0718C7.72973 37.6472 8.58482 38.7639 9.43551 39.5355C9.86078 39.9212 10.3167 40.2501 10.7144 40.5262C10.8318 40.6076 10.941 40.6825 11.0433 40.7526L11.0436 40.7528C11.2239 40.8764 11.3826 40.9852 11.5268 41.0895L11.5268 47.1478C10.6136 46.6402 10.0351 45.586 10.0351 44.4796C10.0351 43.8055 9.48866 43.2591 8.8146 43.2591C8.14055 43.2591 7.59412 43.8055 7.59412 44.4796C7.59412 46.6536 8.99771 49.145 11.5268 49.7608V50.4464C11.5268 51.1205 12.0732 51.6669 12.7473 51.6669C13.4213 51.6669 13.9678 51.1205 13.9678 50.4464V49.784C14.9596 49.5811 15.8319 49.1216 16.4902 48.4113C17.4124 47.4163 17.7918 46.0609 17.6208 44.6082C17.4353 43.0314 16.5104 41.8978 15.6116 41.0946C15.1588 40.69 14.6839 40.3437 14.2682 40.0521C14.1617 39.9774 14.0618 39.908 13.9678 39.8428L13.9678 34.0509C14.0512 34.1067 14.1296 34.1675 14.2023 34.2329C14.6019 34.5926 14.917 35.1677 14.917 36.0718C14.917 36.7459 15.4634 37.2923 16.1375 37.2923C16.8116 37.2923 17.358 36.7459 17.358 36.0718C17.358 34.535 16.7916 33.2793 15.8352 32.4185C15.2895 31.9274 14.6469 31.5914 13.9678 31.3965V30.3762ZM11.5268 33.8331C10.7431 34.1863 10.1707 34.9833 10.1707 36.0718C10.1707 36.6662 10.4683 37.1768 11.0754 37.7274C11.2166 37.8554 11.3676 37.9792 11.5268 38.1014V33.8331ZM13.9678 42.8993L13.9678 47.2465C14.2777 47.1196 14.5198 46.9464 14.6999 46.752C15.066 46.357 15.2969 45.746 15.1966 44.8934C15.1109 44.1649 14.6797 43.5355 13.9851 42.9148C13.9793 42.9096 13.9736 42.9045 13.9678 42.8993Z" fill="black"/>
<rect x="34.3092" y="34.5806" width="22.2399" height="32.0038" rx="3" fill="url(#paint4_linear)"/>
<path fill-rule="evenodd" clip-rule="evenodd" d="M0 6.91608C0 3.09643 3.09643 0 6.91608 0H39.4623C43.282 0 46.3784 3.09643 46.3784 6.91608V33.3598H53.5656C55.8874 33.3598 57.7695 35.2419 57.7695 37.5637V63.6007C57.7695 65.9224 55.8874 67.8046 53.5656 67.8046H37.2925C34.9708 67.8046 33.0886 65.9224 33.0886 63.6007V59.6681H6.91608C3.09643 59.6681 0 56.5717 0 52.752V6.91608ZM33.0886 57.2271V50.0398H24.1384C23.4644 50.0398 22.918 49.4934 22.918 48.8193C22.918 48.1453 23.4644 47.5988 24.1384 47.5988H33.0886V43.8019H24.1384C23.4644 43.8019 22.918 43.2555 22.918 42.5814C22.918 41.9074 23.4644 41.3609 24.1384 41.3609H33.0886V37.6995H25.0878C23.6648 37.6995 22.5112 36.5459 22.5112 35.1229V31.3258C22.5112 29.9028 23.6648 28.7493 25.0878 28.7493H37.8351C39.2581 28.7493 40.4116 29.9028 40.4116 31.3258V33.3598H43.9374V6.91608C43.9374 4.44454 41.9339 2.44097 39.4623 2.44097H6.91608C4.44454 2.44097 2.44097 4.44454 2.44097 6.91608V52.752C2.44097 55.2236 4.44454 57.2271 6.91608 57.2271H33.0886ZM37.9707 33.3598V31.3258C37.9707 31.2509 37.9099 31.1902 37.8351 31.1902H25.0878C25.0129 31.1902 24.9522 31.2509 24.9522 31.3258V35.1229C24.9522 35.1978 25.0129 35.2585 25.0878 35.2585H33.7764C34.5277 34.1149 35.8219 33.3598 37.2925 33.3598H37.9707ZM35.5296 37.5637C35.5296 36.59 36.3189 35.8008 37.2925 35.8008H53.5656C54.5393 35.8008 55.3286 36.59 55.3286 37.5637V63.6007C55.3286 64.5743 54.5393 65.3636 53.5656 65.3636H37.2925C36.3189 65.3636 35.5296 64.5743 35.5296 63.6007V37.5637Z" fill="black"/>
<path d="M38.9199 39.7338C38.9199 39.4343 39.1628 39.1914 39.4624 39.1914H51.6672C51.9668 39.1914 52.2096 39.4343 52.2096 39.7338V43.2597C52.2096 43.5593 51.9668 43.8021 51.6672 43.8021H39.4624C39.1628 43.8021 38.9199 43.5593 38.9199 43.2597V39.7338Z" fill="#D9EDFF"/>
<path fill-rule="evenodd" clip-rule="evenodd" d="M37.6993 39.7336C37.6993 38.76 38.4886 37.9707 39.4623 37.9707H51.6671C52.6407 37.9707 53.43 38.76 53.43 39.7336V43.2595C53.43 44.2331 52.6407 45.0224 51.6671 45.0224H39.4623C38.4886 45.0224 37.6993 44.2331 37.6993 43.2595V39.7336ZM40.1403 40.4117V42.5814H50.9891V40.4117H40.1403Z" fill="black"/>
<path fill-rule="evenodd" clip-rule="evenodd" d="M37.6993 48.6839C37.6993 48.0098 38.2458 47.4634 38.9198 47.4634H41.2252C41.8992 47.4634 42.4457 48.0098 42.4457 48.6839C42.4457 49.3579 41.8992 49.9043 41.2252 49.9043H38.9198C38.2458 49.9043 37.6993 49.3579 37.6993 48.6839Z" fill="black"/>
<path fill-rule="evenodd" clip-rule="evenodd" d="M37.6993 53.2947C37.6993 52.6206 38.2458 52.0742 38.9198 52.0742H41.2252C41.8992 52.0742 42.4457 52.6206 42.4457 53.2947C42.4457 53.9688 41.8992 54.5152 41.2252 54.5152H38.9198C38.2458 54.5152 37.6993 53.9688 37.6993 53.2947Z" fill="black"/>
<path fill-rule="evenodd" clip-rule="evenodd" d="M37.6993 57.9051C37.6993 57.231 38.2458 56.6846 38.9198 56.6846H41.2252C41.8992 56.6846 42.4457 57.231 42.4457 57.9051C42.4457 58.5791 41.8992 59.1255 41.2252 59.1255H38.9198C38.2458 59.1255 37.6993 58.5791 37.6993 57.9051Z" fill="black"/>
<path fill-rule="evenodd" clip-rule="evenodd" d="M43.395 48.6839C43.395 48.0098 43.9414 47.4634 44.6155 47.4634H46.9209C47.5949 47.4634 48.1413 48.0098 48.1413 48.6839C48.1413 49.3579 47.5949 49.9043 46.9209 49.9043H44.6155C43.9414 49.9043 43.395 49.3579 43.395 48.6839Z" fill="black"/>
<path fill-rule="evenodd" clip-rule="evenodd" d="M43.395 53.2947C43.395 52.6206 43.9414 52.0742 44.6155 52.0742H46.9209C47.5949 52.0742 48.1413 52.6206 48.1413 53.2947C48.1413 53.9688 47.5949 54.5152 46.9209 54.5152H44.6155C43.9414 54.5152 43.395 53.9688 43.395 53.2947Z" fill="black"/>
<path fill-rule="evenodd" clip-rule="evenodd" d="M43.395 57.9051C43.395 57.231 43.9414 56.6846 44.6155 56.6846H46.9209C47.5949 56.6846 48.1413 57.231 48.1413 57.9051C48.1413 58.5791 47.5949 59.1255 46.9209 59.1255H44.6155C43.9414 59.1255 43.395 58.5791 43.395 57.9051Z" fill="black"/>
<path fill-rule="evenodd" clip-rule="evenodd" d="M43.395 62.5159C43.395 61.8418 43.9414 61.2954 44.6155 61.2954H46.9209C47.5949 61.2954 48.1413 61.8418 48.1413 62.5159C48.1413 63.1899 47.5949 63.7364 46.9209 63.7364H44.6155C43.9414 63.7364 43.395 63.1899 43.395 62.5159Z" fill="black"/>
<path fill-rule="evenodd" clip-rule="evenodd" d="M49.0906 48.6839C49.0906 48.0098 49.637 47.4634 50.3111 47.4634H52.6164C53.2905 47.4634 53.8369 48.0098 53.8369 48.6839C53.8369 49.3579 53.2905 49.9043 52.6164 49.9043H50.3111C49.637 49.9043 49.0906 49.3579 49.0906 48.6839Z" fill="black"/>
<path fill-rule="evenodd" clip-rule="evenodd" d="M49.0906 53.2947C49.0906 52.6206 49.637 52.0742 50.3111 52.0742H52.6164C53.2905 52.0742 53.8369 52.6206 53.8369 53.2947C53.8369 53.9688 53.2905 54.5152 52.6164 54.5152H50.3111C49.637 54.5152 49.0906 53.9688 49.0906 53.2947Z" fill="black"/>
<path fill-rule="evenodd" clip-rule="evenodd" d="M49.0906 57.9051C49.0906 57.231 49.637 56.6846 50.3111 56.6846H52.6164C53.2905 56.6846 53.8369 57.231 53.8369 57.9051C53.8369 58.5791 53.2905 59.1255 52.6164 59.1255H50.3111C49.637 59.1255 49.0906 58.5791 49.0906 57.9051Z" fill="black"/>
<defs>
<linearGradient id="paint4_linear" x1="37.2967" y1="38.6408" x2="58.5068" y2="55.1616" gradientUnits="userSpaceOnUse">
<stop stop-color="#42A4FF"/>
<stop offset="1" stop-color="white"/>
</linearGradient>
</defs>
</svg>
