<svg width="60" height="67" viewBox="0 0 60 67" fill="none" xmlns="http://www.w3.org/2000/svg">
<path d="M14.4047 16.5474H6.92853C5.27167 16.5474 3.92853 17.8905 3.92853 19.5474V50.9283C3.92853 52.5852 5.27168 53.9283 6.92853 53.9283H52.3571C54.014 53.9283 55.3571 52.5852 55.3571 50.9283V19.5474C55.3571 17.8905 54.014 16.5474 52.3571 16.5474H45.119" stroke="url(#paint6_linear)" stroke-width="5"/>
<path fill-rule="evenodd" clip-rule="evenodd" d="M15.2381 6.07143C15.2381 3.90174 16.997 2.14286 19.1667 2.14286H35V7.73818C35 9.77637 36.6523 11.4287 38.6905 11.4287H44.0477V39.6429C44.0477 41.8126 42.2888 43.5714 40.1191 43.5714H19.1667C16.997 43.5714 15.2381 41.8126 15.2381 39.6429V6.07143ZM43.9294 9.2858C43.9127 9.26335 43.8943 9.242 43.8743 9.22192L37.1429 2.46033V7.73818C37.1429 8.5929 37.8358 9.2858 38.6905 9.2858H43.9294ZM19.1667 0C15.8135 0 13.0953 2.71827 13.0953 6.07143V12.8572H5.83334C2.61167 12.8572 0 15.4689 0 18.6906V52.0239C0 55.2456 2.61167 57.8572 5.83334 57.8572H23.1274L21.2094 64.7619H17.857C17.2653 64.7619 16.7856 65.2416 16.7856 65.8334C16.7856 66.4251 17.2653 66.9048 17.857 66.9048H41.4285C42.0202 66.9048 42.4999 66.4251 42.4999 65.8334C42.4999 65.2416 42.0202 64.7619 41.4285 64.7619H38.0763L36.1583 57.8572H53.2143C56.436 57.8572 59.0476 55.2456 59.0476 52.0239V18.6906C59.0476 15.4689 56.436 12.8572 53.2143 12.8572H46.1905V9.64187C46.1905 8.91781 45.9037 8.22322 45.3929 7.71008L38.5199 0.806306C38.0061 0.290162 37.3078 0 36.5795 0H19.1667ZM5.83334 15.0001H13.0953V18.0952H7.26189C6.14417 18.0952 5.23808 19.0013 5.23808 20.119V50.5952C5.23808 51.7129 6.14417 52.619 7.26189 52.619H51.7857C52.9034 52.619 53.8095 51.7129 53.8095 50.5952V20.119C53.8095 19.0013 52.9034 18.0952 51.7857 18.0952H46.1905V15.0001H53.2143C55.2525 15.0001 56.9048 16.6524 56.9048 18.6906V52.0239C56.9048 54.0621 55.2525 55.7144 53.2143 55.7144H5.83334C3.79514 55.7144 2.14286 54.0621 2.14286 52.0239V18.6906C2.14286 16.6524 3.79514 15.0001 5.83334 15.0001ZM46.1905 20.238V39.6429C46.1905 42.996 43.4723 45.7143 40.1191 45.7143H19.1667C15.8135 45.7143 13.0953 42.996 13.0953 39.6429V20.238H7.38094V50.4761H51.6667V20.238H46.1905ZM30.3597 15.035C29.5693 14.2446 28.2879 14.2446 27.4976 15.035L22.7835 19.749C22.3651 20.1675 22.3651 20.8458 22.7835 21.2643C23.2019 21.6827 23.8803 21.6827 24.2987 21.2643L27.9763 17.5867V29.5238C27.9763 30.1156 28.456 30.5953 29.0477 30.5953C29.6394 30.5953 30.1191 30.1156 30.1191 29.5238V17.8249L33.5585 21.2643C33.9769 21.6827 34.6553 21.6827 35.0737 21.2643C35.4921 20.8458 35.4921 20.1675 35.0737 19.749L30.3597 15.035ZM22.0239 33.8095C22.0239 33.2177 22.5036 32.738 23.0953 32.738H35.4763C36.068 32.738 36.5477 33.2177 36.5477 33.8095C36.5477 34.4012 36.068 34.8809 35.4763 34.8809L23.0953 34.8809C22.5036 34.8809 22.0239 34.4012 22.0239 33.8095ZM25.2192 58.3333L23.4334 64.7619H35.8523L34.0666 58.3333H25.2192Z" fill="black"/>
<defs>
<linearGradient id="paint6_linear" x1="10.8368" y1="21.2897" x2="34.1651" y2="57.2642" gradientUnits="userSpaceOnUse">
<stop stop-color="#42A4FF"/>
<stop offset="1" stop-color="white"/>
</linearGradient>
</defs>
</svg>
