<svg width="66" height="70" viewBox="0 0 66 70" fill="none" xmlns="http://www.w3.org/2000/svg">
<path fill-rule="evenodd" clip-rule="evenodd" d="M49.2974 37.5889C47.7252 37.5889 46.4422 38.8265 46.3694 40.3807C44.9603 40.723 43.6419 41.2974 42.4569 42.0609L42.3742 41.9781C41.2749 40.8789 39.4926 40.8789 38.3933 41.9781C37.2941 43.0774 37.2941 44.8597 38.3933 45.959L38.5019 46.0676C37.7408 47.2832 37.1772 48.6351 36.8558 50.0783H36.6806C35.1321 50.0783 33.8768 51.3336 33.8768 52.882C33.8768 54.4305 35.1321 55.6858 36.6806 55.6858H36.8532C37.1734 57.1306 37.7365 58.4842 38.4975 59.7013L38.3934 59.8054C37.2942 60.9046 37.2942 62.6869 38.3934 63.7862C39.4927 64.8855 41.275 64.8855 42.3743 63.7862L42.4499 63.7106C43.6358 64.4758 44.9555 65.0514 46.3662 65.3945V65.4989C46.3662 67.1177 47.6785 68.4301 49.2974 68.4301C50.9162 68.4301 52.2286 67.1177 52.2286 65.4989V65.4512C53.6718 65.1298 55.0238 64.5661 56.2395 63.805C57.3402 64.8854 59.1084 64.8792 60.2014 63.7862C61.2857 62.7019 61.3004 60.953 60.2457 59.8506C61.0548 58.595 61.6516 57.1895 61.9849 55.6849C63.5008 55.6474 64.718 54.4069 64.718 52.8821C64.718 51.3563 63.4993 50.1152 61.9823 50.0791C61.6478 48.5763 61.0505 47.1725 60.2412 45.9184C61.3006 44.8163 61.2873 43.064 60.2015 41.9782C59.1061 40.8828 57.3325 40.8789 56.2323 41.9665C55.0167 41.2065 53.6649 40.6438 52.2221 40.3234C52.1209 38.7962 50.8501 37.5889 49.2974 37.5889ZM49.4189 59.2021C52.906 59.2021 55.7328 56.3753 55.7328 52.8882C55.7328 49.4011 52.906 46.5742 49.4189 46.5742C45.9318 46.5742 43.1049 49.4011 43.1049 52.8882C43.1049 56.3753 45.9318 59.2021 49.4189 59.2021Z" fill="url(#paint5_linear)"/>
<path d="M45.2734 38.5604L44.893 39.6748L44.8921 39.6751L45.2734 38.5604Z" fill="black"/>
<path d="M43.9395 42.4594C43.9407 42.4588 43.9384 42.46 43.9395 42.4594V42.4594Z" fill="black"/>
<path fill-rule="evenodd" clip-rule="evenodd" d="M49.4188 45.4815C45.3281 45.4815 42.012 48.7976 42.012 52.8882C42.012 56.9788 45.3281 60.2949 49.4188 60.2949C53.5094 60.2949 56.8255 56.9788 56.8255 52.8882C56.8255 48.7976 53.5094 45.4815 49.4188 45.4815ZM44.1976 52.8882C44.1976 50.0046 46.5352 47.6671 49.4188 47.6671C52.3023 47.6671 54.6399 50.0046 54.6399 52.8882C54.6399 55.7718 52.3023 58.1094 49.4188 58.1094C46.5352 58.1094 44.1976 55.7718 44.1976 52.8882Z" fill="black"/>
<path d="M25.9835 9.29766C26.1397 8.71469 26.7389 8.36873 27.3219 8.52494L39.37 11.7532C39.953 11.9094 40.2989 12.5086 40.1427 13.0916C39.9865 13.6746 39.3873 14.0205 38.8043 13.8643L26.7562 10.6361C26.1733 10.4799 25.8273 9.88064 25.9835 9.29766Z" fill="black"/>
<path d="M25.3804 15.3504C24.7974 15.1942 24.1982 15.5402 24.042 16.1231C23.8857 16.7061 24.2317 17.3053 24.8147 17.4615L45.316 22.9549C45.899 23.1111 46.4982 22.7651 46.6544 22.1821C46.8106 21.5992 46.4647 21 45.8817 20.8437L25.3804 15.3504Z" fill="black"/>
<path d="M22.1009 22.7048C22.258 22.122 22.8578 21.777 23.4405 21.9341L37.0032 25.5903C37.5859 25.7474 37.931 26.3471 37.7739 26.9299C37.6168 27.5126 37.017 27.8577 36.4343 27.7006L22.8716 24.0444C22.2889 23.8873 21.9438 23.2875 22.1009 22.7048Z" fill="black"/>
<path fill-rule="evenodd" clip-rule="evenodd" d="M27.5819 0.212542C24.2784 -0.672628 20.8828 1.28781 19.9976 4.59132L14.1817 26.2968H3.2784C1.46779 26.2968 0 27.7645 0 29.5752V54.8309C0 57.9827 2.55504 60.5378 5.70684 60.5378H36.1398C35.516 61.3473 35.5751 62.5135 36.317 63.2554L38.9241 65.8625C39.7302 66.6686 41.0372 66.6686 41.8433 65.8625L42.6189 65.0869C43.4544 65.5535 44.343 65.9369 45.2734 66.2258V67.4589C45.2734 68.5989 46.1975 69.523 47.3375 69.523H51.2572C52.3972 69.523 53.3213 68.5989 53.3213 67.4589V66.2988C54.2817 66.0198 55.1993 65.6405 56.0619 65.1731L56.7513 65.8625C57.5574 66.6686 58.8643 66.6686 59.6705 65.8625L62.2776 63.2554C63.0837 62.4493 63.0837 61.1424 62.2776 60.3362L61.6217 59.6804C62.1288 58.7711 62.5374 57.7991 62.8329 56.7787H63.7466C64.8866 56.7787 65.8108 55.8546 65.8108 54.7146V51.0498C65.8108 49.9098 64.8866 48.9856 63.7466 48.9856H62.8294C62.5334 47.9668 62.1245 46.9962 61.6174 46.0884L62.2776 45.4282C63.0837 44.6221 63.0837 43.3151 62.2776 42.509L59.6705 39.9019C59.2239 39.4553 58.6235 39.2561 58.0397 39.3044V32.7321C58.0397 30.9215 56.572 29.4537 54.7614 29.4537H52.3066L55.4449 17.6906C55.6356 16.9759 55.535 16.2148 55.1651 15.5743L50.2993 7.14648C49.929 6.50504 49.319 6.03699 48.6036 5.84529L27.5819 0.212542ZM55.8542 40.493V32.7321C55.8542 32.1286 55.3649 31.6393 54.7614 31.6393H42.5503C42.2978 31.6393 42.053 31.7268 41.8577 31.8869L37.1771 35.7226C36.591 36.2029 35.8568 36.4653 35.0991 36.4653H9.3495C8.74596 36.4653 8.2567 36.9546 8.2567 37.5581V57.2594C8.2567 57.8629 8.74596 58.3522 9.3495 58.3522H36.5651C36.3482 57.8426 36.1607 57.3174 36.0047 56.7787H34.8481C33.7081 56.7787 32.784 55.8546 32.784 54.7146V51.0498C32.784 49.9098 33.7081 48.9856 34.8481 48.9856H36.0082C36.2872 48.0252 36.6665 47.1077 37.1339 46.2451L36.317 45.4282C35.5109 44.6221 35.5109 43.3152 36.317 42.509L38.9241 39.902C39.7302 39.0958 41.0372 39.0958 41.8433 39.902L42.6266 40.6853C43.3449 40.2847 44.1025 39.9455 44.8921 39.6751L43.9395 42.4594C43.6345 42.6201 43.3373 42.7937 43.0488 42.9796L42.3076 43.4572L40.3837 41.5333L37.9483 43.9686L39.8898 45.9101L39.4281 46.6475C38.7316 47.76 38.2162 48.9964 37.9223 50.3159L37.7319 51.1712H34.9696V54.5931H37.7301L37.9199 55.4494C38.0994 56.2595 38.3625 57.0384 38.6997 57.7765C38.9104 58.2357 39.158 58.6968 39.4239 59.1222L39.8847 59.8594L37.9483 61.7958L40.3837 64.2312L42.3008 62.3141L43.0421 62.7925C44.1274 63.4928 45.3346 64.0192 46.6244 64.3329L47.459 64.5359V67.3374H51.1357V64.5751L51.991 64.3847C53.3106 64.0908 54.547 63.5754 55.6595 62.8789L56.3969 62.4172L58.2109 64.2312L60.6462 61.7958L58.8498 59.9994L59.3273 59.2582C60.0675 58.1095 60.6129 56.8245 60.9177 55.4494L61.1075 54.5931H63.6252V51.1712H61.1057L60.9152 50.316C60.6094 48.9424 60.0634 47.6589 59.3231 46.5116L58.8447 45.7702L60.6463 43.9686L58.2109 41.5332L56.39 43.3542L55.6527 42.8933C54.5421 42.1989 53.308 41.685 51.991 41.3917L51.1357 41.2013V38.6818H47.459V41.2405L46.6244 41.4435C45.6813 41.6729 44.7789 42.0178 43.9395 42.4594L44.893 39.6748C45.019 39.6316 45.1458 39.5902 45.2734 39.5506V38.5604C45.2734 37.4204 46.1975 36.4962 47.3375 36.4962H51.2572C52.3972 36.4962 53.3213 37.4204 53.3213 38.5604V39.4776C54.205 39.7344 55.0525 40.076 55.8542 40.493ZM6.0711 57.2594C6.0711 57.6426 6.13684 58.0104 6.25765 58.3522H5.70684C3.76211 58.3522 2.1856 56.7757 2.1856 54.8309V29.5752C2.1856 28.9716 2.67486 28.4824 3.2784 28.4824H13.5961L12.0427 34.2797H9.3495C7.53889 34.2797 6.0711 35.7475 6.0711 37.5581V57.2594ZM35.0991 34.2797H14.3054L22.1088 5.15699C22.6815 3.01943 24.8787 1.75091 27.0162 2.32367L46.3945 7.51605L44.9904 12.7562C44.4523 14.7642 45.644 16.8282 47.652 17.3662L52.8946 18.771L50.0446 29.4537H42.5503C41.7927 29.4537 41.0584 29.7162 40.4723 30.1964L35.7917 34.0321C35.5964 34.1922 35.3516 34.2797 35.0991 34.2797ZM53.233 16.5989L48.4454 8.30649L47.1015 13.3218C46.8759 14.1639 47.3756 15.0294 48.2177 15.2551L53.233 16.5989Z" fill="black"/>
<defs>
<linearGradient id="paint5_linear" x1="38.0197" y1="41.5016" x2="58.9641" y2="64.9777" gradientUnits="userSpaceOnUse">
<stop stop-color="#42A4FF"/>
<stop offset="1" stop-color="white"/>
</linearGradient>
</defs>
</svg>
