<svg width="65" height="67" viewBox="0 0 65 67" fill="none" xmlns="http://www.w3.org/2000/svg">
<path fill-rule="evenodd" clip-rule="evenodd" d="M18.5087 10.5765C18.5087 9.9507 19.016 9.44336 19.6419 9.44336H34.2474C34.8732 9.44336 35.3806 9.9507 35.3806 10.5765C35.3806 11.2024 34.8732 11.7097 34.2474 11.7097H19.6419C19.016 11.7097 18.5087 11.2024 18.5087 10.5765Z" fill="black"/>
<path fill-rule="evenodd" clip-rule="evenodd" d="M34.3733 40.7948C34.3733 40.169 34.8806 39.6616 35.5065 39.6616H44.572C45.1978 39.6616 45.7052 40.169 45.7052 40.7948C45.7052 41.4207 45.1978 41.928 44.572 41.928H35.5065C34.8806 41.928 34.3733 41.4207 34.3733 40.7948Z" fill="black"/>
<path fill-rule="evenodd" clip-rule="evenodd" d="M18.5087 33.2404C18.5087 32.6145 19.016 32.1072 19.6419 32.1072H44.572C45.1978 32.1072 45.7052 32.6145 45.7052 33.2404C45.7052 33.8662 45.1978 34.3736 44.572 34.3736H19.6419C19.016 34.3736 18.5087 33.8662 18.5087 33.2404Z" fill="black"/>
<path fill-rule="evenodd" clip-rule="evenodd" d="M18.5087 18.131C18.5087 17.5051 19.016 16.9978 19.6419 16.9978H44.3202C44.946 16.9978 45.4534 17.5051 45.4534 18.131C45.4534 18.7568 44.946 19.2642 44.3202 19.2642H19.6419C19.016 19.2642 18.5087 18.7568 18.5087 18.131Z" fill="black"/>
<path fill-rule="evenodd" clip-rule="evenodd" d="M18.5087 25.6857C18.5087 25.0598 19.016 24.5525 19.6419 24.5525H41.5502C42.176 24.5525 42.6833 25.0598 42.6833 25.6857C42.6833 26.3115 42.176 26.8189 41.5502 26.8189H19.6419C19.016 26.8189 18.5087 26.3115 18.5087 25.6857Z" fill="black"/>
<path d="M1.13318 41.8021C1.13318 41.663 1.24592 41.5503 1.385 41.5503H5.41411C6.6658 41.5503 7.68049 42.565 7.68049 43.8167V63.2068C7.68049 64.4585 6.6658 65.4732 5.41411 65.4732H1.385C1.24592 65.4732 1.13318 65.3604 1.13318 65.2213V41.8021Z" fill="url(#paint7_linear)"/>
<path fill-rule="evenodd" clip-rule="evenodd" d="M10.5764 6.4214C10.5764 2.87496 13.4514 0 16.9978 0H42.7088C43.4768 0 44.2134 0.305105 44.7565 0.848197L52.7894 8.88111C53.3325 9.4242 53.6376 10.1608 53.6376 10.9288V45.578L56.74 42.5108L56.7408 42.51L56.7426 42.5083L56.7467 42.5042L56.7574 42.4938C56.7597 42.4915 56.7622 42.4891 56.7649 42.4865C56.7716 42.48 56.7795 42.4725 56.7885 42.464C56.8135 42.4405 56.8472 42.4096 56.8889 42.3729C56.9721 42.2999 57.0887 42.2027 57.2347 42.0948C57.5228 41.8817 57.9448 41.6118 58.4647 41.4079C59.5405 40.986 61.0728 40.8504 62.542 42.0604C63.9644 43.2319 64.2571 44.728 64.1965 45.8602C64.1667 46.4163 64.0534 46.8954 63.9494 47.234C63.897 47.4048 63.8455 47.5443 63.8052 47.6451C63.785 47.6957 63.7675 47.7368 63.754 47.7677C63.7472 47.7832 63.7413 47.7961 63.7366 47.8063L63.7304 47.8198L63.728 47.825L63.7265 47.8282C63.7262 47.8287 63.726 47.8291 62.7029 47.3419L63.726 47.8291L63.6587 47.9704L55.1509 57.6936C51.8754 61.437 47.1434 63.5843 42.1693 63.5843L17.5013 63.5843C16.8755 63.5843 16.3681 63.0769 16.3681 62.4511C16.3681 61.8252 16.8755 61.3179 17.5013 61.3179L42.1693 61.3179C46.4899 61.3179 50.6002 59.4528 53.4453 56.2012L61.7262 46.7373C61.743 46.6917 61.7626 46.6349 61.783 46.5685C61.8482 46.3562 61.9159 46.0642 61.9333 45.739C61.9671 45.1084 61.8192 44.4012 61.1011 43.8098C60.4298 43.2569 59.8216 43.3102 59.2921 43.5178C59.0093 43.6287 58.7624 43.7838 58.5823 43.917C58.4941 43.9822 58.4269 44.0385 58.3847 44.0756C58.3637 44.094 58.3492 44.1074 58.3418 44.1144L58.3373 44.1187L58.3363 44.1197L48.6552 53.6907C47.5474 54.7859 46.0525 55.4001 44.4947 55.4001H39.1502C38.3391 56.3454 37.1849 56.5444 36.4084 56.5585C35.9715 56.5665 35.5826 56.5191 35.306 56.4714C35.166 56.4473 35.0505 56.4223 34.9668 56.4025L34.9315 56.394C34.9052 56.3875 34.8829 56.3818 34.8649 56.377L34.8328 56.3684L34.8218 56.3653L34.8175 56.3641L34.8149 56.3633C34.8145 56.3632 34.8142 56.3631 35.1287 55.2744L34.8142 56.3631L34.7207 56.3361L25.8023 52.0008H22.9154C22.2896 52.0008 21.7822 51.4934 21.7822 50.8676C21.7822 50.2417 22.2896 49.7344 22.9154 49.7344H26.324L35.5183 54.2038C35.5615 54.2136 35.6202 54.2258 35.6911 54.238C35.8708 54.269 36.1116 54.2972 36.3672 54.2925C36.9181 54.2825 37.2853 54.1332 37.4802 53.8603C37.7591 53.4698 37.8108 53.0147 37.718 52.57C37.6714 52.3468 37.5914 52.147 37.5045 51.9934C37.4268 51.8559 37.3659 51.7942 37.3534 51.7815C37.3507 51.7788 37.3503 51.7783 37.3524 51.7799C35.8305 50.6585 30.3516 46.7105 26.5855 44C24.5472 42.533 21.9364 42.1216 19.5429 42.8875L8.81368 46.3209V63.2067C8.81368 65.0843 7.29165 66.6063 5.41412 66.6063H1.38501C0.62009 66.6063 0 65.9862 0 65.2213V41.8021C0 41.0372 0.620091 40.4171 1.38501 40.4171H5.41412C7.29165 40.4171 8.81368 41.9391 8.81368 43.8166V43.9413L10.5764 43.3772V6.4214ZM40.0225 53.1338H44.4947C45.4559 53.1338 46.3783 52.7548 47.0618 52.079L51.3712 47.8186V12.8429H44.6979C42.5422 12.8429 40.7947 11.0954 40.7947 8.93972V2.26638H16.9978C14.7031 2.26638 12.8428 4.12664 12.8428 6.4214V42.652L18.8522 40.729C21.9282 39.7446 25.2867 40.2729 27.9094 42.1605C31.6684 44.8659 37.1617 48.8242 38.6968 49.9553C39.3036 50.4024 39.7578 51.2504 39.9365 52.1068C40.0032 52.4264 40.0375 52.7736 40.0225 53.1338ZM51.1868 10.4837C51.2155 10.5123 51.2411 10.5435 51.2634 10.5766H44.6979C43.7939 10.5766 43.0611 9.84372 43.0611 8.93972V2.3742C43.0942 2.39654 43.1253 2.42213 43.1539 2.45077L51.1868 10.4837ZM2.26638 64.3399V42.6835H5.41412C6.03996 42.6835 6.54731 43.1908 6.54731 43.8166V63.2067C6.54731 63.8326 6.03996 64.3399 5.41412 64.3399H2.26638ZM12.2131 61.3179C11.5872 61.3179 11.0799 61.8252 11.0799 62.4511C11.0799 63.0769 11.5872 63.5843 12.2131 63.5843H13.2204C13.8462 63.5843 14.3536 63.0769 14.3536 62.4511C14.3536 61.8252 13.8462 61.3179 13.2204 61.3179H12.2131Z" fill="black"/>
<defs>
<linearGradient id="paint7_linear" x1="2.01267" y1="44.5853" x2="11.1823" y2="47.3982" gradientUnits="userSpaceOnUse">
<stop stop-color="#42A4FF"/>
<stop offset="1" stop-color="white"/>
</linearGradient>
</defs>
</svg>
