<svg width="53" height="63" viewBox="0 0 53 63" fill="none" xmlns="http://www.w3.org/2000/svg">
<path fill-rule="evenodd" clip-rule="evenodd" d="M5.31511 8.23418C3.30664 8.23418 1.67846 9.86237 1.67846 11.8708V52.321C1.67846 54.3295 3.30665 55.9577 5.31512 55.9577H32.213V57.6361H5.31512C2.37966 57.6361 0 55.2565 0 52.321V11.8708C0 8.93539 2.37966 6.55573 5.31511 6.55573H29.8764C30.3958 6.55573 30.8939 6.76203 31.2611 7.12927L39.0344 14.9026C39.4016 15.2698 39.6079 15.7679 39.6079 16.2872V40.8759H37.9295V16.2872C37.9295 16.213 37.9 16.1419 37.8475 16.0894L30.0742 8.31612C30.0218 8.26365 29.9506 8.23418 29.8764 8.23418H5.31511Z" fill="black"/>
<path fill-rule="evenodd" clip-rule="evenodd" d="M13.0416 1.67846C11.0331 1.67846 9.4049 3.30664 9.4049 5.31511V7.04374H7.72644V5.31511C7.72644 2.37966 10.1061 0 13.0416 0H36.6663C37.1857 0 37.6838 0.20631 38.051 0.573543L46.7608 9.28337C47.1281 9.6506 47.3344 10.1487 47.3344 10.668V42.2807H45.6559V10.668C45.6559 10.5938 45.6264 10.5227 45.574 10.4702L36.8642 1.76039C36.8117 1.70793 36.7405 1.67846 36.6663 1.67846H13.0416Z" fill="black"/>
<path fill-rule="evenodd" clip-rule="evenodd" d="M6.6925 41.2073C6.6925 40.7438 7.06824 40.3681 7.53173 40.3681H25.9887C26.4522 40.3681 26.8279 40.7438 26.8279 41.2073C26.8279 41.6708 26.4522 42.0466 25.9887 42.0466H7.53173C7.06824 42.0466 6.6925 41.6708 6.6925 41.2073Z" fill="black"/>
<path fill-rule="evenodd" clip-rule="evenodd" d="M6.6925 47.5289C6.6925 47.0654 7.06824 46.6897 7.53173 46.6897H22.2426C22.706 46.6897 23.0818 47.0654 23.0818 47.5289C23.0818 47.9924 22.706 48.3682 22.2426 48.3682H7.53173C7.06824 48.3682 6.6925 47.9924 6.6925 47.5289Z" fill="black"/>
<path fill-rule="evenodd" clip-rule="evenodd" d="M25.189 28.5641C25.189 28.1006 25.5647 27.7249 26.0282 27.7249H31.6078C32.0713 27.7249 32.4471 28.1006 32.4471 28.5641C32.4471 29.0276 32.0713 29.4034 31.6078 29.4034H26.0282C25.5647 29.4034 25.189 29.0276 25.189 28.5641Z" fill="black"/>
<path fill-rule="evenodd" clip-rule="evenodd" d="M25.189 22.945C25.189 22.4815 25.5647 22.1058 26.0282 22.1058H31.6078C32.0713 22.1058 32.4471 22.4815 32.4471 22.945C32.4471 23.4085 32.0713 23.7842 31.6078 23.7842H26.0282C25.5647 23.7842 25.189 23.4085 25.189 22.945Z" fill="black"/>
<path fill-rule="evenodd" clip-rule="evenodd" d="M6.6925 34.8857C6.6925 34.4222 7.06824 34.0465 7.53173 34.0465H31.6079C32.0713 34.0465 32.4471 34.4222 32.4471 34.8857C32.4471 35.3492 32.0713 35.725 31.6079 35.725H7.53173C7.06824 35.725 6.6925 35.3492 6.6925 34.8857Z" fill="black"/>
<path d="M51.8802 51.4119C51.8802 57.2307 47.163 61.9478 41.3442 61.9478C35.5253 61.9478 30.8082 57.2307 30.8082 51.4119C30.8082 45.593 35.5253 40.8759 41.3442 40.8759C47.163 40.8759 51.8802 45.593 51.8802 51.4119Z" fill="url(#paint8_linear)"/>
<path fill-rule="evenodd" clip-rule="evenodd" d="M41.3442 41.7151C35.9888 41.7151 31.6475 46.0565 31.6475 51.4119C31.6475 56.7672 35.9888 61.1086 41.3442 61.1086C46.6995 61.1086 51.0409 56.7672 51.0409 51.4119C51.0409 46.0565 46.6995 41.7151 41.3442 41.7151ZM29.969 51.4119C29.969 45.1295 35.0618 40.0367 41.3442 40.0367C47.6265 40.0367 52.7194 45.1295 52.7194 51.4119C52.7194 57.6942 47.6265 62.7871 41.3442 62.7871C35.0618 62.7871 29.969 57.6942 29.969 51.4119Z" fill="black"/>
<path fill-rule="evenodd" clip-rule="evenodd" d="M46.9714 47.3065C47.2992 47.6342 47.2992 48.1656 46.9714 48.4933L40.9728 54.4919C40.2081 55.2567 38.9682 55.2567 38.2035 54.4919L35.5998 51.8882C35.2721 51.5605 35.2721 51.0291 35.5998 50.7014C35.9275 50.3737 36.4589 50.3737 36.7867 50.7014L39.3903 53.3051C39.4996 53.4143 39.6767 53.4143 39.786 53.3051L45.7846 47.3065C46.1123 46.9787 46.6437 46.9787 46.9714 47.3065Z" fill="black"/>
<path fill-rule="evenodd" clip-rule="evenodd" d="M30.7717 7.55304V13.7074C30.7717 14.7889 31.6484 15.6656 32.7299 15.6656H38.8843V17.344H32.7299C30.7214 17.344 29.0933 15.7158 29.0933 13.7074V7.55304H30.7717Z" fill="black"/>
<path fill-rule="evenodd" clip-rule="evenodd" d="M37.5007 0.839233V7.87537C37.5007 8.95686 38.3774 9.83357 39.4589 9.83357H46.4951V11.512H39.4589C37.4505 11.512 35.8223 9.88384 35.8223 7.87537V0.839233H37.5007Z" fill="black"/>
<path fill-rule="evenodd" clip-rule="evenodd" d="M14.1847 14.5557C12.45 14.5557 11.0437 15.962 11.0437 17.6967C11.0437 19.4315 12.45 20.8378 14.1847 20.8378C15.9195 20.8378 17.3257 19.4315 17.3257 17.6967C17.3257 15.962 15.9195 14.5557 14.1847 14.5557ZM9.36523 17.6967C9.36523 15.035 11.523 12.8773 14.1847 12.8773C16.8464 12.8773 19.0042 15.035 19.0042 17.6967C19.0042 20.3585 16.8464 22.5162 14.1847 22.5162C11.523 22.5162 9.36523 20.3585 9.36523 17.6967Z" fill="black"/>
<path fill-rule="evenodd" clip-rule="evenodd" d="M14.419 22.7504C11.2328 22.7504 8.7025 25.2334 8.7025 28.2327C8.7025 28.6962 8.32677 29.0719 7.86328 29.0719C7.39978 29.0719 7.02405 28.6962 7.02405 28.2327C7.02405 24.2494 10.3639 21.0719 14.419 21.0719C18.4741 21.0719 21.8139 24.2494 21.8139 28.2327C21.8139 28.6962 21.4382 29.0719 20.9747 29.0719C20.5112 29.0719 20.1355 28.6962 20.1355 28.2327C20.1355 25.2334 17.6051 22.7504 14.419 22.7504Z" fill="black"/>
<defs>
<linearGradient id="paint8_linear" x1="37.2469" y1="42.866" x2="47.0804" y2="59.1383" gradientUnits="userSpaceOnUse">
<stop stop-color="#42A4FF"/>
<stop offset="1" stop-color="#42A4FF" stop-opacity="0"/>
</linearGradient>
</defs>
</svg>
