<svg width="63" height="58" viewBox="0 0 63 58" fill="none" xmlns="http://www.w3.org/2000/svg">
<path fill-rule="evenodd" clip-rule="evenodd" d="M2.31438 7.58626C2.31438 4.67481 4.67457 2.31462 7.58601 2.31462C10.4975 2.31462 12.8576 4.67481 12.8576 7.58626C12.8576 10.4977 10.4975 12.8579 7.58601 12.8579C4.67457 12.8579 2.31438 10.4977 2.31438 7.58626ZM7.58601 0.000243809C3.39637 0.000243992 1.4846e-07 3.39662 3.31595e-07 7.58626C5.1473e-07 11.7759 3.39637 15.1723 7.58601 15.1723C11.7757 15.1723 15.172 11.7759 15.172 7.58626C15.172 3.39662 11.7757 0.000243626 7.58601 0.000243809Z" fill="black"/>
<path fill-rule="evenodd" clip-rule="evenodd" d="M39.3445 7.58601C39.3445 4.67457 41.7047 2.31438 44.6162 2.31438C47.5276 2.31438 49.8878 4.67457 49.8878 7.58601C49.8878 10.4975 47.5276 12.8576 44.6162 12.8576C41.7047 12.8576 39.3445 10.4975 39.3445 7.58601ZM44.6162 -3.31595e-07C40.4265 -1.4846e-07 37.0302 3.39637 37.0302 7.58601C37.0302 11.7757 40.4265 15.172 44.6162 15.172C48.8058 15.172 52.2022 11.7757 52.2022 7.58601C52.2022 3.39637 48.8058 -5.1473e-07 44.6162 -3.31595e-07Z" fill="black"/>
<path d="M23.2724 35.3584C26.3968 35.3584 28.9297 32.8255 28.9297 29.7011C28.9297 26.5766 26.3968 24.0437 23.2724 24.0437C20.1479 24.0437 17.615 26.5766 17.615 29.7011C17.615 32.8255 20.1479 35.3584 23.2724 35.3584Z" fill="url(#paint9_linear)"/>
<path fill-rule="evenodd" clip-rule="evenodd" d="M18.0008 29.7012C18.0008 26.7898 20.361 24.4296 23.2724 24.4296C26.1839 24.4296 28.544 26.7898 28.544 29.7012C28.544 32.6127 26.1839 34.9729 23.2724 34.9729C20.361 34.9729 18.0008 32.6127 18.0008 29.7012ZM23.2724 22.1152C19.0828 22.1152 15.6864 25.5116 15.6864 29.7012C15.6864 33.8909 19.0828 37.2873 23.2724 37.2873C27.4621 37.2873 30.8584 33.8909 30.8584 29.7012C30.8584 25.5116 27.4621 22.1152 23.2724 22.1152Z" fill="black"/>
<path d="M52.7164 55.9309C57.1901 55.9309 60.8167 52.3042 60.8167 47.8305C60.8167 43.3569 57.1901 39.7302 52.7164 39.7302C48.2427 39.7302 44.6161 43.3569 44.6161 47.8305C44.6161 52.3042 48.2427 55.9309 52.7164 55.9309Z" fill="url(#paint10_linear)"/>
<path fill-rule="evenodd" clip-rule="evenodd" d="M45.259 47.8304C45.259 43.7118 48.5978 40.373 52.7164 40.373C56.835 40.373 60.1738 43.7118 60.1738 47.8304C60.1738 51.949 56.835 55.2878 52.7164 55.2878C48.5978 55.2878 45.259 51.949 45.259 47.8304ZM52.7164 38.0586C47.3196 38.0586 42.9446 42.4336 42.9446 47.8304C42.9446 53.2272 47.3196 57.6022 52.7164 57.6022C58.1132 57.6022 62.4882 53.2272 62.4882 47.8304C62.4882 42.4336 58.1132 38.0586 52.7164 38.0586Z" fill="black"/>
<path fill-rule="evenodd" clip-rule="evenodd" d="M54.9021 7.71456C54.9021 7.07546 55.4202 6.55737 56.0593 6.55737H57.7308C59.7901 6.55737 61.4595 8.22678 61.4595 10.2861V27.1296C61.4595 29.1889 59.7901 30.8583 57.7308 30.8583H36.13C35.4909 30.8583 34.9728 30.3402 34.9728 29.7011C34.9728 29.062 35.4909 28.5439 36.13 28.5439H57.7308C58.5119 28.5439 59.1452 27.9107 59.1452 27.1296V10.2861C59.1452 9.50497 58.5119 8.87175 57.7308 8.87175H56.0593C55.4202 8.87175 54.9021 8.35366 54.9021 7.71456Z" fill="black"/>
<path fill-rule="evenodd" clip-rule="evenodd" d="M12.9863 29.7011C12.9863 29.062 12.4683 28.5439 11.8292 28.5439H5.78606C3.72675 28.5439 2.05734 30.2133 2.05734 32.2727V49.1162C2.05734 51.1755 3.72675 52.8449 5.78606 52.8449H38.0588C38.6979 52.8449 39.2159 52.3268 39.2159 51.6877C39.2159 51.0486 38.6979 50.5305 38.0588 50.5305H5.78606C5.00494 50.5305 4.37172 49.8973 4.37172 49.1162V32.2727C4.37172 31.4915 5.00494 30.8583 5.78606 30.8583H11.8292C12.4683 30.8583 12.9863 30.3402 12.9863 29.7011Z" fill="black"/>
<path fill-rule="evenodd" clip-rule="evenodd" d="M27.9829 2.01056C28.4348 1.55865 29.1675 1.55865 29.6194 2.01056L34.0663 6.45748C34.6187 7.00982 34.6187 7.90533 34.0663 8.45766L29.6194 12.9046C29.1675 13.3565 28.4348 13.3565 27.9829 12.9046C27.531 12.4527 27.531 11.72 27.9829 11.2681L30.6362 8.61476H18.7722C18.1331 8.61476 17.615 8.09667 17.615 7.45757C17.615 6.81848 18.1331 6.30038 18.7722 6.30038H30.6362L27.9829 3.64708C27.531 3.19516 27.531 2.46247 27.9829 2.01056Z" fill="black"/>
<path fill-rule="evenodd" clip-rule="evenodd" d="M39.777 35.1481C39.3251 35.6 38.5924 35.6 38.1405 35.1481L33.6936 30.7012C33.1413 30.1489 33.1413 29.2534 33.6936 28.701L38.1405 24.2541C38.5924 23.8022 39.3251 23.8022 39.777 24.2541C40.2289 24.706 40.2289 25.4387 39.777 25.8906L35.9665 29.7011L39.777 33.5116C40.2289 33.9635 40.2289 34.6962 39.777 35.1481Z" fill="black"/>
<path fill-rule="evenodd" clip-rule="evenodd" d="M34.0261 57.1347C34.478 57.5866 35.2107 57.5866 35.6626 57.1347L40.1095 52.6878C40.6618 52.1354 40.6618 51.2399 40.1095 50.6876L35.6626 46.2407C35.2107 45.7888 34.478 45.7888 34.0261 46.2407C33.5742 46.6926 33.5742 47.4253 34.0261 47.8772L37.8366 51.6877L34.0261 55.4982C33.5742 55.9501 33.5742 56.6828 34.0261 57.1347Z" fill="black"/>
<defs>
<linearGradient id="paint9_linear" x1="19.0504" y1="25.5636" x2="27.6631" y2="33.2475" gradientUnits="userSpaceOnUse">
<stop stop-color="#42A4FF"/>
<stop offset="1" stop-color="white"/>
</linearGradient>
<linearGradient id="paint10_linear" x1="46.6714" y1="41.9064" x2="59.0032" y2="52.9084" gradientUnits="userSpaceOnUse">
<stop stop-color="#42A4FF"/>
<stop offset="1" stop-color="white"/>
</linearGradient>
</defs>
</svg>
