<svg width="69" height="64" viewBox="0 0 69 64" fill="none" xmlns="http://www.w3.org/2000/svg">
<path fill-rule="evenodd" clip-rule="evenodd" d="M7.29787 2.55347C3.26737 2.55347 1.42821e-07 5.82083 3.19e-07 9.85134L1.80434e-06 43.832C1.98052e-06 47.8625 3.26737 51.1298 7.29788 51.1298L42.0811 51.1298L42.0811 49.0447L7.29788 49.0447C4.41894 49.0447 2.08511 46.7109 2.08511 43.832L2.08511 9.85134C2.08511 6.97241 4.41894 4.63857 7.29788 4.63857L55.3407 4.63857C58.2196 4.63857 60.5535 6.9724 60.5535 9.85133L60.5535 38.608L62.6386 38.608L62.6386 9.85133C62.6386 5.82082 59.3712 2.55346 55.3407 2.55346L7.29787 2.55347Z" fill="black"/>
<path d="M54.4214 62.4276C61.5537 62.4276 67.3356 56.6457 67.3356 49.5134C67.3356 42.381 61.5537 36.5991 54.4214 36.5991C47.289 36.5991 41.5071 42.381 41.5071 49.5134C41.5071 56.6457 47.289 62.4276 54.4214 62.4276Z" fill="url(#paint11_linear)"/>
<path fill-rule="evenodd" clip-rule="evenodd" d="M42.5497 49.5133C42.5497 42.9568 47.8648 37.6416 54.4214 37.6416C60.9779 37.6416 66.2931 42.9568 66.2931 49.5133C66.2931 56.0699 60.9779 61.385 54.4214 61.385C47.8648 61.385 42.5497 56.0699 42.5497 49.5133ZM54.4214 35.5565C46.7133 35.5565 40.4646 41.8052 40.4646 49.5133C40.4646 57.2214 46.7133 63.4701 54.4214 63.4701C62.1295 63.4701 68.3782 57.2214 68.3782 49.5133C68.3782 41.8052 62.1295 35.5565 54.4214 35.5565Z" fill="black"/>
<path fill-rule="evenodd" clip-rule="evenodd" d="M61.596 16.5103H1.04254V14.4252H61.596V16.5103Z" fill="black"/>
<path fill-rule="evenodd" clip-rule="evenodd" d="M10.4568 -3.13282e-08C11.0326 -1.40261e-08 11.4993 0.466767 11.4993 1.04255L11.4993 5.75942C11.4993 6.33521 11.0326 6.80198 10.4568 6.80198C9.88099 6.80198 9.41422 6.33521 9.41422 5.75942L9.41422 1.04255C9.41422 0.466767 9.88099 -4.86302e-08 10.4568 -3.13282e-08Z" fill="black"/>
<path fill-rule="evenodd" clip-rule="evenodd" d="M18.8284 -3.13282e-08C19.4042 -1.40261e-08 19.871 0.466767 19.871 1.04255L19.871 5.75942C19.871 6.33521 19.4042 6.80198 18.8284 6.80198C18.2526 6.80198 17.7859 6.33521 17.7859 5.75942L17.7859 1.04255C17.7859 0.466767 18.2526 -4.86302e-08 18.8284 -3.13282e-08Z" fill="black"/>
<path fill-rule="evenodd" clip-rule="evenodd" d="M27.2001 -3.13282e-08C27.7758 -1.40261e-08 28.2426 0.466767 28.2426 1.04255L28.2426 5.75942C28.2426 6.33521 27.7758 6.80198 27.2001 6.80198C26.6243 6.80198 26.1575 6.33521 26.1575 5.75942L26.1575 1.04255C26.1575 0.466767 26.6243 -4.86302e-08 27.2001 -3.13282e-08Z" fill="black"/>
<path fill-rule="evenodd" clip-rule="evenodd" d="M35.5717 -3.13282e-08C36.1475 -1.40261e-08 36.6143 0.466767 36.6143 1.04255L36.6143 5.75942C36.6143 6.33521 36.1475 6.80198 35.5717 6.80198C34.9959 6.80198 34.5292 6.33521 34.5292 5.75942L34.5292 1.04255C34.5292 0.466767 34.9959 -4.86302e-08 35.5717 -3.13282e-08Z" fill="black"/>
<path fill-rule="evenodd" clip-rule="evenodd" d="M43.9433 -3.13282e-08C44.5191 -1.40261e-08 44.9859 0.466767 44.9859 1.04255L44.9859 5.75942C44.9859 6.33521 44.5191 6.80198 43.9433 6.80198C43.3676 6.80198 42.9008 6.33521 42.9008 5.75942L42.9008 1.04255C42.9008 0.466767 43.3676 -4.86302e-08 43.9433 -3.13282e-08Z" fill="black"/>
<path fill-rule="evenodd" clip-rule="evenodd" d="M51.7919 -3.13282e-08C52.3676 -1.40261e-08 52.8344 0.466767 52.8344 1.04255L52.8344 5.75942C52.8344 6.33521 52.3676 6.80198 51.7919 6.80198C51.2161 6.80198 50.7493 6.33521 50.7493 5.75942L50.7493 1.04255C50.7493 0.466767 51.2161 -4.86302e-08 51.7919 -3.13282e-08Z" fill="black"/>
<path fill-rule="evenodd" clip-rule="evenodd" d="M6.49524 21.7813C6.49524 21.2055 6.96201 20.7388 7.53779 20.7388H14.6361C15.2119 20.7388 15.6787 21.2055 15.6787 21.7813C15.6787 22.3571 15.2119 22.8239 14.6361 22.8239H7.53779C6.96201 22.8239 6.49524 22.3571 6.49524 21.7813Z" fill="black"/>
<path fill-rule="evenodd" clip-rule="evenodd" d="M6.49524 43.3051C6.49524 42.7293 6.96201 42.2626 7.53779 42.2626H14.6361C15.2119 42.2626 15.6787 42.7293 15.6787 43.3051C15.6787 43.8809 15.2119 44.3477 14.6361 44.3477H7.53779C6.96201 44.3477 6.49524 43.8809 6.49524 43.3051Z" fill="black"/>
<path fill-rule="evenodd" clip-rule="evenodd" d="M6.49524 28.9559C6.49524 28.3801 6.96201 27.9133 7.53779 27.9133H14.6361C15.2119 27.9133 15.6787 28.3801 15.6787 28.9559C15.6787 29.5317 15.2119 29.9984 14.6361 29.9984H7.53779C6.96201 29.9984 6.49524 29.5317 6.49524 28.9559Z" fill="black"/>
<path fill-rule="evenodd" clip-rule="evenodd" d="M6.49524 36.1304C6.49524 35.5547 6.96201 35.0879 7.53779 35.0879H14.6361C15.2119 35.0879 15.6787 35.5547 15.6787 36.1304C15.6787 36.7062 15.2119 37.173 14.6361 37.173H7.53779C6.96201 37.173 6.49524 36.7062 6.49524 36.1304Z" fill="black"/>
<path fill-rule="evenodd" clip-rule="evenodd" d="M19.4094 21.7813C19.4094 21.2055 19.8762 20.7388 20.452 20.7388H27.5503C28.1261 20.7388 28.5929 21.2055 28.5929 21.7813C28.5929 22.3571 28.1261 22.8239 27.5503 22.8239H20.452C19.8762 22.8239 19.4094 22.3571 19.4094 21.7813Z" fill="black"/>
<path fill-rule="evenodd" clip-rule="evenodd" d="M19.4094 28.9559C19.4094 28.3801 19.8762 27.9133 20.452 27.9133H27.5503C28.1261 27.9133 28.5929 28.3801 28.5929 28.9559C28.5929 29.5317 28.1261 29.9984 27.5503 29.9984H20.452C19.8762 29.9984 19.4094 29.5317 19.4094 28.9559Z" fill="black"/>
<path fill-rule="evenodd" clip-rule="evenodd" d="M19.4094 36.1304C19.4094 35.5547 19.8762 35.0879 20.452 35.0879H27.5503C28.1261 35.0879 28.5929 35.5547 28.5929 36.1304C28.5929 36.7062 28.1261 37.173 27.5503 37.173H20.452C19.8762 37.173 19.4094 36.7062 19.4094 36.1304Z" fill="black"/>
<path fill-rule="evenodd" clip-rule="evenodd" d="M19.4094 43.3051C19.4094 42.7293 19.8762 42.2626 20.452 42.2626H27.5503C28.1261 42.2626 28.5929 42.7293 28.5929 43.3051C28.5929 43.8809 28.1261 44.3477 27.5503 44.3477H20.452C19.8762 44.3477 19.4094 43.8809 19.4094 43.3051Z" fill="black"/>
<path fill-rule="evenodd" clip-rule="evenodd" d="M32.3237 21.7813C32.3237 21.2055 32.7905 20.7388 33.3663 20.7388H40.4646C41.0404 20.7388 41.5072 21.2055 41.5072 21.7813C41.5072 22.3571 41.0404 22.8239 40.4646 22.8239H33.3663C32.7905 22.8239 32.3237 22.3571 32.3237 21.7813Z" fill="black"/>
<path fill-rule="evenodd" clip-rule="evenodd" d="M32.3237 28.9559C32.3237 28.3801 32.7905 27.9133 33.3663 27.9133H40.4646C41.0404 27.9133 41.5072 28.3801 41.5072 28.9559C41.5072 29.5317 41.0404 29.9984 40.4646 29.9984H33.3663C32.7905 29.9984 32.3237 29.5317 32.3237 28.9559Z" fill="black"/>
<path fill-rule="evenodd" clip-rule="evenodd" d="M32.3237 36.1304C32.3237 35.5547 32.7905 35.0879 33.3663 35.0879H40.4646C41.0404 35.0879 41.5072 35.5547 41.5072 36.1304C41.5072 36.7062 41.0404 37.173 40.4646 37.173H33.3663C32.7905 37.173 32.3237 36.7062 32.3237 36.1304Z" fill="black"/>
<path fill-rule="evenodd" clip-rule="evenodd" d="M45.2379 21.7813C45.2379 21.2055 45.7047 20.7388 46.2805 20.7388H53.3788C53.9546 20.7388 54.4214 21.2055 54.4214 21.7813C54.4214 22.3571 53.9546 22.8239 53.3788 22.8239H46.2805C45.7047 22.8239 45.2379 22.3571 45.2379 21.7813Z" fill="black"/>
<path fill-rule="evenodd" clip-rule="evenodd" d="M45.2379 28.9559C45.2379 28.3801 45.7047 27.9133 46.2805 27.9133H53.3788C53.9546 27.9133 54.4214 28.3801 54.4214 28.9559C54.4214 29.5317 53.9546 29.9984 53.3788 29.9984H46.2805C45.7047 29.9984 45.2379 29.5317 45.2379 28.9559Z" fill="black"/>
<path fill-rule="evenodd" clip-rule="evenodd" d="M54.4213 40.7222C54.9971 40.7222 55.4639 41.1889 55.4639 41.7647V47.7151C55.4639 48.2909 55.9307 48.7577 56.5064 48.7577H61.8829C62.4587 48.7577 62.9255 49.2245 62.9255 49.8003C62.9255 50.376 62.4587 50.8428 61.8829 50.8428H56.5064C54.7791 50.8428 53.3788 49.4425 53.3788 47.7151V41.7647C53.3788 41.1889 53.8456 40.7222 54.4213 40.7222Z" fill="black"/>
<defs>
<linearGradient id="paint11_linear" x1="41.5071" y1="49.5134" x2="67.3356" y2="49.5134" gradientUnits="userSpaceOnUse">
<stop stop-color="#42A4FF"/>
<stop offset="1" stop-color="white"/>
</linearGradient>
</defs>
</svg>
