<svg width="136" height="147" viewBox="0 0 136 147" fill="none" xmlns="http://www.w3.org/2000/svg">
<g filter="url(#filter0_d_3211_13136)">
<path d="M63.8788 15.2752C66.341 13.8657 69.3655 13.8657 71.8277 15.2752L111.332 37.8898C113.822 39.3149 115.358 41.964 115.358 44.8326V89.9442C115.358 92.8128 113.822 95.4618 111.332 96.887L71.8277 119.502C69.3655 120.911 66.341 120.911 63.8788 119.502L24.3744 96.887C21.8849 95.4618 20.3489 92.8128 20.3489 89.9442L20.3489 44.8326C20.3489 41.964 21.8849 39.3149 24.3744 37.8898L63.8788 15.2752Z" fill="white"/>
</g>
<path d="M102.782 71.704L104.876 72.3368C104.735 72.924 104.513 73.4144 104.211 73.8082C103.909 74.2019 103.533 74.499 103.083 74.6994C102.636 74.8998 102.067 75 101.374 75C100.534 75 99.8463 74.8787 99.312 74.6361C98.7811 74.39 98.3223 73.9593 97.9356 73.3441C97.5488 72.7289 97.3555 71.9413 97.3555 70.9815C97.3555 69.7018 97.6947 68.7192 98.3733 68.0336C99.0553 67.3445 100.019 67 101.263 67C102.237 67 103.002 67.1969 103.557 67.5906C104.116 67.9844 104.531 68.5891 104.802 69.4047L102.692 69.8741C102.618 69.6385 102.541 69.4663 102.46 69.3573C102.327 69.1745 102.163 69.0338 101.97 68.9354C101.776 68.837 101.56 68.7877 101.321 68.7877C100.78 68.7877 100.365 69.0057 100.077 69.4417C99.8587 69.7651 99.7497 70.2731 99.7497 70.9657C99.7497 71.8236 99.8797 72.4124 100.14 72.7324C100.4 73.0488 100.766 73.207 101.237 73.207C101.694 73.207 102.038 73.0787 102.27 72.822C102.506 72.5654 102.676 72.1927 102.782 71.704Z" fill="black"/>
<path d="M93.5215 67.1318H95.9157V74.8629H93.5215V67.1318Z" fill="black"/>
<path d="M85.0781 67.1318H92.3398V69.0409H89.9034V74.8629H87.5145V69.0409H85.0781V67.1318Z" fill="black"/>
<path d="M76.4355 67.1318H79.0882L80.6491 69.7423L82.2101 67.1318H84.8469L81.841 71.6249V74.8629H79.4468V71.6249L76.4355 67.1318Z" fill="black"/>
<path d="M70.0117 67.1318H72.4006V72.9591H76.1291V74.8629H70.0117V67.1318Z" fill="black"/>
<path d="M66.3624 73.5867H63.6413L63.2669 74.8629H60.8252L63.7309 67.1318H66.3361L69.2418 74.8629H66.7421L66.3624 73.5867ZM65.8615 71.915L65.0071 69.1358L64.1581 71.915H65.8615Z" fill="black"/>
<path d="M57.4922 67.1318H59.8864V74.8629H57.4922V67.1318Z" fill="black"/>
<path d="M49.0234 74.8629V67.1318H53.005C53.7433 67.1318 54.3076 67.1951 54.6978 67.3217C55.088 67.4482 55.4027 67.6838 55.6418 68.0283C55.8808 68.3694 56.0004 68.786 56.0004 69.2782C56.0004 69.7071 55.909 70.078 55.7261 70.3909C55.5433 70.7003 55.292 70.9517 54.972 71.145C54.7681 71.2681 54.4886 71.37 54.1335 71.4509C54.4183 71.5458 54.6257 71.6407 54.7558 71.7357C54.8437 71.7989 54.9703 71.9343 55.1355 72.1417C55.3043 72.3492 55.4168 72.5091 55.473 72.6216L56.6279 74.8629H53.9279L52.6517 72.5003C52.4899 72.1945 52.3458 71.9958 52.2192 71.9044C52.0469 71.7849 51.8518 71.7251 51.6339 71.7251H51.4229V74.8629H49.0234ZM51.4229 70.2643H52.4302C52.5391 70.2643 52.7501 70.2292 53.063 70.1589C53.2212 70.1272 53.3495 70.0464 53.448 69.9163C53.5499 69.7862 53.6009 69.6368 53.6009 69.468C53.6009 69.2184 53.5218 69.0268 53.3636 68.8932C53.2054 68.7596 52.9083 68.6928 52.4724 68.6928H51.4229V70.2643Z" fill="black"/>
<path d="M41.1816 67.1318H47.5837V68.7825H43.5758V70.0112H47.2937V71.588H43.5758V73.1121H47.6998V74.8629H41.1816V67.1318Z" fill="black"/>
<path d="M37.5372 73.5867H34.8161L34.4417 74.8629H32L34.9057 67.1318H37.5109L40.4166 74.8629H37.9169L37.5372 73.5867ZM37.0363 71.915L36.1819 69.1358L35.3329 71.915H37.0363Z" fill="black"/>
<defs>
<filter id="filter0_d_3211_13136" x="0.348633" y="0.218079" width="135.009" height="146.341" filterUnits="userSpaceOnUse" color-interpolation-filters="sRGB">
<feFlood flood-opacity="0" result="BackgroundImageFix"/>
<feColorMatrix in="SourceAlpha" type="matrix" values="0 0 0 0 0 0 0 0 0 0 0 0 0 0 0 0 0 0 127 0" result="hardAlpha"/>
<feOffset dy="6"/>
<feGaussianBlur stdDeviation="10"/>
<feColorMatrix type="matrix" values="0 0 0 0 0.0561006 0 0 0 0 0.153723 0 0 0 0 0.237399 0 0 0 0.15 0"/>
<feBlend mode="normal" in2="BackgroundImageFix" result="effect1_dropShadow_3211_13136"/>
<feBlend mode="normal" in="SourceGraphic" in2="effect1_dropShadow_3211_13136" result="shape"/>
</filter>
</defs>
</svg>
