<svg width="132" height="142" viewBox="0 0 132 142" fill="none" xmlns="http://www.w3.org/2000/svg">
<g filter="url(#filter0_d_781_7336)">
<path d="M62.0079 15.4133C64.4701 14.0038 67.4946 14.0038 69.9568 15.4133L107.098 36.675C109.588 38.1002 111.123 40.7492 111.123 43.6178V86.0237C111.123 88.8923 109.587 91.5414 107.098 92.9665L69.9568 114.228C67.4946 115.638 64.4701 115.638 62.0078 114.228L24.8668 92.9665C22.3772 91.5414 20.8413 88.8923 20.8413 86.0237L20.8413 43.6178C20.8413 40.7492 22.3772 38.1002 24.8668 36.675L62.0079 15.4133Z" fill="white"/>
</g>
<circle cx="66" cy="65" r="27" fill="#78C049"/>
<path fill-rule="evenodd" clip-rule="evenodd" d="M73.1091 51C71.8182 51 70.7717 52.0465 70.7717 53.3373C70.7717 54.6282 71.8182 55.6746 73.1091 55.6746H78.758L69.7009 64.7317C69.7009 64.7317 65.6298 60.1694 63.8506 58.8814C62.0714 57.5934 59.7479 56.4537 56.943 56.4537C50.7039 56.4537 45.646 61.5116 45.646 67.7508C45.646 73.99 50.7039 79.0478 56.943 79.0478C60.5142 79.0478 63.2679 77.2498 65.1633 75.58C66.097 74.7575 66.9844 73.8121 67.7659 72.9251L67.7532 72.9124L69.7983 70.8672L77.2485 78.3174C78.0822 79.1511 79.4339 79.1511 80.2676 78.3174C81.1012 77.4837 81.1012 76.1321 80.2676 75.2984L72.8173 67.8482L81.6792 58.9863V64.4396C81.6792 65.7305 82.7257 66.7769 84.0166 66.7769C85.3074 66.7769 86.3539 65.7305 86.3539 64.4396V53.7269C86.3539 52.2209 85.133 51 83.627 51H73.1091ZM64.4419 69.9907L66.6819 67.7508L62.2994 63.3683L62.2944 63.3733C60.7316 61.9892 58.9478 60.9336 56.943 60.9336C53.178 60.9336 50.1259 63.9858 50.1259 67.7508C50.1259 71.5158 53.178 74.568 56.943 74.568C59.8918 74.568 62.6844 71.7585 64.2094 70.2242C64.2906 70.1426 64.3681 70.0645 64.4419 69.9907Z" fill="white"/>
<defs>
<filter id="filter0_d_781_7336" x="0.841309" y="0.35614" width="130.282" height="140.929" filterUnits="userSpaceOnUse" color-interpolation-filters="sRGB">
<feFlood flood-opacity="0" result="BackgroundImageFix"/>
<feColorMatrix in="SourceAlpha" type="matrix" values="0 0 0 0 0 0 0 0 0 0 0 0 0 0 0 0 0 0 127 0" result="hardAlpha"/>
<feOffset dy="6"/>
<feGaussianBlur stdDeviation="10"/>
<feColorMatrix type="matrix" values="0 0 0 0 0.0561006 0 0 0 0 0.153723 0 0 0 0 0.237399 0 0 0 0.15 0"/>
<feBlend mode="normal" in2="BackgroundImageFix" result="effect1_dropShadow_781_7336"/>
<feBlend mode="normal" in="SourceGraphic" in2="effect1_dropShadow_781_7336" result="shape"/>
</filter>
</defs>
</svg>
