<svg width="136" height="147" viewBox="0 0 136 147" fill="none" xmlns="http://www.w3.org/2000/svg">
<g filter="url(#filter0_d_3211_13150)">
<path d="M63.8788 15.2752C66.341 13.8657 69.3655 13.8657 71.8277 15.2752L111.332 37.8898C113.822 39.3149 115.358 41.964 115.358 44.8326V89.9442C115.358 92.8128 113.822 95.4618 111.332 96.887L71.8277 119.502C69.3655 120.911 66.341 120.911 63.8788 119.502L24.3744 96.887C21.8849 95.4618 20.3489 92.8128 20.3489 89.9442L20.3489 44.8326C20.3489 41.964 21.8849 39.3149 24.3744 37.8898L63.8788 15.2752Z" fill="white"/>
</g>
<g clip-path="url(#clip0_3211_13150)">
<path d="M56.9567 75.55C54.0834 77.2173 51.2125 78.8882 48.3368 80.5496C47.8011 80.86 47.2925 81.3733 46.64 80.6499C46.3556 80.3337 46.0016 80.696 45.7149 80.8576C44.7367 81.4087 43.7679 81.9763 42.7956 82.5368C42.5289 82.6902 42.2303 82.8731 41.9884 82.5509C41.6852 82.1462 42.0203 81.9125 42.3129 81.7296C42.9348 81.3391 43.5944 81.0087 44.1998 80.5957C44.9219 80.1024 46.0394 79.9655 45.8624 78.6203C45.8152 78.264 46.4748 78.0716 46.8418 77.8569C49.1888 76.481 51.5453 75.1216 53.8958 73.7528C54.52 73.3894 55.136 73.013 55.6729 72.4336C52.4444 73.3021 49.2159 74.1706 45.9886 75.0414C45.257 75.2385 44.5384 75.6231 43.8764 74.8137C43.664 74.5541 43.2192 74.7169 42.8841 74.8054C41.966 75.0473 41.0527 75.3093 40.1311 75.537C39.7441 75.6326 39.193 75.9712 39.0172 75.3801C38.8036 74.6591 39.5647 74.7558 39.9447 74.6072C40.504 74.3877 41.1046 74.2744 41.6852 74.108C42.5242 73.8661 43.4906 73.8767 43.7525 72.692C43.8422 72.2885 44.4641 72.2837 44.8783 72.1716C48.2495 71.2548 51.6196 70.3356 54.9802 69.2488C52.3477 69.2488 49.7163 69.2488 47.0837 69.2488C46.1763 69.2488 45.2688 69.2547 44.3626 69.2417C44.0629 69.237 43.5968 69.2924 43.4906 69.132C42.5006 67.6381 41.002 68.4287 39.7299 68.2399C39.4762 68.2021 39.2095 68.254 38.9535 68.2245C38.5558 68.1773 37.9682 68.3178 38.0024 67.6617C38.0295 67.1484 38.5428 67.1743 38.9134 67.1602C39.6898 67.1295 40.4686 67.1484 41.245 67.1366C42.0026 67.1248 42.7613 67.264 43.2746 66.3885C43.5425 65.9318 44.2281 66.1064 44.7378 66.1053C48.0619 66.0982 51.386 66.1017 54.7608 65.8657C53.0262 65.389 51.2927 64.9064 49.5558 64.4356C48.1398 64.0521 46.7167 63.6898 45.3019 63.3016C44.542 63.0927 43.6546 63.1081 43.4587 62.0024C43.3962 61.6472 42.8333 61.6059 42.4604 61.5044C41.5448 61.2555 40.6255 61.0171 39.711 60.761C39.35 60.6596 38.8237 60.61 38.944 60.0873C39.0963 59.4253 39.6509 59.7628 40.019 59.8454C41.0291 60.0719 42.0238 60.3646 43.0268 60.6194C43.2723 60.682 43.6876 60.8106 43.7596 60.7127C44.7178 59.4158 45.8034 60.3362 46.7757 60.5722C49.741 61.2909 52.6816 62.1121 55.7413 62.6538C54.4245 61.8938 53.1088 61.1327 51.7907 60.3764C50.3676 59.5586 48.9233 58.7763 47.5274 57.9161C46.7556 57.4405 45.5697 57.2966 45.7633 55.8971C45.8069 55.5844 45.283 55.4475 44.9892 55.2788C44.0912 54.7607 43.1802 54.2651 42.2846 53.7448C41.9955 53.5772 41.6049 53.4037 41.8114 52.9624C42.0758 52.3972 42.4722 52.7429 42.7873 52.9081C43.513 53.2893 44.2068 53.733 44.9361 54.1082C45.6134 54.4563 46.2223 55.1844 47.1179 54.3997C47.4129 54.1412 47.8283 54.5767 48.1563 54.7643C50.9305 56.3502 53.6976 57.9479 56.4694 59.5374C56.7243 59.6837 56.9933 59.8052 57.4346 60.0306C57.1727 59.3675 56.7738 59.0607 56.4269 58.7161C54.31 56.6181 52.1907 54.5224 50.0809 52.4173C49.6667 52.0031 49.1392 51.6396 49.5688 50.8833C49.813 50.4526 49.3292 50.1989 49.0732 49.9345C48.3227 49.1593 47.5498 48.4041 46.7922 47.6335C46.5539 47.3905 46.227 47.125 46.5432 46.7568C46.9197 46.319 47.2347 46.6459 47.5156 46.9232C48.1303 47.5297 48.7192 48.1634 49.3505 48.7534C49.8756 49.2442 50.2248 50.0301 51.268 49.5735C51.7282 49.3717 52.114 50.0667 52.4704 50.4219C59.5976 57.5278 66.7165 64.6432 73.839 71.7539C77.5383 75.4461 81.247 79.1289 84.944 82.8235C85.3747 83.2542 86.0284 83.6106 85.4443 84.4271C85.1977 84.7729 85.6544 85.0289 85.8833 85.2637C86.6373 86.0366 87.4137 86.7883 88.163 87.5647C88.412 87.822 88.8769 88.0887 88.4804 88.5205C88.0887 88.9477 87.7784 88.5465 87.5081 88.2893C86.9453 87.7524 86.4249 87.1718 85.8479 86.6514C85.2555 86.1181 84.8614 85.1811 83.7251 85.6874C83.4206 85.8231 83.1032 85.2956 82.8306 85.0289C80.7007 82.945 78.5791 80.8529 76.4456 78.7714C76.1754 78.5082 75.9748 78.1448 75.3034 78.0008C76.2144 79.5879 77.0344 81.0228 77.8604 82.4542C78.6381 83.8005 79.4475 85.128 80.1909 86.4933C80.5449 87.1447 81.3297 87.7642 80.4588 88.6433C80.2464 88.858 80.6346 89.2651 80.801 89.5613C81.3308 90.5018 81.8642 91.4399 82.3964 92.3791C82.5722 92.6907 82.7657 93.027 82.3102 93.2512C81.9551 93.4258 81.7368 93.1556 81.5822 92.8936C81.0547 92.0015 80.5544 91.0941 80.0257 90.202C79.7484 89.7348 79.5549 89.1813 78.7761 89.343C78.1602 89.4704 78.0375 88.8332 77.8156 88.4568C76.1247 85.5941 74.4597 82.7161 72.7841 79.844C72.7003 79.7012 72.5953 79.5714 72.3144 79.4947C72.6448 80.7432 72.9717 81.994 73.308 83.2412C73.8142 85.1162 74.3441 86.9854 74.8314 88.8651C75.0462 89.6911 75.5394 90.49 74.6804 91.3573C74.2697 91.7726 74.7736 92.5078 74.8987 93.0883C75.0627 93.8471 75.3046 94.5881 75.4969 95.3409C75.583 95.6784 75.6763 96.0631 75.1984 96.1846C74.7075 96.3085 74.6249 95.8802 74.5317 95.5699C74.2591 94.6613 74.0278 93.7397 73.7729 92.824C73.6136 92.2493 73.5452 91.6452 72.7534 91.5C72.1894 91.3974 72.1894 90.8027 72.0678 90.3566C71.1368 86.9523 70.2117 83.5468 69.1214 80.165C69.1214 83.5952 69.1261 87.0255 69.1178 90.4557C69.1166 91.126 69.2618 91.8434 68.3969 92.2116C67.9839 92.3874 68.0948 92.8889 68.0912 93.2677C68.083 94.2176 68.116 95.1687 68.0936 96.1186C68.0841 96.5162 68.2246 97.1334 67.6192 97.1475C66.9395 97.164 67.0493 96.5068 67.0245 96.0631C66.9879 95.4176 67.0245 94.7675 67.0068 94.1196C66.9844 93.2889 67.2109 92.4134 66.2233 91.8458C65.8362 91.6228 65.9778 90.9667 65.9767 90.4947C65.9731 87.1281 65.9743 83.7628 65.7371 80.3538C65.2344 82.2028 64.7306 84.0519 64.2303 85.9021C63.8928 87.1517 63.5683 88.4061 63.2202 89.6533C62.9877 90.4876 63.0278 91.4776 61.829 91.7254C61.4738 91.7986 61.4525 92.3614 61.3534 92.7355C61.0867 93.7361 60.8212 94.7368 60.5428 95.7351C60.4566 96.0419 60.2997 96.3156 59.9067 96.213C59.4973 96.1068 59.5433 95.7893 59.6188 95.4825C59.8053 94.7285 60.0188 93.9804 60.1864 93.2228C60.3764 92.3614 61.0395 91.4989 60.0306 90.6469C59.7274 90.3908 60.0424 89.8233 60.151 89.4091C61.0136 86.1192 61.8809 82.8306 62.5299 79.4251C62.1169 80.1284 61.6992 80.8293 61.2921 81.5373C59.9575 83.8584 58.63 86.183 57.2942 88.5028C57.0216 88.9772 56.8293 89.546 56.0505 89.3465C55.5584 89.2215 55.4168 89.7041 55.2269 90.0262C54.6793 90.9561 54.159 91.9024 53.6032 92.8287C53.438 93.1037 53.2716 93.5391 52.8315 93.3208C52.2993 93.0565 52.625 92.6446 52.7902 92.326C53.1477 91.6369 53.5808 90.9856 53.923 90.2882C54.2711 89.5778 55.0994 88.9501 54.2593 87.9966C54.0126 87.717 54.461 87.2945 54.6487 86.9653C56.1461 84.3398 57.6506 81.7178 59.148 79.0923C59.3746 78.6959 59.5763 78.2852 59.9587 77.5642C57.3426 80.152 55.0027 82.4919 52.6273 84.7941C52.1022 85.3039 51.6998 86.2691 50.6272 85.5694C50.3653 85.3983 50.121 85.8183 49.911 86.0213C49.1357 86.773 48.377 87.5423 47.597 88.2881C47.335 88.5382 47.0624 88.9925 46.6353 88.6079C46.2034 88.2185 46.6093 87.9046 46.8666 87.6367C47.4636 87.0125 48.1008 86.426 48.6885 85.7936C49.1499 85.2968 49.931 84.9499 49.4224 83.9811C49.2407 83.6353 49.7646 83.3333 50.0278 83.0642C52.0786 80.9626 54.1401 78.8705 56.1956 76.7725C56.5213 76.4397 56.8317 76.0904 57.1491 75.7494C57.0842 75.6845 57.0193 75.6196 56.9556 75.5547L56.9567 75.55Z" fill="black"/>
<path d="M66.9682 47.2889C66.9682 44.6186 66.9587 41.9471 66.9776 39.2767C66.9812 38.8413 66.8407 38.1546 67.498 38.151C68.1541 38.1475 68.0219 38.8366 68.0243 39.2661C68.0479 44.6941 68.0561 50.1209 68.0491 55.5489C68.0491 55.982 68.1977 56.6688 67.5334 56.6735C66.8761 56.6782 67.0048 55.9926 67.0012 55.5584C66.9812 52.8019 66.9906 50.0442 66.9906 47.2878C66.9823 47.2878 66.9753 47.2878 66.967 47.2878L66.9682 47.2889Z" fill="black"/>
<path d="M87.5958 68.1844C84.9231 68.1844 82.2504 68.1915 79.5789 68.1761C79.1824 68.1738 78.583 68.3024 78.583 67.6711C78.583 67.0681 79.173 67.1295 79.5766 67.1283C85.0506 67.1071 90.5246 67.0988 95.9998 67.1023C96.3998 67.1023 96.9993 67.015 97.0004 67.6204C97.0004 68.2222 96.401 68.1443 96.001 68.1466C93.1997 68.1643 90.3972 68.1561 87.5958 68.1561V68.1832V68.1844Z" fill="black"/>
<path d="M64.9984 56.4717C65.035 56.788 65.035 57.1538 64.6585 57.1998C64.1087 57.2682 64.1075 56.7585 64.0107 56.4045C62.9959 52.7016 61.9882 48.9976 60.9828 45.2936C60.5203 43.5873 60.0577 41.8799 59.6152 40.1677C59.5173 39.7865 59.1987 39.2638 59.8595 39.1033C60.3893 38.9747 60.4719 39.4892 60.5675 39.8444C62.0401 45.2995 63.4998 50.7582 64.9606 56.2169C64.983 56.2995 64.9878 56.3868 64.9996 56.4729L64.9984 56.4717Z" fill="black"/>
<path d="M82.4696 42.5878C82.3917 42.7353 82.2796 42.9666 82.151 43.1896C79.4323 47.9356 76.7112 52.6804 73.9901 57.4263C73.9264 57.5384 73.8591 57.6493 73.7848 57.7544C73.5901 58.0293 73.4296 58.4057 72.9871 58.1343C72.5588 57.8712 72.7688 57.5361 72.9352 57.2399C73.5913 56.0764 74.2603 54.9212 74.9259 53.7636C76.9873 50.1799 79.0488 46.5963 81.1138 43.0138C81.2861 42.7164 81.4701 42.4238 81.6672 42.143C81.8017 41.9518 82.0011 41.8645 82.2301 41.9742C82.4436 42.0757 82.551 42.2492 82.4696 42.5878Z" fill="black"/>
<path d="M77.4218 62.4142C77.2861 62.3163 77.1256 62.2467 77.0348 62.1251C76.8885 61.9281 76.9239 61.7062 77.1245 61.5599C77.4372 61.331 77.7569 61.1091 78.0921 60.9156C82.5702 58.3232 87.0518 55.7354 91.5334 53.1465C91.6455 53.0816 91.7553 53.0061 91.8768 52.966C92.2792 52.8362 92.7477 52.2344 93.0792 52.8999C93.3388 53.4203 92.7193 53.5973 92.3748 53.799C89.7328 55.3472 87.0837 56.8812 84.4334 58.4152C82.4179 59.5822 80.4013 60.7457 78.3823 61.908C78.0862 62.0791 77.777 62.2278 77.4206 62.4142H77.4218Z" fill="black"/>
<path d="M79.0501 70.1527C80.551 70.5539 82.1322 70.9775 83.7134 71.4011C87.5425 72.4253 91.3728 73.4437 95.1984 74.4821C95.6043 74.593 96.3147 74.5505 96.1011 75.2703C95.9205 75.8816 95.3471 75.5429 94.9883 75.4473C89.6547 74.0455 84.3259 72.6212 79.0005 71.1863C78.6206 71.0837 78.0494 71.0471 78.1993 70.4099C78.2937 70.0111 78.6713 70.135 79.0501 70.1527Z" fill="black"/>
<path d="M52.8196 41.9211C53.2763 41.9506 53.3978 42.2586 53.543 42.5088C56.3962 47.4235 59.2459 52.3394 62.0862 57.2611C62.2703 57.5797 62.5865 58.0152 62.131 58.2854C61.5717 58.617 61.4053 58.0305 61.2059 57.6871C58.414 52.8857 55.6257 48.0831 52.8598 43.2675C52.6261 42.8616 52.088 42.3412 52.8196 41.9211Z" fill="black"/>
<path d="M70.0309 56.1366C70.4168 54.6876 70.8451 53.0627 71.2817 51.4402C72.3119 47.6123 73.3432 43.7856 74.3816 39.96C74.4878 39.5706 74.4713 38.9428 75.0719 39.0715C75.8212 39.2319 75.4046 39.8703 75.3055 40.2467C73.9013 45.5792 72.4664 50.9045 71.028 56.2275C70.923 56.6157 70.9171 57.1727 70.2716 57.0488C69.8468 56.9662 69.953 56.6122 70.0297 56.1354L70.0309 56.1366Z" fill="black"/>
<path d="M96.0864 60.0707C95.9601 60.6029 95.4752 60.6076 95.081 60.715C91.541 61.6755 87.9987 62.6242 84.4563 63.5777C82.7477 64.0379 81.0414 64.5051 79.3316 64.9571C78.9316 65.0633 78.3876 65.3075 78.2259 64.7352C78.0572 64.1346 78.7003 64.091 79.0684 63.9907C84.3973 62.5404 89.7333 61.1126 95.0681 59.6813C95.4858 59.5692 95.9354 59.4064 96.0876 60.0707H96.0864Z" fill="black"/>
<path d="M75.7379 60.0401C75.2564 59.9516 74.985 59.751 75.1904 59.3226C75.3166 59.0607 75.5632 58.8518 75.7756 58.6382C79.5906 54.8174 83.4091 50.9989 87.2264 47.1816C87.3786 47.0294 87.5355 46.8807 87.6948 46.7344C87.9037 46.542 88.1432 46.4453 88.3839 46.6541C88.6872 46.9185 88.5609 47.1934 88.345 47.4436C88.2034 47.6064 88.0524 47.761 87.9001 47.9144C84.1218 51.7104 80.3422 55.5065 76.5603 59.299C76.2901 59.5704 75.9904 59.8135 75.7379 60.0401Z" fill="black"/>
<path d="M77.4139 72.8136C77.775 72.9976 78.0889 73.1404 78.3862 73.3103C83.0283 75.9736 87.6693 78.6416 92.309 81.3084C92.4955 81.4158 92.6866 81.5196 92.8613 81.6447C93.1079 81.8205 93.3946 82.0093 93.1586 82.3704C92.938 82.709 92.6335 82.5757 92.3527 82.4494C92.1568 82.3609 91.968 82.2547 91.7804 82.1474C87.1017 79.4605 82.423 76.7736 77.7467 74.0832C77.5236 73.9546 77.3065 73.813 77.0988 73.6596C76.8864 73.5027 76.8935 73.2785 77.0304 73.0909C77.1201 72.9693 77.2841 72.9021 77.4127 72.8124L77.4139 72.8136Z" fill="black"/>
</g>
<defs>
<filter id="filter0_d_3211_13150" x="0.348633" y="0.218079" width="135.009" height="146.341" filterUnits="userSpaceOnUse" color-interpolation-filters="sRGB">
<feFlood flood-opacity="0" result="BackgroundImageFix"/>
<feColorMatrix in="SourceAlpha" type="matrix" values="0 0 0 0 0 0 0 0 0 0 0 0 0 0 0 0 0 0 127 0" result="hardAlpha"/>
<feOffset dy="6"/>
<feGaussianBlur stdDeviation="10"/>
<feColorMatrix type="matrix" values="0 0 0 0 0.0561006 0 0 0 0 0.153723 0 0 0 0 0.237399 0 0 0 0.15 0"/>
<feBlend mode="normal" in2="BackgroundImageFix" result="effect1_dropShadow_3211_13150"/>
<feBlend mode="normal" in="SourceGraphic" in2="effect1_dropShadow_3211_13150" result="shape"/>
</filter>
<clipPath id="clip0_3211_13150">
<rect width="59" height="59" fill="white" transform="translate(38 38)"/>
</clipPath>
</defs>
</svg>
