<svg width="136" height="147" viewBox="0 0 136 147" fill="none" xmlns="http://www.w3.org/2000/svg">
<g filter="url(#filter0_d_549_5969)">
<path d="M63.8213 15.2752C66.2835 13.8657 69.3081 13.8657 71.7703 15.2752L111.225 37.8613C113.714 39.2864 115.25 41.9355 115.25 44.8041V89.8587C115.25 92.7273 113.714 95.3764 111.225 96.8015L71.7703 119.388C69.3081 120.797 66.2835 120.797 63.8213 119.388L24.3667 96.8015C21.8772 95.3764 20.3412 92.7273 20.3412 89.8587L20.3412 44.8041C20.3412 41.9355 21.8772 39.2864 24.3667 37.8613L63.8213 15.2752Z" fill="white"/>
</g>
<path d="M44.8212 50.734C45.0362 50.8414 45.2513 50.9488 45.4879 51.0132L45.5524 51.5502C45.5739 51.722 45.7244 51.8509 45.8965 51.8509H46.7137C46.8858 51.8509 47.0363 51.722 47.0578 51.5502L47.1223 51.0132C47.3589 50.9488 47.5955 50.8629 47.8105 50.734L48.2407 51.0777C48.3912 51.1851 48.5848 51.1851 48.7138 51.0562L49.2945 50.4763C49.4235 50.3474 49.4235 50.1541 49.316 50.0038L48.9934 49.5957C49.1224 49.3595 49.2299 49.1232 49.316 48.8655L49.8321 48.8011C50.0042 48.7796 50.1332 48.6292 50.1332 48.4574V47.6413C50.1332 47.4694 50.0042 47.3191 49.8321 47.2976L49.316 47.2332C49.2514 46.9755 49.1439 46.7392 49.0149 46.503L49.316 46.1164C49.4235 45.966 49.4235 45.7727 49.2945 45.6439L48.7138 45.064C48.5848 44.9351 48.3912 44.9351 48.2407 45.0425L47.8535 45.3432C47.617 45.2143 47.3804 45.1069 47.1438 45.0425L47.0793 44.57C47.0578 44.3982 46.9073 44.2693 46.7352 44.2693H45.918C45.7459 44.2693 45.5954 44.3982 45.5739 44.57L45.5094 45.0425C45.2513 45.1069 44.9932 45.2143 44.7567 45.3646L44.3911 45.064C44.2405 44.9566 44.047 44.9566 43.9179 45.0854L43.3373 45.6653C43.2082 45.7942 43.2082 45.9875 43.3157 46.1378L43.6168 46.503C43.4663 46.7392 43.3588 47.0184 43.2942 47.2761L42.8211 47.3406C42.6491 47.3621 42.52 47.5124 42.52 47.6842V48.5004C42.52 48.6722 42.6491 48.8225 42.8211 48.844L43.3373 48.9084C43.4018 49.1662 43.5093 49.4024 43.6598 49.6172L43.3373 50.0253C43.2297 50.1756 43.2297 50.3689 43.3588 50.4978L43.9394 51.0777C44.0685 51.2065 44.262 51.2065 44.4126 51.0991L44.8212 50.734ZM45.3588 47.0399C45.8965 46.503 46.7567 46.503 47.2944 47.0399C47.832 47.5768 47.832 48.4359 47.2944 48.9729C46.7567 49.5098 45.8965 49.5098 45.3588 48.9729C44.8212 48.4359 44.8212 47.5768 45.3588 47.0399Z" fill="#103551"/>
<path d="M52.8645 42.9806L52.3053 43.0235C52.1332 43.045 52.0042 43.1739 51.9827 43.3672L51.9612 43.6893C51.7461 43.7538 51.5526 43.8612 51.359 43.99L51.0794 43.7967C50.9289 43.6893 50.7353 43.7323 50.6278 43.8612L50.2622 44.2907C50.1547 44.4196 50.1547 44.6129 50.2837 44.7417L50.5203 44.978C50.4128 45.1928 50.3482 45.4076 50.3052 45.6438L49.9611 45.7082C49.7891 45.7512 49.66 45.9015 49.6815 46.0734L49.7246 46.6532C49.7461 46.8251 49.8751 46.9539 50.0687 46.9754L50.4343 46.9969C50.5203 47.1902 50.6063 47.3835 50.7353 47.5553L50.5418 47.856C50.4343 48.0063 50.4773 48.1996 50.6063 48.307L51.0364 48.6721C51.1655 48.7795 51.359 48.7795 51.4881 48.6507L51.7676 48.3929C51.9397 48.4788 52.1333 48.5433 52.3268 48.5648L52.4128 48.9513C52.4558 49.1232 52.6064 49.252 52.7784 49.2306L53.3376 49.1876C53.5096 49.1661 53.6387 49.0373 53.6602 48.844L53.6817 48.4574C53.8753 48.3929 54.0688 48.2855 54.2409 48.1782L54.5634 48.3929C54.714 48.5003 54.9075 48.4574 55.0151 48.3285L55.3807 47.8989C55.4882 47.7701 55.4882 47.5768 55.3592 47.4479L55.1011 47.1687C55.1871 46.9754 55.2732 46.7606 55.3162 46.5459L55.6818 46.46C55.8538 46.417 55.9829 46.2667 55.9614 46.0948L55.9183 45.5364C55.8968 45.3646 55.7678 45.2357 55.5742 45.2143L55.2086 45.1928C55.1441 44.978 55.0366 44.7847 54.9075 44.6129L55.1011 44.3122C55.2086 44.1619 55.1656 43.9686 55.0366 43.8612L54.6065 43.4961C54.4774 43.3887 54.2839 43.3887 54.1548 43.5175L53.8968 43.7538C53.7032 43.6679 53.5096 43.6034 53.2946 43.5605L53.2301 43.2168C53.2086 43.088 53.0365 42.9806 52.8645 42.9806ZM53.6817 46.8251C53.2946 47.2976 52.5849 47.362 52.1117 46.9539C51.6386 46.5673 51.5741 45.8586 51.9827 45.3861C52.3698 44.9136 53.0795 44.8491 53.5527 45.2572C54.0258 45.6438 54.0688 46.3526 53.6817 46.8251Z" fill="#103551"/>
<path d="M49.7889 52.8816C49.6813 53.0105 49.6813 53.2253 49.8104 53.3327L50.0469 53.5904C50.176 53.7193 50.3695 53.7407 50.4986 53.6333L50.7136 53.483C50.8642 53.5689 50.9932 53.6333 51.1652 53.6763L51.1868 53.934C51.2083 54.1059 51.3588 54.2347 51.5309 54.2347H51.875C52.047 54.2347 52.1975 54.1059 52.2191 53.934L52.2621 53.6763C52.4341 53.6333 52.5847 53.5689 52.7352 53.483L52.9503 53.6548C53.0793 53.7622 53.2944 53.7622 53.4019 53.6333L53.66 53.3971C53.789 53.2682 53.8105 53.0749 53.703 52.9461L53.5524 52.7528C53.6385 52.6024 53.7245 52.4306 53.7675 52.2588L54.0256 52.2373C54.1976 52.2158 54.3267 52.0655 54.3267 51.8937V51.55C54.3267 51.3782 54.1976 51.2279 54.0256 51.2064L53.789 51.1849C53.746 51.0131 53.6815 50.8413 53.5954 50.6909L53.746 50.5191C53.8535 50.3902 53.8535 50.1755 53.7245 50.0681L53.4879 49.8103C53.3589 49.6815 53.1653 49.66 53.0363 49.7674L52.8642 49.8963C52.7137 49.8103 52.5632 49.7459 52.3911 49.6815L52.3696 49.4667C52.3481 49.2949 52.1975 49.166 52.0255 49.166H51.6814C51.5093 49.166 51.3588 49.2949 51.3373 49.4667L51.3158 49.6815C51.1437 49.7244 50.9717 49.7889 50.7996 49.8748L50.6276 49.7459C50.4986 49.6385 50.2835 49.6385 50.176 49.7674L49.9179 50.0036C49.7889 50.1325 49.7673 50.3258 49.8749 50.4547L50.0039 50.6265C49.9179 50.7983 49.8319 50.9701 49.7889 51.142L49.5738 51.1634C49.4017 51.1849 49.2727 51.3352 49.2727 51.5071V51.8507C49.2727 52.0225 49.4017 52.1729 49.5738 52.1944L49.8104 52.2158C49.8534 52.3877 49.9179 52.538 50.0039 52.6883L49.7889 52.8816ZM51.1007 51.0131C51.4663 50.6694 52.047 50.6694 52.3911 51.0346C52.7352 51.3997 52.7352 51.9796 52.3696 52.3232C52.004 52.6669 51.4233 52.6669 51.0792 52.3017C50.7351 51.9366 50.7566 51.3567 51.1007 51.0131Z" fill="#103551"/>
<path d="M62.4564 63.6635C62.5424 63.7494 62.5854 63.8568 62.5854 63.9642C62.6069 64.9092 63.1016 66.3912 65.5533 68.8396C68.1125 71.3954 68.3921 71.5458 70.4567 72.0398C70.5427 72.0612 70.6287 72.1042 70.6717 72.1686L75.2095 76.6574C75.4676 76.9152 75.3601 77.3447 75.016 77.4521C73.9192 77.7957 71.8331 78.2897 70.6932 77.8387C69.0803 77.1944 65.5748 76.2494 61.5531 71.288C57.553 66.3697 56.2196 61.9668 57.0153 59.0888C57.0368 59.0244 57.0583 58.9599 57.1228 58.8955C57.2949 58.6807 57.6175 58.6807 57.811 58.874L62.4564 63.6635Z" fill="#103551"/>
<path d="M58.3915 58.7237L62.6712 62.9977C62.8433 63.1696 63.1444 63.1696 63.3164 62.9977L65.2305 61.0862C65.4025 60.9144 65.4025 60.6137 65.2305 60.4419L60.9507 56.1894C60.7787 56.0175 60.4991 56.0175 60.3055 56.1894L58.37 58.0794C58.2194 58.2512 58.1979 58.5519 58.3915 58.7237Z" fill="#103551"/>
<path d="M71.2525 72.0828L75.5322 76.3568C75.7042 76.5286 76.0053 76.5286 76.1774 76.3568L78.0914 74.4453C78.2635 74.2735 78.2635 73.9728 78.0914 73.801L73.8117 69.5269C73.6397 69.3551 73.3601 69.3551 73.1665 69.5269L71.231 71.417C71.0804 71.6103 71.0804 71.8895 71.2525 72.0828Z" fill="#103551"/>
<path d="M46.6274 52.2589V83.8954C46.6274 85.5706 47.9823 86.9237 49.6598 86.9237H63.5743L64.9077 88.5345L67.5314 91.7132L70.1552 88.5345L71.4886 86.9237H85.4031C87.0805 86.9237 88.4354 85.5706 88.4354 83.8954V48.2426C88.4354 46.5674 87.0805 45.2143 85.4031 45.2143H56.4127" stroke="#103551" stroke-width="4.79"/>
<defs>
<filter id="filter0_d_549_5969" x="0.341309" y="0.218079" width="134.909" height="146.227" filterUnits="userSpaceOnUse" color-interpolation-filters="sRGB">
<feFlood flood-opacity="0" result="BackgroundImageFix"/>
<feColorMatrix in="SourceAlpha" type="matrix" values="0 0 0 0 0 0 0 0 0 0 0 0 0 0 0 0 0 0 127 0" result="hardAlpha"/>
<feOffset dy="6"/>
<feGaussianBlur stdDeviation="10"/>
<feColorMatrix type="matrix" values="0 0 0 0 0.12549 0 0 0 0 0.152941 0 0 0 0 0.176471 0 0 0 0.15 0"/>
<feBlend mode="normal" in2="BackgroundImageFix" result="effect1_dropShadow_549_5969"/>
<feBlend mode="normal" in="SourceGraphic" in2="effect1_dropShadow_549_5969" result="shape"/>
</filter>
</defs>
</svg>
