<svg width="132" height="142" viewBox="0 0 132 142" fill="none" xmlns="http://www.w3.org/2000/svg">
<g filter="url(#filter0_d_1632_10967)">
<path d="M62.1499 15.2752C64.6122 13.8657 67.6367 13.8657 70.0989 15.2752L107.24 36.5369C109.73 37.9621 111.266 40.6111 111.266 43.4798V85.8856C111.266 88.7543 109.73 91.4033 107.24 92.8285L70.0989 114.09C67.6367 115.5 64.6121 115.5 62.1499 114.09L25.0089 92.8285C22.5193 91.4033 20.9833 88.7542 20.9833 85.8856L20.9833 43.4798C20.9833 40.6111 22.5193 37.9621 25.0089 36.5369L62.1499 15.2752Z" fill="white"/>
</g>
<path d="M65.5567 47.01C65.6587 47.01 65.7208 46.8978 65.6619 46.8129C64.285 44.8056 60.4874 39.1631 60.4874 39.1631L66.9607 38L73.8912 45.2509C75.0546 46.4685 76.5892 47.2599 78.2513 47.5034C80.7214 47.8655 84.3309 48.4663 85.942 49.0799C86.7659 49.3939 87.5309 49.8136 88.1539 50.4624C89.4926 51.8562 89.2153 53.6185 87.5181 54.5076C86.4807 55.0507 85.3476 55.2222 84.2114 55.275C82.1477 55.3727 78.2035 54.913 76.6673 54.7191C76.2705 54.6694 75.8768 54.8264 75.6219 55.1356L67.3734 65.1485L60.3807 65.1197C60.3807 65.1197 66.2595 54.9754 66.2308 54.6855C62.0046 55.102 58.0939 56.3404 54.725 59.0286C52.1736 61.0633 50.4239 63.6426 49.6016 66.8307C48.6964 70.3408 49.2366 73.7019 50.647 76.9701C50.7107 77.1175 50.7968 77.2537 50.8525 77.4027C51.0023 77.808 51.4979 78.3527 51.0661 78.609C50.5992 78.8862 50.2757 78.2406 50.0382 77.8497C48.486 75.2864 47.4151 72.5484 47.2606 69.5205C47.063 65.6756 48.4382 62.3513 50.7808 59.4083C53.1362 56.4493 56.3202 54.6967 59.8357 53.5897C63.9822 52.284 68.5463 52.2824 69.9582 52.2696C70.1415 52.268 70.2578 52.4666 70.167 52.6268C69.4594 53.8748 63.6715 63.4055 63.6715 63.4055L66.3073 63.4792L74.7183 52.8046C74.8522 52.6348 75.0689 52.5515 75.2808 52.5884C76.9446 52.8815 85.7791 54.0172 86.5191 52.3605C86.5413 52.3108 86.5539 52.0876 86.5 52C85.2791 50.0172 76.5044 49.2481 75 49.1103C74.8088 49.0927 74.6303 49.0062 74.4996 48.8652L65.8085 39.8632L63.7607 40.2237C63.7607 40.2237 68.5017 46.9972 69.6953 48.7002C69.8164 48.8732 69.6921 49.1343 69.4833 49.1103C67.8594 48.9277 64.4794 48.9613 62.4874 49.075C57.458 49.3618 52.3792 50.7075 48.1004 53.5961C43.3068 56.8306 40.5483 61.3468 40.4113 67.2216C40.2838 72.7054 43.4088 77.0166 48.5625 78.8766C51.2844 79.8602 54.0844 80.0893 56.9401 79.8042C61.4245 79.3572 65.8834 78.7436 70.2514 77.5853C72.3502 77.0294 74.3916 76.2508 76.5509 75.9224C77.9151 75.7157 79.2744 75.5827 80.664 75.783C85.354 76.4543 86.4631 80.5876 84.4903 83.9471C83.5612 85.5299 81.9007 86.4479 80.272 87.1688C77.9151 88.2118 75.4147 88.6956 72.8697 88.8863C68.4045 89.2211 64.0205 88.8798 59.8628 87.0006C58.1688 86.2348 56.5959 85.2672 55.1218 84.1345C54.913 83.9743 54.7202 83.7933 54.5624 83.5818C54.5067 83.5065 54.4732 83.42 54.513 83.3223C54.5911 83.1301 54.7776 83.1813 54.9274 83.1861C55.2318 83.1941 55.4819 83.3479 55.7242 83.5161C60.3137 86.6754 65.4579 87.3579 70.8474 86.9349C73.6107 86.7187 76.3007 86.1611 78.8808 85.1182C79.7716 84.7577 80.5987 84.2835 81.3397 83.6651C82.5014 82.6927 83.1182 81.3405 82.8664 80.0124C82.6895 79.0784 81.5931 78.4584 80.7724 78.2486C78.9222 77.7776 77.3191 78.1492 75.5151 78.6347C72.1383 79.543 68.7949 80.5716 65.34 81.1723C62.1512 81.7266 58.9464 82.1976 55.721 82.3306C51.3338 82.5101 47.1506 81.653 43.5586 78.9182C40.1467 76.3213 38.2408 72.8 38.0288 68.5321C37.64 60.6676 41.2702 54.9226 47.7912 50.9158C51.4087 48.6938 55.474 47.779 59.646 47.3176C61.5472 47.1061 63.4547 46.9876 65.5567 47.01Z" fill="#3FC8D5"/>
<defs>
<filter id="filter0_d_1632_10967" x="0.983398" y="0.218079" width="130.282" height="140.929" filterUnits="userSpaceOnUse" color-interpolation-filters="sRGB">
<feFlood flood-opacity="0" result="BackgroundImageFix"/>
<feColorMatrix in="SourceAlpha" type="matrix" values="0 0 0 0 0 0 0 0 0 0 0 0 0 0 0 0 0 0 127 0" result="hardAlpha"/>
<feOffset dy="6"/>
<feGaussianBlur stdDeviation="10"/>
<feColorMatrix type="matrix" values="0 0 0 0 0.0561006 0 0 0 0 0.153723 0 0 0 0 0.237399 0 0 0 0.15 0"/>
<feBlend mode="normal" in2="BackgroundImageFix" result="effect1_dropShadow_1632_10967"/>
<feBlend mode="normal" in="SourceGraphic" in2="effect1_dropShadow_1632_10967" result="shape"/>
</filter>
</defs>
</svg>
