<svg width="136" height="147" viewBox="0 0 136 147" fill="none" xmlns="http://www.w3.org/2000/svg">
<g filter="url(#filter0_d_516_7488)">
<path d="M64.4349 15.5217C66.8971 14.1122 69.9217 14.1122 72.3839 15.5217L111.888 38.1362C114.378 39.5614 115.914 42.2105 115.914 45.0791V90.1906C115.914 93.0593 114.378 95.7083 111.888 97.1335L72.3839 119.748C69.9217 121.158 66.8971 121.158 64.4349 119.748L24.9306 97.1335C22.441 95.7083 20.9051 93.0593 20.9051 90.1906L20.9051 45.0791C20.9051 42.2105 22.441 39.5614 24.9306 38.1362L64.4349 15.5217Z" fill="white"/>
</g>
<path d="M42.5369 64.9272H49.6407C49.7743 63.9547 50.0293 63.0028 50.3998 62.0938H39.5056V78.4666H42.5369V71.7666H49.1169V68.9332H42.5369V64.9272Z" fill="black"/>
<path d="M54.002 64.927C54.4676 62.7807 55.8493 60.9457 57.7833 59.9051C59.7174 58.8644 62.01 58.7224 64.0576 59.5165C64.6471 54.7352 68.7109 51.1451 73.5284 51.1496C78.3458 51.1542 82.4029 54.7519 82.9833 59.5343C85.6431 58.4039 88.6926 58.6829 91.1031 60.2772C93.5136 61.8716 94.9636 64.5687 94.9642 67.4588C94.9642 69.9954 94.0705 71.8816 92.6935 73.6479H96.0265C97.2554 71.8188 97.9059 69.6624 97.8934 67.4588C97.9018 64.1704 96.5041 61.0353 94.0526 58.8437C91.601 56.6522 88.3294 55.6132 85.0626 55.9889C83.1444 51.2726 78.5508 48.1969 73.4595 48.2196C68.3681 48.2426 63.8023 51.3594 61.9265 56.0927C61.7367 56.0829 61.5486 56.0764 61.3572 56.0764C56.2046 56.0847 51.8223 59.8371 51.021 64.927H54.002Z" fill="black"/>
<path d="M53.9398 66.1871H50.9961V78.4712H53.9398V66.1871Z" fill="black"/>
<path d="M55.2024 66.1871H58.3894L61.3558 74.3338H61.4207L64.2103 66.1871H67.4411L62.4619 78.4664H60.1589L55.2024 66.1871Z" fill="black"/>
<path d="M82.6916 78.4667L86.3214 72.9328C86.06 72.9898 85.7922 73.0121 85.525 72.9993C83.2009 72.9766 80.6772 70.9412 80.6772 67.665C80.6772 64.1893 83.355 61.7775 86.3441 61.7775C89.2878 61.7775 92.032 64.0563 92.032 67.6422C92.0247 68.3379 91.8974 69.027 91.6557 69.6793C91.4056 70.3244 91.0864 70.9405 90.7037 71.5169L86.1446 78.4667H82.6916ZM86.3668 64.5655C84.573 64.5655 83.621 66.1144 83.621 67.399C83.621 69.0598 84.7563 70.2762 86.3668 70.2762C88.1363 70.2762 89.0883 68.7273 89.0883 67.5109C89.0883 65.9003 87.9157 64.572 86.3668 64.572V64.5655Z" fill="black"/>
<path d="M76.2296 74.9098C75.6554 75.7208 74.7569 76.1716 73.5924 76.1716C71.4839 76.1716 70.3389 74.4443 70.2059 73.648H79.7458C79.8593 73.1614 79.9185 72.6637 79.9226 72.164C79.9226 69.0662 77.4654 65.7008 73.5697 65.7008C69.7858 65.7008 67.1081 68.8878 67.1081 72.3635C67.0942 74.0902 67.7726 75.7506 68.9916 76.9736C70.2107 78.1966 71.8688 78.8804 73.5956 78.8721C76.335 78.8721 78.5926 77.0069 79.4036 74.9098H76.2296ZM73.5924 68.4012C75.0521 68.4012 76.5799 69.3095 76.9124 71.2801H70.1167C70.6714 68.9981 72.5073 68.4012 73.5924 68.4012Z" fill="black"/>
<path d="M90.4065 77.4595C90.392 77.0786 90.5361 76.7086 90.8044 76.4378C91.0727 76.167 91.4413 76.0196 91.8224 76.0307C92.7145 76.0307 93.2821 76.6518 93.2821 77.4401C93.2619 78.215 92.6306 78.8342 91.8554 78.8395C91.0802 78.8447 90.4405 78.2342 90.4098 77.4595H90.4065ZM93.0291 77.4401C93.0291 76.7719 92.5766 76.2642 91.824 76.2674C91.1693 76.2742 90.6439 76.8104 90.6506 77.4652C90.6573 78.12 91.1936 78.6454 91.8484 78.6386C92.5944 78.6289 93.0275 78.118 93.0275 77.4401H93.0291ZM91.3505 76.7021H91.9165C92.0494 76.6914 92.1808 76.7357 92.2801 76.8246C92.3795 76.9135 92.438 77.0392 92.442 77.1725C92.4526 77.3577 92.3482 77.5304 92.1792 77.6071L92.5036 78.2056H92.2165L91.9489 77.6558H91.6132V78.1991H91.3553L91.3505 76.7021ZM91.8986 77.4385C92.0411 77.4385 92.1565 77.323 92.1565 77.1806C92.1565 77.0382 92.0411 76.9227 91.8986 76.9227H91.6132V77.4385H91.8986Z" fill="black"/>
<defs>
<filter id="filter0_d_516_7488" x="0.905029" y="0.464539" width="135.009" height="146.341" filterUnits="userSpaceOnUse" color-interpolation-filters="sRGB">
<feFlood flood-opacity="0" result="BackgroundImageFix"/>
<feColorMatrix in="SourceAlpha" type="matrix" values="0 0 0 0 0 0 0 0 0 0 0 0 0 0 0 0 0 0 127 0" result="hardAlpha"/>
<feOffset dy="6"/>
<feGaussianBlur stdDeviation="10"/>
<feColorMatrix type="matrix" values="0 0 0 0 0.12549 0 0 0 0 0.152941 0 0 0 0 0.176471 0 0 0 0.15 0"/>
<feBlend mode="normal" in2="BackgroundImageFix" result="effect1_dropShadow_516_7488"/>
<feBlend mode="normal" in="SourceGraphic" in2="effect1_dropShadow_516_7488" result="shape"/>
</filter>
</defs>
</svg>
