<svg width="132" height="142" viewBox="0 0 132 142" fill="none" xmlns="http://www.w3.org/2000/svg">
<g filter="url(#filter0_d_781_7347)">
<path d="M62.0079 15.4133C64.4701 14.0038 67.4946 14.0038 69.9568 15.4133L107.098 36.675C109.588 38.1002 111.123 40.7492 111.123 43.6178V86.0237C111.123 88.8923 109.587 91.5414 107.098 92.9665L69.9568 114.228C67.4946 115.638 64.4701 115.638 62.0078 114.228L24.8668 92.9665C22.3772 91.5414 20.8413 88.8923 20.8413 86.0237L20.8413 43.6178C20.8413 40.7492 22.3772 38.1002 24.8668 36.675L62.0079 15.4133Z" fill="white"/>
</g>
<g clip-path="url(#clip0_781_7347)">
<path d="M45.6409 61.6978C45.4764 62.9109 46.0985 63.4416 46.6937 63.9511C47.2888 64.4606 47.2918 64.8609 46.6937 65.3886C46.0955 65.9162 45.3358 66.4469 45.7396 67.6236C45.5248 67.5434 45.3185 67.4418 45.1234 67.3204C42.2073 64.5515 42.2073 64.5515 45.6409 61.6978Z" fill="#1698D3"/>
<path d="M56.1387 45.6006C58.8066 40.8726 57.356 41.2426 61.8214 43.8537C61.7795 43.9174 61.7406 44.0387 61.6958 44.0418C60.2541 44.1388 60.3678 46.1646 59.3509 46.2586C58.4387 46.3435 57.6281 44.903 56.1387 45.6006Z" fill="#1698D3"/>
<path d="M61.8757 85.2767C61.759 85.4617 61.7411 85.5193 61.7022 85.5435C57.3206 88.0364 58.8399 88.4579 56.187 83.821C56.5558 83.9707 56.9573 84.0179 57.3501 83.9576C57.7428 83.8974 58.1126 83.7319 58.4212 83.4783C59.145 82.9021 59.7282 82.89 60.123 83.8786C60.4281 84.6429 60.9096 85.2585 61.8757 85.2767Z" fill="#1698D3"/>
<path d="M75.7084 84.0333C73.9856 87.7998 73.9856 87.7998 70.7405 85.8134C70.576 85.7103 70.4175 85.5951 70.0825 85.3707C70.5067 85.3182 70.9081 85.1468 71.2415 84.8757C71.5749 84.6046 71.8271 84.2446 71.9698 83.8362C72.3048 82.9446 72.7893 82.8596 73.5221 83.4085C73.8272 83.6548 74.1778 83.8369 74.5532 83.9441C74.9286 84.0514 75.3213 84.0817 75.7084 84.0333Z" fill="#1698D3"/>
<path d="M45.623 74.8656C46.0567 75.9756 46.7356 76.3364 47.5611 76.4335C48.3866 76.5305 48.6976 76.9733 48.4045 77.7678C48.1114 78.5624 47.9708 79.2599 48.5451 80.0999C47.1992 80.0999 46.2062 79.5844 45.1474 79.3933C44.5911 79.2933 44.4685 78.9233 44.633 78.3835C44.95 77.3281 45.2342 76.2606 45.623 74.8656Z" fill="#1698D3"/>
<path d="M86.5088 68.8246C86.8079 69.3068 87.0232 69.6373 87.2206 69.9831C88.7669 72.673 88.6114 73.1067 85.7461 74.2288C85.447 74.341 84.9386 74.3986 84.9954 74.2045C85.3364 73.0642 84.4541 72.3849 84.152 71.4994C83.9935 71.0354 84.493 70.9383 84.7651 70.7988C85.5637 70.3955 86.2546 69.8981 86.5088 68.8246Z" fill="#1698D3"/>
<path d="M86.425 60.7122C86.3353 59.3233 85.5935 58.8926 84.8189 58.553C84.0981 58.2254 84.0562 57.8403 84.448 57.164C84.765 56.6212 85.3453 56.145 84.9864 55.2807C84.8099 54.838 85.3961 54.8592 85.7132 55.0351C86.5357 55.493 87.3372 55.9934 88.1567 56.4604C88.6592 56.7455 88.5156 57.067 88.2913 57.4551C87.726 58.4135 87.1847 59.3687 86.425 60.7122Z" fill="#1698D3"/>
<path d="M68.8384 44.0327C67.343 43.596 66.9691 45.549 65.9492 45.4519C65.019 45.361 64.6093 43.6778 63.063 44.0509C63.8227 42.8378 64.8246 42.0887 65.6501 41.1941C65.997 40.818 66.2483 41.0516 66.5235 41.3033C67.3489 42.0857 68.1764 42.8661 69.0059 43.6445L68.8384 44.0327Z" fill="#1698D3"/>
<path d="M48.6109 49.2397C47.5731 50.3891 48.8562 51.4809 48.4195 52.3755C47.9828 53.2701 46.3648 52.7091 45.8802 53.8918C45.8473 53.9737 45.7486 54.0313 45.5811 54.1951C45.4675 53.8615 45.3508 53.5886 45.2821 53.2853C44.319 49.7523 44.4685 49.5521 48.6109 49.2397Z" fill="#1698D3"/>
<path d="M75.6129 45.2972C75.5651 45.2972 75.5113 45.3458 75.4694 45.3336C74.273 44.9576 73.4386 46.5679 72.5204 46.1767C71.65 45.8067 71.659 44.1418 69.9512 43.9811C71.2313 43.2229 72.2332 42.6467 73.2143 42.0432C73.6749 41.7581 73.962 41.9219 74.1594 42.3465C74.623 43.3381 75.4006 44.1661 75.6548 45.2548L75.6129 45.2972Z" fill="#1698D3"/>
<path d="M50.9141 46.8955C50.8602 46.7592 50.8191 46.6181 50.7915 46.474C51.3568 42.5315 51.3568 42.5315 55.6248 43.9053C55.4842 44.0721 55.3945 44.2722 55.242 44.3481C54.1682 44.8697 54.8741 46.571 53.7734 46.8652C52.8911 47.1017 51.934 45.9796 50.9141 46.8955Z" fill="#1698D3"/>
<path d="M50.833 82.5473C51.9366 83.2782 53.1868 81.9923 54.0303 82.5473C54.8199 83.0689 54.2785 84.7551 55.5736 85.1766C55.4151 85.7073 55.0472 85.5982 54.8019 85.6709C51.3385 86.7051 50.9138 86.3563 50.8569 82.517L50.833 82.5473Z" fill="#1698D3"/>
<path d="M86.3439 74.7776C86.5981 75.5206 86.6699 75.7026 86.7237 75.8906C87.7975 79.5298 87.6031 79.7906 83.6401 80.0878C83.4188 79.8846 83.6401 79.7421 83.7358 79.6147C84.5224 78.6261 82.9283 77.5283 83.7358 76.7337C84.4267 76.0665 85.8713 76.5578 86.3439 74.7776Z" fill="#1698D3"/>
<path d="M63.1558 85.3252C63.5478 85.3883 63.9494 85.3362 64.313 85.1749C64.6767 85.0137 64.9871 84.7501 65.2075 84.4154C65.7399 83.6724 66.2244 83.6148 66.8256 84.376C67.3191 85.0038 67.8724 85.6406 68.8026 85.2646C68.8289 85.4102 68.8127 85.5604 68.7558 85.6968C68.6989 85.8331 68.6039 85.9496 68.4826 86.0318C65.8296 88.7855 65.4887 88.746 63.1558 85.3252Z" fill="#1698D3"/>
<path d="M83.712 49.2124C83.8094 49.186 83.9103 49.1747 84.0111 49.1791C87.8245 49.8614 88.0368 50.286 86.4307 53.9767C86.1556 54.0586 86.1047 53.813 86.024 53.6553C85.4916 52.606 83.6941 53.352 83.5834 52.1935C83.4967 51.2534 84.0619 50.2223 83.7389 49.1821L83.712 49.2124Z" fill="#1698D3"/>
<path d="M81.3133 47.226C80.5267 46.2131 79.776 46.5042 79.0043 46.765C78.2895 47.0077 77.79 46.8985 77.6554 45.9766C77.5328 45.1486 77.3294 44.2965 75.9058 43.9902L76.9735 43.7051C80.8019 42.6497 80.9125 42.7316 81.3133 47.226Z" fill="#1698D3"/>
<path d="M81.1755 82.5291C81.2443 82.7353 81.3131 82.8323 81.2981 82.9112C80.5624 86.7323 80.5624 86.7323 76.3452 85.3949C76.7263 85.1705 77.0475 84.8551 77.281 84.4761C77.5145 84.0972 77.6532 83.6662 77.6851 83.2205C77.8048 82.3289 78.3491 82.3107 78.9652 82.5533C79.716 82.8505 80.4427 82.9233 81.1755 82.5291Z" fill="#1698D3"/>
<path d="M45.4886 60.3453C45.2553 59.9723 45.01 59.6053 44.7887 59.2232C43.2514 56.5636 43.3172 56.3725 46.1765 55.1504C46.3564 55.0828 46.5402 55.0261 46.7268 54.9805C47.0174 55.9514 47.3969 56.8926 47.8603 57.7918C48.0787 58.2528 47.4625 58.3983 47.1545 58.5985C46.4965 59.0261 45.659 59.2808 45.4886 60.3453Z" fill="#1698D3"/>
<path d="M47.2022 74.7777L46.4634 74.3349C43.1435 72.3273 43.1435 72.3273 45.5662 68.9762C45.8952 69.052 45.7964 69.3583 45.8383 69.5554C46.0866 70.6866 47.9768 70.3591 47.8063 71.6419C47.6658 72.576 46.6159 73.3038 47.2022 74.7777Z" fill="#1698D3"/>
<path d="M86.3889 67.7359C86.5953 66.5471 86.0689 65.9163 85.3899 65.3704C84.7648 64.8761 84.7918 64.4363 85.3899 63.9329C86.0509 63.3871 86.6192 62.7654 86.4158 61.7646C86.5953 61.8161 86.7149 61.8131 86.7777 61.8738C89.8045 64.685 89.8015 64.685 86.3889 67.7359Z" fill="#1396D2"/>
<path d="M86.425 48.0175C85.6713 47.314 84.8638 47.3413 84.0742 47.411C83.2846 47.4808 83.0154 47.1896 83.0633 46.392C83.1111 45.5945 83.2756 44.7393 82.4292 43.9659C83.5328 43.9659 84.6365 43.9872 85.7401 43.9659C86.4011 43.9477 86.434 44.348 86.428 44.8454C86.425 45.9008 86.425 46.9592 86.425 48.0175Z" fill="#1396D2"/>
<path d="M82.0073 85.216C83.6523 84.3456 82.5218 82.7141 83.3413 82.053C84.077 81.4464 85.4917 82.335 86.2933 81.0431C86.3497 81.2417 86.3907 81.4445 86.4159 81.6496C86.4787 85.6072 86.4757 85.6072 82.0073 85.216Z" fill="#1396D2"/>
<path d="M49.5561 43.969C49.5561 44.1419 49.5561 44.2116 49.5412 44.2359C48.6439 45.1062 49.5412 46.568 48.7785 47.2685C48.0846 47.9023 46.7267 46.944 45.668 48.4058V44.5786C45.668 44.0145 46.0478 43.972 46.4695 43.972C47.4984 43.972 48.5273 43.969 49.5561 43.969Z" fill="#1396D2"/>
<path d="M49.3377 85.2948C49.4394 85.2615 49.3377 85.3161 49.2539 85.3221C45.4854 85.5678 45.2581 85.3221 45.7755 81.3797C45.9008 81.4395 46.0337 81.4813 46.1703 81.504C48.6198 81.5283 49.5141 82.9718 49.3377 85.2948Z" fill="#1396D2"/>
<path d="M50.5941 52.4755C50.4714 52.3026 50.4236 52.2663 50.4236 52.2299C50.4236 48.1995 49.628 48.8424 54.0127 48.9425C53.1154 49.7583 53.8781 51.0289 53.235 51.6719C52.592 52.3148 51.276 51.4535 50.5941 52.4755Z" fill="#1698D3"/>
<path d="M66.4248 47.6385C70.5702 45.0789 69.2751 44.9606 71.3927 48.6241C71.3448 48.6908 71.2701 48.8212 71.2521 48.8151C70.2053 48.4027 69.4965 49.7613 68.656 49.4611C67.8156 49.1609 67.8814 47.6718 66.4248 47.6385Z" fill="#1698D3"/>
<path d="M82.106 57.9525C81.9116 57.7281 81.8069 57.4855 81.6544 57.4461C79.5607 56.9426 79.2617 55.5082 79.8868 53.6795C83.099 53.7553 83.2126 53.9494 82.106 57.9525Z" fill="#1698D3"/>
<path d="M66.5205 81.7285C67.9173 81.6708 67.8544 79.9877 68.7517 79.8027C69.5832 79.6268 70.304 80.9885 71.4106 80.4699C71.4106 80.6458 71.4286 80.7065 71.4106 80.7398C69.2213 84.3214 70.6091 84.3001 66.5205 81.7285Z" fill="#1698D3"/>
<path d="M77.1023 51.0078C75.9956 50.3376 74.895 51.311 74.1592 50.847C73.4235 50.383 73.8601 48.8697 72.583 48.4846C76.193 47.0289 76.193 47.0289 77.1023 51.0078Z" fill="#1698D3"/>
<path d="M79.7701 75.7632C79.7073 75.6146 79.6685 75.5661 79.6744 75.5297C79.8838 74.4076 80.793 72.8519 82.115 71.3841C82.1778 71.5994 82.2287 71.7632 82.2735 71.93C83.1349 75.1385 83.1349 75.1385 79.7701 75.7632Z" fill="#1698D3"/>
<path d="M52.2059 75.7997C52.1053 75.7854 52.0055 75.7662 51.9068 75.742C48.5989 74.8656 48.5989 74.8656 50.0345 71.4963L50.2468 71.6025C52.0294 72.397 53.0224 73.6192 52.2059 75.7997Z" fill="#1698D3"/>
<path d="M49.8672 57.6068C49.6728 56.9154 49.4545 55.9965 49.1584 55.1049C48.961 54.4983 49.2182 54.2709 49.7207 54.1405L52.3557 53.4612C52.4484 53.6037 52.4962 53.6431 52.4992 53.6856C52.58 55.6083 52.2749 57.2945 49.8672 57.6068Z" fill="#1698D3"/>
<path d="M49.066 65.3279C49.1856 65.4068 49.2514 65.425 49.2514 65.4492C49.3142 66.6866 51.0459 66.5046 51.1028 67.5084C51.1416 68.3515 49.9393 69.0065 50.5046 70.1529C50.3213 70.1375 50.1406 70.0998 49.9662 70.0407C47.0262 68.3485 47.0262 68.3454 49.066 65.3279Z" fill="#1698D3"/>
<path d="M81.9623 69.9891C80.5985 68.036 81.065 66.5106 83.1347 65.5068C83.0899 65.4522 83.2245 65.5796 83.3172 65.7343C85.016 68.6122 85.016 68.6153 81.9623 69.9891Z" fill="#1698D3"/>
<path d="M59.5067 80.7945C59.3392 80.9218 59.3034 80.9704 59.2615 80.9825C55.0742 82.1228 56.124 82.7687 55.0503 78.5564C55.1221 78.5078 55.2417 78.4017 55.2597 78.4199C56.1569 79.1932 57.2755 77.8588 57.9933 78.5624C58.6095 79.1599 58.2027 80.5215 59.5067 80.7945Z" fill="#1698D3"/>
<path d="M65.4886 47.4475C65.2702 47.59 65.1895 47.6749 65.1147 47.684C63.9782 47.7932 64.2174 49.5036 63.2065 49.5036C62.393 49.5188 61.7649 48.424 60.6553 48.8971C60.9065 47.7174 61.6423 46.944 62.067 46.0191C62.2943 45.5248 62.6083 45.734 62.9044 45.9099C63.7179 46.386 64.5195 46.8682 65.4886 47.4475Z" fill="#1698D3"/>
<path d="M49.2421 63.9966C49.0267 63.8904 48.9669 63.8813 48.943 63.848C46.966 60.9336 46.966 60.9336 50.2081 59.2202C50.2769 59.2747 50.4205 59.3657 50.4085 59.387C49.936 60.4726 51.3836 61.1459 51.0815 61.992C50.7794 62.8381 49.3378 62.7471 49.2421 63.9966Z" fill="#1698D3"/>
<path d="M82.9705 64.0481C82.8718 63.8752 82.8419 63.7448 82.7701 63.7085C81.0144 62.5742 80.7363 61.0973 81.9596 59.2929C81.8489 59.2929 81.9596 59.2505 82.0343 59.2929C85.3602 61.3369 85.2944 60.1269 82.9705 64.0481Z" fill="#1698D3"/>
<path d="M59.4586 48.3542C59.324 48.4877 59.1767 48.6076 59.019 48.712C58.0529 49.1639 58.6571 50.7803 57.6342 50.9258C56.8476 51.038 55.9802 50.4406 54.9424 51.0259C55.2415 49.8856 55.4628 48.9758 55.6841 48.063C55.8247 47.4898 56.1268 47.3898 56.6741 47.5748C57.5505 47.872 58.4687 48.0812 59.4586 48.3542Z" fill="#1698D3"/>
<path d="M72.6367 80.9612C73.0405 80.5124 73.5998 80.3547 73.6446 79.7633C73.7463 78.4138 74.3954 78.1014 75.6067 78.6049C76.16 78.8384 77.3474 78.3228 76.7761 79.6754C76.4082 80.5549 76.9137 82.4715 74.8081 81.6072C74.0954 81.3552 73.3707 81.1396 72.6367 80.9612Z" fill="#1698D3"/>
<path d="M60.8018 81.031C62.7668 79.1174 64.0917 80.2001 65.2702 81.9863C64.5583 82.4169 63.7179 82.9113 62.8924 83.4298C62.4497 83.7088 62.1836 83.5663 61.9592 83.1448C61.5614 82.3987 61.1487 81.6648 60.8018 81.031Z" fill="#1698D3"/>
<path d="M78.3791 48.8849C78.3133 48.9061 78.3582 48.8849 78.4061 48.8849C81.9144 48.7514 81.9144 48.7514 81.5465 52.3542L81.4 52.333C79.4559 52.0843 78.107 51.2503 78.3791 48.8849Z" fill="#1698D3"/>
<path d="M81.6393 76.5578V78.6594C81.6393 80.479 81.1069 80.8854 79.3512 80.4487C78.1249 80.1454 78.8129 79.1386 78.6753 78.4471C78.5497 77.8133 78.7441 77.3766 79.5277 77.4373C80.2186 77.4888 80.9274 77.5373 81.6393 76.5578Z" fill="#1698D3"/>
<path d="M53.5819 68.033C55.0504 68.8822 56.1959 69.9072 54.9906 71.745C52.1762 71.1415 52.1463 71.0657 53.5819 68.033Z" fill="#1698D3"/>
<path d="M76.8897 57.4339C80.4788 58.6864 79.761 58.1708 78.5048 61.1641C76.6595 60.5788 76.2258 59.2565 76.8897 57.4339Z" fill="#1698D3"/>
<path d="M69.4395 51.9661C72.224 50.753 72.224 50.753 73.1362 53.5643C71.3536 54.4225 70.1274 53.7857 69.4395 51.9661Z" fill="#1698D3"/>
<path d="M53.6177 61.4371C53.4215 60.9054 53.1968 60.3851 52.9447 59.8783C52.3974 58.9018 52.4482 58.2255 53.6805 57.9495C54.1351 57.8494 54.7183 57.2793 54.9935 57.6917C55.3608 58.3326 55.5662 59.0556 55.5916 59.7964C55.6275 60.2301 54.9935 60.2846 54.6645 60.4029C54.1231 60.5485 53.9825 61.0368 53.6177 61.4371Z" fill="#1698D3"/>
<path d="M78.4928 68.1816C79.9883 70.9535 79.8776 71.1718 76.9076 71.8208C76.1719 70.0589 76.6235 68.7609 78.4928 68.1816Z" fill="#1698D3"/>
<path d="M73.1274 75.6601C72.2959 78.6321 72.2959 78.6321 69.3589 77.2796C70.9261 75.6965 71.1026 75.6207 73.1274 75.6601Z" fill="#1396D2"/>
<path d="M62.5842 51.9934C61.9562 53.725 60.8436 54.5681 59.04 53.4612C59.6143 50.6075 59.713 50.568 62.5842 51.9934Z" fill="#1698D3"/>
<path d="M58.8813 75.824C59.2044 75.3994 59.5423 75.824 59.7786 75.6541C61.5732 74.3713 61.7317 76.4517 62.5961 77.0613C62.8533 77.2432 62.596 77.3645 62.4196 77.4373C61.7795 77.7133 61.1455 78.0014 60.5024 78.2652C60.0927 78.432 59.8684 78.2349 59.7188 77.8376C59.4407 77.1401 59.1416 76.4548 58.8813 75.824Z" fill="#1698D3"/>
<path d="M53.5247 66.635C51.3055 64.5668 51.3055 64.5668 53.5965 62.6744C54.8826 63.9633 55.2235 65.331 53.5247 66.635Z" fill="#1396D2"/>
<path d="M63.9424 52.2208C65.9283 49.7431 65.9283 49.7431 68.1835 52.1753C67.1397 52.1753 66.8017 53.3702 66.024 53.3884C65.2464 53.4066 64.9862 52.1086 63.9424 52.2208Z" fill="#1396D2"/>
<path d="M78.4483 66.7472C77.5511 64.597 77.5511 64.597 78.4483 62.6561C81.2059 65.1581 80.8321 64.3514 78.4483 66.7472Z" fill="#1396D2"/>
<path d="M64.1035 77.3281C65.4135 75.745 66.7385 75.8542 67.9528 77.3099C65.5661 79.9301 66.3497 79.6935 64.1035 77.3281Z" fill="#1396D2"/>
<path d="M74.8647 76.4122C75.5706 74.5381 75.6573 74.4471 77.5565 73.5767C78.0291 77.1613 78.0142 76.5972 74.8647 76.4122Z" fill="#1396D2"/>
<path d="M57.3711 76.391C54.2067 76.8034 54.1738 76.7701 54.44 73.5706C55.1518 74.1317 56.1687 73.6252 56.6921 74.1771C57.2156 74.7291 56.5426 75.7723 57.3711 76.391Z" fill="#1396D2"/>
<path d="M57.1142 52.8758C57.1291 54.6772 56.4322 55.8205 54.4223 55.5446C54.1233 52.5968 54.1233 52.5938 57.1142 52.8758Z" fill="#1396D2"/>
<path d="M53.5247 79.8179C53.7102 80.0363 54.5416 80.3092 53.5606 80.473C52.7441 80.6094 51.8857 80.4881 51.0483 80.5003C50.5248 80.5003 50.3693 80.2334 50.3783 79.7512C50.3783 78.8171 50.3783 77.8861 50.3783 76.5336C51.1111 77.5101 51.8408 77.4434 52.5646 77.4646C52.8637 77.4646 53.4619 77.2402 53.2914 77.9862C52.8458 77.9862 52.3942 78.0287 51.9515 77.9862C51.1081 77.9104 50.8209 78.2713 50.8299 79.1204C50.8389 79.9696 51.2247 80.1454 51.9396 80.1212C52.4839 80.0969 53.0282 80.1212 53.5247 79.8179Z" fill="#1698D3"/>
<path d="M71.9906 73.04C71.9098 71.4145 72.5558 70.4622 74.3085 70.7382C74.5597 73.2522 74.5597 73.2522 71.9906 73.04Z" fill="#1698D3"/>
<path d="M74.3205 58.6318C72.7623 58.6894 71.8769 57.9798 71.9667 56.3118C74.5 55.8933 74.5149 55.9085 74.3205 58.6318Z" fill="#1698D3"/>
<path d="M66.646 74.0983C67.3668 72.8853 68.1684 71.7692 69.5113 72.8307C70.0915 73.2916 69.4604 74.1711 69.1045 74.5229C68.1983 75.4145 67.5343 74.1377 66.646 74.0983Z" fill="#1698D3"/>
<path d="M58.2715 68.6365C57.5956 68.3636 57.129 68.2059 56.6893 67.9906C56.3663 67.8329 55.792 67.7965 55.9685 67.2385C56.1844 66.6324 56.4382 66.0408 56.7282 65.4674L58.2087 66.2498C58.5586 66.4348 58.5078 66.7047 58.3732 67.008C58.2383 67.2549 58.1592 67.529 58.1416 67.8107C58.124 68.0923 58.1684 68.3744 58.2715 68.6365Z" fill="#1698D3"/>
<path d="M53.525 79.8179C53.0374 80.1212 52.4931 80.103 51.9458 80.1212C51.2309 80.1454 50.8451 79.9574 50.8361 79.1204C50.8272 78.2834 51.1143 77.9073 51.9577 77.9862C52.4004 78.0256 52.855 77.9862 53.2976 77.9862C53.3634 78.6049 53.4412 79.2114 53.525 79.8179Z" fill="#1396D2"/>
<path d="M74.1083 68.4364C73.2709 66.9504 73.8092 65.9556 75.2628 65.3582C76.5549 67.6873 76.5549 67.6873 74.1083 68.4364Z" fill="#1698D3"/>
<path d="M75.2089 53.1852C75.9566 52.9456 76.8389 53.3459 77.6734 52.6484V55.7083C76.4172 55.3262 74.7333 55.3747 75.2089 53.1852Z" fill="#1396D2"/>
<path d="M56.7493 63.8631C55.6726 61.531 55.2688 61.7676 58.0473 60.8487C58.6096 62.2286 58.4212 63.3203 56.7493 63.8631Z" fill="#1698D3"/>
<path d="M75.3582 64.0481C74.3742 63.2688 72.9655 62.6865 74.0332 61.2338C74.6015 60.4605 75.4718 61.1975 75.7978 61.5553C76.5545 62.4135 75.4808 63.1383 75.3582 64.0481Z" fill="#1698D3"/>
<path d="M66.5864 55.029C67.6572 55.305 68.2942 53.5946 69.1676 54.9168C69.4188 55.2929 70.1037 55.9358 69.4308 56.4574C67.9951 57.5825 67.4 56.3604 66.5864 55.029Z" fill="#1698D3"/>
<path d="M65.5425 74.1924C64.4598 74.0407 63.8287 75.6298 62.9285 74.4441C62.6294 74.062 61.9265 73.3463 62.6683 72.7822C64.1278 71.6722 64.6632 73.0703 65.5425 74.1924Z" fill="#1698D3"/>
<path d="M62.0371 56.3301C62.9852 55.8934 62.2794 53.7978 64.0978 54.6803C64.5136 54.8835 65.4916 54.9836 65.1955 55.4354C64.8994 55.8873 64.7738 56.8426 64.1487 56.9275C63.5834 57.0063 62.9553 56.6151 62.0371 56.3301Z" fill="#1698D3"/>
<path d="M57.7574 70.6745C59.3216 70.6593 60.1202 71.4266 60.0783 72.9823C57.6407 73.3614 57.6407 73.3614 57.7574 70.6745Z" fill="#1396D2"/>
<path d="M59.5067 58.3043L58.3433 58.3528C58.2936 58.2363 58.2092 58.1386 58.1019 58.0733C57.9946 58.008 57.8698 57.9785 57.7451 57.9889C57.6972 55.9995 57.2217 56.1269 60.1887 56.2178C59.9308 56.7735 59.7911 57.378 59.7789 57.9919L59.5067 58.3043Z" fill="#1698D3"/>
<path d="M60.6675 68.0088C62.2228 67.8572 62.8508 68.3272 62.812 69.5039C62.812 69.8344 62.3723 69.9467 61.6156 69.8526C60.1321 69.6646 61.4421 68.5243 60.6675 68.0088Z" fill="#1698D3"/>
<path d="M71.3179 63.296C72.7206 64.6486 72.7206 64.6486 71.3388 66.0254C70.4655 64.6546 70.4655 64.6546 71.3179 63.296Z" fill="#1698D3"/>
<path d="M67.3401 59.299C66.4996 60.2088 65.6233 60.2998 64.7529 59.3506C65.9403 57.7311 65.9403 57.7311 67.3401 59.299Z" fill="#1698D3"/>
<path d="M67.2979 69.9921C66.1016 71.5084 66.1016 71.5084 64.6929 70.0345C66.0866 69.1642 66.0866 69.1642 67.2979 69.9921Z" fill="#1698D3"/>
<path d="M71.1232 68.7487C71.3745 69.8647 70.7583 69.9436 70.0525 69.8405C69.7773 69.8011 69.2748 70.165 69.2838 69.4129C69.2838 68.3545 69.8461 67.9572 70.7793 67.9239C71.7124 67.8905 70.7942 68.6517 71.1232 68.7487Z" fill="#1698D3"/>
<path d="M69.2358 59.5386C71.2038 59.4537 71.2038 59.4537 71.1201 61.3309C69.5529 61.1216 69.5529 61.1216 69.2358 59.5386Z" fill="#1698D3"/>
<path d="M61.0022 60.688C60.8108 59.666 61.1907 59.3748 61.9354 59.4931C62.2794 59.5477 62.8327 59.2202 62.7429 60.0814C62.6532 60.9427 62.4439 61.2702 61.5466 61.3097C60.7301 61.3461 61.0621 60.8093 61.0022 60.688Z" fill="#1698D3"/>
<path d="M60.7748 63.3173C61.5853 64.1846 61.7648 65.061 60.8167 65.898C59.1178 64.8215 59.1148 64.7547 60.7748 63.3173Z" fill="#1698D3"/>
<path d="M57.7538 57.9828C57.8786 57.9724 58.0034 58.0019 58.1107 58.0672C58.218 58.1325 58.3024 58.2303 58.352 58.3467C58.1815 58.4802 57.9124 58.7561 57.8615 58.7198C57.6043 58.5469 57.7299 58.2497 57.7538 57.9828Z" fill="#1396D2"/>
<path d="M59.5068 58.3043L59.785 58.001C59.8059 58.2012 59.7371 58.3225 59.5068 58.3043Z" fill="#1396D2"/>
<path d="M75.6577 45.2457L75.8401 45.3943C75.8042 45.4156 75.7444 45.461 75.7354 45.455C75.7265 45.4489 75.6547 45.3428 75.6128 45.2852L75.6577 45.2457Z" fill="#1698D3"/>
<path d="M50.8632 82.5139L50.7017 82.429C50.7316 82.429 50.7764 82.4108 50.7854 82.429C50.8087 82.4646 50.8268 82.5034 50.8392 82.5442L50.8632 82.5139Z" fill="#1698D3"/>
<path d="M83.733 49.1882L83.5835 49.1154C83.6104 49.1154 83.6523 49.1002 83.6613 49.1154C83.6825 49.148 83.6987 49.1839 83.7091 49.2215L83.733 49.1882Z" fill="#1698D3"/>
</g>
<defs>
<filter id="filter0_d_781_7347" x="0.841309" y="0.35614" width="130.282" height="140.929" filterUnits="userSpaceOnUse" color-interpolation-filters="sRGB">
<feFlood flood-opacity="0" result="BackgroundImageFix"/>
<feColorMatrix in="SourceAlpha" type="matrix" values="0 0 0 0 0 0 0 0 0 0 0 0 0 0 0 0 0 0 127 0" result="hardAlpha"/>
<feOffset dy="6"/>
<feGaussianBlur stdDeviation="10"/>
<feColorMatrix type="matrix" values="0 0 0 0 0.0561006 0 0 0 0 0.153723 0 0 0 0 0.237399 0 0 0 0.15 0"/>
<feBlend mode="normal" in2="BackgroundImageFix" result="effect1_dropShadow_781_7347"/>
<feBlend mode="normal" in="SourceGraphic" in2="effect1_dropShadow_781_7347" result="shape"/>
</filter>
<clipPath id="clip0_781_7347">
<rect width="46" height="47" fill="white" transform="translate(43 41)"/>
</clipPath>
</defs>
</svg>
