<svg width="136" height="147" viewBox="0 0 136 147" fill="none" xmlns="http://www.w3.org/2000/svg">
<g filter="url(#filter0_d_516_7498)">
<path d="M63.8143 15.2752C66.2765 13.8657 69.3011 13.8657 71.7633 15.2752L111.268 37.8898C113.757 39.3149 115.293 41.964 115.293 44.8326V89.9442C115.293 92.8128 113.757 95.4618 111.268 96.887L71.7633 119.502C69.3011 120.911 66.2765 120.911 63.8143 119.502L24.31 96.887C21.8204 95.4618 20.2845 92.8128 20.2845 89.9442L20.2845 44.8326C20.2845 41.964 21.8204 39.3149 24.31 37.8898L63.8143 15.2752Z" fill="white"/>
</g>
<path d="M93.9697 59.2122C93.7498 58.9302 93.5233 58.6544 93.3034 58.3915L93.1236 58.1862C92.7067 57.7331 92.2618 57.3047 91.7911 56.9036C91.5812 56.7095 91.3024 56.5995 91.0115 56.596C90.8459 56.5904 90.6814 56.6223 90.5309 56.6891C90.3804 56.756 90.2484 56.8558 90.1453 56.9806L87.6935 60.3088C87.559 60.4973 87.4891 60.7216 87.4936 60.9502C87.4931 61.0994 87.5247 61.2472 87.5868 61.3841C87.6487 61.5209 87.7395 61.644 87.8534 61.7452C88.4212 62.2545 88.9185 62.8321 89.3326 63.4639C90.0108 64.5569 90.4378 65.7769 90.5851 67.0422C90.5851 67.2538 90.625 67.4653 90.625 67.6834C90.625 67.6834 90.625 67.8117 90.625 67.8309C90.625 68.917 90.4027 69.9923 89.9707 70.9956C89.5388 71.9989 88.9055 72.9104 88.1073 73.678C87.3091 74.4456 86.3615 75.0544 85.3188 75.4694C84.2761 75.8845 83.1586 76.0977 82.0303 76.0969C80.663 76.0945 79.3157 75.7808 78.0986 75.181C76.8816 74.5814 75.8294 73.7129 75.0279 72.6467L65.3404 59.5136C63.9483 57.6441 62.1158 56.1185 59.9931 55.0618C57.8703 54.0052 55.5176 53.4475 53.1279 53.4344C49.1638 53.4446 45.3658 54.9683 42.5677 57.6711C39.7696 60.3737 38.2001 64.0346 38.2036 67.8501C38.2036 68.3375 38.2036 68.8185 38.2769 69.293C38.2799 69.3229 38.2799 69.3528 38.2769 69.3828C38.3302 69.8638 38.4101 70.3318 38.51 70.8C38.51 70.8 38.51 70.8 38.51 70.8448C39.1542 73.8497 40.7901 76.5735 43.1739 78.6106C43.4053 78.8424 43.7146 78.9878 44.0467 79.0209C44.2611 79.0068 44.4683 78.9404 44.6488 78.8284C44.8294 78.7161 44.9775 78.5618 45.0795 78.3798L47.2715 75.3914C47.4218 75.2084 47.5061 74.9833 47.5113 74.7501C47.5108 74.4738 47.4012 74.2079 47.2048 74.0063C46.3443 73.212 45.6634 72.2552 45.2047 71.1959C44.7463 70.1365 44.5198 68.9975 44.5398 67.8501C44.5168 66.7819 44.718 65.7201 45.1313 64.7286C45.5446 63.7368 46.1614 62.8356 46.945 62.0787C47.8263 61.2054 48.8966 60.5295 50.0799 60.0992C51.2632 59.6689 52.5304 59.4947 53.7916 59.5891C55.0528 59.6833 56.2769 60.0437 57.3771 60.6447C58.4772 61.2456 59.4262 62.0725 60.157 63.0663L69.8243 76.1866C70.9735 77.7343 72.4301 79.0472 74.1099 80.0497C75.7896 81.0521 77.6591 81.724 79.6103 82.0266C81.5616 82.3292 83.5558 82.2563 85.4776 81.8124C87.3994 81.3684 89.2108 80.562 90.8068 79.4401C92.4028 78.3181 93.7518 76.9027 94.7759 75.2757C95.7999 73.6487 96.4786 71.8423 96.7727 69.9613C97.0668 68.0802 96.9706 66.1617 96.4894 64.3166C96.0083 62.4717 95.1518 60.7367 93.9697 59.2122Z" fill="#555555"/>
<path d="M85.5982 54.6359C85.6015 54.4923 85.5748 54.3495 85.5194 54.2161C85.464 54.0827 85.3811 53.9616 85.2756 53.86C85.1701 53.7585 85.0442 53.6786 84.9058 53.6253C84.7672 53.5719 84.619 53.5462 84.4699 53.5498C83.3491 53.4215 82.2179 53.4 81.0926 53.4855L80.4251 53.5562C78.3357 53.7914 76.3211 54.4474 74.5123 55.4816C72.7034 56.5156 71.1409 57.9048 69.9263 59.5587L60.2416 72.7076C59.5123 73.7785 58.5238 74.6631 57.3613 75.2854C56.1988 75.9078 54.8969 76.2492 53.5673 76.2807H53.4805C53.3203 76.2914 53.1643 76.3347 53.0226 76.4079C52.8811 76.4811 52.7574 76.5822 52.6594 76.7049C52.6594 76.7049 52.6195 76.7563 52.606 76.7755L49.9363 80.3744C49.8289 80.5129 49.7576 80.6743 49.7285 80.8449C49.6994 81.0154 49.7131 81.1903 49.7688 81.3547C49.8242 81.519 49.92 81.6682 50.0479 81.7894C50.1758 81.9107 50.3321 82.0008 50.5037 82.0518H50.5638C52.0225 82.197 53.4901 82.2421 54.9555 82.1868C57.0453 81.951 59.0607 81.2969 60.8722 80.2664C62.6838 79.2361 64.2514 77.8522 65.4744 76.2036L75.0923 63.1061C75.8431 62.1121 76.8103 61.2877 77.9262 60.6906C79.0422 60.0934 80.2798 59.7378 81.5531 59.6486H81.5998C81.7969 59.6482 81.9902 59.5972 82.1603 59.5013C82.3302 59.4053 82.4709 59.2676 82.5676 59.1024L85.3843 55.2464C85.5198 55.0693 85.5945 54.8559 85.5982 54.6359Z" fill="url(#paint0_linear_516_7498)"/>
<defs>
<filter id="filter0_d_516_7498" x="0.284424" y="0.218079" width="135.009" height="146.341" filterUnits="userSpaceOnUse" color-interpolation-filters="sRGB">
<feFlood flood-opacity="0" result="BackgroundImageFix"/>
<feColorMatrix in="SourceAlpha" type="matrix" values="0 0 0 0 0 0 0 0 0 0 0 0 0 0 0 0 0 0 127 0" result="hardAlpha"/>
<feOffset dy="6"/>
<feGaussianBlur stdDeviation="10"/>
<feColorMatrix type="matrix" values="0 0 0 0 0.12549 0 0 0 0 0.152941 0 0 0 0 0.176471 0 0 0 0.15 0"/>
<feBlend mode="normal" in2="BackgroundImageFix" result="effect1_dropShadow_516_7498"/>
<feBlend mode="normal" in="SourceGraphic" in2="effect1_dropShadow_516_7498" result="shape"/>
</filter>
<linearGradient id="paint0_linear_516_7498" x1="49.7294" y1="67.8361" x2="85.5981" y2="67.8361" gradientUnits="userSpaceOnUse">
<stop offset="0.41" stop-color="#FF8300"/>
<stop offset="0.6" stop-color="#FA9F1F"/>
<stop offset="0.76" stop-color="#F7B334"/>
</linearGradient>
</defs>
</svg>
