<svg width="136" height="147" viewBox="0 0 136 147" fill="none" xmlns="http://www.w3.org/2000/svg">
<g filter="url(#filter0_d_516_7503)">
<path d="M63.8788 15.2752C66.341 13.8657 69.3655 13.8657 71.8277 15.2752L111.332 37.8898C113.822 39.3149 115.358 41.964 115.358 44.8326V89.9442C115.358 92.8128 113.822 95.4618 111.332 96.887L71.8277 119.502C69.3655 120.911 66.341 120.911 63.8788 119.502L24.3744 96.887C21.8849 95.4618 20.3489 92.8128 20.3489 89.9442L20.3489 44.8326C20.3489 41.964 21.8849 39.3149 24.3744 37.8898L63.8788 15.2752Z" fill="white"/>
</g>
<path d="M80.9275 54.1816H54.3015V80.8077H80.9275V54.1816Z" fill="white"/>
<path d="M80.9268 92.6754L92.7944 80.8079H80.9268V92.6754Z" fill="#EA4335"/>
<path d="M92.7944 54.1816H80.9268V80.8077H92.7944V54.1816Z" fill="#FBBC04"/>
<path d="M80.9275 80.8079H54.3015V92.6754H80.9275V80.8079Z" fill="#34A853"/>
<path d="M42.2812 80.8079V88.7196C42.2812 90.9052 44.0515 92.6754 46.2371 92.6754H54.1489V80.8079H42.2812Z" fill="#188038"/>
<path d="M92.7944 54.1817V46.27C92.7944 44.0843 91.0241 42.3141 88.8385 42.3141H80.9268V54.1817H92.7944Z" fill="#1967D2"/>
<path d="M80.926 42.3141H46.4145C44.2144 42.3141 42.4324 44.0961 42.4324 46.2962V80.8077H54.3787V54.2604H80.926V42.3141Z" fill="#4285F4"/>
<path d="M59.8421 74.9385C58.8563 74.2692 58.1738 73.2919 57.8013 71.9998L60.0894 71.0523C60.2971 71.8474 60.6598 72.4637 61.1774 72.901C61.6917 73.3383 62.3182 73.5536 63.0501 73.5536C63.7985 73.5536 64.4414 73.325 64.9789 72.8678C65.5163 72.4106 65.7866 71.8276 65.7866 71.1219C65.7866 70.3997 65.5031 69.8099 64.936 69.3527C64.3689 68.8955 63.6568 68.6669 62.8061 68.6669H61.484V66.3909H62.6709C63.4029 66.3909 64.0194 66.1921 64.5206 65.7946C65.0217 65.397 65.2723 64.8537 65.2723 64.1613C65.2723 63.545 65.0481 63.0547 64.5997 62.687C64.1513 62.3192 63.5842 62.1337 62.8951 62.1337C62.2226 62.1337 61.6884 62.3126 61.2928 62.6737C60.8974 63.0358 60.6002 63.493 60.429 64.0022L58.1639 63.0547C58.464 62.2 59.0146 61.4446 59.8223 60.7919C60.6301 60.1393 61.6621 59.8113 62.9149 59.8113C63.8414 59.8113 64.6755 59.9902 65.4141 60.3513C66.1526 60.7124 66.7329 61.2127 67.1516 61.8488C67.5703 62.4882 67.778 63.2038 67.778 63.9989C67.778 64.8106 67.5835 65.4964 67.1944 66.0596C66.8054 66.6228 66.3273 67.0535 65.7602 67.355V67.4908C66.4925 67.7942 67.1285 68.2924 67.6 68.932C68.078 69.578 68.3187 70.35 68.3187 71.2511C68.3187 72.1522 68.0912 72.9573 67.6362 73.663C67.1813 74.3686 66.5515 74.9252 65.7536 75.3294C64.9525 75.7336 64.0524 75.939 63.0534 75.939C61.8962 75.9423 60.8279 75.6077 59.8421 74.9385ZM73.8973 63.5285L71.3849 65.3539L70.1288 63.439L74.6358 60.1724H76.3634V75.5812H73.8973V63.5285Z" fill="#4285F4"/>
<defs>
<filter id="filter0_d_516_7503" x="0.348877" y="0.218079" width="135.009" height="146.341" filterUnits="userSpaceOnUse" color-interpolation-filters="sRGB">
<feFlood flood-opacity="0" result="BackgroundImageFix"/>
<feColorMatrix in="SourceAlpha" type="matrix" values="0 0 0 0 0 0 0 0 0 0 0 0 0 0 0 0 0 0 127 0" result="hardAlpha"/>
<feOffset dy="6"/>
<feGaussianBlur stdDeviation="10"/>
<feColorMatrix type="matrix" values="0 0 0 0 0.12549 0 0 0 0 0.152941 0 0 0 0 0.176471 0 0 0 0.15 0"/>
<feBlend mode="normal" in2="BackgroundImageFix" result="effect1_dropShadow_516_7503"/>
<feBlend mode="normal" in="SourceGraphic" in2="effect1_dropShadow_516_7503" result="shape"/>
</filter>
</defs>
</svg>
