<svg width="136" height="148" viewBox="0 0 136 148" fill="none" xmlns="http://www.w3.org/2000/svg">
<g filter="url(#filter0_d_516_7523)">
<path d="M64.1639 15.9588C66.6261 14.5493 69.6507 14.5493 72.1129 15.9588L111.617 38.5734C114.107 39.9985 115.643 42.6476 115.643 45.5162V90.6277C115.643 93.4964 114.107 96.1454 111.617 97.5706L72.1129 120.185C69.6507 121.595 66.6261 121.595 64.1639 120.185L24.6596 97.5706C22.17 96.1454 20.6341 93.4964 20.6341 90.6277L20.6341 45.5162C20.6341 42.6476 22.17 39.9985 24.6596 38.5734L64.1639 15.9588Z" fill="white"/>
</g>
<path d="M88.375 91.6851C88.3736 93.4582 86.9417 94.8952 85.175 94.8966H51.03C49.2632 94.8966 47.8302 93.4608 47.8274 91.6877V41.5326C47.8267 40.6799 48.1639 39.8621 48.7647 39.2592C49.3654 38.6563 50.1804 38.3179 51.03 38.3185H72.9434L88.375 54.1123V91.6851Z" fill="#23A566"/>
<path d="M74.6067 53.6583L88.5626 66.7961V53.9773H76.2002C75.6605 53.9834 75.1284 53.8515 74.6559 53.5945L74.6067 53.6583Z" fill="#1C8F5A"/>
<path d="M88.374 54.3491H76.2725C74.5198 54.3477 73.0993 52.8948 73.0979 51.1022V38.3187L88.374 54.3491Z" fill="#8ED1B1"/>
<path fill-rule="evenodd" clip-rule="evenodd" d="M78.7563 84.5239H57.6338V66.0417H78.7563V84.5239ZM69.5083 68.7078V71.9432H76.1603V68.713L69.5083 68.7078ZM69.5083 73.9807V77.0718H76.1603V73.9653L69.5083 73.9807ZM69.5083 79.0424V81.9042H76.1603V79.0269L69.5083 79.0424ZM66.897 81.8888V79.0269H60.2476V81.8888H66.897ZM66.897 77.0383V73.9653H60.2476V77.0538L66.897 77.0383ZM66.897 71.9766V68.7078H60.2476V71.9432L66.897 71.9766Z" fill="white"/>
<defs>
<filter id="filter0_d_516_7523" x="0.634033" y="0.901672" width="135.009" height="146.341" filterUnits="userSpaceOnUse" color-interpolation-filters="sRGB">
<feFlood flood-opacity="0" result="BackgroundImageFix"/>
<feColorMatrix in="SourceAlpha" type="matrix" values="0 0 0 0 0 0 0 0 0 0 0 0 0 0 0 0 0 0 127 0" result="hardAlpha"/>
<feOffset dy="6"/>
<feGaussianBlur stdDeviation="10"/>
<feColorMatrix type="matrix" values="0 0 0 0 0.12549 0 0 0 0 0.152941 0 0 0 0 0.176471 0 0 0 0.15 0"/>
<feBlend mode="normal" in2="BackgroundImageFix" result="effect1_dropShadow_516_7523"/>
<feBlend mode="normal" in="SourceGraphic" in2="effect1_dropShadow_516_7523" result="shape"/>
</filter>
</defs>
</svg>
