<svg width="136" height="147" viewBox="0 0 136 147" fill="none" xmlns="http://www.w3.org/2000/svg">
<g filter="url(#filter0_d_516_7540)">
<path d="M63.911 15.4779C66.3732 14.0684 69.3978 14.0684 71.86 15.4779L111.364 38.0924C113.854 39.5176 115.39 42.1666 115.39 45.0353V90.1468C115.39 93.0154 113.854 95.6645 111.364 97.0897L71.86 119.704C69.3978 121.114 66.3732 121.114 63.911 119.704L24.4067 97.0897C21.9171 95.6645 20.3812 93.0154 20.3812 90.1468L20.3812 45.0353C20.3812 42.1666 21.9171 39.5176 24.4067 38.0924L63.911 15.4779Z" fill="white"/>
</g>
<path d="M27.3279 60.4429H28.9108V65.1951H34.8587V60.4429H36.4416V71.9195H34.8587V66.5495H28.9108V71.9195H27.3279V60.4429H27.3279Z" fill="black"/>
<path d="M43.9406 63.4062C44.4882 63.694 44.9168 64.0537 45.2025 64.5093C45.4882 64.941 45.6786 65.4206 45.7739 65.9962C45.8453 66.3799 45.8929 67.0034 45.8929 67.8667H39.798C39.8218 68.73 40.0123 69.4255 40.3932 69.9291C40.7741 70.4567 41.3455 70.6965 42.1312 70.6965C42.8693 70.6965 43.4407 70.4567 43.8692 69.9531C44.1073 69.6653 44.2739 69.3296 44.393 68.9699H45.7739C45.7262 69.2816 45.6072 69.6173 45.4167 70.001C45.2025 70.3847 44.9882 70.6965 44.7263 70.9363C44.2978 71.368 43.774 71.6318 43.155 71.7996C42.8216 71.8956 42.4407 71.9195 42.0122 71.9195C40.9646 71.9195 40.1075 71.5358 39.3695 70.7684C38.6552 70.001 38.2981 68.9219 38.2981 67.555C38.2981 66.188 38.6552 65.1089 39.3933 64.2456C40.1075 63.4062 41.0598 62.9745 42.2503 62.9745C42.7978 62.9745 43.3692 63.1184 43.9406 63.4062ZM44.4406 66.7156C44.393 66.0921 44.2501 65.6125 44.0359 65.2528C43.6549 64.5813 43.0121 64.2216 42.1074 64.2216C41.4646 64.2216 40.917 64.4614 40.4884 64.917C40.0599 65.3967 39.8218 65.9962 39.798 66.7156H44.4406Z" fill="black"/>
<path d="M47.0745 60.4429H48.4246V71.9195H47.0745V60.4429Z" fill="black"/>
<path d="M50.6187 60.4429H52.1376V62.0349H50.6187V60.4429ZM50.6187 63.5794H52.1376V71.9195H50.6187V63.5794Z" fill="black"/>
<path d="M60.1321 64.0479C60.8703 64.7635 61.2514 65.8369 61.2514 67.2204C61.2514 68.5801 60.918 69.7012 60.275 70.5838C59.632 71.4663 58.6079 71.9195 57.2267 71.9195C56.0836 71.9195 55.1786 71.5379 54.488 70.7507C53.8212 69.9636 53.4878 68.914 53.4878 67.6021C53.4878 66.1947 53.845 65.0736 54.5595 64.2388C55.2739 63.4039 56.2265 62.9745 57.4172 62.9745C58.4889 62.9745 59.3938 63.3323 60.1321 64.0479ZM59.2748 69.6296C59.6082 68.914 59.7987 68.1269 59.7987 67.2681C59.7987 66.481 59.6796 65.8369 59.4176 65.3599C59.0366 64.5966 58.346 64.1911 57.3934 64.1911C56.5361 64.1911 55.9169 64.525 55.5359 65.1691C55.1548 65.8369 54.9643 66.6241 54.9643 67.5544C54.9643 68.437 55.1548 69.2003 55.5359 69.7966C55.9169 70.3929 56.5361 70.6792 57.3696 70.6792C58.2745 70.703 58.9175 70.3452 59.2748 69.6296Z" fill="black"/>
<path d="M74.8301 67.8687C74.6154 68.54 74.3292 69.0914 73.9237 69.523L75.2594 70.7697L73.9952 72.0883L72.6118 70.7697C72.1825 71.0334 71.8247 71.2012 71.5146 71.3211C70.9898 71.4889 70.3697 71.5848 69.6541 71.5848C68.1514 71.5848 66.9111 71.1293 65.9093 70.2182C64.7167 69.1394 64.1204 67.533 64.1204 65.4232C64.1204 63.2894 64.7405 61.683 65.957 60.6042C66.9588 59.7171 68.1991 59.2615 69.678 59.2615C71.1807 59.2615 72.421 59.741 73.4466 60.6761C74.6154 61.755 75.2117 63.2894 75.2117 65.2314C75.1878 66.3103 75.0686 67.1734 74.8301 67.8687ZM70.4412 69.451C70.5843 69.4031 70.7513 69.3551 70.9898 69.2592L69.8211 68.1324L71.0614 66.8377L72.2302 67.9406C72.421 67.557 72.5402 67.2213 72.6118 66.9576C72.7311 66.526 72.7788 66.0465 72.7788 65.4711C72.7788 64.1765 72.5164 63.1695 71.9916 62.4502C71.4669 61.731 70.6798 61.3714 69.6541 61.3714C68.7 61.3714 67.9367 61.707 67.3643 62.4023C66.7918 63.0736 66.5056 64.1045 66.5056 65.4711C66.5056 67.0535 66.9111 68.2043 67.7221 68.8996C68.2468 69.3551 68.8908 69.5709 69.6303 69.5709C69.9165 69.5469 70.1789 69.499 70.4412 69.451Z" fill="black"/>
<path d="M78.2494 63.3602V68.5396C78.2494 69.0191 78.2976 69.4028 78.4182 69.6426C78.6111 70.0742 79.021 70.29 79.6237 70.29C80.3953 70.29 80.9257 69.9783 81.1909 69.3548C81.3356 69.0191 81.4079 68.5635 81.4079 68.012V63.3362H83.6984V71.9206H81.5043V70.6976C81.4802 70.7216 81.432 70.7936 81.3356 70.9374C81.2391 71.0573 81.1427 71.1772 81.0462 71.2731C80.6846 71.5849 80.347 71.8007 80.0336 71.9206C79.696 72.0405 79.3103 72.0884 78.8763 72.0884C77.5984 72.0884 76.7305 71.6328 76.2965 70.7216C76.0554 70.2181 75.9348 69.4747 75.9348 68.4916V63.3122H78.2494V63.3602Z" fill="black"/>
<path d="M91.9013 70.7523C91.1819 71.635 90.0789 72.0883 88.5922 72.0883C87.1055 72.0883 86.0025 71.635 85.2831 70.7523C84.5638 69.8695 84.2041 68.7959 84.2041 67.5314C84.2041 66.2908 84.5638 65.2411 85.2831 64.3345C86.0025 63.4279 87.1055 62.9745 88.5922 62.9745C90.0789 62.9745 91.1819 63.4279 91.9013 64.3345C92.6206 65.2411 92.9803 66.3147 92.9803 67.5314C92.9803 68.7959 92.6206 69.8695 91.9013 70.7523ZM90.1029 69.5116C90.4625 69.0345 90.6304 68.3903 90.6304 67.5314C90.6304 66.6725 90.4625 66.0045 90.1029 65.5512C89.7432 65.0979 89.2396 64.8593 88.5922 64.8593C87.9448 64.8593 87.4173 65.0979 87.0816 65.5512C86.7219 66.0045 86.554 66.6725 86.554 67.5314C86.554 68.3903 86.7219 69.0583 87.0816 69.5116C87.4412 69.9649 87.9448 70.2035 88.5922 70.2035C89.2396 70.2274 89.7432 69.9888 90.1029 69.5116Z" fill="black"/>
<path d="M93.1494 65.0981V63.5013H94.325V61.118H96.5114V63.5013H97.8751V65.0981H96.5114V69.6025C96.5114 69.96 96.5585 70.1745 96.6525 70.2459C96.7466 70.3413 97.0052 70.3651 97.4519 70.3651C97.5224 70.3651 97.5929 70.3651 97.6635 70.3651C97.734 70.3651 97.8045 70.3651 97.8751 70.3651V72.0334L96.8406 72.0811C95.8061 72.1287 95.0773 71.9381 94.7011 71.5329C94.4425 71.2708 94.325 70.8894 94.325 70.3413V65.0742H93.1494V65.0981Z" fill="black"/>
<path d="M105.216 63.3823C105.82 63.6461 106.327 64.0778 106.713 64.6534C107.076 65.1571 107.293 65.7566 107.414 66.4282C107.486 66.8119 107.51 67.3875 107.486 68.131H101.182C101.207 68.9944 101.521 69.594 102.076 69.9538C102.414 70.1696 102.849 70.2656 103.332 70.2656C103.839 70.2656 104.274 70.1456 104.588 69.8818C104.757 69.7379 104.926 69.546 105.047 69.2822H107.366C107.293 69.7859 107.027 70.3135 106.52 70.8412C105.747 71.6806 104.66 72.0883 103.26 72.0883C102.1 72.0883 101.086 71.7286 100.216 71.033C99.3468 70.3375 98.8879 69.1863 98.8879 67.6034C98.8879 66.1164 99.2744 64.9652 100.071 64.1737C100.868 63.3823 101.907 62.9745 103.163 62.9745C103.936 62.9745 104.612 63.1184 105.216 63.3823ZM101.835 65.3249C101.521 65.6607 101.303 66.0924 101.231 66.644H105.119C105.071 66.0444 104.878 65.5888 104.516 65.277C104.153 64.9652 103.718 64.8213 103.163 64.8213C102.607 64.8213 102.149 64.9892 101.835 65.3249Z" fill="black"/>
<defs>
<filter id="filter0_d_516_7540" x="0.381104" y="0.420715" width="135.009" height="146.341" filterUnits="userSpaceOnUse" color-interpolation-filters="sRGB">
<feFlood flood-opacity="0" result="BackgroundImageFix"/>
<feColorMatrix in="SourceAlpha" type="matrix" values="0 0 0 0 0 0 0 0 0 0 0 0 0 0 0 0 0 0 127 0" result="hardAlpha"/>
<feOffset dy="6"/>
<feGaussianBlur stdDeviation="10"/>
<feColorMatrix type="matrix" values="0 0 0 0 0.12549 0 0 0 0 0.152941 0 0 0 0 0.176471 0 0 0 0.15 0"/>
<feBlend mode="normal" in2="BackgroundImageFix" result="effect1_dropShadow_516_7540"/>
<feBlend mode="normal" in="SourceGraphic" in2="effect1_dropShadow_516_7540" result="shape"/>
</filter>
</defs>
</svg>
