<svg width="136" height="148" viewBox="0 0 136 148" fill="none" xmlns="http://www.w3.org/2000/svg">
<g filter="url(#filter0_d_516_7406)">
<path d="M64.4662 15.9588C66.9284 14.5493 69.9529 14.5493 72.4152 15.9588L111.919 38.5734C114.409 39.9985 115.945 42.6476 115.945 45.5162V90.6277C115.945 93.4964 114.409 96.1454 111.919 97.5706L72.4151 120.185C69.9529 121.595 66.9284 121.595 64.4662 120.185L24.9618 97.5706C22.4723 96.1454 20.9363 93.4964 20.9363 90.6277L20.9363 45.5162C20.9363 42.6476 22.4723 39.9985 24.9618 38.5734L64.4662 15.9588Z" fill="white"/>
</g>
<path d="M88.5916 64.8332C87.4964 62.9665 85.9338 61.4164 84.0572 60.3352C82.6246 59.5037 81.1431 58.9756 79.4704 58.7472V52.766C81.1302 52.0792 82.203 50.4514 82.1782 48.6575C82.1842 47.4616 81.7127 46.3127 80.868 45.465C80.0234 44.6173 78.8752 44.1407 77.6777 44.1407C75.1772 44.1407 73.1479 46.1605 73.1396 48.6575C73.1396 50.4926 74.1147 52.0581 75.7912 52.766V58.7135C74.4025 58.9141 73.0551 59.3365 71.8007 59.9644L55.7674 47.841C55.88 47.4178 55.9775 46.9796 55.9775 46.5189C55.9775 43.7549 53.7347 41.5153 50.9668 41.5153C48.199 41.5153 45.96 43.7549 45.96 46.5189C45.96 49.2829 48.2027 51.5226 50.9706 51.5226C51.9157 51.5226 52.7896 51.2454 53.5434 50.7922L54.5935 51.5862L68.9766 61.9419C68.2153 62.6385 67.5064 63.4325 66.9401 64.3238C65.7924 66.1403 65.0911 68.1365 65.0911 70.3163V70.7657C65.0962 72.2439 65.3628 73.7096 65.8787 75.0952C66.3138 76.2787 66.9513 77.3573 67.7427 78.3311L62.9646 83.1138C61.5507 82.5894 59.9642 82.9378 58.8953 84.0051C58.1677 84.728 57.7589 85.713 57.7627 86.7392C57.7664 87.7654 58.1677 88.7429 58.8991 89.4732C59.6304 90.2035 60.6093 90.608 61.6369 90.608C62.6646 90.608 63.6509 90.2035 64.3748 89.4732C65.0986 88.7429 65.5112 87.7654 65.5074 86.7392C65.5071 86.3453 65.4464 85.9537 65.3274 85.5782L70.263 80.6494C70.9381 81.1176 71.6694 81.5108 72.457 81.8479C74.0758 82.5569 75.8238 82.9241 77.5914 82.9265H77.929C79.9992 82.9265 81.9532 82.4396 83.7872 81.4471C85.6723 80.4377 87.2562 78.9478 88.3778 77.1289C89.5292 75.2937 90.1592 73.26 90.1592 71.0241V70.9117C90.1592 68.7133 89.6492 66.6871 88.5841 64.8295L88.5916 64.8332ZM82.5645 75.1776C81.2256 76.6645 79.6842 77.582 77.944 77.582H77.6139C76.6201 77.582 75.6449 77.3086 74.6961 76.8068C73.6556 76.2665 72.7741 75.4649 72.1382 74.481C71.4482 73.5072 71.0731 72.4436 71.0731 71.3162V70.9792C71.0731 69.8706 71.2869 68.8182 71.8232 67.8257C72.397 66.7021 73.1734 65.8969 74.2048 65.2265C75.2361 64.5561 76.2975 64.234 77.5052 64.234H77.6177C78.7053 64.234 79.7442 64.4474 80.7193 64.9456C81.7072 65.4644 82.5462 66.2262 83.1571 67.159C83.7619 68.0944 84.136 69.1598 84.2485 70.2676L84.2748 70.9679C84.2748 72.4922 83.6897 73.9042 82.5233 75.1851L82.5645 75.1776Z" fill="#F8761F"/>
<defs>
<filter id="filter0_d_516_7406" x="0.936279" y="0.901672" width="135.009" height="146.341" filterUnits="userSpaceOnUse" color-interpolation-filters="sRGB">
<feFlood flood-opacity="0" result="BackgroundImageFix"/>
<feColorMatrix in="SourceAlpha" type="matrix" values="0 0 0 0 0 0 0 0 0 0 0 0 0 0 0 0 0 0 127 0" result="hardAlpha"/>
<feOffset dy="6"/>
<feGaussianBlur stdDeviation="10"/>
<feColorMatrix type="matrix" values="0 0 0 0 0.12549 0 0 0 0 0.152941 0 0 0 0 0.176471 0 0 0 0.15 0"/>
<feBlend mode="normal" in2="BackgroundImageFix" result="effect1_dropShadow_516_7406"/>
<feBlend mode="normal" in="SourceGraphic" in2="effect1_dropShadow_516_7406" result="shape"/>
</filter>
</defs>
</svg>
