<svg width="136" height="147" viewBox="0 0 136 147" fill="none" xmlns="http://www.w3.org/2000/svg">
<g filter="url(#filter0_d_516_7410)">
<path d="M64.2591 15.2752C66.7213 13.8657 69.7459 13.8657 72.2081 15.2752L111.712 37.8898C114.202 39.3149 115.738 41.964 115.738 44.8326V89.9442C115.738 92.8128 114.202 95.4618 111.712 96.887L72.2081 119.502C69.7459 120.911 66.7213 120.911 64.2591 119.502L24.7548 96.887C22.2652 95.4618 20.7293 92.8128 20.7293 89.9442L20.7293 44.8326C20.7293 41.964 22.2652 39.3149 24.7548 37.8898L64.2591 15.2752Z" fill="white"/>
</g>
<mask id="mask0_516_7410" style="mask-type:alpha" maskUnits="userSpaceOnUse" x="34" y="53" width="69" height="27">
<path d="M34.178 53.8965H102.298V79.5226H34.178V53.8965Z" fill="white"/>
</mask>
<g mask="url(#mask0_516_7410)">
<path d="M97.2757 75.378C97.2757 75.0099 97.2526 74.5719 97.1837 74.0884C95.8243 74.618 94.304 75.286 94.304 76.2067C94.304 77.0586 94.9258 77.4962 95.5942 77.4962C96.6308 77.4962 97.2757 76.3909 97.2757 75.378ZM65.646 63.5894C64.7706 64.1651 64.1488 65.5008 64.1488 66.9741C64.1488 69.9442 65.1623 69.9211 65.5537 69.8754C65.9685 69.8292 66.4756 69.5762 66.7981 69.0462C67.0975 68.5628 67.2356 68.0794 67.3049 67.366C67.3968 66.2834 67.8805 62.093 65.646 63.5894ZM67.8805 75.378C67.8805 75.0099 67.8574 74.5719 67.7889 74.0884C66.4295 74.618 64.9092 75.286 64.9092 76.2067C64.9092 77.0586 65.531 77.4962 66.199 77.4962C67.2356 77.4962 67.8805 76.3909 67.8805 75.378ZM59.5183 60.274C58.8272 60.274 58.113 59.9978 58.113 58.3172C58.113 56.8435 59.5413 56.1297 60.3706 56.1297C61.154 56.1297 61.822 56.4982 61.822 57.4188C61.8451 59.3302 60.4856 60.274 59.5183 60.274ZM49.1747 71.9702C48.7142 72.3848 48.0919 72.684 47.2627 72.684C45.328 72.684 44.2683 71.3718 44.2683 69.2074C44.2683 67.9871 44.6365 66.3296 44.6365 65.2469C44.6365 64.6255 44.4984 64.1878 44.0836 64.1878C43.1162 64.1878 42.2639 67.1583 42.2639 70.9803C42.2639 71.6248 41.8264 72.6609 39.5685 72.6609C39.2229 72.6609 39.0617 72.3848 39.0386 71.9014C38.5319 72.3386 37.887 72.569 37.219 72.569C34.9614 72.569 34.178 70.7961 34.178 68.5859C34.178 66.6745 34.4085 63.3595 34.7767 62.5995C35.1457 61.8161 36.3436 60.9416 37.0804 60.9416C37.4726 60.9416 37.9558 61.2177 37.9558 61.9088C37.9558 62.6918 37.4033 64.5105 37.4033 66.9968C37.4033 69.4835 37.6796 70.2207 38.2321 70.2207C38.785 70.2207 38.9236 69.5066 39.2229 69.0924C39.2687 68.609 39.2922 68.1252 39.3149 67.6187C39.338 63.6813 39.4073 63.2671 39.5685 62.7145C39.7759 61.5861 41.5267 60.8262 42.2866 60.8262C42.8165 60.8262 43.0932 61.1258 43.0932 61.6784C43.0932 62.1853 42.7472 62.8756 42.6091 63.8659C43.162 62.6222 44.6134 61.0339 45.9494 61.0339C47.4466 61.0339 47.8384 62.1623 47.8384 63.5663C47.8384 65.0858 47.4466 66.5822 47.4466 68.2401C47.4466 69.5066 47.6544 70.0819 48.0458 70.2434C48.0227 70.128 47.9996 70.0135 47.9996 69.875C47.9996 68.4705 49.4741 67.3195 50.119 67.3195C50.5796 67.3195 50.7177 67.7336 50.7639 68.4017C50.8332 69.4373 51.2938 70.9803 52.5147 70.9803C53.1827 70.9803 53.5744 70.5888 53.5744 69.9669C53.5744 69.1616 52.8375 68.4017 51.916 67.6187C51.8009 67.5494 51.6162 67.4118 51.363 67.2272C50.027 66.2603 48.5987 65.2239 48.6218 63.4283C48.6449 61.2408 50.3726 60.1816 52.8606 60.2047C55.3483 60.2278 57.1683 61.8623 57.1455 63.2898C57.1222 64.6943 55.648 65.8457 55.0027 65.8223C54.5422 65.8223 54.404 65.4085 54.3578 64.7405C54.2886 63.7044 53.8511 62.1388 52.6301 62.1388C51.9617 62.1388 51.5704 62.5068 51.5704 63.1287C51.5704 64.0267 52.3996 65.0858 53.5744 65.8223C53.5975 65.8457 53.6433 65.8684 53.6668 65.8915C55.1182 66.6976 56.4773 67.8486 56.4773 69.645C56.4773 71.8321 54.7722 72.8913 52.2846 72.8913C51.0179 72.9605 49.9351 72.569 49.1747 71.9702ZM91.3092 69.7831C91.2399 69.3916 91.2172 69.0001 91.2172 68.6094C91.2172 66.7211 91.4473 63.4056 91.7928 62.6457C92.1846 61.8396 93.3824 60.9881 94.1197 60.9881C94.5114 60.9881 94.995 61.2643 94.995 61.955C94.995 62.738 94.4421 64.5567 94.4421 67.0433C94.4421 69.507 94.7415 70.2669 95.3868 70.2669C96.0317 70.2669 96.216 69.4147 96.216 68.6094C96.216 66.7211 96.4696 63.406 96.8382 62.6461C97.2064 61.84 98.4278 60.9881 99.1646 60.9881C99.5332 60.9881 99.9942 61.2643 99.9942 61.955C99.9942 62.738 99.4644 64.5571 99.4644 67.0433C99.4644 68.4252 99.6025 69.8754 99.7868 71.1649C101.146 70.0139 101.123 68.8855 101.745 68.8855C101.999 68.8855 102.298 69.162 102.298 69.6912C102.298 70.3588 101.929 71.6026 99.9711 72.7994C100.109 73.7666 100.202 74.5723 100.202 75.148C100.202 76.6675 99.4875 79.5226 95.1567 79.5226C92.5532 79.5226 91.4019 78.0723 91.4019 76.7367C91.4019 74.365 94.1662 73.6512 96.9536 72.6151L96.6539 71.303C96.1933 71.9937 95.4334 72.5921 94.2817 72.5921C93.1754 72.5921 92.4385 72.1544 91.9549 71.4637C91.4708 72.0625 90.757 72.5921 89.6973 72.5921C88.2917 72.5921 87.4624 71.9018 87.048 70.8653C86.5413 71.6945 85.5966 72.5921 84.1914 72.5921C83.0166 72.5921 82.1874 72.1544 81.6575 71.441C81.1734 72.0625 80.4362 72.5921 79.3538 72.5921C77.1424 72.5921 76.3359 70.8195 76.3359 68.609C76.3359 67.3887 76.7507 65.5696 76.7507 64.4186C76.7507 63.7736 76.6352 63.3368 76.1973 63.3368C74.7236 63.3368 74.5389 66.8361 74.5389 69.1385C74.5389 69.5758 74.5624 70.0135 74.5624 70.911C74.5624 71.556 74.1245 72.5921 71.867 72.5921C71.6365 72.5921 71.4983 72.454 71.4064 72.2006C71.1528 72.4078 70.8765 72.6151 70.5768 72.7763C70.7149 73.7431 70.8072 74.5488 70.8072 75.1245C70.8072 76.644 70.0931 79.4991 65.7619 79.4991C63.1588 79.4991 62.0071 78.0489 62.0071 76.7132C62.0071 74.3415 64.7714 73.6281 67.5588 72.5921C67.5131 72.2467 67.4207 71.9014 67.3518 71.5791C66.7069 72.2006 65.8311 72.5459 64.9331 72.569C63.8041 72.569 63.0211 71.9933 62.4912 71.1645C62.0302 71.8783 61.2468 72.569 60.0262 72.569C57.7687 72.569 56.9852 70.7961 56.9852 68.5859C56.9852 66.6745 57.2153 63.3595 57.584 62.5995C57.9526 61.8161 59.1508 60.9416 59.8646 60.9416C60.2563 60.9416 60.74 61.2177 60.74 61.9088C60.74 62.6918 60.1875 64.5105 60.1875 66.9968C60.1875 69.4835 60.4637 70.2207 61.0163 70.2207C61.4084 70.2207 61.6154 69.8519 61.7997 69.4839C61.6616 68.862 61.5696 68.2175 61.5696 67.5956C61.5696 62.6453 64.3343 60.9647 66.1767 60.9647C67.3288 60.9647 67.8128 61.4023 68.0425 61.8396C68.5497 61.3562 69.2639 60.9647 69.7706 60.9647C70.1393 60.9647 70.646 61.2412 70.646 61.9319C70.646 62.7149 70.0704 64.5336 70.0704 67.0203C70.0704 68.5397 70.2085 69.8985 70.3928 71.1414C70.7153 70.8653 70.9916 70.5661 71.2451 70.2207C71.2451 66.583 72.1205 56.337 72.4892 55.554C72.8574 54.7714 74.0783 53.9196 74.816 53.9196C75.1611 53.9196 75.6448 54.1961 75.6448 54.8868C75.6448 55.3933 75.0461 59.3533 74.7005 62.6918C75.3228 61.7938 76.3359 60.9877 77.5341 60.9877C79.4004 60.9877 79.7917 62.3922 79.7917 64.0271C79.7917 65.2704 79.5381 66.4676 79.5381 68.0102C79.5381 69.7143 79.9529 70.2665 80.3904 70.2665C80.6898 70.2665 80.8745 70.0823 81.0357 69.8288C80.9664 69.4377 80.9203 69.0462 80.9203 68.6316C80.9203 67.6879 81.0815 65.0862 81.3582 62.5768C80.6667 62.5534 80.0218 62.4384 80.0218 61.8627C80.0218 61.6096 80.6436 61.2412 81.5194 60.8728C81.7033 59.0768 81.9111 57.5573 82.0492 57.2808C82.4406 56.4982 83.6388 55.6463 84.353 55.6463C84.7443 55.6463 85.228 55.9224 85.228 56.6136C85.228 56.9358 85.0672 58.2023 84.8367 59.7675C85.5046 59.5833 86.2877 59.0998 86.8175 59.0998C87.0942 59.0998 87.1635 59.376 87.1635 59.6294C87.1635 60.2278 86.7718 61.31 86.5644 61.5173C86.15 61.9319 85.5277 62.1161 84.5369 62.2772C84.3299 64.1421 84.1225 66.0069 84.1225 67.0203C84.1225 69.4839 84.6062 70.2438 85.2053 70.2438C86.173 70.2438 86.265 69.2074 86.726 68.9312C86.726 68.8159 86.726 68.7009 86.726 68.5859C86.726 66.698 87.7857 56.3139 88.1539 55.5309C88.523 54.7483 89.7435 53.8965 90.4807 53.8965C90.8494 53.8965 91.3561 54.173 91.3561 54.8637C91.3561 55.6463 89.9509 64.5336 89.9509 66.9972C89.9509 69.4608 90.2045 70.2207 90.7805 70.2207C90.9867 70.2434 91.171 70.0361 91.3092 69.7831ZM36.7349 60.274C36.0438 60.274 35.3296 59.9978 35.3296 58.3172C35.3296 56.8204 36.758 56.1297 37.5872 56.1297C38.3706 56.1297 39.0386 56.4982 39.0386 57.4188C39.0386 59.3302 37.6796 60.274 36.7349 60.274Z" fill="#F26338"/>
</g>
<defs>
<filter id="filter0_d_516_7410" x="0.729248" y="0.218079" width="135.009" height="146.341" filterUnits="userSpaceOnUse" color-interpolation-filters="sRGB">
<feFlood flood-opacity="0" result="BackgroundImageFix"/>
<feColorMatrix in="SourceAlpha" type="matrix" values="0 0 0 0 0 0 0 0 0 0 0 0 0 0 0 0 0 0 127 0" result="hardAlpha"/>
<feOffset dy="6"/>
<feGaussianBlur stdDeviation="10"/>
<feColorMatrix type="matrix" values="0 0 0 0 0.12549 0 0 0 0 0.152941 0 0 0 0 0.176471 0 0 0 0.15 0"/>
<feBlend mode="normal" in2="BackgroundImageFix" result="effect1_dropShadow_516_7410"/>
<feBlend mode="normal" in="SourceGraphic" in2="effect1_dropShadow_516_7410" result="shape"/>
</filter>
</defs>
</svg>
