<svg width="136" height="147" viewBox="0 0 136 147" fill="none" xmlns="http://www.w3.org/2000/svg">
<g filter="url(#filter0_d_516_7416)">
<path d="M63.8792 15.5217C66.3415 14.1122 69.366 14.1122 71.8282 15.5217L111.333 38.1362C113.822 39.5614 115.358 42.2105 115.358 45.0791V90.1906C115.358 93.0593 113.822 95.7083 111.333 97.1335L71.8282 119.748C69.366 121.158 66.3415 121.158 63.8792 119.748L24.3749 97.1335C21.8854 95.7083 20.3494 93.0593 20.3494 90.1906L20.3494 45.0791C20.3494 42.2105 21.8854 39.5614 24.3749 38.1362L63.8792 15.5217Z" fill="white"/>
</g>
<path d="M66.3112 48.4048H39.1245V75.6181C54.1379 75.6181 66.3112 63.4329 66.3112 48.4048Z" fill="#3B5EAB"/>
<path d="M96.5178 75.6182H69.3311V48.405C84.3444 48.405 96.5178 60.5764 96.5178 75.6182Z" fill="#3B5EAB"/>
<path d="M39.1664 82.7814L40.8069 82.4916V83.2092C40.7794 83.499 40.8759 83.775 41.0827 83.982C41.2619 84.1475 41.4963 84.2303 41.7444 84.2303C41.9926 84.2441 42.2407 84.1475 42.4199 83.9544C42.5854 83.7474 42.6681 83.499 42.6543 83.2368V77.9376H44.3914V83.2782C44.3914 83.6232 44.3225 83.9682 44.1984 84.2855C44.0743 84.5891 43.8951 84.8651 43.6469 85.0997C43.1368 85.6103 42.4475 85.8863 41.7444 85.8725C41.386 85.8725 41.0275 85.8173 40.6829 85.6931C40.3796 85.5827 40.1038 85.4033 39.8695 85.1687C39.6351 84.9341 39.4421 84.6581 39.318 84.3545C39.1801 84.0234 39.125 83.6646 39.125 83.3058L39.1664 82.7814Z" fill="#3B5EAB"/>
<path d="M48.1835 80.0753C48.5695 80.0753 48.9555 80.1443 49.3278 80.2961C49.6724 80.4341 49.9757 80.6411 50.2377 80.8895C50.4996 81.1517 50.7064 81.4553 50.8443 81.8003C50.9959 82.1729 51.0787 82.5593 51.0649 82.9595C51.0649 83.3597 50.9959 83.7599 50.8443 84.1325C50.7064 84.4775 50.4996 84.7949 50.2377 85.057C49.9757 85.3192 49.6587 85.5124 49.3278 85.6504C48.5971 85.9402 47.7837 85.9402 47.053 85.6504C46.7084 85.5124 46.4051 85.3054 46.1431 85.057C45.8812 84.7949 45.6744 84.4775 45.5365 84.1463C45.3849 83.7737 45.3022 83.3735 45.3159 82.9733C45.3159 82.5731 45.3849 82.1729 45.5365 81.8141C45.6744 81.4691 45.8812 81.1655 46.1431 80.9033C46.4051 80.6411 46.7222 80.4479 47.053 80.3099C47.4115 80.1581 47.7975 80.0753 48.1835 80.0753ZM48.1835 84.3257C48.3352 84.3257 48.5006 84.2981 48.6385 84.2429C48.7901 84.1877 48.9142 84.1049 49.0245 83.9945C49.1486 83.8703 49.2313 83.7323 49.3002 83.5805C49.4381 83.1941 49.4381 82.7663 49.3002 82.3799C49.2451 82.2281 49.1486 82.0763 49.0245 81.9521C48.9142 81.8417 48.7763 81.7589 48.6385 81.7037C48.3489 81.5933 48.0181 81.5933 47.7286 81.7037C47.5769 81.7589 47.439 81.8417 47.3288 81.9521C47.2047 82.0763 47.122 82.2143 47.053 82.3799C46.9152 82.7663 46.9152 83.1941 47.053 83.5805C47.1082 83.7461 47.2047 83.8841 47.3288 84.0083C47.439 84.1187 47.5769 84.2153 47.7286 84.2567C47.8664 84.2981 48.0319 84.3257 48.1835 84.3257Z" fill="#3B5EAB"/>
<path d="M51.9458 85.7058V77.7571H53.5864V80.7517C53.738 80.5585 53.9448 80.3929 54.1792 80.2963C54.4825 80.1583 54.8272 80.0893 55.158 80.1031C55.5303 80.1031 55.8887 80.1721 56.2196 80.3239C56.5229 80.4619 56.7986 80.6551 57.0192 80.9173C57.2398 81.1795 57.4052 81.4831 57.5155 81.8143C57.6396 82.1869 57.6947 82.5595 57.6947 82.9459C57.6947 83.3323 57.6396 83.7325 57.5017 84.1051C57.3776 84.4362 57.1984 84.7536 56.9503 85.0158C56.4677 85.5402 55.7922 85.8438 55.0753 85.83C54.7444 85.8438 54.4273 85.761 54.124 85.623C53.8759 85.5126 53.6829 85.3194 53.5312 85.0986V85.7058H51.9458ZM56.0404 82.9735C56.0404 82.7665 56.0128 82.5733 55.9439 82.3801C55.8887 82.2145 55.7922 82.0765 55.6681 81.9523C55.5578 81.8419 55.42 81.7591 55.2683 81.7039C54.965 81.5935 54.6341 81.5935 54.3308 81.7039C54.1792 81.7591 54.0551 81.8419 53.9448 81.9523C53.8207 82.0765 53.738 82.2145 53.6691 82.3801C53.6002 82.5733 53.5588 82.7803 53.5588 82.9735C53.5588 83.1805 53.5864 83.3737 53.6691 83.5669C53.7242 83.7187 53.8207 83.8705 53.9448 83.9809C54.0551 84.1051 54.193 84.1879 54.3308 84.2569C54.4825 84.312 54.6341 84.3396 54.7996 84.3396C54.965 84.3396 55.1167 84.312 55.2683 84.2569C55.42 84.2017 55.5578 84.1189 55.6681 84.0085C55.7922 83.8843 55.8887 83.7463 55.9439 83.5807C56.0128 83.3875 56.0404 83.1805 56.0404 82.9735Z" fill="#3B5EAB"/>
<path d="M63.8024 85.7056L60.6039 80.5859V85.7056H58.8806V77.9225H60.9899L63.8989 82.6558V77.9225H65.6359V85.7056H63.8024Z" fill="#3B5EAB"/>
<path d="M66.8489 78.5711C66.8489 78.4469 66.8764 78.3089 66.9316 78.1985C66.973 78.0881 67.0557 77.9777 67.1384 77.8811C67.2211 77.7983 67.3314 77.7155 67.4417 77.6741C67.8139 77.5223 68.2275 77.6051 68.517 77.8811C68.71 78.0605 68.8065 78.3089 68.8065 78.5711C68.8065 78.8333 68.71 79.0817 68.517 79.2611C68.324 79.4405 68.0759 79.5371 67.8139 79.5371C67.6898 79.5371 67.552 79.5095 67.4417 79.4543C67.3314 79.3991 67.2211 79.3301 67.1384 79.2473C67.0557 79.1507 66.973 79.0541 66.9316 78.9299C66.8764 78.8333 66.8489 78.7091 66.8489 78.5711ZM67.0005 85.7056V80.2547H68.6687V85.7056H67.0005Z" fill="#3B5EAB"/>
<path d="M69.8408 85.7057V80.2548H71.4263V80.8758C71.4952 80.7516 71.5917 80.6412 71.702 80.5446C71.8261 80.448 71.9501 80.3652 72.088 80.2962C72.2259 80.2272 72.3775 80.172 72.5429 80.1306C72.6946 80.0892 72.8462 80.0754 72.9979 80.0754C73.3426 80.0616 73.6872 80.1444 73.9905 80.2962C74.2525 80.4342 74.473 80.655 74.6109 80.931C74.7901 80.655 75.0383 80.4204 75.3278 80.2686C75.6311 80.1306 75.962 80.0616 76.2928 80.0754C76.5548 80.0754 76.8029 80.1168 77.0511 80.1996C77.2855 80.2686 77.506 80.3928 77.699 80.5584C77.8921 80.7378 78.0437 80.9586 78.154 81.207C78.2781 81.5106 78.3332 81.8418 78.3194 82.1592V85.6919H76.7064V82.5318C76.7064 82.2972 76.6375 82.0626 76.4996 81.8832C76.3342 81.69 76.086 81.5934 75.8379 81.6072C75.5759 81.5796 75.3278 81.69 75.1624 81.8832C75.0107 82.0626 74.928 82.2972 74.928 82.5318V85.6781H73.3012V82.518C73.3012 82.2834 73.2323 82.0488 73.0944 81.8694C72.929 81.6762 72.6808 81.5796 72.4189 81.5934C72.1707 81.5796 71.9226 81.6762 71.7571 81.8694C71.6055 82.0488 71.5228 82.2834 71.5228 82.5318V85.6781L69.8408 85.7057Z" fill="#3B5EAB"/>
<path d="M79.4634 85.7059V77.7571H81.104V80.7517C81.2556 80.5585 81.4624 80.3929 81.6968 80.2963C82.0001 80.1583 82.3447 80.0893 82.6756 80.1031C83.0478 80.1031 83.4063 80.1721 83.7372 80.3239C84.0405 80.4619 84.3162 80.6551 84.5368 80.9173C84.7574 81.1795 84.9228 81.4831 85.0331 81.8143C85.1572 82.1869 85.2123 82.5595 85.2123 82.9459C85.2123 83.3323 85.1572 83.7325 85.0193 84.1051C84.8952 84.4363 84.716 84.7537 84.4678 85.0159C84.2335 85.2643 83.9577 85.4713 83.6544 85.6093C83.3236 85.7473 82.9651 85.8301 82.6067 85.8163C82.2758 85.8301 81.9587 85.7473 81.6554 85.6093C81.4073 85.4989 81.2143 85.3057 81.0626 85.0849V85.6921L79.4634 85.7059ZM83.5579 82.9735C83.5579 82.7665 83.5304 82.5733 83.4614 82.3801C83.4063 82.2145 83.3098 82.0765 83.1857 81.9523C83.0754 81.8419 82.9375 81.7591 82.7859 81.7039C82.4826 81.5935 82.1517 81.5935 81.8484 81.7039C81.6968 81.7591 81.5727 81.8419 81.4486 81.9523C81.3245 82.0765 81.2418 82.2145 81.1729 82.3801C81.104 82.5733 81.0626 82.7803 81.0626 82.9735C81.0626 83.1805 81.0902 83.3737 81.1729 83.5669C81.2418 83.7187 81.3245 83.8705 81.4486 83.9809C81.5589 84.1051 81.6968 84.1879 81.8484 84.2569C82.0001 84.3121 82.1517 84.3397 82.3172 84.3397C82.4826 84.3397 82.6342 84.3121 82.7859 84.2569C82.9375 84.2017 83.0754 84.1189 83.1857 84.0085C83.3098 83.8843 83.3925 83.7463 83.4614 83.5807C83.5166 83.3875 83.5442 83.1805 83.5579 82.9735Z" fill="#3B5EAB"/>
<path d="M89.6105 85.7057C89.5967 85.6229 89.5829 85.5401 89.5829 85.4435C89.5829 85.3193 89.5829 85.2227 89.5829 85.1537C89.4313 85.3883 89.2107 85.5677 88.9487 85.6643C88.6868 85.7609 88.4111 85.8161 88.1353 85.8161C87.832 85.8161 87.5287 85.7609 87.253 85.6505C87.0049 85.5401 86.7843 85.3883 86.605 85.1951C86.4258 85.0019 86.288 84.7673 86.2052 84.5189C86.1087 84.2567 86.0674 83.9807 86.0674 83.7047V80.2548H87.7355V83.3459C87.7217 83.5805 87.8045 83.8289 87.9423 84.0083C88.1078 84.2015 88.3559 84.2981 88.6041 84.2843C88.8522 84.2981 89.0866 84.2015 89.2658 84.0221C89.4313 83.8427 89.5278 83.5943 89.514 83.3459V80.241H91.1821V84.7121C91.1821 84.9605 91.1821 85.1813 91.2097 85.3469C91.2373 85.5125 91.2373 85.6367 91.2373 85.6781L89.6105 85.7057Z" fill="#3B5EAB"/>
<path d="M93.4433 83.898C93.4571 84.0912 93.5398 84.2706 93.6639 84.4086C93.8293 84.5742 94.0637 84.657 94.2981 84.6294C94.4635 84.6432 94.6427 84.588 94.7806 84.4914C94.8771 84.4086 94.9322 84.2844 94.9322 84.1602C94.9322 84.0636 94.8909 83.9532 94.822 83.8842C94.6979 83.7876 94.56 83.7186 94.3946 83.7048L93.7742 83.5668C93.5123 83.5116 93.2641 83.415 93.0297 83.2908C92.8367 83.1942 92.6713 83.07 92.5196 82.9044C92.3956 82.7664 92.299 82.6008 92.2439 82.4214C92.1888 82.242 92.1612 82.0626 92.1612 81.8694C92.1612 81.621 92.2163 81.3864 92.3128 81.1656C92.4231 80.9448 92.561 80.7516 92.7402 80.586C92.9332 80.4204 93.1676 80.2824 93.402 80.1996C93.6777 80.103 93.9534 80.0478 94.2429 80.0616C94.5876 80.0478 94.9185 80.103 95.2355 80.2272C95.4837 80.3238 95.7043 80.4618 95.8973 80.6412C96.0627 80.793 96.1868 80.9724 96.2695 81.1656C96.3385 81.3312 96.3936 81.5106 96.4074 81.69L95.0288 81.9384C95.015 81.759 94.9322 81.5934 94.822 81.4692C94.6703 81.3312 94.4635 81.2622 94.2567 81.276C94.1051 81.276 93.9672 81.3174 93.8431 81.4002C93.7328 81.483 93.6639 81.6072 93.6639 81.7452C93.6639 81.8556 93.7053 81.9522 93.788 82.0212C93.8707 82.0902 93.981 82.1316 94.0913 82.1592L94.822 82.2972C95.3045 82.3662 95.7456 82.587 96.0903 82.932C96.3522 83.2218 96.5039 83.6082 96.5039 84.0084C96.5039 84.243 96.4625 84.4776 96.3798 84.6846C96.2833 84.9053 96.1454 85.1123 95.98 85.2779C95.787 85.4573 95.5526 85.5953 95.3045 85.6919C95.0012 85.8023 94.6703 85.8575 94.3532 85.8437C93.981 85.8575 93.6088 85.7885 93.2641 85.6643C93.0022 85.5677 92.7678 85.4159 92.561 85.2227C92.3956 85.0571 92.2577 84.8777 92.175 84.657C92.106 84.4914 92.0509 84.312 92.0371 84.1326L93.4433 83.898Z" fill="#3B5EAB"/>
<defs>
<filter id="filter0_d_516_7416" x="0.349365" y="0.464539" width="135.009" height="146.341" filterUnits="userSpaceOnUse" color-interpolation-filters="sRGB">
<feFlood flood-opacity="0" result="BackgroundImageFix"/>
<feColorMatrix in="SourceAlpha" type="matrix" values="0 0 0 0 0 0 0 0 0 0 0 0 0 0 0 0 0 0 127 0" result="hardAlpha"/>
<feOffset dy="6"/>
<feGaussianBlur stdDeviation="10"/>
<feColorMatrix type="matrix" values="0 0 0 0 0.12549 0 0 0 0 0.152941 0 0 0 0 0.176471 0 0 0 0.15 0"/>
<feBlend mode="normal" in2="BackgroundImageFix" result="effect1_dropShadow_516_7416"/>
<feBlend mode="normal" in="SourceGraphic" in2="effect1_dropShadow_516_7416" result="shape"/>
</filter>
</defs>
</svg>
