<svg width="136" height="147" viewBox="0 0 136 147" fill="none" xmlns="http://www.w3.org/2000/svg">
<g filter="url(#filter0_d_790_7110)">
<path d="M63.5457 15.5212C66.0079 14.1117 69.0325 14.1117 71.4947 15.5212L110.999 38.1358C113.489 39.561 115.025 42.2101 115.025 45.0787V90.1905C115.025 93.0591 113.489 95.7081 110.999 97.1333L71.4947 119.748C69.0325 121.157 66.0079 121.157 63.5457 119.748L24.0414 97.1333C21.5519 95.7081 20.0159 93.0591 20.0159 90.1905L20.0159 45.0787C20.0159 42.2101 21.5519 39.561 24.0414 38.1358L63.5457 15.5212Z" fill="white"/>
</g>
<path d="M62.8847 43.3591L48.3263 58.028C45.9369 60.4355 45.9369 64.3388 48.3263 66.7463C50.7156 69.1537 54.5895 69.1537 56.9788 66.7463L71.5372 52.0773C73.9266 49.6698 73.9265 45.7666 71.5372 43.3591C69.1479 40.9516 65.274 40.9516 62.8847 43.3591Z" fill="#478FCD"/>
<path d="M79.9244 48.6369L60.3224 68.3877C57.933 70.7952 57.933 74.6985 60.3224 77.1059C62.7117 79.5134 66.5856 79.5134 68.9749 77.1059L88.5769 57.3551C90.9662 54.9476 90.9662 51.0443 88.5769 48.6369C86.1876 46.2294 82.3137 46.2294 79.9244 48.6369Z" fill="#F26222"/>
<path d="M79.8834 71.1318L71.2384 79.8425C68.8491 82.25 68.849 86.1533 71.2384 88.5608C73.6277 90.9682 77.5016 90.9682 79.8909 88.5608L88.536 79.8501C90.9253 77.4426 90.9253 73.5393 88.536 71.1318C86.1466 68.7244 82.2728 68.7244 79.8834 71.1318Z" fill="#FDB527"/>
<path d="M47.8526 90.5498C47.6582 90.5557 47.4647 90.5215 47.2839 90.4493C47.1031 90.3772 46.9387 90.2687 46.8009 90.1303C46.6632 89.992 46.5549 89.8268 46.4826 89.6449C46.4104 89.463 46.3758 89.2681 46.3809 89.0722L46.5438 83.3047L46.6595 79.3537C46.6682 79.0729 46.7582 78.8008 46.9185 78.5709C47.0787 78.341 47.3023 78.1634 47.5615 78.0598C47.8206 77.9563 48.1042 77.9313 48.3773 77.9881C48.6504 78.0448 48.901 78.1808 49.0984 78.3793L53.7817 83.0981L58.465 87.817C58.6622 88.0162 58.7972 88.2692 58.8533 88.5448C58.9095 88.8204 58.8843 89.1066 58.7809 89.3679C58.6775 89.6293 58.5003 89.8544 58.2714 90.0155C58.0424 90.1766 57.7717 90.2666 57.4926 90.2744L53.5767 90.3856L47.8526 90.5498Z" fill="#1B1B4E"/>
<defs>
<filter id="filter0_d_790_7110" x="0.0161133" y="0.46405" width="135.008" height="146.341" filterUnits="userSpaceOnUse" color-interpolation-filters="sRGB">
<feFlood flood-opacity="0" result="BackgroundImageFix"/>
<feColorMatrix in="SourceAlpha" type="matrix" values="0 0 0 0 0 0 0 0 0 0 0 0 0 0 0 0 0 0 127 0" result="hardAlpha"/>
<feOffset dy="6"/>
<feGaussianBlur stdDeviation="10"/>
<feColorMatrix type="matrix" values="0 0 0 0 0.0561006 0 0 0 0 0.153723 0 0 0 0 0.237399 0 0 0 0.15 0"/>
<feBlend mode="normal" in2="BackgroundImageFix" result="effect1_dropShadow_790_7110"/>
<feBlend mode="normal" in="SourceGraphic" in2="effect1_dropShadow_790_7110" result="shape"/>
</filter>
</defs>
</svg>
