<svg width="136" height="148" viewBox="0 0 136 148" fill="none" xmlns="http://www.w3.org/2000/svg">
<g filter="url(#filter0_d_516_7581)">
<path d="M64.3866 15.9588C66.8488 14.5493 69.8733 14.5493 72.3356 15.9588L111.84 38.5734C114.329 39.9985 115.865 42.6476 115.865 45.5162V90.6277C115.865 93.4964 114.329 96.1454 111.84 97.5706L72.3356 120.185C69.8733 121.595 66.8488 121.595 64.3866 120.185L24.8823 97.5706C22.3927 96.1454 20.8568 93.4964 20.8568 90.6277L20.8568 45.5162C20.8568 42.6476 22.3927 39.9985 24.8823 38.5734L64.3866 15.9588Z" fill="white"/>
</g>
<path fill-rule="evenodd" clip-rule="evenodd" d="M67.9785 39.8474C83.6742 39.8474 96.3939 52.5672 96.3939 68.259C96.3939 83.9508 83.6742 96.6744 67.9785 96.6744C52.2866 96.6744 39.5669 83.9508 39.5669 68.259C39.5669 52.5672 52.2866 39.8474 67.9785 39.8474ZM67.9785 45.7644C80.4068 45.7644 90.4808 55.8345 90.4808 68.259C90.4808 80.6834 80.4068 90.7574 67.9785 90.7574C55.554 90.7574 45.48 80.6834 45.48 68.259C45.48 55.8345 55.554 45.7644 67.9785 45.7644ZM53.4794 77.8862C53.4794 77.8862 61.5642 81.8839 67.7298 81.8839C73.8954 81.8839 80.6477 78.8847 81.9803 78.1348C81.9803 78.1348 78.6469 87.6338 68.1455 87.6338C57.648 87.6338 53.4794 77.8862 53.4794 77.8862Z" fill="#F5821F"/>
<defs>
<filter id="filter0_d_516_7581" x="0.856689" y="0.901672" width="135.009" height="146.341" filterUnits="userSpaceOnUse" color-interpolation-filters="sRGB">
<feFlood flood-opacity="0" result="BackgroundImageFix"/>
<feColorMatrix in="SourceAlpha" type="matrix" values="0 0 0 0 0 0 0 0 0 0 0 0 0 0 0 0 0 0 127 0" result="hardAlpha"/>
<feOffset dy="6"/>
<feGaussianBlur stdDeviation="10"/>
<feColorMatrix type="matrix" values="0 0 0 0 0.12549 0 0 0 0 0.152941 0 0 0 0 0.176471 0 0 0 0.15 0"/>
<feBlend mode="normal" in2="BackgroundImageFix" result="effect1_dropShadow_516_7581"/>
<feBlend mode="normal" in="SourceGraphic" in2="effect1_dropShadow_516_7581" result="shape"/>
</filter>
</defs>
</svg>
