<svg width="136" height="147" viewBox="0 0 136 147" fill="none" xmlns="http://www.w3.org/2000/svg">
<g filter="url(#filter0_d_3211_13154)">
<path d="M63.8788 15.2752C66.341 13.8657 69.3655 13.8657 71.8277 15.2752L111.332 37.8898C113.822 39.3149 115.358 41.964 115.358 44.8326V89.9442C115.358 92.8128 113.822 95.4618 111.332 96.887L71.8277 119.502C69.3655 120.911 66.341 120.911 63.8788 119.502L24.3744 96.887C21.8849 95.4618 20.3489 92.8128 20.3489 89.9442L20.3489 44.8326C20.3489 41.964 21.8849 39.3149 24.3744 37.8898L63.8788 15.2752Z" fill="white"/>
</g>
<circle cx="67.5" cy="67.5" r="29.5" fill="black"/>
<path d="M46.3916 61.0756L54.2583 78.12H62.7805L58.0605 68.1556H88.8716V61.0756H46.3916Z" fill="url(#paint0_linear_3211_13154)"/>
<defs>
<filter id="filter0_d_3211_13154" x="0.348633" y="0.218079" width="135.009" height="146.341" filterUnits="userSpaceOnUse" color-interpolation-filters="sRGB">
<feFlood flood-opacity="0" result="BackgroundImageFix"/>
<feColorMatrix in="SourceAlpha" type="matrix" values="0 0 0 0 0 0 0 0 0 0 0 0 0 0 0 0 0 0 127 0" result="hardAlpha"/>
<feOffset dy="6"/>
<feGaussianBlur stdDeviation="10"/>
<feColorMatrix type="matrix" values="0 0 0 0 0.0561006 0 0 0 0 0.153723 0 0 0 0 0.237399 0 0 0 0.15 0"/>
<feBlend mode="normal" in2="BackgroundImageFix" result="effect1_dropShadow_3211_13154"/>
<feBlend mode="normal" in="SourceGraphic" in2="effect1_dropShadow_3211_13154" result="shape"/>
</filter>
<linearGradient id="paint0_linear_3211_13154" x1="46.5227" y1="61.0756" x2="89.0027" y2="61.0756" gradientUnits="userSpaceOnUse">
<stop stop-color="#FFBE04"/>
<stop offset="0.317708" stop-color="#FD633F"/>
<stop offset="0.625" stop-color="#EC2E81"/>
<stop offset="1" stop-color="#BF2ED3"/>
</linearGradient>
</defs>
</svg>
