<svg width="136" height="147" viewBox="0 0 136 147" fill="none" xmlns="http://www.w3.org/2000/svg">
<g filter="url(#filter0_d_516_7433)">
<path d="M64.0365 15.2752C66.4987 13.8657 69.5232 13.8657 71.9855 15.2752L111.49 37.8898C113.979 39.3149 115.515 41.964 115.515 44.8326V89.9442C115.515 92.8128 113.979 95.4618 111.49 96.887L71.9855 119.502C69.5232 120.911 66.4987 120.911 64.0365 119.502L24.5322 96.887C22.0426 95.4618 20.5067 92.8128 20.5067 89.9442L20.5067 44.8326C20.5067 41.964 22.0426 39.3149 24.5322 37.8898L64.0365 15.2752Z" fill="white"/>
</g>
<path d="M67.3304 82.6886C64.7608 82.6259 62.6409 81.4943 61.2873 79.1323C59.8998 76.6906 59.9602 74.1911 61.4396 71.8097C64.9615 66.1423 68.5293 60.5062 72.0754 54.8556C72.8006 53.6999 73.5088 52.5273 74.2678 51.3934C76.3631 48.1682 80.6508 47.1956 83.9368 49.2002C87.275 51.2534 88.3917 55.5239 86.3129 58.8896C82.0634 65.798 77.7535 72.6727 73.3831 79.5135C72.0367 81.6295 69.9941 82.65 67.3304 82.6886Z" fill="#FFCB00"/>
<path d="M45.2013 82.6889C42.6183 82.6262 40.5192 81.4431 39.1976 79.0891C37.8351 76.6458 37.9217 74.1397 39.3998 71.7567C43.1728 65.6853 46.9626 59.6229 50.7693 53.5692C51.2508 52.787 51.7322 51.9854 52.2474 51.2273C54.4191 48.0707 58.6975 47.2141 61.9112 49.2924C65.1249 51.3707 66.1124 55.6329 64.1417 58.9195C59.9242 65.7497 55.6488 72.5558 51.3711 79.3547C49.9821 81.559 47.9384 82.6503 45.2013 82.6889Z" fill="#FF3D57"/>
<path d="M89.4723 68.9983C93.3548 69.0176 96.4977 72.1169 96.4905 75.918C96.4905 79.777 93.2635 82.8884 89.3451 82.8401C85.4267 82.7919 82.339 79.7264 82.3438 75.9084C82.3486 72.0349 85.5035 68.9742 89.4723 68.9983Z" fill="#00D647"/>
<defs>
<filter id="filter0_d_516_7433" x="0.506592" y="0.218079" width="135.009" height="146.341" filterUnits="userSpaceOnUse" color-interpolation-filters="sRGB">
<feFlood flood-opacity="0" result="BackgroundImageFix"/>
<feColorMatrix in="SourceAlpha" type="matrix" values="0 0 0 0 0 0 0 0 0 0 0 0 0 0 0 0 0 0 127 0" result="hardAlpha"/>
<feOffset dy="6"/>
<feGaussianBlur stdDeviation="10"/>
<feColorMatrix type="matrix" values="0 0 0 0 0.12549 0 0 0 0 0.152941 0 0 0 0 0.176471 0 0 0 0.15 0"/>
<feBlend mode="normal" in2="BackgroundImageFix" result="effect1_dropShadow_516_7433"/>
<feBlend mode="normal" in="SourceGraphic" in2="effect1_dropShadow_516_7433" result="shape"/>
</filter>
</defs>
</svg>
