<svg width="136" height="147" viewBox="0 0 136 147" fill="none" xmlns="http://www.w3.org/2000/svg">
<g filter="url(#filter0_d_3376_5070)">
<path d="M63.8788 15.2752C66.341 13.8657 69.3655 13.8657 71.8277 15.2752L111.332 37.8898C113.822 39.3149 115.358 41.964 115.358 44.8326V89.9442C115.358 92.8128 113.822 95.4618 111.332 96.887L71.8277 119.502C69.3655 120.911 66.341 120.911 63.8788 119.502L24.3744 96.887C21.8849 95.4618 20.3489 92.8128 20.3489 89.9442L20.3489 44.8326C20.3489 41.964 21.8849 39.3149 24.3744 37.8898L63.8788 15.2752Z" fill="white"/>
</g>
<path d="M58.216 42.0545C58.5495 42.0512 58.5495 42.0512 58.8897 42.0477C59.6175 42.0416 60.345 42.0413 61.0728 42.0416C61.5838 42.0397 62.0948 42.0377 62.6058 42.0355C63.6744 42.032 64.743 42.0315 65.8116 42.0331C67.1735 42.0346 68.5353 42.0265 69.8972 42.0159C70.9521 42.009 72.0068 42.0082 73.0617 42.0092C73.5635 42.0088 74.0652 42.0062 74.567 42.0015C78.5354 41.9681 81.711 42.4737 84.698 45.34C86.1978 47.0268 87.2806 48.9202 88.3525 50.8952C88.6784 51.4865 89.0047 52.0776 89.3313 52.6685C89.489 52.9544 89.6467 53.2403 89.8092 53.5349C90.3928 54.5831 90.997 55.6178 91.6102 56.6489C91.818 57.0005 92.0257 57.3522 92.2334 57.7039C92.5909 58.3089 92.9489 58.9136 93.3079 59.5178C93.7425 60.2518 94.1732 60.988 94.6033 61.7246C94.7379 61.9501 94.8724 62.1756 95.0111 62.4079C96.2288 64.5061 96.9818 66.5301 96.9845 68.9828C96.9896 69.2904 96.9947 69.598 97 69.9149C96.7939 72.6521 95.4081 75.0483 94.0245 77.3487C93.7605 77.7962 93.4965 78.2437 93.233 78.6915C93.0502 79.0019 92.867 79.3121 92.6834 79.622C91.8276 81.0681 90.9988 82.5289 90.1713 83.9913C84.4532 94.096 84.4532 94.096 79.1418 95.8662C78.4112 95.8957 77.6871 95.9105 76.9564 95.913C76.6219 95.9156 76.6219 95.9156 76.2807 95.9182C75.5419 95.9235 74.803 95.9265 74.0641 95.9292C73.8113 95.9303 73.5585 95.9313 73.2979 95.9325C71.9585 95.938 70.6191 95.9418 69.2797 95.9442C67.9004 95.9472 66.5213 95.9562 65.1421 95.9668C64.0782 95.9737 63.0143 95.9759 61.9504 95.9768C61.4423 95.9781 60.9342 95.9812 60.4261 95.9861C55.3206 96.0325 55.3206 96.0325 53.2129 94.808C52.8953 94.6274 52.8953 94.6274 52.5713 94.4431C50.0224 92.9279 48.4701 90.6067 47.0945 88.0458C46.7976 87.5069 46.5003 86.9682 46.2025 86.4297C46.0508 86.154 45.8991 85.8783 45.7427 85.5942C44.9749 84.2163 44.1736 82.8582 43.3738 81.4986C42.2617 79.5973 41.1508 77.6954 40.0665 75.778C39.9612 75.5953 39.856 75.4126 39.7475 75.2244C38.6315 73.2322 37.9923 71.3427 38.016 69.0489C38.0107 68.8696 38.0054 68.6902 38 68.5054C38.0027 65.6477 39.4893 63.1748 40.8768 60.7657C41.0384 60.4813 41.2 60.1969 41.3664 59.9039C41.8727 59.0155 42.3827 58.1294 42.8942 57.2441C43.0565 56.9632 43.2188 56.6824 43.3859 56.393C44.1647 55.0481 44.9479 53.7059 45.7364 52.3667C46.2816 51.4402 46.8182 50.5099 47.3446 49.5726C49.2846 46.1377 51.3453 43.5777 55.2209 42.3293C56.2233 42.072 57.1855 42.0506 58.216 42.0545ZM51.3526 54.2515C47.072 59.2786 45.427 64.9937 45.8046 71.529C46.1252 74.0448 46.9421 76.3419 47.9213 78.6714C48.7781 78.2893 49.4081 77.8096 50.1041 77.1834C50.291 77.0163 50.4779 76.8492 50.6704 76.6771C50.8109 76.5495 50.9515 76.422 51.0962 76.2906C51.0229 76.0417 50.9496 75.7927 50.874 75.5362C50.7782 75.2068 50.6824 74.8774 50.5836 74.538C50.4885 74.2127 50.3933 73.8874 50.2953 73.5522C49.0272 68.7967 49.8912 64.2082 52.1794 59.938C54.6282 55.8489 58.2123 53.2596 62.7378 51.8542C67.6081 50.6668 72.4398 51.3327 76.7802 53.8496C80.7293 56.3219 83.544 60.0977 84.7228 64.6335C85.7408 69.3123 85.2107 74.1956 82.6692 78.3314C82.2191 78.9921 81.7479 79.6267 81.2585 80.2586C81.1428 80.4209 81.0272 80.5832 80.9081 80.7505C78.4789 83.9305 74.029 86.0528 70.1461 86.6074C65.5805 86.9834 60.9607 86.3881 57.1806 83.5663C56.8235 83.2627 56.4726 82.9519 56.1233 82.6394C55.9487 82.6394 55.774 82.6394 55.5941 82.6394C55.5941 82.4648 55.5941 82.2902 55.5941 82.1103C55.7496 82.0418 55.9052 81.9733 56.0654 81.9026C56.6933 81.5589 57.088 81.1902 57.5785 80.6719C57.7388 80.5089 57.8991 80.3459 58.0642 80.178C58.2095 80.03 58.3548 79.882 58.5045 79.7295C59.0667 79.1839 59.0667 79.1839 59.5628 78.9359C60.5013 79.2578 61.3812 79.6979 62.2748 80.1263C65.5361 81.6061 68.6005 81.6819 71.9981 80.5231C75.1784 79.2052 77.4391 76.9906 78.8462 73.855C78.9438 73.6112 79.0413 73.3674 79.1418 73.1162C79.2121 72.9406 79.2823 72.7649 79.3547 72.584C79.9069 70.8409 80.1005 68.0691 79.4023 66.3829C79.2733 66.1804 79.2733 66.1804 79.1418 65.9737C77.0144 67.6193 75.7611 68.7417 75.3374 71.5062C74.9479 73.4413 73.5924 74.9321 71.9981 76.026C70.0982 77.1248 68.0917 77.6171 65.9117 77.1948C65.198 77.0019 64.4986 76.7851 63.7961 76.5551C63.4442 76.4637 63.0917 76.3743 62.7378 76.2906C63.8936 74.8862 65.1332 73.65 66.4967 72.4476C67.31 71.7277 68.109 70.9939 68.9058 70.2559C69.0505 70.1221 69.1951 69.9884 69.3441 69.8506C69.6399 69.5771 69.9356 69.3035 70.2313 69.0298C70.8142 68.4905 71.3975 67.9516 71.981 67.4128C72.2662 67.1495 72.5514 66.886 72.8364 66.6225C73.5637 65.9505 74.2934 65.2816 75.0274 64.617C75.174 64.4838 75.3206 64.3507 75.4717 64.2135C75.7514 63.9598 76.0317 63.7067 76.3126 63.4544C77.0325 62.8091 77.0325 62.8091 77.5543 62.0057C75.2257 59.139 72.5485 57.2264 68.8232 56.715C65.378 56.391 61.9393 57.4996 59.2486 59.658C57.2086 61.5531 55.4983 64.4639 55.2911 67.2919C55.2846 67.8776 55.2804 68.4632 55.2799 69.0489C55.2751 69.3569 55.2751 69.3569 55.2701 69.671C55.2687 70.2025 55.2971 70.7339 55.3295 71.2644C55.5915 71.5263 55.5915 71.5263 55.8587 71.7935C57.8765 70.2046 59.2333 69.0815 59.6827 66.447C60.085 64.3957 61.6054 62.9074 63.267 61.7412C65.3077 60.6204 67.6434 60.4691 69.8681 61.0499C70.5843 61.264 71.2944 61.4886 71.9981 61.7412C70.8426 63.1452 69.6035 64.3812 68.2403 65.5831C67.4208 66.3086 66.6163 67.0486 65.8136 67.7924C65.5194 68.0646 65.2252 68.3367 64.9309 68.6087C64.7857 68.743 64.6405 68.8773 64.4909 69.0156C63.82 69.6348 63.1467 70.2513 62.4732 70.8676C61.3683 71.879 60.2662 72.8933 59.166 73.9098C58.0657 74.9262 56.9635 75.9404 55.8587 76.9519C55.6029 77.1865 55.3471 77.4211 55.0836 77.6629C54.4991 78.1988 53.9131 78.7329 53.3266 79.2666C53.013 79.5532 52.6995 79.8397 52.3861 80.1263C52.2387 80.2598 52.0914 80.3933 51.9396 80.5309C51.2983 81.1186 50.7879 81.6469 50.3025 82.3749C53.919 86.7465 58.6389 89.7489 64.3253 90.5755C70.9122 91.097 76.6836 89.6861 81.8145 85.4325C86.0028 81.736 88.7374 76.6031 89.1959 70.9999C89.5911 64.5477 87.6647 59.0268 83.4247 54.1358C79.4599 49.9431 74.0801 47.5072 68.3302 47.3323C61.8506 47.2678 55.8923 49.4893 51.3526 54.2515Z" fill="#060808"/>
<defs>
<filter id="filter0_d_3376_5070" x="0.348633" y="0.21814" width="135.009" height="146.341" filterUnits="userSpaceOnUse" color-interpolation-filters="sRGB">
<feFlood flood-opacity="0" result="BackgroundImageFix"/>
<feColorMatrix in="SourceAlpha" type="matrix" values="0 0 0 0 0 0 0 0 0 0 0 0 0 0 0 0 0 0 127 0" result="hardAlpha"/>
<feOffset dy="6"/>
<feGaussianBlur stdDeviation="10"/>
<feColorMatrix type="matrix" values="0 0 0 0 0.0561006 0 0 0 0 0.153723 0 0 0 0 0.237399 0 0 0 0.15 0"/>
<feBlend mode="normal" in2="BackgroundImageFix" result="effect1_dropShadow_3376_5070"/>
<feBlend mode="normal" in="SourceGraphic" in2="effect1_dropShadow_3376_5070" result="shape"/>
</filter>
</defs>
</svg>
