<svg width="136" height="147" viewBox="0 0 136 147" fill="none" xmlns="http://www.w3.org/2000/svg">
<g filter="url(#filter0_d_3358_4805)">
<path d="M63.8788 15.2752C66.341 13.8657 69.3655 13.8657 71.8277 15.2752L111.332 37.8898C113.822 39.3149 115.358 41.964 115.358 44.8326V89.9442C115.358 92.8128 113.822 95.4618 111.332 96.887L71.8277 119.502C69.3655 120.911 66.341 120.911 63.8788 119.502L24.3744 96.887C21.8849 95.4618 20.3489 92.8128 20.3489 89.9442L20.3489 44.8326C20.3489 41.964 21.8849 39.3149 24.3744 37.8898L63.8788 15.2752Z" fill="white"/>
</g>
<path d="M101.293 59.8418C98.9003 59.8418 96.7159 61.596 95.9903 63.5355C95.1078 64.6523 94.3029 65.1132 93.6722 65.1132C93.3969 65.1132 93.2486 64.9831 93.2486 64.7227C93.2486 64.3974 93.5665 63.8984 94.0323 63.1174L94.7594 61.8847H94.844C96.5595 61.8847 97.2517 60.9265 97.2517 60.4275C97.2517 60.0154 96.885 59.9308 96.1861 59.9308H95.7413C95.8048 59.6705 95.875 59.3863 95.875 59.1693C95.875 58.1714 95.3666 57.4556 94.7312 57.4556C94.35 57.4556 94.0959 57.6508 93.7358 58.3016L92.8398 59.9308H90.8699C90.9335 59.6705 91.0036 59.3863 91.0036 59.1693C91.0036 58.1714 90.4952 57.4556 89.8598 57.4556C89.4788 57.4556 89.2245 57.6508 88.8644 58.3016L87.9684 59.9308H87.6719C86.74 59.9308 85.9841 60.254 85.9841 61.0132C85.9841 61.5339 86.4357 61.7329 86.9017 61.8413C86.9017 61.8413 86.3577 62.8185 86.2526 63.0003C85.5391 64.2347 83.712 65.3084 82.066 65.3084C80.6158 65.3084 80.3216 64.5878 80.3784 63.94C80.7709 64.1975 81.3435 64.3475 82.1402 64.3475C83.8557 64.3475 85.0946 63.0523 85.0946 61.7508C85.0946 60.4275 84.057 59.8418 82.7861 59.8418C80.0755 59.8418 77.9158 62.1151 77.5159 64.2634C76.9844 64.8568 76.4986 65.1132 76.0936 65.1132C75.8181 65.1132 75.67 64.9831 75.67 64.7227C75.67 64.1587 77.0467 62.8355 77.0467 61.4471C77.0467 60.7095 76.5383 59.8418 75.1616 59.8418C74.1873 59.8418 73.2131 60.1889 72.0481 61.4905C71.9848 60.6011 71.4552 59.8418 70.1633 59.8418C69.2738 59.8418 68.3629 60.1889 67.3251 61.3386C67.2617 60.4275 66.8593 59.8418 66.3299 59.8418C65.8851 59.8418 65.4614 60.1672 64.932 61.1217L63.8612 63.0665C62.9982 64.5253 62.1994 65.1132 61.5857 65.1132C61.3104 65.1132 61.162 64.983 61.162 64.7227C61.162 64.3974 61.4797 63.8984 61.9457 63.1174L63.0683 61.2518C63.6189 60.3624 63.7885 59.7116 63.7885 59.1693C63.7885 58.1714 63.28 57.4556 62.6447 57.4556C62.2634 57.4556 62.0093 57.6508 61.6493 58.3016C61.6493 58.3016 59.0843 62.9255 58.9582 63.1547C58.1158 64.5487 57.3369 65.1132 56.7357 65.1132C56.4604 65.1132 56.3123 64.983 56.3123 64.7227C56.3123 63.8116 58.176 62.445 58.176 61.2302C58.176 60.2974 57.3077 59.8418 55.8462 59.8418C51.7798 59.8418 48.2639 62.9873 48.2639 65.6555C48.2639 66.7402 48.7935 67.5428 50.0218 67.5428C51.102 67.5428 52.1822 66.9354 52.9871 66.1761C53.0081 66.892 53.4318 67.5428 54.4908 67.5428C55.5601 67.5428 56.7758 67.0193 57.8375 66.1389C57.8473 66.8867 58.2529 67.5428 59.3407 67.5428C60.298 67.5428 61.3725 67.1232 62.3488 66.4039C62.3486 66.4148 62.348 66.4256 62.348 66.4364C62.348 67.0655 62.7292 67.5428 63.5341 67.5428C64.4448 67.5428 64.9954 66.9137 65.7367 65.6121L66.7321 63.8767C67.5582 62.4232 68.1724 62.0545 68.6384 62.0545C68.9137 62.0545 69.0831 62.1846 69.0831 62.445C69.0831 63.2042 67.2829 65.0698 67.2829 66.4364C67.2829 67.0655 67.6854 67.5428 68.5325 67.5428C69.4431 67.5428 69.9939 66.9137 70.735 65.6121L71.7305 63.8767C72.5778 62.4449 73.1707 62.0545 73.6368 62.0545C73.912 62.0545 74.0816 62.1846 74.0816 62.445C74.0816 63.074 72.3025 64.8963 72.3025 66.2195C72.3025 66.9571 72.7895 67.5428 73.8485 67.5428C75.0418 67.5428 76.4211 66.9324 77.5848 65.9199C77.9347 67.0308 78.939 67.5428 80.3082 67.5428C81.7996 67.5428 83.6033 66.9613 85.0639 65.867C85.0563 65.9486 85.0523 66.0299 85.0523 66.1111C85.0523 66.8703 85.4545 67.5428 86.5559 67.5428C87.6361 67.5428 88.8644 67.0222 89.9234 66.1327C89.9234 66.8703 90.3259 67.5428 91.4273 67.5428C92.8432 67.5428 94.4688 66.8248 95.7817 65.6612C96.0848 66.9107 97.3337 67.5428 98.6313 67.5428C101.494 67.5428 103.955 64.9396 104 62.4232C104.022 60.7963 102.881 59.8418 101.293 59.8418ZM51.8645 65.1132C51.5469 65.1132 51.3561 64.918 51.3561 64.5709C51.3561 63.4862 53.0505 62.0545 54.0249 62.0545C54.3212 62.0545 54.4908 62.163 54.4908 62.4233C54.4908 63.2476 52.9657 65.1132 51.8645 65.1132ZM82.4051 61.6423C82.8073 61.6423 83.0616 61.8375 83.0616 62.163C83.0616 62.5534 82.6592 63.009 81.9814 63.009C81.579 63.009 81.2189 62.8788 81.2189 62.51C81.2189 62.0979 81.7271 61.6423 82.4051 61.6423ZM91.2577 62.7487C90.3259 64.4407 89.4576 65.1132 88.801 65.1132C88.5255 65.1132 88.3774 64.9831 88.3774 64.7227C88.3774 64.3974 88.6951 63.8984 89.1611 63.1174L89.888 61.8847H91.7519C91.7519 61.8847 91.3213 62.6402 91.2577 62.7487ZM99.4589 65.3084C98.9893 65.3084 98.7208 65.0047 98.7208 64.5275C98.7432 63.4862 100.041 62.0545 101.092 62.0545C101.517 62.0545 101.763 62.3365 101.763 62.7703C101.741 63.8116 100.533 65.3084 99.4589 65.3084ZM48.5568 62.0328C48.5568 65.6989 44.9986 67.5428 41.1227 67.5428C40.2747 67.5428 39.5549 67.483 38.9026 67.3549L38.8231 67.4777C37.6795 69.2349 36.9805 69.5819 36.218 69.5819C35.1802 69.5819 34.2272 68.6708 35.6673 66.4798L37.7006 63.3994C39.2255 61.1 41.047 60.4926 42.1271 60.4926C42.8896 60.4926 43.059 60.9265 42.5719 61.6857L40.486 64.9086C40.6266 64.915 40.7738 64.9179 40.9321 64.9179C43.2406 64.9179 45.2527 63.8984 45.2527 62.1412C45.2527 60.6011 43.516 59.6683 41.0168 59.6683C37.5223 59.6683 34.661 61.5989 34.661 63.009C34.661 63.7248 35.3689 63.855 35.3689 64.5492C35.3689 65.1132 34.843 65.8507 33.6699 65.8507C32.1731 65.8507 31 64.8095 31 63.1608C31 59.5815 35.9356 57 41.0168 57C45.5493 57 48.5568 58.9524 48.5568 62.0328ZM45.4938 70.634H47.0283V75.2133H48.9028V76.5813H45.4938V70.634ZM49.4339 71.8235H50.9435V76.5813H49.4339V71.8235ZM49.6081 70.8635C49.6081 70.5406 49.8652 70.2857 50.1969 70.2857C50.5205 70.2857 50.7776 70.5406 50.7776 70.8635C50.7776 71.1948 50.5205 71.4497 50.1969 71.4497C49.8652 71.4497 49.6081 71.1948 49.6081 70.8635ZM52.3454 77.6431V76.4962C52.6605 76.7341 53.1086 76.87 53.5812 76.87C54.4687 76.87 54.9333 76.4367 54.9333 75.6381V75.3577C54.6512 75.8165 54.1536 76.0714 53.5396 76.0714C52.395 76.0714 51.5242 75.1538 51.5242 73.9048C51.5242 72.6476 52.4035 71.7215 53.5481 71.7215C54.1536 71.7215 54.6512 71.9594 54.9333 72.3928V71.8235H56.4428V75.6381C56.4428 77.0909 55.4559 78 53.9048 78C53.2993 78 52.7103 77.8641 52.3454 77.6431ZM54.9333 74.0153V73.7946C54.9333 73.3782 54.6096 72.894 53.9876 72.894C53.4235 72.894 53.042 73.2932 53.042 73.8964C53.042 74.5168 53.4235 74.9159 53.9876 74.9159C54.6096 74.9159 54.9333 74.4317 54.9333 74.0153ZM57.1647 70.4387H58.6742V72.4522C58.9563 71.9934 59.4456 71.7215 60.0594 71.7215C61.0383 71.7215 61.6272 72.4266 61.6272 73.5311V76.5813H60.1174V73.8625C60.1174 73.2849 59.9019 73.0129 59.4872 73.0129C59.0144 73.0129 58.6742 73.3867 58.6742 73.9899V76.5813H57.1647V70.4387ZM62.8219 73.0129H62.0587V71.8235H62.8219V70.906H64.3232V71.8235H65.1776V73.0129H64.3232V76.5813H62.8219V73.0129ZM65.7664 70.634H67.9812C69.1507 70.634 69.9636 71.3817 69.9636 72.4012C69.9636 73.0893 69.5904 73.6331 69.0097 73.9305L70.4697 76.5813H68.7692L67.301 73.752V76.5813H65.7664V70.634ZM67.7738 73.1403C68.172 73.1403 68.4706 72.8601 68.4706 72.4607C68.4706 72.0699 68.1802 71.7895 67.7738 71.7895H67.301V73.1403H67.7738ZM70.3703 74.2278C70.3703 72.775 71.4071 71.6961 72.817 71.6961C74.1193 71.6961 75.0234 72.6645 75.0234 74.0833C75.0234 74.2873 75.0069 74.4742 74.9903 74.6442H71.8301C71.9627 75.2133 72.4521 75.5276 73.2318 75.5276C73.7213 75.5276 74.1941 75.4002 74.5175 75.1792V76.3347C74.1609 76.5641 73.5884 76.7087 72.9912 76.7087C71.4153 76.7087 70.3703 75.6807 70.3703 74.2278ZM73.6715 73.6502C73.6465 73.1234 73.3066 72.8176 72.8005 72.8176C72.3029 72.8176 71.9379 73.1234 71.8301 73.6502H73.6715ZM75.4218 74.2109C75.4218 72.7835 76.3342 71.7215 77.5451 71.7215C78.1673 71.7215 78.6817 71.9934 78.9803 72.4861V71.8235H80.4899V76.5813H78.9803V75.8675C78.6817 76.3941 78.1674 76.6746 77.5369 76.6746C76.3259 76.6746 75.4218 75.6212 75.4218 74.2109ZM78.9803 74.3212V74.0748C78.9803 73.5823 78.6317 73.0129 77.9599 73.0129C77.3461 73.0129 76.9314 73.4887 76.9314 74.2022C76.9314 74.9075 77.3461 75.4002 77.9599 75.4002C78.6317 75.4002 78.9803 74.8226 78.9803 74.3212ZM81.0623 74.2022C81.0623 72.775 82.099 71.7215 83.4842 71.7215C83.8491 71.7215 84.1976 71.7895 84.4466 71.9169V73.1914C84.2556 73.0724 84.0068 73.0045 83.7413 73.0045C83.0529 73.0045 82.5884 73.4887 82.5884 74.2022C82.5884 74.9159 83.0529 75.4087 83.7413 75.4087C84.0068 75.4087 84.2474 75.3323 84.4466 75.2133V76.4877C84.1893 76.6151 83.8491 76.6831 83.4842 76.6831C82.099 76.6831 81.0623 75.6212 81.0623 74.2022ZM85.0438 70.4387H86.5533V72.4522C86.8354 71.9934 87.3248 71.7215 87.9385 71.7215C88.9174 71.7215 89.5063 72.4266 89.5063 73.5311V76.5813H87.9966V73.8625C87.9966 73.2849 87.781 73.0129 87.3663 73.0129C86.8935 73.0129 86.5533 73.3867 86.5533 73.9899V76.5813H85.0438V70.4387ZM89.3915 71.3662C89.3915 70.8216 89.8285 70.3779 90.3642 70.3779C90.8998 70.3779 91.337 70.8216 91.337 71.3662C91.337 71.9148 90.8998 72.3626 90.3642 72.3626C89.8285 72.3626 89.3915 71.9148 89.3915 71.3662ZM91.1479 71.3662C91.1479 70.9104 90.8014 70.5514 90.3642 70.5514C89.923 70.5514 89.5727 70.9104 89.5727 71.3662C89.5727 71.826 89.923 72.1892 90.3642 72.1892C90.8014 72.1892 91.1479 71.826 91.1479 71.3662ZM89.9861 70.8297H90.435C90.6359 70.8297 90.7658 70.9547 90.7658 71.1484C90.7658 71.2613 90.7148 71.35 90.6281 71.4065C90.6989 71.4469 90.7304 71.4993 90.7461 71.58L90.7817 71.7373C90.7896 71.7817 90.8093 71.8381 90.825 71.8664H90.569C90.5571 71.8462 90.5414 71.8018 90.5376 71.7736L90.5138 71.6243C90.4982 71.5114 90.435 71.467 90.3051 71.467H90.2027V71.8664H89.9861V70.8297ZM90.5414 71.1484C90.5414 71.0717 90.4901 71.0274 90.3996 71.0274H90.2027V71.2653H90.3996C90.4901 71.2653 90.5414 71.221 90.5414 71.1484Z" fill="#1F2723"/>
<defs>
<filter id="filter0_d_3358_4805" x="0.348633" y="0.218079" width="135.009" height="146.341" filterUnits="userSpaceOnUse" color-interpolation-filters="sRGB">
<feFlood flood-opacity="0" result="BackgroundImageFix"/>
<feColorMatrix in="SourceAlpha" type="matrix" values="0 0 0 0 0 0 0 0 0 0 0 0 0 0 0 0 0 0 127 0" result="hardAlpha"/>
<feOffset dy="6"/>
<feGaussianBlur stdDeviation="10"/>
<feColorMatrix type="matrix" values="0 0 0 0 0.0561006 0 0 0 0 0.153723 0 0 0 0 0.237399 0 0 0 0.15 0"/>
<feBlend mode="normal" in2="BackgroundImageFix" result="effect1_dropShadow_3358_4805"/>
<feBlend mode="normal" in="SourceGraphic" in2="effect1_dropShadow_3358_4805" result="shape"/>
</filter>
</defs>
</svg>
