<svg width="136" height="147" viewBox="0 0 136 147" fill="none" xmlns="http://www.w3.org/2000/svg">
<g filter="url(#filter0_d_3212_13172)">
<path d="M63.8788 15.2752C66.341 13.8657 69.3655 13.8657 71.8277 15.2752L111.332 37.8898C113.822 39.3149 115.358 41.964 115.358 44.8326V89.9442C115.358 92.8128 113.822 95.4618 111.332 96.887L71.8277 119.502C69.3655 120.911 66.341 120.911 63.8788 119.502L24.3744 96.887C21.8849 95.4618 20.3489 92.8128 20.3489 89.9442L20.3489 44.8326C20.3489 41.964 21.8849 39.3149 24.3744 37.8898L63.8788 15.2752Z" fill="white"/>
</g>
<path d="M81.1493 75.5216C81.2012 75.406 81.2566 75.2915 81.3038 75.1735C81.3805 74.9812 81.4242 74.7829 81.4242 74.5717C81.4218 69.906 81.4242 65.2415 81.4195 60.5757C81.4195 59.8902 81.1056 59.3544 80.5191 59.0028C79.7156 58.5214 78.899 58.0588 78.0883 57.588C76.6192 56.736 75.1501 55.8841 73.681 55.0321C71.9276 54.0149 70.1776 52.9919 68.4171 51.9877C67.8483 51.6632 67.2441 51.6738 66.6742 51.9995C65.1744 52.8574 63.6829 53.7294 62.189 54.5955C60.6267 55.5017 59.0644 56.408 57.5021 57.3142C56.5297 57.8783 55.5586 58.4447 54.5851 59.0052C54.3078 59.1645 54.119 59.4064 53.9302 59.653C53.8476 59.6306 53.7839 59.5751 53.7143 59.5314C52.8446 58.9851 51.9443 58.4907 51.0593 57.9691C50.3005 57.5219 49.5347 57.0865 48.7724 56.644C48.3028 56.3714 47.8331 56.0976 47.3635 55.8251C47.0803 55.661 46.7947 55.4994 46.5127 55.3354C46.069 55.0769 45.6301 54.8126 45.1829 54.5601C45.0059 54.4598 44.8489 54.317 44.6377 54.284C44.7828 53.9441 45.0436 53.707 45.3516 53.5276C46.7617 52.7028 48.1765 51.885 49.5902 51.0649C51.6068 49.8956 53.6234 48.7285 55.64 47.5592C57.2873 46.6045 58.9334 45.6476 60.5795 44.6918C62.3235 43.6793 64.0652 42.6622 65.814 41.658C66.1869 41.4432 66.5574 41.219 66.9621 41.0656C66.9739 41.0597 66.9857 41.055 66.9975 41.0491C67.0081 41.0467 67.0188 41.0444 67.0294 41.042C67.1639 41.0456 67.2984 41.0479 67.4093 40.9523H67.9993C67.9852 41.0267 68.043 41.0243 68.0878 41.0408C68.194 41.0798 68.305 41.1116 68.4017 41.1659C69.0295 41.5211 69.6549 41.881 70.2803 42.2409C71.1735 42.7542 72.0656 43.2675 72.9577 43.782C73.399 44.038 73.8368 44.3 74.2781 44.5572C75.1183 45.0458 75.9596 45.5319 76.7998 46.0193C77.4405 46.391 78.0813 46.7638 78.722 47.1355C79.3037 47.473 79.8867 47.807 80.4672 48.1444C81.0914 48.5067 81.7121 48.8737 82.3363 49.2348C83.1682 49.7162 84.0049 50.1917 84.8368 50.6744C85.6946 51.1723 86.5454 51.6797 87.4044 52.1741C88.2257 52.6461 89.0494 53.1134 89.8565 53.609C90.2695 53.8639 90.548 54.2273 90.653 54.71C90.6648 54.7654 90.6896 54.7855 90.7403 54.7855V80.1236C90.6542 80.3702 90.64 80.6428 90.4701 80.8588C90.3792 80.854 90.3627 80.7573 90.2907 80.7195C89.7762 80.4481 89.2795 80.1437 88.7791 79.8475C88.1821 79.4947 87.5791 79.1489 86.9808 78.7973C86.1584 78.3135 85.3312 77.838 84.5052 77.3612C84.0438 77.0946 83.5824 76.8279 83.1199 76.5624C82.7552 76.3523 82.3942 76.1376 82.0248 75.9358C81.7404 75.78 81.4985 75.5322 81.1457 75.5204L81.1493 75.5216Z" fill="#0072BB"/>
<path d="M81.1487 75.5216C81.5015 75.5334 81.7434 75.7812 82.0278 75.937C82.396 76.1399 82.7582 76.3535 83.1228 76.5636C83.5842 76.8291 84.0468 77.0957 84.5082 77.3624C85.3342 77.8403 86.1613 78.3159 86.9838 78.7985C87.5821 79.1501 88.185 79.4947 88.7821 79.8487C89.2824 80.1449 89.778 80.4493 90.2937 80.7207C90.3657 80.7585 90.3822 80.8552 90.4731 80.8599C90.4424 80.9449 90.3881 81.0133 90.3362 81.0841C90.1132 81.3921 89.7934 81.5786 89.476 81.7638C88.5768 82.2877 87.6753 82.8069 86.7749 83.3297C85.2339 84.2241 83.694 85.1197 82.1529 86.0142C80.4761 86.9877 78.7981 87.96 77.1214 88.9323C75.6098 89.8091 74.0982 90.6858 72.5866 91.5637C71.5081 92.1891 70.4319 92.8192 69.3511 93.4399C68.9145 93.6901 68.4897 93.9709 67.9941 94.1043C67.9598 94.1137 67.9433 94.1314 67.9433 94.1656H67.1468C67.1421 94.063 67.0359 94.0866 66.9922 94.0724C66.5981 93.9473 66.2583 93.7208 65.9066 93.5154C65.2022 93.106 64.4836 92.7189 63.8027 92.2705C63.2021 91.8741 62.9012 91.31 62.9012 90.5961C62.8988 82.4093 62.8988 74.2224 62.9012 66.0368C62.9012 65.6733 62.9755 65.3276 63.1867 65.022C63.4593 65.1105 63.6812 65.2922 63.9278 65.4291C64.683 65.8503 65.4276 66.2905 66.171 66.7318C66.5958 66.9843 67.0217 67.2357 67.4513 67.4787C68.0035 67.7914 68.5463 68.1218 69.0997 68.4322C69.5434 68.6812 69.98 68.9408 70.4201 69.1956C70.8296 69.434 71.2379 69.6735 71.6485 69.9107C71.7323 69.9591 71.8149 70.0193 71.9211 70.0075C71.7028 70.4936 71.2768 70.758 70.8426 71.0117C70.0838 71.4553 69.3192 71.8896 68.564 72.3392C67.9705 72.6932 67.6519 73.2289 67.6507 73.9204C67.6436 76.8055 67.6471 79.6917 67.6471 82.5768C67.6471 82.6854 67.6566 82.7928 67.6908 82.8966C67.7828 83.1727 68.0318 83.2955 68.2997 83.1845C68.5864 83.0665 68.8519 82.9061 69.1198 82.7527C70.2868 82.0836 71.4526 81.411 72.6161 80.736C73.4905 80.2286 74.3613 79.7142 75.2345 79.2044C76.4641 78.487 77.6913 77.7636 78.9279 77.058C79.4648 76.7512 79.9947 76.4314 80.5292 76.1211C80.7864 75.9712 80.9658 75.7446 81.1499 75.5228L81.1487 75.5216Z" fill="#36A2D9"/>
<path d="M44.6372 54.2852C44.8484 54.3182 45.0053 54.461 45.1823 54.5613C45.6295 54.8138 46.0685 55.0781 46.5122 55.3365C46.7954 55.5017 47.0798 55.6622 47.363 55.8262C47.8326 56.0988 48.3011 56.3726 48.7719 56.6452C49.5342 57.0865 50.3 57.5231 51.0587 57.9703C51.9437 58.4919 52.8429 58.9863 53.7137 59.5326C53.7833 59.5763 53.8471 59.6317 53.9297 59.6542C53.7184 60.0589 53.6901 60.4908 53.6913 60.9392C53.6972 68.9939 53.6948 77.0485 53.696 85.1044C53.696 85.2908 53.6854 85.4773 53.6394 85.6566C53.5568 85.9729 53.3279 86.0909 53.0199 85.9847C52.7308 85.8856 52.4688 85.7274 52.2057 85.574C50.0652 84.3327 47.9235 83.0937 45.7865 81.8452C45.4278 81.6364 45.0513 81.4405 44.7941 81.0948C44.6324 80.8765 44.4802 80.6546 44.4708 80.3667C44.4672 80.277 44.4259 80.1991 44.374 80.126V54.9648C44.4177 54.8893 44.4318 54.8032 44.4554 54.7206C44.4991 54.5684 44.5251 54.4091 44.6372 54.2852Z" fill="#36A2D9"/>
<path d="M90.7422 87.7051C90.5069 87.7445 90.3893 87.6426 90.3893 87.3995C90.3893 86.9971 90.3893 86.5948 90.3893 86.1652C90.2595 86.2573 90.2112 86.3894 90.1392 86.4968C89.9893 86.721 89.8489 86.9511 89.7156 87.1859C89.653 87.2969 89.6058 87.2957 89.5421 87.1954C89.3545 86.9016 89.1539 86.616 88.9851 86.3104C88.9604 86.2655 88.9486 86.1888 88.8825 86.2113C88.8329 86.2278 88.8565 86.2974 88.8565 86.3446C88.8553 86.7623 88.8565 87.18 88.853 87.5978C88.853 87.6591 88.8955 87.7689 88.7621 87.7453C88.6701 87.7287 88.5273 87.8043 88.5308 87.5978C88.5403 86.9983 88.5308 86.3989 88.5332 85.7994C88.5332 85.7239 88.4895 85.6213 88.5969 85.58C88.7114 85.5351 88.9037 85.5988 88.9627 85.6944C89.1492 85.9941 89.3332 86.2962 89.5197 86.5959C89.6294 86.7729 89.6353 86.7741 89.7451 86.6042C89.9185 86.3363 90.0967 86.072 90.2584 85.7971C90.3433 85.6519 90.4472 85.5835 90.6135 85.6106C90.656 85.6177 90.7009 85.6118 90.7433 85.6118V87.7063L90.7422 87.7051Z" fill="#36A2D9"/>
<path d="M67.0303 41.0432C67.0515 41.0149 67.127 41.0208 67.0857 40.9536H67.4102C67.2993 41.0503 67.1648 41.0468 67.0303 41.0432Z" fill="#36A2D9"/>
<path d="M71.9189 70.0063C71.8127 70.0181 71.7301 69.958 71.6464 69.9096C71.2357 69.6724 70.8274 69.4329 70.418 69.1945C69.9778 68.9384 69.5412 68.6788 69.0976 68.431C68.5441 68.1207 68.0013 67.7903 67.4491 67.4776C67.0196 67.2345 66.5936 66.9832 66.1688 66.7307C65.4254 66.2893 64.6808 65.8492 63.9256 65.4279C63.6802 65.2911 63.4572 65.1082 63.1846 65.0208C63.292 64.773 63.4796 64.5937 63.6955 64.445C64.2171 64.0839 64.7729 63.7795 65.3216 63.4632C65.7511 63.2166 66.1818 62.9712 66.6196 62.7387C67.2214 62.4201 67.8314 62.4071 68.432 62.7434C69.3524 63.2591 70.2681 63.783 71.172 64.3282C71.7939 64.7022 72.1266 65.2521 72.1337 65.9778C72.1443 67.0398 72.1384 68.1018 72.1372 69.1626C72.1372 69.4612 72.0889 69.7479 71.9201 70.004L71.9189 70.0063Z" fill="#0072BB"/>
<path d="M87.3866 86.8296C87.3866 87.0903 87.3807 87.3499 87.389 87.6107C87.3925 87.7216 87.3465 87.7488 87.2509 87.7417C87.1636 87.7346 87.0586 87.7736 87.0598 87.6166C87.0645 87.0915 87.0574 86.5652 87.0645 86.0401C87.0657 85.9269 87.0362 85.8938 86.9253 85.9009C86.7837 85.9103 86.6397 85.8974 86.4981 85.9068C86.3636 85.9162 86.3742 85.8325 86.3777 85.7475C86.3801 85.6684 86.3494 85.5776 86.491 85.5799C86.9819 85.5858 87.474 85.5882 87.9648 85.5811C88.1171 85.5788 88.0392 85.7015 88.0734 85.7605C88.084 85.7782 88.1017 85.9127 87.9743 85.9033C87.8327 85.8926 87.6887 85.9056 87.5471 85.895C87.4268 85.8856 87.3831 85.9257 87.3866 86.0496C87.3949 86.3092 87.389 86.57 87.389 86.8307H87.3855L87.3866 86.8296Z" fill="#36A2D9"/>
<defs>
<filter id="filter0_d_3212_13172" x="0.348633" y="0.218079" width="135.009" height="146.341" filterUnits="userSpaceOnUse" color-interpolation-filters="sRGB">
<feFlood flood-opacity="0" result="BackgroundImageFix"/>
<feColorMatrix in="SourceAlpha" type="matrix" values="0 0 0 0 0 0 0 0 0 0 0 0 0 0 0 0 0 0 127 0" result="hardAlpha"/>
<feOffset dy="6"/>
<feGaussianBlur stdDeviation="10"/>
<feColorMatrix type="matrix" values="0 0 0 0 0.0561006 0 0 0 0 0.153723 0 0 0 0 0.237399 0 0 0 0.15 0"/>
<feBlend mode="normal" in2="BackgroundImageFix" result="effect1_dropShadow_3212_13172"/>
<feBlend mode="normal" in="SourceGraphic" in2="effect1_dropShadow_3212_13172" result="shape"/>
</filter>
</defs>
</svg>
