<svg width="136" height="147" viewBox="0 0 136 147" fill="none" xmlns="http://www.w3.org/2000/svg">
<g filter="url(#filter0_d_516_7616)">
<path d="M64.1307 15.5217C66.5929 14.1122 69.6175 14.1122 72.0797 15.5217L111.584 38.1362C114.074 39.5614 115.61 42.2105 115.61 45.0791V90.1906C115.61 93.0593 114.074 95.7083 111.584 97.1335L72.0797 119.748C69.6175 121.158 66.5929 121.158 64.1307 119.748L24.6264 97.1335C22.1368 95.7083 20.6009 93.0593 20.6009 90.1906L20.6009 45.0791C20.6009 42.2105 22.1368 39.5614 24.6264 38.1362L64.1307 15.5217Z" fill="white"/>
</g>
<path d="M71.0899 48.4048C66.3657 48.4048 63.61 50.5036 62.3078 51.9727C62.1564 50.7134 61.3085 49.0944 58.0682 49.0944H50.9517V56.4099H53.8588C54.3434 56.4099 54.4948 56.5598 54.4948 57.0395V90.4989H62.9135V77.9367C62.9135 77.6069 62.9135 77.2771 62.8832 77.0072C64.1854 78.2065 66.6989 79.8555 70.6357 79.8555C78.8726 79.8555 84.6264 73.3795 84.6264 64.1452C84.687 54.731 79.2058 48.4048 71.0899 48.4048ZM69.3638 72.57C64.8213 72.57 62.7621 68.2826 62.7621 64.2951C62.7621 58.0289 66.2143 55.7803 69.4849 55.7803C73.452 55.7803 76.1472 59.1682 76.1472 64.2351C76.1169 70.0215 72.7252 72.57 69.3638 72.57Z" fill="#203232"/>
<defs>
<filter id="filter0_d_516_7616" x="0.60083" y="0.464539" width="135.009" height="146.341" filterUnits="userSpaceOnUse" color-interpolation-filters="sRGB">
<feFlood flood-opacity="0" result="BackgroundImageFix"/>
<feColorMatrix in="SourceAlpha" type="matrix" values="0 0 0 0 0 0 0 0 0 0 0 0 0 0 0 0 0 0 127 0" result="hardAlpha"/>
<feOffset dy="6"/>
<feGaussianBlur stdDeviation="10"/>
<feColorMatrix type="matrix" values="0 0 0 0 0.12549 0 0 0 0 0.152941 0 0 0 0 0.176471 0 0 0 0.15 0"/>
<feBlend mode="normal" in2="BackgroundImageFix" result="effect1_dropShadow_516_7616"/>
<feBlend mode="normal" in="SourceGraphic" in2="effect1_dropShadow_516_7616" result="shape"/>
</filter>
</defs>
</svg>
