<svg width="136" height="147" viewBox="0 0 136 147" fill="none" xmlns="http://www.w3.org/2000/svg">
<g filter="url(#filter0_d_516_7445)">
<path d="M63.982 15.8221C66.4442 14.4126 69.4688 14.4126 71.931 15.8221L111.112 38.2518C113.602 39.677 115.138 42.326 115.138 45.1947V89.9365C115.138 92.8051 113.602 95.4542 111.112 96.8794L71.931 119.309C69.4688 120.719 66.4442 120.719 63.982 119.309L24.8006 96.8794C22.311 95.4542 20.7751 92.8051 20.7751 89.9365L20.7751 45.1947C20.7751 42.326 22.311 39.677 24.8006 38.2518L63.982 15.8221Z" fill="white"/>
</g>
<path d="M85.8637 47.5402C76.4185 38.0881 61.0707 38.0499 51.577 47.4314L51.4656 47.5423C41.9869 57.0338 41.9899 72.474 51.4712 81.9619L66.116 96.6157C66.7291 97.2308 67.5621 97.5759 68.4303 97.5745C69.2675 97.5745 70.1071 97.2558 70.746 96.6157C72.0229 95.3361 72.0229 93.2612 70.746 91.9822L56.0989 77.3271C49.1914 70.4152 49.1693 59.1777 56.0347 52.2366L56.1016 52.1711C63.0322 45.2393 74.3071 45.2414 81.2333 52.1733C86.9209 57.8658 87.7371 67.6073 83.1283 74.8358C82.1563 76.36 82.604 78.3857 84.127 79.3587C85.6535 80.3347 87.675 79.8845 88.6463 78.361C94.9709 68.4431 93.8002 55.4824 85.8637 47.5402ZM80.0029 82.7134C81.2805 83.9929 81.2821 86.068 80.0029 87.3459C79.3912 87.9623 78.5587 88.3085 77.6906 88.3074C76.8212 88.3084 75.9871 87.9631 75.3726 87.3476L60.7283 72.6938C56.3535 68.3142 56.3535 61.1866 60.7283 56.806C62.8483 54.6865 65.6664 53.5181 68.6641 53.5181H68.6673C71.6644 53.5181 74.4829 54.688 76.6013 56.811C79.5204 59.73 80.6023 64.0174 79.4182 67.9736C78.8978 69.7074 77.0774 70.6945 75.3443 70.1755C73.6117 69.6586 72.6255 67.8328 73.1416 66.0979C73.6373 64.449 73.1875 62.6609 71.9707 61.4435C71.0875 60.5584 69.915 60.0713 68.6658 60.0707H68.6639C67.4144 60.0707 66.242 60.5572 65.3581 61.4403C63.5349 63.2649 63.5349 66.2348 65.3581 68.0598L80.0029 82.7132" fill="#5088AC"/>
<defs>
<filter id="filter0_d_516_7445" x="0.775146" y="0.764954" width="134.363" height="145.601" filterUnits="userSpaceOnUse" color-interpolation-filters="sRGB">
<feFlood flood-opacity="0" result="BackgroundImageFix"/>
<feColorMatrix in="SourceAlpha" type="matrix" values="0 0 0 0 0 0 0 0 0 0 0 0 0 0 0 0 0 0 127 0" result="hardAlpha"/>
<feOffset dy="6"/>
<feGaussianBlur stdDeviation="10"/>
<feColorMatrix type="matrix" values="0 0 0 0 0.12549 0 0 0 0 0.152941 0 0 0 0 0.176471 0 0 0 0.15 0"/>
<feBlend mode="normal" in2="BackgroundImageFix" result="effect1_dropShadow_516_7445"/>
<feBlend mode="normal" in="SourceGraphic" in2="effect1_dropShadow_516_7445" result="shape"/>
</filter>
</defs>
</svg>
