<svg width="132" height="142" viewBox="0 0 132 142" fill="none" xmlns="http://www.w3.org/2000/svg">
<g filter="url(#filter0_d_781_7380)">
<path d="M62.1499 15.4133C64.6122 14.0038 67.6367 14.0038 70.0989 15.4133L107.24 36.675C109.73 38.1002 111.266 40.7492 111.266 43.6178V86.0237C111.266 88.8923 109.73 91.5414 107.24 92.9665L70.0989 114.228C67.6367 115.638 64.6121 115.638 62.1499 114.228L25.0089 92.9665C22.5193 91.5414 20.9833 88.8923 20.9833 86.0237L20.9833 43.6178C20.9833 40.7492 22.5193 38.1002 25.0089 36.675L62.1499 15.4133Z" fill="white"/>
</g>
<path d="M29.3823 72V58.3994H33.7891C35.459 58.3994 36.5475 58.4674 37.0547 58.6035C37.834 58.8076 38.4865 59.2529 39.0122 59.9395C39.5379 60.6198 39.8008 61.5011 39.8008 62.5835C39.8008 63.4185 39.6493 64.1204 39.3462 64.6895C39.0431 65.2585 38.6566 65.7069 38.1865 66.0347C37.7227 66.3563 37.2495 66.5697 36.7671 66.6748C36.1115 66.8047 35.1621 66.8696 33.9189 66.8696H32.1284V72H29.3823ZM32.1284 60.7002V64.5596H33.6313C34.7137 64.5596 35.4373 64.4884 35.8022 64.3462C36.1672 64.2039 36.4517 63.9813 36.6558 63.6782C36.866 63.3752 36.9712 63.0226 36.9712 62.6206C36.9712 62.1258 36.8258 61.7176 36.5352 61.396C36.2445 61.0744 35.8765 60.8734 35.4312 60.793C35.1034 60.7311 34.4447 60.7002 33.4551 60.7002H32.1284Z" fill="#1C77E3"/>
<path d="M45.5249 72L40.6636 58.3994H43.6416L47.0835 68.4653L50.4141 58.3994H53.3271L48.4565 72H45.5249Z" fill="#1C77E3"/>
<path d="M56.6577 72L53.4106 58.3994H56.2217L58.272 67.7417L60.7583 58.3994H64.0239L66.4082 67.8994L68.4956 58.3994H71.2603L67.9575 72H65.0444L62.3354 61.832L59.6357 72H56.6577Z" fill="#1C77E3"/>
<path d="M73.895 65.1533L71.5293 64.7266C71.7952 63.7741 72.2529 63.069 72.9023 62.6113C73.5518 62.1536 74.5166 61.9248 75.7969 61.9248C76.9596 61.9248 77.8255 62.064 78.3945 62.3423C78.9635 62.6144 79.3625 62.9639 79.5913 63.3906C79.8263 63.8112 79.9438 64.5874 79.9438 65.7192L79.916 68.7622C79.916 69.6281 79.9562 70.2682 80.0366 70.6826C80.1232 71.0908 80.2809 71.5299 80.5098 72H77.9307C77.8626 71.8268 77.7791 71.5701 77.6802 71.23C77.6369 71.0754 77.606 70.9733 77.5874 70.9238C77.1421 71.3568 76.6659 71.6815 76.1587 71.8979C75.6515 72.1144 75.1104 72.2227 74.5352 72.2227C73.5208 72.2227 72.7199 71.9474 72.1323 71.397C71.5509 70.8465 71.2603 70.1507 71.2603 69.3096C71.2603 68.7529 71.3932 68.2581 71.6592 67.8252C71.9251 67.3861 72.2962 67.0521 72.7725 66.8232C73.2549 66.5882 73.9476 66.3841 74.8506 66.2109C76.069 65.9821 76.9132 65.7687 77.3833 65.5708V65.311C77.3833 64.8101 77.2596 64.4544 77.0122 64.2441C76.7648 64.0277 76.2979 63.9194 75.6113 63.9194C75.1475 63.9194 74.7856 64.0122 74.5259 64.1978C74.2661 64.3771 74.0558 64.6956 73.895 65.1533ZM77.3833 67.2686C77.0493 67.3799 76.5205 67.5129 75.7969 67.6675C75.0732 67.8221 74.6001 67.9736 74.3774 68.1221C74.0373 68.3633 73.8672 68.6694 73.8672 69.0405C73.8672 69.4054 74.0033 69.7209 74.2754 69.9868C74.5475 70.2528 74.8939 70.3857 75.3145 70.3857C75.7845 70.3857 76.2329 70.2311 76.6597 69.9219C76.9751 69.6868 77.1823 69.3993 77.2812 69.0591C77.3493 68.8364 77.3833 68.4128 77.3833 67.7881V67.2686Z" fill="#1C77E3"/>
<path d="M87.041 62.1475V64.2256H85.2598V68.1963C85.2598 69.0003 85.2752 69.4704 85.3062 69.6064C85.3433 69.7363 85.4206 69.8446 85.5381 69.9312C85.6618 70.0177 85.8102 70.061 85.9834 70.061C86.2246 70.061 86.5741 69.9775 87.0317 69.8105L87.2544 71.833C86.6483 72.0928 85.9618 72.2227 85.1948 72.2227C84.7248 72.2227 84.3011 72.1453 83.9238 71.9907C83.5466 71.8299 83.2682 71.6258 83.0889 71.3784C82.9157 71.1248 82.7951 70.7847 82.7271 70.3579C82.6714 70.0549 82.6436 69.4425 82.6436 68.521V64.2256H81.4468V62.1475H82.6436V60.1899L85.2598 58.6685V62.1475H87.041Z" fill="#1C77E3"/>
<path d="M93.3682 62.1475V64.2256H91.5869V68.1963C91.5869 69.0003 91.6024 69.4704 91.6333 69.6064C91.6704 69.7363 91.7477 69.8446 91.8652 69.9312C91.9889 70.0177 92.1374 70.061 92.3105 70.061C92.5518 70.061 92.9012 69.9775 93.3589 69.8105L93.5815 71.833C92.9754 72.0928 92.2889 72.2227 91.522 72.2227C91.0519 72.2227 90.6283 72.1453 90.251 71.9907C89.8737 71.8299 89.5954 71.6258 89.416 71.3784C89.2428 71.1248 89.1222 70.7847 89.0542 70.3579C88.9985 70.0549 88.9707 69.4425 88.9707 68.521V64.2256H87.7739V62.1475H88.9707V60.1899L91.5869 58.6685V62.1475H93.3682Z" fill="#1C77E3"/>
<path d="M94.2588 69.189L96.875 68.79C96.9863 69.2972 97.2121 69.6838 97.5522 69.9497C97.8924 70.2095 98.3687 70.3394 98.981 70.3394C99.6551 70.3394 100.162 70.2157 100.502 69.9683C100.731 69.7951 100.846 69.5632 100.846 69.2725C100.846 69.0745 100.784 68.9106 100.66 68.7808C100.53 68.6571 100.24 68.5426 99.7881 68.4375C97.6852 67.9736 96.3524 67.55 95.7896 67.1665C95.0103 66.6346 94.6206 65.8955 94.6206 64.9492C94.6206 64.0957 94.9577 63.3783 95.6318 62.7969C96.306 62.2155 97.3512 61.9248 98.7676 61.9248C100.116 61.9248 101.118 62.1444 101.773 62.5835C102.429 63.0226 102.881 63.672 103.128 64.5317L100.669 64.9863C100.564 64.6029 100.363 64.3091 100.066 64.105C99.7757 63.9009 99.3582 63.7988 98.814 63.7988C98.1274 63.7988 97.6357 63.8947 97.3389 64.0864C97.141 64.2225 97.042 64.3988 97.042 64.6152C97.042 64.8008 97.1286 64.9585 97.3018 65.0884C97.5368 65.2616 98.347 65.5059 99.7324 65.8213C101.124 66.1367 102.095 66.5233 102.646 66.981C103.19 67.4448 103.462 68.0911 103.462 68.9199C103.462 69.8229 103.085 70.5991 102.33 71.2485C101.576 71.8979 100.459 72.2227 98.981 72.2227C97.6388 72.2227 96.575 71.9505 95.7896 71.4062C95.0103 70.862 94.5 70.1229 94.2588 69.189Z" fill="#1C77E3"/>
<defs>
<filter id="filter0_d_781_7380" x="0.983398" y="0.35614" width="130.282" height="140.929" filterUnits="userSpaceOnUse" color-interpolation-filters="sRGB">
<feFlood flood-opacity="0" result="BackgroundImageFix"/>
<feColorMatrix in="SourceAlpha" type="matrix" values="0 0 0 0 0 0 0 0 0 0 0 0 0 0 0 0 0 0 127 0" result="hardAlpha"/>
<feOffset dy="6"/>
<feGaussianBlur stdDeviation="10"/>
<feColorMatrix type="matrix" values="0 0 0 0 0.0561006 0 0 0 0 0.153723 0 0 0 0 0.237399 0 0 0 0.15 0"/>
<feBlend mode="normal" in2="BackgroundImageFix" result="effect1_dropShadow_781_7380"/>
<feBlend mode="normal" in="SourceGraphic" in2="effect1_dropShadow_781_7380" result="shape"/>
</filter>
</defs>
</svg>
