<svg width="136" height="147" viewBox="0 0 136 147" fill="none" xmlns="http://www.w3.org/2000/svg">
<g filter="url(#filter0_d_790_7109)">
<path d="M64.0194 15.5212C66.4816 14.1117 69.5062 14.1117 71.9684 15.5212L111.473 38.1358C113.962 39.561 115.498 42.2101 115.498 45.0787V90.1905C115.498 93.0591 113.962 95.7081 111.473 97.1333L71.9684 119.748C69.5062 121.157 66.4816 121.157 64.0194 119.748L24.5151 97.1333C22.0255 95.7081 20.4896 93.0591 20.4896 90.1905L20.4896 45.0787C20.4896 42.2101 22.0255 39.561 24.5151 38.1358L64.0194 15.5212Z" fill="white"/>
</g>
<path d="M84.8201 44H58.2764V57.2075H71.5437V70.406H84.8201V44Z" fill="#289482"/>
<path d="M58.2764 57.2075H45V83.6136H71.5437V70.4061H58.2764V57.2075Z" fill="#1F2C1B"/>
<path d="M85.0002 83.6135H71.5439V97H85.0002V83.6135Z" fill="#F15E31"/>
<defs>
<filter id="filter0_d_790_7109" x="0.489258" y="0.46405" width="135.009" height="146.341" filterUnits="userSpaceOnUse" color-interpolation-filters="sRGB">
<feFlood flood-opacity="0" result="BackgroundImageFix"/>
<feColorMatrix in="SourceAlpha" type="matrix" values="0 0 0 0 0 0 0 0 0 0 0 0 0 0 0 0 0 0 127 0" result="hardAlpha"/>
<feOffset dy="6"/>
<feGaussianBlur stdDeviation="10"/>
<feColorMatrix type="matrix" values="0 0 0 0 0.0561006 0 0 0 0 0.153723 0 0 0 0 0.237399 0 0 0 0.15 0"/>
<feBlend mode="normal" in2="BackgroundImageFix" result="effect1_dropShadow_790_7109"/>
<feBlend mode="normal" in="SourceGraphic" in2="effect1_dropShadow_790_7109" result="shape"/>
</filter>
</defs>
</svg>
