<svg width="136" height="147" viewBox="0 0 136 147" fill="none" xmlns="http://www.w3.org/2000/svg">
<g filter="url(#filter0_d_3324_4781)">
<path d="M63.8788 15.2752C66.341 13.8657 69.3655 13.8657 71.8277 15.2752L111.332 37.8898C113.822 39.3149 115.358 41.964 115.358 44.8326V89.9442C115.358 92.8128 113.822 95.4618 111.332 96.887L71.8277 119.502C69.3655 120.911 66.341 120.911 63.8788 119.502L24.3744 96.887C21.8849 95.4618 20.3489 92.8128 20.3489 89.9442L20.3489 44.8326C20.3489 41.964 21.8849 39.3149 24.3744 37.8898L63.8788 15.2752Z" fill="white"/>
</g>
<path d="M44.0089 68.7338C44.0089 64.2138 43.9889 59.6938 44.0089 55.1638C44.0389 48.7038 48.2989 44.1938 54.7689 44.0938C63.8089 43.9638 72.8589 43.9738 81.8989 44.0938C88.3189 44.1738 92.7889 48.6738 92.8489 55.0738C92.9389 64.1138 92.9489 73.1638 92.8489 82.2038C92.7789 88.7738 88.2489 93.0738 81.6389 93.0938C72.7489 93.1138 63.8589 93.1138 54.9789 93.0938C48.3289 93.0738 44.0389 88.7438 44.0089 82.0738C43.9889 77.6338 44.0089 73.1838 44.0089 68.7438V68.7338ZM60.1389 51.7438C57.6889 51.9538 56.0689 52.9638 55.2389 55.0838C54.3689 57.3038 55.1589 59.1238 56.8589 60.4838C59.4089 62.5238 62.0589 64.4638 64.7489 66.3138C66.1989 67.3138 66.5689 68.4238 66.1189 70.0938C65.3389 72.9538 64.6989 75.8438 64.0289 78.7238C63.2889 81.9138 64.3689 84.1638 67.0689 85.1738C69.5989 86.1138 72.0289 84.9038 73.4689 81.9838C75.9389 76.9538 78.4089 71.9138 80.8889 66.8838C82.6189 63.3638 81.9189 61.0938 78.3989 59.5038C72.9289 57.0438 67.4189 54.6738 61.9189 52.2838C61.2889 52.0138 60.5889 51.8838 60.1289 51.7438H60.1389Z" fill="black"/>
<path d="M60.1384 51.7438C60.5984 51.8738 61.2984 52.0038 61.9284 52.2838C67.4284 54.6738 72.9384 57.0438 78.4084 59.5038C81.9184 61.0838 82.6284 63.3638 80.8984 66.8838C78.4184 71.9138 75.9484 76.9538 73.4784 81.9838C72.0384 84.9138 69.6084 86.1238 67.0784 85.1738C64.3784 84.1638 63.2984 81.9138 64.0384 78.7238C64.7084 75.8438 65.3584 72.9438 66.1284 70.0938C66.5784 68.4338 66.2084 67.3138 64.7584 66.3138C62.0584 64.4638 59.4184 62.5238 56.8684 60.4838C55.1684 59.1238 54.3784 57.3038 55.2484 55.0838C56.0784 52.9638 57.6884 51.9538 60.1484 51.7438H60.1384ZM66.6984 80.7338C67.0884 81.1638 67.6384 82.2338 68.1184 82.2038C68.9584 82.1638 70.1584 81.6438 70.5084 80.9638C73.2184 75.7838 75.7584 70.5038 78.3584 65.2638C79.0584 63.8538 78.6784 62.8638 77.2584 62.2438C71.8984 59.9038 66.5684 57.4938 61.1584 55.2838C60.3884 54.9638 59.2384 55.5638 58.2684 55.7438C58.5784 56.6738 58.6184 57.9338 59.2584 58.4738C61.5184 60.3838 63.9784 62.0538 66.3684 63.8038C69.4984 66.1038 69.9084 67.2438 68.9984 70.9738C68.2484 74.0838 67.5284 77.1938 66.6884 80.7238L66.6984 80.7338Z" fill="white"/>
<path d="M66.6983 80.7338C67.5283 77.2038 68.2483 74.0838 69.0083 70.9838C69.9083 67.2538 69.5083 66.1138 66.3783 63.8138C63.9883 62.0538 61.5283 60.3938 59.2683 58.4838C58.6283 57.9438 58.5883 56.6838 58.2783 55.7538C59.2483 55.5738 60.3983 54.9738 61.1683 55.2938C66.5783 57.5038 71.9083 59.9138 77.2683 62.2538C78.6883 62.8738 79.0683 63.8638 78.3683 65.2738C75.7683 70.5138 73.2283 75.7838 70.5183 80.9738C70.1583 81.6538 68.9583 82.1738 68.1283 82.2138C67.6383 82.2438 67.0983 81.1738 66.7083 80.7438L66.6983 80.7338Z" fill="black"/>
<defs>
<filter id="filter0_d_3324_4781" x="0.348633" y="0.218079" width="135.009" height="146.341" filterUnits="userSpaceOnUse" color-interpolation-filters="sRGB">
<feFlood flood-opacity="0" result="BackgroundImageFix"/>
<feColorMatrix in="SourceAlpha" type="matrix" values="0 0 0 0 0 0 0 0 0 0 0 0 0 0 0 0 0 0 127 0" result="hardAlpha"/>
<feOffset dy="6"/>
<feGaussianBlur stdDeviation="10"/>
<feColorMatrix type="matrix" values="0 0 0 0 0.0561006 0 0 0 0 0.153723 0 0 0 0 0.237399 0 0 0 0.15 0"/>
<feBlend mode="normal" in2="BackgroundImageFix" result="effect1_dropShadow_3324_4781"/>
<feBlend mode="normal" in="SourceGraphic" in2="effect1_dropShadow_3324_4781" result="shape"/>
</filter>
</defs>
</svg>
