<svg width="136" height="147" viewBox="0 0 136 147" fill="none" xmlns="http://www.w3.org/2000/svg">
<g filter="url(#filter0_d_516_7449)">
<path d="M63.9507 15.5217C66.4129 14.1122 69.4375 14.1122 71.8997 15.5217L111.081 37.9514C113.571 39.3766 115.107 42.0256 115.107 44.8942V89.6361C115.107 92.5047 113.571 95.1538 111.081 96.579L71.8997 119.009C69.4375 120.418 66.4129 120.418 63.9507 119.009L24.7693 96.579C22.2797 95.1538 20.7438 92.5047 20.7438 89.6361L20.7438 44.8943C20.7438 42.0256 22.2797 39.3766 24.7693 37.9514L63.9507 15.5217Z" fill="white"/>
</g>
<path d="M63.2213 49.6329C65.4284 47.3346 68.5012 45.9092 71.8996 45.9092C76.4173 45.9092 80.3587 48.4267 82.4577 52.1639C84.2817 51.3495 86.3007 50.8964 88.4249 50.8964C96.5729 50.8964 103.179 57.5556 103.179 65.7695C103.179 73.9844 96.5729 80.6436 88.4249 80.6436C87.449 80.6441 86.4754 80.5472 85.5188 80.3542C83.6704 83.6491 80.1482 85.8753 76.1053 85.8753C74.4129 85.8753 72.8121 85.4847 71.3869 84.79C69.5131 89.1946 65.1476 92.283 60.0597 92.283C54.7612 92.283 50.2455 88.9326 48.5122 84.2337C47.7547 84.3945 46.9699 84.4782 46.1647 84.4782C39.8562 84.4783 34.7419 79.3147 34.7419 72.944C34.7419 68.6748 37.0397 64.9472 40.4538 62.9529C39.7509 61.3367 39.36 59.5528 39.36 57.6773C39.36 50.3509 45.3116 44.4118 52.6525 44.4118C56.9625 44.4118 60.7928 46.4597 63.2213 49.6329Z" fill="#00A1E0"/>
<path d="M44.6082 69.3009C44.5654 69.412 44.6238 69.4352 44.6374 69.4545C44.766 69.5471 44.8966 69.6138 45.0281 69.6881C45.7255 70.055 46.3841 70.1622 47.0727 70.1622C48.4754 70.1622 49.3462 69.4226 49.3462 68.2319V68.2088C49.3462 67.1079 48.3634 66.7082 47.4409 66.4194L47.3211 66.3808C46.6256 66.1568 46.0256 65.9637 46.0256 65.5099V65.4858C46.0256 65.0976 46.3762 64.8117 46.9198 64.8117C47.5237 64.8117 48.2407 65.0106 48.7023 65.2636C48.7023 65.2636 48.8377 65.3505 48.8874 65.2202C48.9147 65.1506 49.1485 64.5268 49.1729 64.4593C49.1991 64.3858 49.1524 64.3318 49.1047 64.3028C48.5777 63.9851 47.8491 63.7678 47.0952 63.7678L46.9549 63.7688C45.6711 63.7688 44.775 64.5374 44.775 65.6392V65.6624C44.775 66.824 45.7636 67.2006 46.69 67.4633L46.839 67.5087C47.5141 67.7143 48.0956 67.891 48.0956 68.3623V68.3855C48.0956 68.8161 47.7177 69.1367 47.1079 69.1367C46.8712 69.1367 46.1163 69.1319 45.301 68.621C45.2026 68.564 45.1451 68.5225 45.0692 68.4771C45.0292 68.452 44.9289 68.4085 44.8851 68.5399L44.6082 69.3009ZM65.1427 69.3009C65.0998 69.412 65.1583 69.4352 65.1719 69.4545C65.3005 69.5471 65.4311 69.6138 65.5625 69.6881C66.2599 70.055 66.9185 70.1622 67.6071 70.1622C69.0098 70.1622 69.8806 69.4226 69.8806 68.2319V68.2088C69.8806 67.1079 68.8978 66.7082 67.9753 66.4194L67.8555 66.3808C67.16 66.1568 66.5599 65.9637 66.5599 65.5099V65.4858C66.5599 65.0976 66.9106 64.8117 67.4541 64.8117C68.058 64.8117 68.775 65.0106 69.2367 65.2636C69.2367 65.2636 69.3721 65.3505 69.4217 65.2202C69.449 65.1506 69.6828 64.5268 69.7072 64.4593C69.7335 64.3858 69.6867 64.3318 69.639 64.3028C69.112 63.9851 68.3834 63.7678 67.6295 63.7678L67.4892 63.7688C66.2053 63.7688 65.3092 64.5374 65.3092 65.6392V65.6624C65.3092 66.824 66.2979 67.2006 67.2243 67.4633L67.3733 67.5087C68.0483 67.7143 68.6309 67.891 68.6309 68.3623V68.3855C68.6309 68.8161 68.252 69.1367 67.6421 69.1367C67.4055 69.1367 66.6506 69.1319 65.8353 68.621C65.7369 68.564 65.6785 68.5244 65.6045 68.4771C65.5791 68.4607 65.4603 68.4153 65.4193 68.5399L65.1427 69.3009ZM79.161 66.9687C79.161 67.6418 79.0344 68.1719 78.785 68.5466C78.5386 68.9174 78.1655 69.0979 77.6454 69.0979C77.1243 69.0979 76.7532 68.9183 76.5106 68.5466C76.2651 68.1729 76.1405 67.6418 76.1405 66.9687C76.1405 66.2967 76.2651 65.7675 76.5106 65.3967C76.7532 65.0298 77.1243 64.8511 77.6454 64.8511C78.1656 64.8511 78.5386 65.0298 78.7861 65.3967C79.0345 65.7674 79.161 66.2966 79.161 66.9687ZM80.3319 65.7212C80.2169 65.3358 80.0377 64.9959 79.7991 64.713C79.5604 64.4291 79.2585 64.2013 78.9 64.0352C78.5425 63.8701 78.1198 63.7861 77.6454 63.7861C77.1701 63.7861 76.7473 63.8701 76.3898 64.0352C76.0314 64.2013 75.7294 64.4292 75.4898 64.713C75.2521 64.9969 75.0729 65.3368 74.957 65.7212C74.843 66.1045 74.7855 66.5235 74.7855 66.9687C74.7855 67.4139 74.843 67.8339 74.957 68.2163C75.0729 68.6006 75.2512 68.9406 75.4908 69.2244C75.7294 69.5083 76.0324 69.7352 76.3899 69.8965C76.7483 70.0577 77.1701 70.1398 77.6455 70.1398C78.1199 70.1398 78.5416 70.0577 78.9 69.8965C79.2575 69.7352 79.5604 69.5083 79.7992 69.2244C80.0378 68.9415 80.217 68.6016 80.332 68.2163C80.447 67.833 80.5044 67.4129 80.5044 66.9687C80.5044 66.5246 80.4468 66.1045 80.3319 65.7212ZM89.9467 68.9182C89.9077 68.8052 89.7977 68.8477 89.7977 68.8477C89.6272 68.9124 89.446 68.9723 89.2532 69.0022C89.0573 69.0321 88.8421 69.0476 88.6112 69.0476C88.0444 69.0476 87.5943 68.8805 87.2719 68.5503C86.9485 68.22 86.7673 67.6861 86.7692 66.9638C86.7712 66.3062 86.9309 65.8117 87.2183 65.4352C87.5038 65.0606 87.9382 64.8684 88.5178 64.8684C89.0009 64.8684 89.3691 64.9234 89.7548 65.0441C89.7548 65.0441 89.8473 65.0837 89.8911 64.964C89.9934 64.682 90.0693 64.4802 90.1785 64.1702C90.2097 64.0823 90.1337 64.0447 90.1064 64.034C89.9544 63.9751 89.596 63.8796 89.3252 63.839C89.0719 63.8004 88.7758 63.7801 88.4466 63.7801C87.9546 63.7801 87.5163 63.8632 87.1413 64.0293C86.7672 64.1944 86.4497 64.4222 86.1984 64.7062C85.9471 64.9901 85.7562 65.3299 85.6286 65.7142C85.502 66.0975 85.4377 66.5186 85.4377 66.9638C85.4377 67.9265 85.6997 68.7047 86.217 69.2745C86.7351 69.8462 87.5135 70.1368 88.5285 70.1368C89.1285 70.1368 89.7442 70.0162 90.1864 69.8433C90.1864 69.8433 90.2711 69.8027 90.2341 69.7052L89.9467 68.9182ZM91.9953 66.324C92.0508 65.9503 92.155 65.6393 92.3158 65.397C92.5583 65.0291 92.9285 64.8273 93.4487 64.8273C93.9689 64.8273 94.3127 65.0301 94.5591 65.397C94.7228 65.6393 94.7939 65.9639 94.8222 66.324H91.9953ZM95.9374 65.5022C95.8381 65.1304 95.5916 64.7548 95.4299 64.5829C95.1747 64.3106 94.9254 64.1204 94.6779 64.0141C94.3545 63.877 93.9668 63.7863 93.5422 63.7863C93.0473 63.7863 92.5983 63.8684 92.234 64.0383C91.8687 64.2083 91.5619 64.4401 91.3213 64.7288C91.0806 65.0165 90.8995 65.3593 90.7845 65.7484C90.6686 66.1357 90.6102 66.5577 90.6102 67.0027C90.6102 67.4557 90.6706 67.8776 90.7904 68.2571C90.9112 68.6395 91.104 68.9765 91.3651 69.2555C91.6251 69.5366 91.9602 69.7567 92.3616 69.9102C92.76 70.0628 93.2441 70.142 93.8003 70.1409C94.9449 70.1371 95.5478 69.8841 95.7962 69.7479C95.84 69.7238 95.8819 69.6814 95.8292 69.5597L95.5702 68.8402C95.5313 68.7331 95.4211 68.7726 95.4211 68.7726C95.1376 68.8769 94.7345 69.0643 93.7944 69.0624C93.1798 69.0614 92.7239 68.8818 92.4384 68.6008C92.1453 68.3131 92.0021 67.8901 91.9767 67.2933L95.9403 67.2972C95.9403 67.2972 96.0444 67.2953 96.0553 67.1948C96.0592 67.1525 96.1917 66.3877 95.9374 65.5022ZM60.2533 66.324C60.3097 65.9503 60.413 65.6393 60.5737 65.397C60.8162 65.0291 61.1864 64.8273 61.7066 64.8273C62.2267 64.8273 62.5706 65.0301 62.818 65.397C62.9806 65.6393 63.0517 65.9639 63.08 66.324H60.2533ZM64.1943 65.5022C64.095 65.1304 63.8495 64.7548 63.6879 64.5829C63.4326 64.3106 63.1833 64.1204 62.9359 64.0141C62.6125 63.877 62.2248 63.7863 61.8001 63.7863C61.3063 63.7863 60.8562 63.8684 60.4919 64.0383C60.1267 64.2083 59.8198 64.4401 59.5792 64.7288C59.3386 65.0165 59.1575 65.3593 59.0425 65.7484C58.9276 66.1357 58.8682 66.5577 58.8682 67.0027C58.8682 67.4557 58.9286 67.8776 59.0484 68.2571C59.1692 68.6395 59.3621 68.9765 59.6231 69.2555C59.8832 69.5366 60.2183 69.7567 60.6196 69.9102C61.018 70.0628 61.5021 70.142 62.0583 70.1409C63.2028 70.1371 63.8058 69.8841 64.0542 69.7479C64.0981 69.7238 64.1399 69.6814 64.0873 69.5597L63.8292 68.8402C63.7892 68.7331 63.6792 68.7726 63.6792 68.7726C63.3958 68.8769 62.9935 69.0643 62.0515 69.0624C61.4379 69.0614 60.982 68.8818 60.6966 68.6008C60.4034 68.3131 60.2602 67.8901 60.2348 67.2933L64.1984 67.2972C64.1984 67.2972 64.3025 67.2953 64.3133 67.1948C64.317 67.1525 64.4495 66.3877 64.1943 65.5022ZM51.6862 68.8967C51.5313 68.774 51.5098 68.7431 51.4573 68.6639C51.3793 68.5432 51.3394 68.3714 51.3394 68.1531C51.3394 67.8074 51.4543 67.5593 51.693 67.3922C51.6901 67.3932 52.0339 67.0977 52.8424 67.1083C53.4102 67.116 53.9177 67.1991 53.9177 67.1991V68.9855H53.9187C53.9187 68.9855 53.4151 69.0926 52.8482 69.1264C52.0417 69.1748 51.6832 68.8957 51.6862 68.8967ZM53.2631 66.1359C53.1024 66.1243 52.8939 66.1176 52.6446 66.1176C52.3047 66.1176 51.9764 66.16 51.6686 66.2421C51.3588 66.3242 51.0802 66.4527 50.8406 66.6225C50.6013 66.7918 50.4047 67.0136 50.2659 67.2705C50.1257 67.5293 50.0545 67.8344 50.0545 68.1763C50.0545 68.5239 50.1149 68.8261 50.2357 69.0734C50.3565 69.3215 50.5309 69.5281 50.7529 69.6875C50.9731 69.8469 51.2449 69.9636 51.5604 70.0341C51.8712 70.1046 52.2237 70.1403 52.6095 70.1403C53.0157 70.1403 53.4209 70.1076 53.8135 70.0408C54.2021 69.9752 54.6794 69.8796 54.8119 69.8497C54.9047 69.8275 54.9973 69.804 55.0895 69.7792C55.1879 69.7551 55.1801 69.6508 55.1801 69.6508L55.1781 66.0577C55.1781 65.2697 54.9658 64.6855 54.5479 64.3234C54.132 63.9623 53.5193 63.7797 52.7274 63.7797C52.4303 63.7797 51.952 63.8203 51.6656 63.8773C51.6656 63.8773 50.7997 64.0434 50.4431 64.3195C50.4431 64.3195 50.3652 64.3679 50.4081 64.476L50.6887 65.2234C50.7237 65.32 50.8182 65.2872 50.8182 65.2872C50.8182 65.2872 50.8484 65.2756 50.8835 65.2553C51.6462 64.8439 52.6106 64.8565 52.6106 64.8565C53.0392 64.8565 53.3684 64.9414 53.5905 65.1104C53.8067 65.2745 53.9168 65.5227 53.9168 66.046V66.2121C53.5758 66.1639 53.2631 66.1359 53.2631 66.1359ZM85.2306 64.1114C85.2608 64.0225 85.1975 63.9801 85.1712 63.9704C85.104 63.9444 84.767 63.8739 84.5069 63.8575C84.0092 63.8275 83.7326 63.9106 83.4851 64.0206C83.2396 64.1307 82.9669 64.3084 82.8149 64.5102V64.0323C82.8149 63.9656 82.7672 63.9125 82.7009 63.9125H81.6849C81.6187 63.9125 81.571 63.9656 81.571 64.0323V69.8926C81.571 69.9583 81.6256 70.0124 81.6918 70.0124H82.7331C82.7995 70.012 82.8531 69.9584 82.8529 69.8926V66.9649C82.8529 66.5718 82.8967 66.1799 82.9844 65.9336C83.0701 65.6902 83.187 65.4952 83.3312 65.3551C83.4763 65.2161 83.6409 65.1186 83.8211 65.0636C84.0052 65.0075 84.2088 64.9892 84.353 64.9892C84.5605 64.9892 84.7884 65.0423 84.7884 65.0423C84.8643 65.051 84.9072 65.0046 84.9325 64.9361C85.0007 64.7565 85.1936 64.2186 85.2306 64.1114Z" fill="white"/>
<path d="M75.447 61.3109C75.3207 61.2717 75.2061 61.2451 75.0565 61.2167C74.9049 61.1893 74.7243 61.1755 74.5194 61.1755C73.8044 61.1755 73.2411 61.3795 72.8458 61.7818C72.4524 62.1821 72.1853 62.7914 72.0512 63.593L72.0026 63.8628H71.1052C71.1052 63.8628 70.9964 63.8588 70.9731 63.9786L70.8265 64.8096C70.8158 64.8881 70.8498 64.9381 70.9547 64.9381H71.8279L70.942 69.9339C70.873 70.3362 70.7934 70.6669 70.705 70.918C70.6185 71.1653 70.5341 71.3507 70.4292 71.4861C70.3282 71.6156 70.233 71.7117 70.0678 71.7676C69.9318 71.8138 69.7745 71.8353 69.6026 71.8353C69.5074 71.8353 69.3802 71.8195 69.2859 71.8C69.1927 71.7813 69.1432 71.7607 69.0722 71.7303C69.0722 71.7303 68.9703 71.6911 68.9295 71.7941C68.8974 71.8795 68.6643 72.5259 68.6361 72.6055C68.6089 72.6849 68.6478 72.7468 68.6973 72.7654C68.8138 72.8066 68.9002 72.834 69.0586 72.8723C69.2782 72.9244 69.4636 72.9273 69.6374 72.9273C70.0007 72.9273 70.3329 72.8753 70.6078 72.7752C70.8837 72.6742 71.1245 72.4985 71.3382 72.2611C71.5684 72.004 71.7131 71.7352 71.8511 71.3673C71.988 71.0043 72.1056 70.553 72.1988 70.0271L73.0895 64.9381H74.391C74.391 64.9381 74.5007 64.942 74.5232 64.8214L74.6707 63.9913C74.6805 63.9119 74.6474 63.8628 74.5415 63.8628H73.2779C73.2847 63.8344 73.342 63.385 73.4867 62.9622C73.5489 62.7827 73.6654 62.6365 73.7636 62.5364C73.8608 62.4382 73.9724 62.3686 74.0949 62.3284C74.2201 62.2871 74.363 62.2675 74.5193 62.2675C74.6378 62.2675 74.7553 62.2813 74.8437 62.2999C74.9661 62.3264 75.0136 62.3401 75.0458 62.35C75.175 62.3892 75.1924 62.351 75.2177 62.2882L75.5198 61.4504C75.5508 61.3599 75.4741 61.3216 75.447 61.3109ZM57.7912 69.9448C57.7912 70.0115 57.7436 70.0655 57.6776 70.0655H56.6295C56.5635 70.0655 56.5168 70.0115 56.5168 69.9448V61.4247C56.5168 61.358 56.5635 61.3041 56.6295 61.3041H57.6776C57.7436 61.3041 57.7912 61.358 57.7912 61.4247V69.9448Z" fill="white"/>
<defs>
<filter id="filter0_d_516_7449" x="0.743896" y="0.464539" width="134.363" height="145.601" filterUnits="userSpaceOnUse" color-interpolation-filters="sRGB">
<feFlood flood-opacity="0" result="BackgroundImageFix"/>
<feColorMatrix in="SourceAlpha" type="matrix" values="0 0 0 0 0 0 0 0 0 0 0 0 0 0 0 0 0 0 127 0" result="hardAlpha"/>
<feOffset dy="6"/>
<feGaussianBlur stdDeviation="10"/>
<feColorMatrix type="matrix" values="0 0 0 0 0.12549 0 0 0 0 0.152941 0 0 0 0 0.176471 0 0 0 0.15 0"/>
<feBlend mode="normal" in2="BackgroundImageFix" result="effect1_dropShadow_516_7449"/>
<feBlend mode="normal" in="SourceGraphic" in2="effect1_dropShadow_516_7449" result="shape"/>
</filter>
</defs>
</svg>
