<svg width="136" height="147" viewBox="0 0 136 147" fill="none" xmlns="http://www.w3.org/2000/svg">
<g filter="url(#filter0_d_516_7623)">
<path d="M63.8788 15.2752C66.341 13.8657 69.3655 13.8657 71.8277 15.2752L111.332 37.8898C113.822 39.3149 115.358 41.964 115.358 44.8326V89.9442C115.358 92.8128 113.822 95.4618 111.332 96.887L71.8277 119.502C69.3655 120.911 66.341 120.911 63.8788 119.502L24.3744 96.887C21.8849 95.4618 20.3489 92.8128 20.3489 89.9442L20.3489 44.8326C20.3489 41.964 21.8849 39.3149 24.3744 37.8898L63.8788 15.2752Z" fill="white"/>
</g>
<path d="M81.478 43.9489C81.3634 43.9509 81.2481 43.9647 81.1344 43.9909C77.8599 44.7477 74.8907 46.6026 72.7729 49.214C70.6219 51.8663 69.4371 55.2057 69.4371 58.6162C69.4371 62.0263 70.6219 65.3657 72.7729 68.018C73.7144 69.1789 74.8246 70.1892 76.0543 71.0212C72.2952 72.4065 69.2121 75.1819 67.443 78.7145C65.673 75.1819 62.5903 72.4065 58.8311 71.0212C60.0611 70.1892 61.1713 69.1789 62.1125 68.018C64.2635 65.3657 65.4483 62.0263 65.4483 58.6162C65.4483 55.2057 64.2635 51.8663 62.1125 49.214C59.995 46.6026 57.0256 44.7477 53.751 43.9909C53.6367 43.9644 53.5207 43.9505 53.4055 43.9489H53.3589C53.0023 43.9538 52.6532 44.0746 52.3682 44.299C51.9787 44.6055 51.7517 45.0716 51.7517 45.5648V75.2611C51.7517 83.8422 58.7904 90.8233 67.443 90.8233C76.0947 90.8233 83.1337 83.8422 83.1337 75.2611V45.5648C83.1337 45.0716 82.9067 44.6055 82.5172 44.299C82.2332 44.0752 81.8851 43.9544 81.5295 43.9489H81.478ZM72.6961 58.6162C72.6961 53.8156 75.5619 49.6145 79.8748 47.787V69.445C75.5619 67.6175 72.6961 63.4161 72.6961 58.6162ZM55.0107 47.787C59.3235 49.6145 62.1894 53.8156 62.1894 58.6162C62.1894 63.4161 59.3235 67.6175 55.0107 69.445V47.787ZM69.0724 85.6141C69.0724 79.3637 73.7877 74.1884 79.8748 73.3939V75.2611C79.8748 81.5119 75.1597 86.6874 69.0724 87.4817V85.6141ZM55.0107 75.2611V73.3939C61.0977 74.1884 65.8134 79.3637 65.8134 85.6141V87.4817C59.7257 86.6874 55.0107 81.5119 55.0107 75.2611Z" fill="#FE0000"/>
<path d="M81.478 43.9489C81.3634 43.9509 81.2481 43.9647 81.1344 43.9909C77.8599 44.7477 74.8907 46.6026 72.7729 49.214C70.6219 51.8663 69.4371 55.2057 69.4371 58.6162C69.4371 62.0263 70.6219 65.3657 72.7729 68.018C73.7144 69.1789 74.8246 70.1892 76.0543 71.0212C72.2952 72.4065 69.2121 75.1819 67.443 78.7145C65.673 75.1819 62.5903 72.4065 58.8311 71.0212C60.0611 70.1892 61.1713 69.1789 62.1125 68.018C64.2635 65.3657 65.4483 62.0263 65.4483 58.6162C65.4483 55.2057 64.2635 51.8663 62.1125 49.214C59.995 46.6026 57.0256 44.7477 53.751 43.9909C53.6367 43.9644 53.5207 43.9505 53.4055 43.9489H53.3589C53.0023 43.9538 52.6532 44.0746 52.3682 44.299C51.9787 44.6055 51.7517 45.0716 51.7517 45.5648V75.2611C51.7517 83.8422 58.7904 90.8233 67.443 90.8233C76.0947 90.8233 83.1337 83.8422 83.1337 75.2611V45.5648C83.1337 45.0716 82.9067 44.6055 82.5172 44.299C82.2332 44.0752 81.8851 43.9544 81.5295 43.9489H81.478ZM72.6961 58.6162C72.6961 53.8156 75.5619 49.6145 79.8748 47.787V69.445C75.5619 67.6175 72.6961 63.4161 72.6961 58.6162ZM55.0107 47.787C59.3235 49.6145 62.1894 53.8156 62.1894 58.6162C62.1894 63.4161 59.3235 67.6175 55.0107 69.445V47.787ZM69.0724 85.6141C69.0724 79.3637 73.7877 74.1884 79.8748 73.3939V75.2611C79.8748 81.5119 75.1597 86.6874 69.0724 87.4817V85.6141ZM55.0107 75.2611V73.3939C61.0977 74.1884 65.8134 79.3637 65.8134 85.6141V87.4817C59.7257 86.6874 55.0107 81.5119 55.0107 75.2611Z" fill="url(#paint0_linear_516_7623)"/>
<defs>
<filter id="filter0_d_516_7623" x="0.348877" y="0.218079" width="135.009" height="146.341" filterUnits="userSpaceOnUse" color-interpolation-filters="sRGB">
<feFlood flood-opacity="0" result="BackgroundImageFix"/>
<feColorMatrix in="SourceAlpha" type="matrix" values="0 0 0 0 0 0 0 0 0 0 0 0 0 0 0 0 0 0 127 0" result="hardAlpha"/>
<feOffset dy="6"/>
<feGaussianBlur stdDeviation="10"/>
<feColorMatrix type="matrix" values="0 0 0 0 0.12549 0 0 0 0 0.152941 0 0 0 0 0.176471 0 0 0 0.15 0"/>
<feBlend mode="normal" in2="BackgroundImageFix" result="effect1_dropShadow_516_7623"/>
<feBlend mode="normal" in="SourceGraphic" in2="effect1_dropShadow_516_7623" result="shape"/>
</filter>
<linearGradient id="paint0_linear_516_7623" x1="51.7513" y1="43.9489" x2="95.0908" y2="72.9636" gradientUnits="userSpaceOnUse">
<stop stop-color="#BE0000" stop-opacity="0"/>
<stop offset="0.985332" stop-color="#BE0000"/>
</linearGradient>
</defs>
</svg>
