<svg width="136" height="148" viewBox="0 0 136 148" fill="none" xmlns="http://www.w3.org/2000/svg">
<g filter="url(#filter0_d_516_7630)">
<path d="M64.2752 15.9588C66.7375 14.5493 69.762 14.5493 72.2242 15.9588L111.729 38.5734C114.218 39.9985 115.754 42.6476 115.754 45.5162V90.6277C115.754 93.4964 114.218 96.1454 111.729 97.5706L72.2242 120.185C69.762 121.595 66.7375 121.595 64.2752 120.185L24.7709 97.5706C22.2814 96.1454 20.7454 93.4964 20.7454 90.6277L20.7454 45.5162C20.7454 42.6476 22.2814 39.9985 24.7709 38.5734L64.2752 15.9588Z" fill="white"/>
</g>
<path d="M45.998 72.9305L47.9142 71.4403C48.4528 72.3653 49.3125 72.8997 50.2965 72.8997C51.3633 72.8997 51.933 72.2111 51.933 71.4609C51.933 70.5667 50.8351 70.279 49.6646 69.9192C48.1939 69.467 46.547 68.9018 46.547 66.8155C46.547 65.0683 48.0799 63.6808 50.2032 63.6808C51.9951 63.6808 53.0205 64.3489 53.9113 65.2636L52.1816 66.5585C51.7258 65.8905 51.0836 65.5308 50.224 65.5308C49.2503 65.5308 48.7221 66.0549 48.7221 66.7435C48.7221 67.576 49.7786 67.8638 50.949 68.2543C52.4405 68.7373 54.1288 69.3848 54.1288 71.4814C54.1288 73.2183 52.7409 74.8833 50.3172 74.8833C48.3182 74.8935 46.9924 74.0508 45.998 72.9305ZM62.8396 67.2677H64.8904V68.1001C65.3772 67.4835 66.1126 67.1135 66.9723 67.1135C68.7434 67.1135 69.8206 68.244 69.8206 70.1762V74.7291H67.718V70.4434C67.718 69.4465 67.2519 68.8607 66.3301 68.8607C65.5429 68.8607 64.9007 69.3951 64.9007 70.6489V74.7291H62.8396V67.2677ZM70.2971 71.0087C70.2971 68.3674 72.2546 67.1238 73.9533 67.1238C74.9269 67.1238 75.7037 67.4835 76.2009 68.0076V63.835H78.2621V74.7394H76.2009V73.9069C75.7037 74.4927 74.9062 74.8935 73.9326 74.8935C72.3271 74.8935 70.2971 73.6294 70.2971 71.0087ZM76.2527 70.9881C76.2527 69.8781 75.4448 68.984 74.3262 68.984C73.1868 68.984 72.3064 69.837 72.3064 70.9881C72.3064 72.1392 73.1765 73.0025 74.3262 73.0025C75.4448 73.0025 76.2527 72.0981 76.2527 70.9881ZM78.7385 69.2923C78.7385 66.1885 81.1001 63.6911 84.3524 63.6911C85.9785 63.6911 87.3457 64.2769 88.34 65.2019C88.744 65.5822 89.0858 66.0138 89.3551 66.4866L87.5218 67.5965C86.8485 66.353 85.8024 65.7158 84.3731 65.7158C82.3741 65.7158 80.8204 67.3396 80.8204 69.3026C80.8204 71.3067 82.343 72.8894 84.4456 72.8894C86.0407 72.8894 87.1696 71.9953 87.5632 70.6078H84.1141V68.6243H89.8212V69.4568C89.8212 72.3858 87.7186 74.9038 84.4456 74.9038C81.0068 74.8935 78.7385 72.3036 78.7385 69.2923ZM90.3391 67.2677H92.3899V68.4907C92.7628 67.7096 93.4464 67.2677 94.4718 67.2677H95.3004L94.5546 69.2512H93.9953C92.8974 69.2512 92.4106 69.8165 92.4106 71.2039V74.7291H90.3494V67.2677H90.3391ZM95.8286 67.2677H97.8898V74.7394H95.8286V69.2615H95.0829L95.8286 67.2677ZM96.8644 66.1372C97.548 66.1372 98.0969 65.5924 98.0969 64.9141C98.0969 64.2358 97.548 63.6911 96.8644 63.6911C96.1808 63.6911 95.6318 64.2358 95.6318 64.9141C95.6318 65.5822 96.1808 66.1372 96.8644 66.1372ZM98.3766 71.0087C98.3766 68.3674 100.334 67.1238 102.033 67.1238C103.006 67.1238 103.783 67.4835 104.28 68.0076V63.835H106.342V74.7394H104.28V73.9069C103.783 74.4927 102.986 74.8935 102.012 74.8935C100.407 74.8935 98.3766 73.6294 98.3766 71.0087ZM104.343 70.9881C104.343 69.8781 103.535 68.984 102.416 68.984C101.277 68.984 100.396 69.837 100.396 70.9881C100.396 72.1392 101.266 73.0025 102.416 73.0025C103.524 73.0025 104.343 72.0981 104.343 70.9881ZM62.3527 70.9881C62.3527 68.8401 60.768 67.1238 58.4686 67.1238C56.3039 67.1238 54.5535 68.8607 54.5535 71.0087C54.5535 73.1566 56.1796 74.8935 58.5308 74.8935C60.1569 74.8935 61.3273 74.1124 61.9799 73.0025L60.3434 72.0364C60.0016 72.6942 59.3283 73.1052 58.5411 73.1052C57.4536 73.1052 56.7803 72.5708 56.5421 71.7486H62.3527V70.9881ZM56.6353 70.094C56.9564 69.3951 57.609 68.9121 58.4894 68.9121C59.3594 68.9121 60.0119 69.3129 60.2812 70.094H56.6353Z" fill="#243746"/>
<path d="M39.1596 70.3531H34.7715V74.7412H39.1596V70.3531Z" fill="#99E1F4"/>
<path d="M34.7714 65.9545H30.3833V70.3529H34.7714V65.9545Z" fill="#99E1F4"/>
<path d="M34.7714 70.3531H30.3833V74.7412H34.7714V70.3531Z" fill="#1A82E2"/>
<path d="M43.5583 65.9545H39.1702V70.3529H43.5583V65.9545Z" fill="#00B2E3"/>
<path d="M39.1596 61.5663H34.7715V65.9544H39.1596V61.5663Z" fill="#00B2E3"/>
<path d="M34.7715 65.9545V70.3529H39.17V65.9545H34.7715Z" fill="#009DD9"/>
<path d="M43.5583 61.5663H39.1702V65.9544H43.5583V61.5663Z" fill="#1A82E2"/>
<path d="M48.1542 58.8928V61.5015H47.5627V58.8928H46.6494V58.3647H49.0779V58.8822H48.1542V58.8928Z" fill="#243746"/>
<path d="M53.3944 61.5028H52.8339L52.149 59.2214L51.464 61.5028H50.9036L50.0422 58.3553L50.6649 58.3659L51.2357 60.5839L51.8792 58.3659H52.4707L53.1141 60.5839L53.6746 58.3659H54.2661L53.3944 61.5028Z" fill="#243746"/>
<path d="M55.4485 61.5028V58.3659H56.0401V61.5028H55.4485Z" fill="#243746"/>
<path d="M57.4216 61.5028V58.3659H58.0132V60.9747H59.0406L59.051 61.5028H57.4216Z" fill="#243746"/>
<path d="M60.2744 61.5028V58.3659H60.866V61.5028H60.2744Z" fill="#243746"/>
<path d="M63.5758 61.5662C62.7041 61.5662 62.1333 60.9114 62.1333 59.9397C62.1333 58.968 62.7041 58.3132 63.5862 58.3132C64.4684 58.3132 65.0288 58.968 65.0288 59.9397C65.0184 60.9008 64.458 61.5662 63.5758 61.5662ZM63.5758 58.8096C63.0466 58.8096 62.7352 59.2532 62.7352 59.9397C62.7352 60.6262 63.0569 61.0698 63.5758 61.0698C64.1051 61.0698 64.4268 60.6262 64.4268 59.9397C64.4268 59.2532 64.1051 58.8096 63.5758 58.8096Z" fill="#243746"/>
<defs>
<filter id="filter0_d_516_7630" x="0.745361" y="0.901672" width="135.009" height="146.341" filterUnits="userSpaceOnUse" color-interpolation-filters="sRGB">
<feFlood flood-opacity="0" result="BackgroundImageFix"/>
<feColorMatrix in="SourceAlpha" type="matrix" values="0 0 0 0 0 0 0 0 0 0 0 0 0 0 0 0 0 0 127 0" result="hardAlpha"/>
<feOffset dy="6"/>
<feGaussianBlur stdDeviation="10"/>
<feColorMatrix type="matrix" values="0 0 0 0 0.12549 0 0 0 0 0.152941 0 0 0 0 0.176471 0 0 0 0.15 0"/>
<feBlend mode="normal" in2="BackgroundImageFix" result="effect1_dropShadow_516_7630"/>
<feBlend mode="normal" in="SourceGraphic" in2="effect1_dropShadow_516_7630" result="shape"/>
</filter>
</defs>
</svg>
