<svg width="132" height="142" viewBox="0 0 132 142" fill="none" xmlns="http://www.w3.org/2000/svg">
<g filter="url(#filter0_d_781_7357)">
<path d="M62.0079 15.4133C64.4701 14.0038 67.4946 14.0038 69.9568 15.4133L107.098 36.675C109.588 38.1002 111.123 40.7492 111.123 43.6178V86.0237C111.123 88.8923 109.587 91.5414 107.098 92.9665L69.9568 114.228C67.4946 115.638 64.4701 115.638 62.0078 114.228L24.8668 92.9665C22.3772 91.5414 20.8413 88.8923 20.8413 86.0237L20.8413 43.6178C20.8413 40.7492 22.3772 38.1002 24.8668 36.675L62.0079 15.4133Z" fill="white"/>
</g>
<path d="M54.5945 60.3424C54.5945 60.3424 56.5634 57.6522 59.1067 57.5707C63.1266 57.4891 66.3262 64.5815 66.8184 65.6413C71.2486 55.8587 78.5501 47.5435 84.457 42H48.1133V82.5163C48.1262 84.0248 47.961 85.5297 47.6211 87C52.3639 86.2372 57.0305 85.0643 61.5679 83.4946C72.6433 79.5815 76.9093 75.3424 76.9914 75.3424L77.2375 75.0978L77.4016 75.4239C78.161 77.0678 79.0961 78.6256 80.1909 80.0706C81.7497 81.8641 82.5701 82.0272 83.0623 81.9456C83.7187 81.7826 84.1289 80.7228 84.2929 79.0924C84.457 77.462 84.6211 73.7935 84.6211 69.3098V45.1793C73.8739 58.2228 65.998 77.788 65.998 77.788C65.998 77.788 60.8295 60.2609 54.5945 60.3424Z" fill="#0E2947"/>
<defs>
<filter id="filter0_d_781_7357" x="0.841309" y="0.356201" width="130.282" height="140.929" filterUnits="userSpaceOnUse" color-interpolation-filters="sRGB">
<feFlood flood-opacity="0" result="BackgroundImageFix"/>
<feColorMatrix in="SourceAlpha" type="matrix" values="0 0 0 0 0 0 0 0 0 0 0 0 0 0 0 0 0 0 127 0" result="hardAlpha"/>
<feOffset dy="6"/>
<feGaussianBlur stdDeviation="10"/>
<feColorMatrix type="matrix" values="0 0 0 0 0.0561006 0 0 0 0 0.153723 0 0 0 0 0.237399 0 0 0 0.15 0"/>
<feBlend mode="normal" in2="BackgroundImageFix" result="effect1_dropShadow_781_7357"/>
<feBlend mode="normal" in="SourceGraphic" in2="effect1_dropShadow_781_7357" result="shape"/>
</filter>
</defs>
</svg>
