<svg width="131" height="141" viewBox="0 0 131 141" fill="none" xmlns="http://www.w3.org/2000/svg">
<g filter="url(#filter0_d_781_7355)">
<path d="M61.5256 15.2832C63.9878 13.8737 67.0124 13.8737 69.4746 15.2832L106.309 36.3692C108.798 37.7944 110.334 40.4434 110.334 43.3121V85.3666C110.334 88.2352 108.798 90.8843 106.309 92.3095L69.4746 113.396C67.0124 114.805 63.9878 114.805 61.5256 113.396L24.6914 92.3095C22.2018 90.8843 20.6659 88.2352 20.6659 85.3666L20.6659 43.3121C20.6659 40.4434 22.2018 37.7944 24.6914 36.3692L61.5256 15.2832Z" fill="white"/>
</g>
<path d="M42.5521 64.9368C41.0667 64.5352 40.534 64.1336 40.534 63.4383C40.5428 63.2808 40.584 63.1265 40.6553 62.9843C40.7266 62.842 40.8265 62.7147 40.9493 62.6094C41.0722 62.5042 41.2155 62.4231 41.3712 62.371C41.5268 62.3188 41.6917 62.2966 41.8564 62.3055H41.9065C42.1054 62.2856 42.3064 62.3035 42.498 62.3582C42.6896 62.4129 42.868 62.5033 43.023 62.6242C43.1779 62.7451 43.3063 62.8941 43.4008 63.0626C43.4953 63.2311 43.5541 63.4159 43.5736 63.6062C43.5767 63.622 43.5767 63.6383 43.5736 63.6541V64.0018H48.951C48.9134 60.4593 46.3187 58.3494 42.1259 58.3494C37.933 58.3494 34.9937 60.5732 34.9937 63.9239C34.9937 66.5912 36.6733 68.3055 40.5277 69.4683C42.8905 70.1996 43.4608 70.6012 43.4608 71.3684C43.4608 71.6864 43.3288 71.9913 43.0937 72.2161C42.8586 72.4409 42.5398 72.5672 42.2074 72.5672H42.1259C41.1356 72.5672 40.7157 72.0937 40.4838 70.8529H34.9999C35.119 74.3954 37.8265 76.5472 42.1321 76.5472C46.4378 76.5472 49.302 74.2455 49.302 70.817C49.302 67.8499 47.5095 66.2855 42.5521 64.9368Z" fill="#1D1D1D"/>
<path d="M59.5805 58.4933C57.7324 58.4898 55.9247 59.0101 54.3856 59.9885C52.8465 60.9669 51.645 62.3595 50.9329 63.9905C50.2208 65.6216 50.0301 67.4178 50.3847 69.1525C50.7394 70.8871 51.6235 72.4823 52.9255 73.7367C54.2274 74.9911 55.8889 75.8484 57.6999 76.2003C59.511 76.5523 61.3905 76.383 63.1011 75.714C64.8117 75.045 66.2767 73.9063 67.311 72.4415C68.3453 70.9768 68.9026 69.2518 68.9125 67.4843C68.9183 66.3076 68.6814 65.1413 68.2153 64.0523C67.7492 62.9633 67.0631 61.9728 66.1963 61.1377C65.3295 60.3026 64.299 59.6392 63.1638 59.1854C62.0285 58.7316 60.8109 58.4964 59.5805 58.4933ZM59.5805 70.9309C58.8566 70.9321 58.1486 70.7279 57.546 70.3443C56.9434 69.9606 56.4733 69.4147 56.1951 68.7755C55.9169 68.1363 55.8432 67.4326 55.9832 66.7533C56.1232 66.0741 56.4707 65.4498 56.9817 64.9594C57.4927 64.469 58.1443 64.1345 58.854 63.9983C59.5638 63.8621 60.2998 63.9302 60.9691 64.194C61.6384 64.4579 62.2108 64.9056 62.614 65.4806C63.0172 66.0556 63.2331 66.732 63.2343 67.4244C63.2352 67.8841 63.1413 68.3394 62.9581 68.7644C62.7749 69.1894 62.506 69.5757 62.1667 69.9014C61.8274 70.227 61.4244 70.4855 60.9807 70.6621C60.5369 70.8388 60.0611 70.9301 59.5805 70.9309Z" fill="#1D1D1D"/>
<path d="M86.6492 58.4933C84.7998 58.4933 82.9919 59.0178 81.4541 60.0005C79.9164 60.9831 78.7179 62.3799 78.0101 64.014C77.3024 65.6481 77.1172 67.4463 77.478 69.181C77.8388 70.9158 78.7294 72.5093 80.0372 73.76C81.3449 75.0107 83.0111 75.8625 84.8249 76.2076C86.6388 76.5526 88.519 76.3755 90.2276 75.6987C91.9363 75.0218 93.3967 73.8755 94.4242 72.4048C95.4517 70.9342 96.0001 69.2051 96.0001 67.4363C95.9984 65.065 95.0127 62.7912 93.2594 61.1144C91.5062 59.4376 89.1287 58.4949 86.6492 58.4933ZM86.6492 70.9308C85.9253 70.932 85.2173 70.7279 84.6147 70.3442C84.0121 69.9606 83.542 69.4146 83.2638 68.7755C82.9857 68.1363 82.9119 67.4326 83.0519 66.7533C83.192 66.0741 83.5394 65.4498 84.0504 64.9594C84.5614 64.469 85.213 64.1345 85.9227 63.9983C86.6325 63.8621 87.3686 63.9302 88.0378 64.194C88.7071 64.4579 89.2795 64.9056 89.6827 65.4806C90.086 66.0556 90.3018 66.732 90.3031 67.4244C90.3039 67.884 90.21 68.3394 90.0269 68.7644C89.8437 69.1894 89.5748 69.5757 89.2355 69.9013C88.8962 70.2269 88.4932 70.4855 88.0494 70.6621C87.6057 70.8387 87.1299 70.9301 86.6492 70.9308Z" fill="#1D1D1D"/>
<path d="M70.2476 76.4274H75.9446V54.6751L70.2476 52.5472V76.4274Z" fill="#1D1D1D"/>
<defs>
<filter id="filter0_d_781_7355" x="0.665771" y="0.226074" width="129.669" height="140.227" filterUnits="userSpaceOnUse" color-interpolation-filters="sRGB">
<feFlood flood-opacity="0" result="BackgroundImageFix"/>
<feColorMatrix in="SourceAlpha" type="matrix" values="0 0 0 0 0 0 0 0 0 0 0 0 0 0 0 0 0 0 127 0" result="hardAlpha"/>
<feOffset dy="6"/>
<feGaussianBlur stdDeviation="10"/>
<feColorMatrix type="matrix" values="0 0 0 0 0.0561006 0 0 0 0 0.153723 0 0 0 0 0.237399 0 0 0 0.15 0"/>
<feBlend mode="normal" in2="BackgroundImageFix" result="effect1_dropShadow_781_7355"/>
<feBlend mode="normal" in="SourceGraphic" in2="effect1_dropShadow_781_7355" result="shape"/>
</filter>
</defs>
</svg>
