<svg width="136" height="147" viewBox="0 0 136 147" fill="none" xmlns="http://www.w3.org/2000/svg">
<g filter="url(#filter0_d_516_7675)">
<path d="M63.846 15.2752C66.3083 13.8657 69.3328 13.8657 71.795 15.2752L111.299 37.8898C113.789 39.3149 115.325 41.964 115.325 44.8326V89.9442C115.325 92.8128 113.789 95.4618 111.299 96.887L71.795 119.502C69.3328 120.911 66.3083 120.911 63.846 119.502L24.3417 96.887C21.8522 95.4618 20.3162 92.8128 20.3162 89.9442L20.3162 44.8326C20.3162 41.964 21.8522 39.3149 24.3417 37.8898L63.846 15.2752Z" fill="white"/>
</g>
<path d="M57.7342 83.0926C59.9851 82.2386 62.146 81.789 64.2618 81.2047C67.278 80.3955 70.2942 79.6763 73.1754 78.4626C75.7864 77.3838 77.0019 75.4509 76.5967 72.8437C76.3716 71.3603 75.5163 70.1916 74.5259 69.2026C72.0049 66.6853 68.8987 64.9772 65.7474 63.314C65.2972 63.0892 64.847 62.8195 64.3969 62.5947C64.3519 62.5947 64.3518 62.5048 64.3068 62.4149C66.3326 62.0104 68.4035 61.8755 70.4293 61.6957C73.8956 61.381 77.317 61.1113 80.7834 60.9315C83.4394 60.7967 85.4652 58.2344 85.3302 55.2676C85.2401 53.065 84.3848 51.3119 82.314 50.2331C81.1885 49.6487 79.9731 49.8285 78.8026 50.0533C73.1303 51.0422 67.5031 52.0761 61.9209 53.4696C58.8147 54.2338 55.6184 54.953 52.7823 56.5263C50.1712 57.9647 49.1358 60.5719 50.1712 63.1791C50.8015 64.7974 52.107 65.6514 53.7276 66.101C57.9143 67.3147 62.101 68.5733 66.1526 70.2365C68.0883 71.0456 69.9791 71.8997 71.6447 73.2033C72.5901 73.9225 72.5451 74.1023 71.4647 74.6867C68.7186 76.1252 65.8374 77.3388 62.9563 78.5076C61.1106 79.2718 59.2198 79.946 57.4641 80.89C57.284 80.9799 57.104 81.0698 56.9239 81.2047C56.1136 81.6991 55.3483 82.2386 55.5283 83.3174C55.7084 84.4861 56.7438 84.7558 57.6892 84.9806C59.3999 85.3852 61.1106 85.565 62.7762 86.1044C65.3873 86.9585 67.5931 88.2621 68.8086 90.8693C69.1237 91.4986 69.0787 91.7683 68.2684 91.7683C63.7666 91.9031 59.4449 91.0041 55.4833 88.8914C49.0908 85.52 44.679 80.4405 42.4732 73.5629C39.9071 65.4716 41.0326 57.74 45.7595 50.6826C49.541 45.0636 54.8081 41.4675 61.3807 39.9392C69.2588 38.0962 76.5517 39.5346 83.0793 44.2995C89.0216 48.6598 92.7131 54.5484 93.5234 61.8755C94.8289 73.2932 90.4622 82.1487 80.6933 88.2621C77.407 90.2849 73.7606 91.3637 69.9341 91.6784C69.6189 91.7233 69.2588 91.7683 69.1237 91.2738C68.3584 88.2171 66.1526 86.5539 63.4965 85.2503C61.8759 84.4412 60.1202 84.0366 58.4095 83.4523C58.2744 83.3624 58.0944 83.2724 57.7342 83.0926Z" fill="#EF5A2A"/>
<defs>
<filter id="filter0_d_516_7675" x="0.316162" y="0.218079" width="135.009" height="146.341" filterUnits="userSpaceOnUse" color-interpolation-filters="sRGB">
<feFlood flood-opacity="0" result="BackgroundImageFix"/>
<feColorMatrix in="SourceAlpha" type="matrix" values="0 0 0 0 0 0 0 0 0 0 0 0 0 0 0 0 0 0 127 0" result="hardAlpha"/>
<feOffset dy="6"/>
<feGaussianBlur stdDeviation="10"/>
<feColorMatrix type="matrix" values="0 0 0 0 0.12549 0 0 0 0 0.152941 0 0 0 0 0.176471 0 0 0 0.15 0"/>
<feBlend mode="normal" in2="BackgroundImageFix" result="effect1_dropShadow_516_7675"/>
<feBlend mode="normal" in="SourceGraphic" in2="effect1_dropShadow_516_7675" result="shape"/>
</filter>
</defs>
</svg>
