<svg width="136" height="147" viewBox="0 0 136 147" fill="none" xmlns="http://www.w3.org/2000/svg">
<g filter="url(#filter0_d_516_7382)">
<path d="M64.2435 15.5212C66.7057 14.1117 69.7303 14.1117 72.1925 15.5212L111.697 38.1358C114.186 39.561 115.722 42.2101 115.722 45.0787V90.1905C115.722 93.0591 114.186 95.7081 111.697 97.1333L72.1925 119.748C69.7303 121.157 66.7057 121.157 64.2435 119.748L24.7392 97.1333C22.2496 95.7081 20.7137 93.0591 20.7137 90.1905L20.7137 45.0787C20.7137 42.2101 22.2496 39.561 24.7392 38.1358L64.2435 15.5212Z" fill="white"/>
</g>
<path d="M39.3136 72.9441C40.0386 73.389 41.1061 73.7732 42.234 73.7732C43.9056 73.7732 44.8724 72.8834 44.8724 71.6095C44.8724 70.4366 44.2078 69.7491 42.4958 69.102C40.4415 68.374 39.1726 67.3023 39.1726 65.5228C39.1726 63.5613 40.804 62.0851 43.241 62.0851C44.53 62.0851 45.4565 62.3884 46.0204 62.712L45.5773 64.0466C45.1745 63.8241 44.3286 63.4399 43.1806 63.4399C41.4686 63.4399 40.804 64.4712 40.804 65.3408C40.804 66.5136 41.5693 67.1001 43.3014 67.7674C45.4363 68.5965 46.5038 69.6278 46.5038 71.4882C46.5038 73.4294 45.0738 75.1281 42.093 75.1281C40.8845 75.1281 39.5553 74.7641 38.8906 74.3192L39.3136 72.9441Z" fill="url(#paint0_linear_516_7382)"/>
<path d="M56.6542 72.4587C56.6542 73.389 56.6743 74.2181 56.7347 74.9258H55.2846L55.1839 73.4496H55.1436C54.7207 74.1776 53.7539 75.1281 52.1628 75.1281C50.753 75.1281 49.041 74.3394 49.041 71.1443V65.8663H50.6925V70.8814C50.6925 72.6003 51.2162 73.7732 52.7066 73.7732C53.8143 73.7732 54.5797 73.0047 54.8818 72.2767C54.9825 72.0341 55.0228 71.7307 55.0228 71.4274V65.8663H56.6743V72.4587H56.6542Z" fill="url(#paint1_linear_516_7382)"/>
<path d="M59.7964 68.3132C59.7964 67.383 59.7762 66.6146 59.7158 65.8664H61.1659L61.2667 67.3628H61.3069C61.75 66.4933 62.7973 65.6642 64.2877 65.6642C65.5365 65.6642 67.4901 66.4124 67.4901 69.5265V74.9459H65.8386V69.7085C65.8386 68.2526 65.2948 67.019 63.744 67.019C62.6564 67.019 61.8306 67.7875 61.5486 68.6974C61.4681 68.8996 61.4278 69.1828 61.4278 69.4659V74.9257H59.7762V68.3132H59.7964Z" fill="url(#paint2_linear_516_7382)"/>
<path d="M70.4912 74.9255C70.5315 74.2986 70.5718 73.3886 70.5718 72.5798V61.6196H72.2032V67.3221H72.2434C72.8275 66.311 73.8748 65.6437 75.325 65.6437C77.5606 65.6437 79.1517 67.5243 79.1315 70.2745C79.1315 73.51 77.0973 75.1277 75.0833 75.1277C73.7741 75.1277 72.7268 74.6221 72.0622 73.4291H72.0018L71.9212 74.9255H70.4912ZM72.183 71.3058C72.183 71.508 72.2233 71.7102 72.2636 71.9124C72.5858 73.0651 73.5324 73.8335 74.7207 73.8335C76.4327 73.8335 77.4599 72.418 77.4599 70.3554C77.4599 68.5354 76.5334 66.9784 74.7812 66.9784C73.6533 66.9784 72.606 67.7468 72.2837 69.0005C72.2434 69.1825 72.183 69.405 72.183 69.6678V71.3058Z" fill="url(#paint3_linear_516_7382)"/>
<path d="M86.6031 74.9255L86.4823 73.7729H86.4218C85.9183 74.4806 84.9516 75.1277 83.6626 75.1277C81.8298 75.1277 80.9033 73.8335 80.9033 72.5191C80.9033 70.3352 82.8368 69.1219 86.3413 69.1422V68.9602C86.3413 68.212 86.1399 66.8572 84.2869 66.8572C83.441 66.8572 82.575 67.12 81.9305 67.5245L81.5478 66.4325C82.293 65.9472 83.3806 65.6237 84.5085 65.6237C87.2677 65.6237 87.9525 67.5245 87.9525 69.3444V72.7416C87.9525 73.5302 87.9928 74.2986 88.0935 74.9255H86.6031ZM86.3614 70.315C84.5689 70.2746 82.5347 70.5981 82.5347 72.3574C82.5347 73.4291 83.2396 73.9346 84.0855 73.9346C85.2537 73.9346 85.9989 73.1864 86.2607 72.418C86.3211 72.2563 86.3614 72.054 86.3614 71.8923V70.315Z" fill="url(#paint4_linear_516_7382)"/>
<path d="M90.7925 73.2472C91.2758 73.5707 92.1419 73.8943 92.9677 73.8943C94.156 73.8943 94.7199 73.2876 94.7199 72.5394C94.7199 71.7508 94.2567 71.3261 93.0482 70.861C91.4168 70.2746 90.6515 69.3849 90.6515 68.2929C90.6515 66.837 91.8196 65.6237 93.7733 65.6237C94.6796 65.6237 95.4853 65.8865 95.9888 66.1899L95.586 67.3829C95.2234 67.1605 94.5789 66.8572 93.733 66.8572C92.7663 66.8572 92.2225 67.4234 92.2225 68.0907C92.2225 68.8389 92.7663 69.1827 93.9344 69.6275C95.5054 70.2342 96.311 71.0228 96.311 72.3574C96.311 73.955 95.0824 75.0671 92.9274 75.0671C91.9405 75.0671 91.014 74.8245 90.3896 74.4403L90.7925 73.2472Z" fill="url(#paint5_linear_516_7382)"/>
<path d="M99.735 70.6994C99.7753 72.9239 101.185 73.8541 102.837 73.8541C104.005 73.8541 104.73 73.6519 105.334 73.389L105.616 74.5618C105.032 74.8247 104.045 75.1281 102.615 75.1281C99.8357 75.1281 98.1641 73.2879 98.1641 70.5579C98.1641 67.8279 99.7753 65.6642 102.394 65.6642C105.334 65.6642 106.12 68.2728 106.12 69.931C106.12 70.2748 106.079 70.5377 106.059 70.6994H99.735ZM104.549 69.5266C104.569 68.475 104.126 66.8371 102.273 66.8371C100.601 66.8371 99.876 68.3739 99.7552 69.5266H104.549Z" fill="url(#paint6_linear_516_7382)"/>
<path d="M32.3929 71.2437C32.4734 73.1255 32.8956 74.9061 33.6194 76.5249C31.6892 74.1574 30.4828 71.2032 30.3621 67.9454C30.0404 59.8313 36.4746 52.9718 44.7385 52.6278C51.0922 52.3648 56.6819 56.0272 59.0746 61.4299C56.1993 57.909 51.7155 55.7237 46.7693 55.926C38.5054 56.27 32.0712 63.1296 32.3929 71.2437Z" fill="url(#paint7_linear_516_7382)"/>
<defs>
<filter id="filter0_d_516_7382" x="0.713867" y="0.46405" width="135.009" height="146.341" filterUnits="userSpaceOnUse" color-interpolation-filters="sRGB">
<feFlood flood-opacity="0" result="BackgroundImageFix"/>
<feColorMatrix in="SourceAlpha" type="matrix" values="0 0 0 0 0 0 0 0 0 0 0 0 0 0 0 0 0 0 127 0" result="hardAlpha"/>
<feOffset dy="6"/>
<feGaussianBlur stdDeviation="10"/>
<feColorMatrix type="matrix" values="0 0 0 0 0.0561006 0 0 0 0 0.153723 0 0 0 0 0.237399 0 0 0 0.15 0"/>
<feBlend mode="normal" in2="BackgroundImageFix" result="effect1_dropShadow_516_7382"/>
<feBlend mode="normal" in="SourceGraphic" in2="effect1_dropShadow_516_7382" result="shape"/>
</filter>
<linearGradient id="paint0_linear_516_7382" x1="42.7068" y1="75.1232" x2="42.7068" y2="62.0957" gradientUnits="userSpaceOnUse">
<stop stop-color="#F29424"/>
<stop offset="0.9988" stop-color="#F24E24"/>
</linearGradient>
<linearGradient id="paint1_linear_516_7382" x1="52.8817" y1="75.142" x2="52.8817" y2="65.8633" gradientUnits="userSpaceOnUse">
<stop stop-color="#F29424"/>
<stop offset="0.9988" stop-color="#F24E24"/>
</linearGradient>
<linearGradient id="paint2_linear_516_7382" x1="63.5989" y1="74.9357" x2="63.5989" y2="65.6572" gradientUnits="userSpaceOnUse">
<stop stop-color="#F29424"/>
<stop offset="0.9988" stop-color="#F24E24"/>
</linearGradient>
<linearGradient id="paint3_linear_516_7382" x1="74.8014" y1="75.1416" x2="74.8014" y2="61.6269" gradientUnits="userSpaceOnUse">
<stop stop-color="#F29424"/>
<stop offset="0.9988" stop-color="#F24E24"/>
</linearGradient>
<linearGradient id="paint4_linear_516_7382" x1="84.4908" y1="75.1416" x2="84.4908" y2="65.6571" gradientUnits="userSpaceOnUse">
<stop stop-color="#F29424"/>
<stop offset="0.9988" stop-color="#F24E24"/>
</linearGradient>
<linearGradient id="paint5_linear_516_7382" x1="93.3313" y1="75.123" x2="93.3313" y2="65.6571" gradientUnits="userSpaceOnUse">
<stop stop-color="#F29424"/>
<stop offset="0.9988" stop-color="#F24E24"/>
</linearGradient>
<linearGradient id="paint6_linear_516_7382" x1="102.144" y1="75.1232" x2="102.144" y2="65.6572" gradientUnits="userSpaceOnUse">
<stop stop-color="#F29424"/>
<stop offset="0.9988" stop-color="#F24E24"/>
</linearGradient>
<linearGradient id="paint7_linear_516_7382" x1="30.351" y1="64.5631" x2="59.0799" y2="64.5631" gradientUnits="userSpaceOnUse">
<stop stop-color="#F29424"/>
<stop offset="0.9988" stop-color="#F24E24"/>
</linearGradient>
</defs>
</svg>
