<svg width="122" height="131" viewBox="0 0 122 131" fill="none" xmlns="http://www.w3.org/2000/svg">
<g filter="url(#filter0_d_2968_3758)">
<path d="M56.7557 15.2752C59.2179 13.8657 62.2425 13.8657 64.7047 15.2752L97.1742 33.8626C99.6638 35.2878 101.2 37.9368 101.2 40.8055V77.8627C101.2 80.7313 99.6638 83.3804 97.1742 84.8056L64.7047 103.393C62.2425 104.802 59.2179 104.802 56.7557 103.393L24.2862 84.8056C21.7966 83.3804 20.2607 80.7313 20.2607 77.8627L20.2607 40.8055C20.2607 37.9368 21.7966 35.2878 24.2862 33.8626L56.7557 15.2752Z" fill="white"/>
</g>
<path d="M47.1232 51.7218C47.1232 51.7218 48.551 50.8651 48.551 49.7229L48.2654 48.2951C48.2654 48.0095 48.2654 47.4384 48.8366 47.1528L49.4077 46.8673C49.9788 46.5817 50.2643 47.1528 50.5499 47.4384L51.4066 48.8662C51.9777 49.7229 53.691 49.4373 53.691 49.4373C53.691 49.4373 55.4044 49.1517 55.6899 48.2951L55.9755 46.8673C55.9755 46.5817 56.5466 46.0106 56.8322 46.0106H57.4033C57.9744 46.0106 58.2599 46.5817 58.2599 46.8673L58.5455 48.2951C58.5455 49.4373 60.5444 49.7229 60.5444 49.7229C60.5444 49.7229 62.2577 50.294 62.8289 49.4373L63.6855 48.2951C63.9711 48.0095 64.5422 47.724 64.8278 48.0095L65.3989 48.2951C65.97 48.5806 65.97 49.1517 65.97 49.4373L65.3989 50.8651C65.1133 51.7218 66.5411 52.864 66.5411 52.864C66.5411 52.864 67.9689 54.0062 68.8256 53.4351L70.2533 52.5784C70.5389 52.2929 71.11 52.2929 71.3956 52.864L71.6811 53.1495C71.9667 53.4351 71.9667 54.0062 71.6811 54.2918L70.5389 55.434C69.9678 56.2907 70.8244 57.7185 70.8244 57.7185C70.8244 57.7185 71.6811 59.4318 72.5378 59.1462L73.9656 58.8607C74.2511 58.8607 74.8222 59.1462 75.1078 59.4318V60.0029C75.1078 60.574 74.8222 60.8596 74.5367 61.1451L73.1089 61.7163C72.2522 62.2874 72.2522 64.0007 72.2522 64.0007C72.2522 64.0007 72.2522 65.7141 73.3945 65.9996L74.8222 66.5707C75.1078 66.5707 75.6789 67.1418 75.3934 67.7129V68.2841C75.3934 68.8552 74.8222 69.1407 74.5367 69.1407H73.1089C71.9667 69.1407 71.3956 70.8541 71.3956 70.8541C71.3956 70.8541 70.8244 72.5674 71.3956 73.1385L72.5378 74.2808C72.8233 74.5663 73.1089 75.1374 72.8233 75.423L71.9667 76.2797C71.6811 76.5652 71.11 76.8508 70.8244 76.5652L69.3967 75.9941C68.54 75.7085 67.1122 76.8508 67.1122 76.8508C67.1122 76.8508 65.97 77.993 66.2555 79.1352L66.8267 80.563C66.8267 80.8486 66.8267 81.4197 66.5411 81.7052L66.2555 81.9908C65.97 82.2764 65.3989 81.9908 65.1133 81.7052L63.9711 80.563C63.4 79.7063 61.6866 80.563 61.6866 80.563C61.6866 80.563 59.9733 81.1341 59.9733 82.2764V83.7041C59.9733 83.9897 59.6877 84.5608 59.1166 84.5608H58.5455C57.9744 84.5608 57.6888 84.2753 57.4033 83.9897L56.8322 82.5619C56.5466 81.7052 54.8333 81.4197 54.8333 81.4197C54.8333 81.4197 53.1199 81.1341 52.5488 82.2764L51.9777 83.7041C51.6921 83.9897 51.4066 84.2753 50.8355 84.2753H50.2643C49.6932 84.2753 49.6932 83.7041 49.6932 83.133L49.9788 81.7052C49.9788 80.563 48.551 79.9919 48.551 79.9919C48.551 79.9919 47.1232 79.1352 46.2666 79.7063L44.8388 80.563C44.5532 80.8486 43.9821 80.8486 43.6965 80.563L43.411 80.2775C43.1254 79.9919 43.1254 79.4208 43.1254 79.1352L43.9821 77.7074C44.5532 76.8508 43.411 75.423 43.411 75.423C43.411 75.423 42.2688 73.9952 41.4121 74.2808L39.9843 74.8519C39.6987 74.8519 39.1276 74.8519 38.8421 74.2808L38.5565 73.7096C38.271 73.1385 38.5565 72.853 38.8421 72.5674L39.9843 71.7107C40.841 71.1396 40.2699 69.4263 40.2699 69.4263C40.2699 69.4263 39.9843 67.7129 38.8421 67.4274L37.4143 67.1418C37.1287 67.1418 36.5576 66.8563 36.5576 66.2852V65.714C36.5576 65.1429 37.1287 64.8574 37.4143 64.8574L38.8421 64.5718C39.9843 64.2863 39.9843 62.5729 39.9843 62.5729C39.9843 62.5729 40.2699 60.8596 39.4132 60.2885L37.9854 59.4318C37.6998 59.1462 37.4143 58.8607 37.4143 58.2896L37.6998 57.7185C37.9854 57.1473 38.5565 57.1473 38.8421 57.1473L40.2699 57.4329C41.4121 57.7185 42.2688 56.0051 42.2688 56.0051C42.2688 56.0051 43.411 54.5773 42.5543 53.7207L41.6976 52.5784C41.4121 52.2929 41.4121 51.7218 41.6976 51.4362L41.9832 51.1506C42.2688 50.8651 42.8399 50.8651 43.1254 51.1506L44.2677 52.0073C45.6954 52.864 47.1232 51.7218 47.1232 51.7218ZM67.6833 64.8574C67.3978 58.2896 61.9722 53.4351 55.4044 53.7207C48.8366 54.0062 43.9821 59.4318 44.2677 65.9996C44.5532 72.5674 49.9788 77.4219 56.5466 77.1363C62.8289 76.8508 67.6833 71.4252 67.6833 64.8574Z" fill="#FDB718"/>
<path d="M83.1035 40.8704L81.9613 40.5848C81.3902 40.5848 81.1046 40.2993 81.1046 40.0137C81.1046 39.7282 81.1046 39.4426 81.3902 39.1571L81.9613 38.0148C82.2469 37.7293 82.2469 36.8726 81.6758 36.3015L81.1046 35.7304C80.5335 35.1593 79.9624 35.4448 79.3913 35.7304L77.9635 36.3015C77.678 36.587 77.1069 36.5871 76.8213 36.5871C76.5357 36.3015 76.5357 36.0159 76.2502 35.7304L75.9646 34.5882C75.9646 34.017 75.3935 33.4459 74.8224 33.4459H74.2513C73.6802 33.4459 73.1091 34.017 73.1091 34.5882L72.8235 35.7304C72.8235 36.3015 72.5379 36.5871 72.2524 36.5871C71.9668 36.5871 71.6813 36.587 71.3957 36.3015L70.2535 35.7304C69.9679 35.4448 69.1113 35.4448 68.5401 36.0159L67.969 36.5871C67.3979 37.1582 67.6835 37.7293 67.969 38.3004L68.5401 39.4426C68.8257 39.7282 68.8257 40.2993 68.8257 40.5848C68.5401 40.8704 68.2546 41.156 67.969 41.156L66.8268 41.4415C66.2557 41.4415 65.6846 42.0126 65.6846 42.5837V43.1549C65.6846 43.726 66.2557 44.2971 66.8268 44.2971L67.969 44.5826C68.5401 44.5826 68.8257 44.8682 68.8257 45.1538C68.8257 45.4393 68.8257 45.7249 68.5401 46.0104L67.969 47.1527C67.6835 47.4382 67.6835 48.2949 68.2546 48.866L68.8257 49.4371C69.3968 50.0082 69.9679 49.7227 70.539 49.4371L71.6813 48.866C71.9668 48.5804 72.5379 48.5804 72.8235 48.5804C73.1091 48.866 73.3946 49.1516 73.3946 49.4371L73.6802 50.5793C73.6802 51.1505 74.2513 51.7216 74.8224 51.7216H75.3935C75.9646 51.7216 76.5357 51.1505 76.5357 50.5793L76.8213 49.4371C76.8213 48.866 77.1068 48.5804 77.3924 48.5804C77.678 48.5804 77.9635 48.5804 78.2491 48.866L79.3913 49.4371C79.6769 49.7227 80.5335 49.7227 81.1046 49.1516L81.6758 48.5804C82.2469 48.0093 81.9613 47.4382 81.6758 46.8671L81.1046 45.7249C80.8191 45.4393 80.8191 44.8682 80.8191 44.5826C81.1046 44.2971 81.3902 44.0115 81.6758 44.0115L82.818 43.726C83.3891 43.726 83.9602 43.1549 83.9602 42.5837V42.0126C84.2458 41.4415 83.3891 41.156 83.1035 40.8704ZM74.8224 47.1527C72.5379 47.1527 70.539 45.4393 70.539 43.1549C70.539 40.8704 72.2524 38.8715 74.5368 38.8715C76.8213 38.8715 78.8202 40.5848 78.8202 42.8693C79.1057 45.1538 77.1068 47.1527 74.8224 47.1527Z" fill="#079347"/>
<defs>
<filter id="filter0_d_2968_3758" x="0.260742" y="0.218079" width="120.939" height="130.232" filterUnits="userSpaceOnUse" color-interpolation-filters="sRGB">
<feFlood flood-opacity="0" result="BackgroundImageFix"/>
<feColorMatrix in="SourceAlpha" type="matrix" values="0 0 0 0 0 0 0 0 0 0 0 0 0 0 0 0 0 0 127 0" result="hardAlpha"/>
<feOffset dy="6"/>
<feGaussianBlur stdDeviation="10"/>
<feColorMatrix type="matrix" values="0 0 0 0 0.0561006 0 0 0 0 0.153723 0 0 0 0 0.237399 0 0 0 0.15 0"/>
<feBlend mode="normal" in2="BackgroundImageFix" result="effect1_dropShadow_2968_3758"/>
<feBlend mode="normal" in="SourceGraphic" in2="effect1_dropShadow_2968_3758" result="shape"/>
</filter>
</defs>
</svg>
