<svg width="136" height="147" viewBox="0 0 136 147" fill="none" xmlns="http://www.w3.org/2000/svg">
<g filter="url(#filter0_d_516_7696)">
<path d="M64.5116 15.2752C66.9738 13.8657 69.9983 13.8657 72.4606 15.2752L111.965 37.8898C114.454 39.3149 115.99 41.964 115.99 44.8326V89.9442C115.99 92.8128 114.454 95.4618 111.965 96.887L72.4606 119.502C69.9983 120.911 66.9738 120.911 64.5116 119.502L25.0073 96.887C22.5177 95.4618 20.9818 92.8128 20.9818 89.9442L20.9818 44.8326C20.9818 41.964 22.5177 39.3149 25.0073 37.8898L64.5116 15.2752Z" fill="white"/>
</g>
<path fill-rule="evenodd" clip-rule="evenodd" d="M85.224 86.8828C81.2716 90.0577 76.3398 92.1059 70.9399 92.5298C70.2699 91.1871 69.5408 89.6523 69.5408 89.6523L69.5381 87.3067L85.224 86.8828Z" fill="#FCB215"/>
<path fill-rule="evenodd" clip-rule="evenodd" d="M94.1652 71.0104C93.8885 72.6432 93.4639 74.2291 92.9104 75.7459L86.636 70.8833L94.1652 71.0104Z" fill="#F5821F"/>
<path fill-rule="evenodd" clip-rule="evenodd" d="M68.6653 40.7661C82.218 40.7661 93.3358 51.1131 94.4791 64.295L77.1108 46.8113L52.2839 46.5699C56.7494 42.9439 62.4525 40.7661 68.6653 40.7661Z" fill="#FCB215"/>
<path fill-rule="evenodd" clip-rule="evenodd" d="M92.6435 62.4296L81.2428 62.3189L93.3809 74.6824C92.5412 77.2777 91.3032 79.6975 89.7395 81.8634L70.3938 62.2136L43.3428 61.9489C43.8434 59.2132 44.7719 56.6286 46.0557 54.2656L62.7557 54.4519L53.8903 45.448C56.0865 43.8951 58.5356 42.6744 61.1624 41.8643L73.6396 54.5735L85.0834 54.7004L92.6435 62.4296Z" fill="#ED1C24"/>
<path fill-rule="evenodd" clip-rule="evenodd" d="M86.7922 78.8621L74.7896 78.7458L83.7343 87.8512C81.5554 89.398 79.1258 90.615 76.5208 91.4316L63.9196 78.6404L45.7012 78.4619C44.4797 76.074 43.6195 73.4698 43.1853 70.7222L56.2639 70.8682L44.2235 58.3014C45.0594 55.8243 46.2594 53.5121 47.7588 51.4325L67.1717 70.9899L79.1581 71.1251L86.7922 78.8621Z" fill="#F5821F"/>
<path fill-rule="evenodd" clip-rule="evenodd" d="M76.4402 91.3526C73.9904 92.1167 71.384 92.5298 68.683 92.5298C55.2726 92.5298 44.2363 82.3614 42.8723 69.3146L60.5179 87.0973L72.1862 87.0811L76.4402 91.3526Z" fill="#FCB215"/>
<defs>
<filter id="filter0_d_516_7696" x="0.981689" y="0.218079" width="135.009" height="146.341" filterUnits="userSpaceOnUse" color-interpolation-filters="sRGB">
<feFlood flood-opacity="0" result="BackgroundImageFix"/>
<feColorMatrix in="SourceAlpha" type="matrix" values="0 0 0 0 0 0 0 0 0 0 0 0 0 0 0 0 0 0 127 0" result="hardAlpha"/>
<feOffset dy="6"/>
<feGaussianBlur stdDeviation="10"/>
<feColorMatrix type="matrix" values="0 0 0 0 0.12549 0 0 0 0 0.152941 0 0 0 0 0.176471 0 0 0 0.15 0"/>
<feBlend mode="normal" in2="BackgroundImageFix" result="effect1_dropShadow_516_7696"/>
<feBlend mode="normal" in="SourceGraphic" in2="effect1_dropShadow_516_7696" result="shape"/>
</filter>
</defs>
</svg>
