<svg width="136" height="147" viewBox="0 0 136 147" fill="none" xmlns="http://www.w3.org/2000/svg">
<g filter="url(#filter0_d_516_7705)">
<path d="M63.8788 15.2752C66.341 13.8657 69.3655 13.8657 71.8277 15.2752L111.332 37.8898C113.822 39.3149 115.358 41.964 115.358 44.8326V89.9442C115.358 92.8128 113.822 95.4618 111.332 96.887L71.8277 119.502C69.3655 120.911 66.341 120.911 63.8788 119.502L24.3744 96.887C21.8849 95.4618 20.3489 92.8128 20.3489 89.9442L20.3489 44.8326C20.3489 41.964 21.8849 39.3149 24.3744 37.8898L63.8788 15.2752Z" fill="white"/>
</g>
<path d="M27.7185 67.9254L29.4762 67.6512C29.5746 68.3515 29.8506 68.8876 30.3006 69.2596C30.7523 69.6316 31.3816 69.8184 32.1919 69.8184C33.0074 69.8184 33.6139 69.6525 34.0076 69.3225C34.4031 68.9924 34.5999 68.6047 34.5999 68.1612C34.5999 67.763 34.4259 67.4487 34.0761 67.2199C33.8336 67.0627 33.2272 66.8636 32.2604 66.6209C30.958 66.2943 30.0545 66.0114 29.55 65.7722C29.0473 65.5329 28.6642 65.2029 28.4058 64.782C28.1456 64.3612 28.0156 63.8949 28.0156 63.385C28.0156 62.9205 28.1228 62.4909 28.3372 62.0944C28.5517 61.698 28.8417 61.3697 29.2108 61.1095C29.4868 60.907 29.8647 60.7358 30.341 60.5944C30.8191 60.4547 31.3306 60.3831 31.8772 60.3831C32.6998 60.3831 33.4223 60.5018 34.0445 60.7358C34.6667 60.9716 35.1255 61.2894 35.4208 61.6928C35.7178 62.0944 35.9217 62.6323 36.0325 63.3064L34.2958 63.5421C34.2167 63.006 33.9882 62.5869 33.6103 62.2865C33.2324 61.9862 32.6963 61.836 32.0056 61.836C31.19 61.836 30.6082 61.9705 30.2584 62.2376C29.9104 62.5066 29.7346 62.8192 29.7346 63.1789C29.7346 63.4077 29.8067 63.6137 29.9508 63.7971C30.0949 63.9875 30.3234 64.1446 30.6328 64.2686C30.8103 64.335 31.3341 64.4852 32.2024 64.7192C33.4592 65.0527 34.3363 65.3251 34.8337 65.5382C35.3311 65.7512 35.7213 66.0603 36.0026 66.4655C36.2856 66.8706 36.4279 67.3753 36.4279 67.976C36.4279 68.5646 36.2557 69.1181 35.9094 69.6385C35.5649 70.1589 35.0657 70.5606 34.4136 70.8452C33.7615 71.1299 33.025 71.2713 32.2024 71.2713C30.8402 71.2713 29.8014 70.9902 29.0878 70.4279C28.3724 69.8638 27.9154 69.0308 27.7185 67.9254Z" fill="#414042"/>
<path d="M45.483 60.6191V66.1986C45.483 67.0892 45.3846 67.7668 45.1912 68.2348C44.9979 68.7011 44.6657 69.0713 44.1999 69.3437C43.7323 69.6144 43.2331 69.7489 42.6988 69.7489C42.1662 69.7489 41.718 69.6179 41.3577 69.3525C40.9956 69.0888 40.7583 68.7238 40.6458 68.2593C40.5737 67.9379 40.5386 67.318 40.5386 66.396V60.6191H38.7598V67.0718C38.7598 67.8244 38.7967 68.3728 38.8687 68.7203C38.9742 69.2372 39.157 69.6738 39.4171 70.03C39.614 70.299 39.89 70.5347 40.245 70.7355C41.7496 70.3741 43.3579 70.0126 45.0541 69.6947C45.2387 69.6581 46.7222 69.3787 47.2583 69.2826V60.6191H45.483Z" fill="#414042"/>
<path d="M58.2033 62.9136C58.0979 62.4106 57.9133 61.9758 57.6497 61.6108C57.386 61.2441 56.9888 60.9489 56.4615 60.7219C55.9306 60.4967 55.3506 60.3849 54.7196 60.3849C53.2642 60.3849 52.1533 60.9559 51.3834 62.1015V60.6206H49.7839V68.8755C50.3693 68.7864 50.9616 68.6991 51.561 68.6153V65.3479C51.561 64.0155 51.8352 63.1091 52.3853 62.6307C52.9337 62.1539 53.5876 61.9164 54.3452 61.9164C54.8198 61.9164 55.2311 62.0229 55.5826 62.2342C55.9359 62.4473 56.1802 62.7319 56.3191 63.0882C56.4579 63.4444 56.5265 63.9823 56.5265 64.7018V68.0442C57.1153 67.9884 57.7077 67.9395 58.3035 67.8975V64.6302C58.3018 63.8129 58.2701 63.2401 58.2033 62.9136Z" fill="#414042"/>
<path d="M69.1875 62.9136C69.082 62.4106 68.8992 61.9758 68.6355 61.6108C68.3719 61.2441 67.9764 60.9489 67.4456 60.7219C66.9165 60.4967 66.3347 60.3849 65.7037 60.3849C64.2501 60.3849 63.1374 60.9559 62.3676 62.1015V60.6206H60.7681V67.7334C61.3569 67.7002 61.951 67.6705 62.5451 67.6496V65.3479C62.5451 64.0155 62.8193 63.1091 63.3695 62.6307C63.9196 62.1539 64.5717 61.9164 65.3293 61.9164C65.8039 61.9164 66.2152 62.0229 66.5685 62.2342C66.92 62.4473 67.1661 62.7319 67.3032 63.0882C67.4421 63.4444 67.5106 63.9823 67.5106 64.7018V67.5553C68.1047 67.5605 68.6971 67.5692 69.2877 67.5745V64.6302C69.2859 63.8129 69.2543 63.2401 69.1875 62.9136Z" fill="#414042"/>
<path d="M91.6622 60.6191L89.3315 66.974C89.0485 67.7459 88.8287 68.406 88.6706 68.9561C88.4667 68.2296 88.2417 67.5311 87.9991 66.857L85.7492 60.6191H83.8738L87.289 69.5358C88.1608 69.7227 89.0133 69.9061 89.8394 70.0842C89.8517 70.0877 89.8676 70.0912 89.8799 70.0947L93.4902 60.6191H91.6622Z" fill="#414042"/>
<path d="M101.749 65.8072C101.104 66.0691 100.137 66.2909 98.8473 66.4743C98.1161 66.579 97.5994 66.696 97.297 66.827C96.9947 66.958 96.7609 67.1483 96.5957 67.3998C96.4305 67.6513 96.3479 67.9307 96.3479 68.238C96.3479 68.7095 96.5272 69.1007 96.8857 69.4151C97.2443 69.7294 97.7699 69.8866 98.4606 69.8866C99.1461 69.8866 99.7543 69.7381 100.287 69.4413C100.819 69.1426 101.211 68.7357 101.461 68.2206C101.651 67.8224 101.748 67.2339 101.748 66.455V65.8072H101.749ZM101.899 69.7503C101.24 70.3057 100.607 70.6986 99.9986 70.9274C99.3887 71.1561 98.7366 71.2714 98.0388 71.2714C96.8875 71.2714 96.0016 70.992 95.3829 70.4332C94.7642 69.8743 94.4548 69.1601 94.4548 68.2904C94.4548 67.7805 94.5708 67.3142 94.8046 66.8934C95.0384 66.4708 95.3442 66.1337 95.7221 65.8788C96.1 65.6238 96.5272 65.4317 97 65.3007C97.348 65.2099 97.8753 65.1209 98.5802 65.0353C100.014 64.8659 101.071 64.6633 101.749 64.4276C101.756 64.1866 101.76 64.0312 101.76 63.9665C101.76 63.2471 101.591 62.7406 101.255 62.4455C100.802 62.0473 100.127 61.8465 99.2323 61.8465C98.3956 61.8465 97.7786 61.9915 97.3814 62.2831C96.9824 62.5747 96.6889 63.0899 96.4973 63.8286L94.7589 63.5928C94.9171 62.8541 95.1773 62.2569 95.5393 61.8029C95.9014 61.3488 96.4252 60.9978 97.109 60.7533C97.7927 60.5088 98.5872 60.3866 99.4889 60.3866C100.384 60.3866 101.111 60.4914 101.67 60.7009C102.229 60.9105 102.64 61.1742 102.904 61.4903C103.168 61.8081 103.352 62.208 103.456 62.6917C103.516 62.9921 103.546 63.5352 103.546 64.3193V66.6733C103.546 68.3149 103.583 69.3522 103.658 69.787C103.734 70.2219 103.883 70.6392 104.108 71.0374H102.252C102.069 70.6689 101.951 70.2411 101.899 69.7503Z" fill="#414042"/>
<path d="M104.106 58.6819V58.9208H104.573V60.3832H104.831V58.9208H105.297V58.6819H104.106Z" fill="#414042"/>
<path d="M106.341 60.3399L105.856 58.9553H105.845C105.859 59.1617 105.864 59.3539 105.864 59.5338V60.3399H105.616V58.6819H106.002L106.466 60.0013H106.473L106.951 58.6819H107.338V60.3399H107.074V59.5197C107.074 59.4368 107.076 59.331 107.08 59.1987C107.083 59.0647 107.087 58.9853 107.092 58.9588H107.083L106.58 60.3417H106.341V60.3399Z" fill="#414042"/>
<path d="M100.948 74.7474C99.9557 74.354 98.7263 73.9413 97.3245 73.4315C97.1698 73.3768 97.0027 73.3257 96.8426 73.2745C96.2763 73.0876 95.6854 72.9076 95.0645 72.7083C94.266 72.4596 93.4253 72.1985 92.5354 71.9763C91.6472 71.747 90.7238 71.493 89.76 71.2566C88.7927 71.0467 87.7902 70.8298 86.7613 70.6057C85.7289 70.3994 84.6595 70.223 83.5726 70.0219C82.4839 69.8208 81.3583 69.7026 80.2204 69.5333C77.9392 69.2475 75.5719 69.0059 73.1589 68.8718C71.9523 68.8048 70.7353 68.7731 69.5147 68.7219C68.2923 68.7131 67.0647 68.6831 65.837 68.6954C63.3835 68.7431 60.93 68.8313 58.524 69.0218C56.1145 69.1788 53.756 69.4804 51.4783 69.7679C49.2042 70.0872 47.0128 70.4488 44.9497 70.8633C42.8814 71.2549 40.9467 71.7099 39.1651 72.1527C38.1292 72.412 37.1548 72.6748 36.235 72.9376C33.996 73.5744 32.1124 74.1953 30.6807 74.6874C29.6694 75.0296 28.8921 75.3453 28.3591 75.5535C27.8297 75.7704 27.5483 75.8851 27.5483 75.8851C27.5483 75.8851 27.8403 75.7987 28.3873 75.6346C28.9343 75.4741 29.7451 75.2607 30.7739 74.982C31.8011 74.705 33.0568 74.3964 34.5008 74.0648C35.9465 73.7384 37.5822 73.398 39.3691 73.0417C41.1578 72.6977 43.0995 72.352 45.159 72.031C47.2168 71.6958 49.4012 71.4365 51.656 71.1578C53.916 70.9144 56.2552 70.7045 58.6348 70.5564C61.0127 70.3853 63.4345 70.3182 65.8546 70.29C67.0647 70.2724 68.2765 70.29 69.4812 70.29C70.686 70.3306 71.8873 70.3517 73.0762 70.41C73.6707 70.4452 74.2634 70.4805 74.8526 70.5158C75.4418 70.5475 76.0292 70.5687 76.6096 70.6234C77.7721 70.7292 78.9259 70.7927 80.0533 70.9285C81.1789 71.0644 82.2905 71.172 83.3739 71.3219C84.4555 71.4789 85.5161 71.6129 86.545 71.777C87.5703 71.9569 88.5693 72.1315 89.5331 72.3009C90.4952 72.4825 91.4203 72.6854 92.312 72.8653C93.2072 73.0329 94.0497 73.2587 94.857 73.4474C95.6625 73.6432 96.4364 73.8055 97.1504 73.9995C98.5733 74.4017 99.8273 74.7227 100.842 75.0402C101.853 75.3718 102.657 75.6064 103.202 75.7775C103.749 75.9451 104.04 76.035 104.04 76.035C104.04 76.035 103.76 75.9168 103.232 75.6964C102.708 75.4776 101.94 75.1425 100.948 74.7474Z" fill="url(#paint0_linear_516_7705)"/>
<path d="M83.2094 66.3089C83.2094 67.1891 83.0195 68.0234 82.6818 68.7783C82.2632 68.7148 81.8358 68.6584 81.4102 68.6002C81.7778 67.9176 81.987 67.1379 81.987 66.3089C81.987 63.6225 79.8079 61.4353 77.1275 61.4353C74.4489 61.4353 72.268 63.6225 72.268 66.3089C72.268 66.8081 72.3472 67.2896 72.4879 67.7447C72.0622 67.7235 71.6348 67.7059 71.2075 67.6918C71.1037 67.2473 71.0457 66.7851 71.0457 66.3089C71.0457 62.9451 73.7753 60.2094 77.1275 60.2094C80.4815 60.2094 83.2094 62.9451 83.2094 66.3089Z" fill="url(#paint1_linear_516_7705)"/>
<defs>
<filter id="filter0_d_516_7705" x="0.348877" y="0.21814" width="135.009" height="146.341" filterUnits="userSpaceOnUse" color-interpolation-filters="sRGB">
<feFlood flood-opacity="0" result="BackgroundImageFix"/>
<feColorMatrix in="SourceAlpha" type="matrix" values="0 0 0 0 0 0 0 0 0 0 0 0 0 0 0 0 0 0 127 0" result="hardAlpha"/>
<feOffset dy="6"/>
<feGaussianBlur stdDeviation="10"/>
<feColorMatrix type="matrix" values="0 0 0 0 0.12549 0 0 0 0 0.152941 0 0 0 0 0.176471 0 0 0 0.15 0"/>
<feBlend mode="normal" in2="BackgroundImageFix" result="effect1_dropShadow_516_7705"/>
<feBlend mode="normal" in="SourceGraphic" in2="effect1_dropShadow_516_7705" result="shape"/>
</filter>
<linearGradient id="paint0_linear_516_7705" x1="45.4425" y1="72.5387" x2="77.695" y2="48.1583" gradientUnits="userSpaceOnUse">
<stop stop-color="#FF6633"/>
<stop offset="0.1546" stop-color="#FF702E"/>
<stop offset="0.4194" stop-color="#FF8C20"/>
<stop offset="0.7604" stop-color="#FFB80A"/>
<stop offset="0.9" stop-color="#FFCC00"/>
</linearGradient>
<linearGradient id="paint1_linear_516_7705" x1="72.1963" y1="67.2202" x2="82.2362" y2="58.8817" gradientUnits="userSpaceOnUse">
<stop stop-color="#FF6633"/>
<stop offset="0.1546" stop-color="#FF702E"/>
<stop offset="0.4194" stop-color="#FF8C20"/>
<stop offset="0.7604" stop-color="#FFB80A"/>
<stop offset="0.9" stop-color="#FFCC00"/>
</linearGradient>
</defs>
</svg>
