<svg width="136" height="147" viewBox="0 0 136 147" fill="none" xmlns="http://www.w3.org/2000/svg">
<g filter="url(#filter0_d_516_7723)">
<path d="M63.7992 15.4779C66.2614 14.0684 69.2859 14.0684 71.7482 15.4779L111.252 38.0924C113.742 39.5176 115.278 42.1666 115.278 45.0353V90.1468C115.278 93.0154 113.742 95.6645 111.252 97.0897L71.7482 119.704C69.2859 121.114 66.2614 121.114 63.7992 119.704L24.2949 97.0897C21.8053 95.6645 20.2694 93.0154 20.2694 90.1468L20.2694 45.0353C20.2694 42.1666 21.8053 39.5176 24.2949 38.0924L63.7992 15.4779Z" fill="white"/>
</g>
<path d="M67.2987 44.4915C53.3051 44.4915 41.948 55.8254 41.948 69.7903C41.948 83.7552 53.3051 95.0891 67.2987 95.0891C81.2923 95.0891 92.6495 83.7552 92.6495 69.7903C92.6495 55.8254 81.2923 44.4915 67.2987 44.4915Z" fill="#F12E45"/>
<path d="M67.2993 88.4102C56.9562 88.4102 48.6411 80.1122 48.6411 69.7903C48.6411 59.4684 56.9562 51.1704 67.2993 51.1704C77.6424 51.1704 85.9574 59.4684 85.9574 69.7903C85.9574 80.1122 77.6424 88.4102 67.2993 88.4102Z" fill="white"/>
<path d="M73.5238 68.8393C76.4653 68.8393 78.8499 66.4547 78.8499 63.5132C78.8499 60.5717 76.4653 58.1871 73.5238 58.1871C70.5823 58.1871 68.1978 60.5717 68.1978 63.5132C68.1978 66.4547 70.5823 68.8393 73.5238 68.8393Z" fill="#F12E45"/>
<path d="M73.5238 81.7739C76.4653 81.7739 78.8499 79.3894 78.8499 76.4479C78.8499 73.5064 76.4653 71.1218 73.5238 71.1218C70.5823 71.1218 68.1978 73.5064 68.1978 76.4479C68.1978 79.3894 70.5823 81.7739 73.5238 81.7739Z" fill="#F12E45"/>
<path d="M60.9696 81.7739C63.9111 81.7739 66.2957 79.3894 66.2957 76.4479C66.2957 73.5064 63.9111 71.1218 60.9696 71.1218C58.0281 71.1218 55.6436 73.5064 55.6436 76.4479C55.6436 79.3894 58.0281 81.7739 60.9696 81.7739Z" fill="#F12E45"/>
<path d="M60.9696 68.8393C63.9111 68.8393 66.2957 66.4547 66.2957 63.5132C66.2957 60.5717 63.9111 58.1871 60.9696 58.1871C58.0281 58.1871 55.6436 60.5717 55.6436 63.5132C55.6436 66.4547 58.0281 68.8393 60.9696 68.8393Z" fill="#F12E45"/>
<defs>
<filter id="filter0_d_516_7723" x="0.269287" y="0.420715" width="135.009" height="146.341" filterUnits="userSpaceOnUse" color-interpolation-filters="sRGB">
<feFlood flood-opacity="0" result="BackgroundImageFix"/>
<feColorMatrix in="SourceAlpha" type="matrix" values="0 0 0 0 0 0 0 0 0 0 0 0 0 0 0 0 0 0 127 0" result="hardAlpha"/>
<feOffset dy="6"/>
<feGaussianBlur stdDeviation="10"/>
<feColorMatrix type="matrix" values="0 0 0 0 0.12549 0 0 0 0 0.152941 0 0 0 0 0.176471 0 0 0 0.15 0"/>
<feBlend mode="normal" in2="BackgroundImageFix" result="effect1_dropShadow_516_7723"/>
<feBlend mode="normal" in="SourceGraphic" in2="effect1_dropShadow_516_7723" result="shape"/>
</filter>
</defs>
</svg>
