<svg width="132" height="142" viewBox="0 0 132 142" fill="none" xmlns="http://www.w3.org/2000/svg">
<g filter="url(#filter0_d_792_7140)">
<path d="M62.1499 15.2752C64.6122 13.8657 67.6367 13.8657 70.0989 15.2752L107.24 36.5369C109.73 37.9621 111.266 40.6111 111.266 43.4798V85.8856C111.266 88.7543 109.73 91.4033 107.24 92.8285L70.0989 114.09C67.6367 115.5 64.6121 115.5 62.1499 114.09L25.0089 92.8285C22.5193 91.4033 20.9833 88.7542 20.9833 85.8856L20.9833 43.4798C20.9833 40.6111 22.5193 37.9621 25.0089 36.5369L62.1499 15.2752Z" fill="white"/>
</g>
<path d="M54.6246 52.089L55.5996 53.259L54.3646 54.208L53.6886 53.389C53.0733 53.935 52.3323 54.208 51.4656 54.208C50.9803 54.208 50.5253 54.13 50.1006 53.974C49.6846 53.8093 49.3206 53.584 49.0086 53.298C48.6966 53.0033 48.4496 52.6567 48.2676 52.258C48.0943 51.8593 48.0076 51.4217 48.0076 50.945C48.0076 50.425 48.1333 49.931 48.3846 49.463C48.6446 48.995 49.0043 48.5963 49.4636 48.267C49.2989 48.0417 49.1646 47.8077 49.0606 47.565C48.9566 47.3223 48.9046 47.0667 48.9046 46.798C48.9046 46.4773 48.9609 46.1783 49.0736 45.901C49.1949 45.615 49.3639 45.368 49.5806 45.16C49.7973 44.952 50.0529 44.7873 50.3476 44.666C50.6423 44.5447 50.9673 44.484 51.3226 44.484C51.9466 44.484 52.4449 44.6313 52.8176 44.926C53.1989 45.212 53.4719 45.576 53.6366 46.018L52.2586 46.746C52.1893 46.538 52.0809 46.3603 51.9336 46.213C51.7863 46.057 51.5913 45.979 51.3486 45.979C51.0973 45.979 50.8979 46.0527 50.7506 46.2C50.6033 46.3473 50.5296 46.5337 50.5296 46.759C50.5296 46.8977 50.5599 47.0277 50.6206 47.149C50.6813 47.2617 50.7636 47.383 50.8676 47.513L53.6626 50.919L54.4296 49.671L55.6646 50.451L54.6246 52.089ZM51.5436 52.674C52.0289 52.674 52.4276 52.531 52.7396 52.245L50.3866 49.398C50.1439 49.58 49.9576 49.8053 49.8276 50.074C49.6976 50.334 49.6326 50.6027 49.6326 50.88C49.6326 51.1573 49.6846 51.4087 49.7886 51.634C49.8926 51.8507 50.0313 52.037 50.2046 52.193C50.3866 52.349 50.5903 52.4703 50.8156 52.557C51.0496 52.635 51.2923 52.674 51.5436 52.674Z" fill="black"/>
<path d="M61.5815 49.671L58.4485 44.692H60.5415L62.4005 47.773H62.5045L64.2985 44.692H66.4175L63.3365 49.671V54H61.5815V49.671Z" fill="black"/>
<path d="M69.0189 47.422C69.5129 47.422 69.9636 47.5087 70.3709 47.682C70.7869 47.8467 71.1423 48.0807 71.4369 48.384C71.7403 48.6787 71.9743 49.034 72.1389 49.45C72.3123 49.866 72.3989 50.321 72.3989 50.815C72.3989 51.309 72.3123 51.764 72.1389 52.18C71.9743 52.596 71.7403 52.9557 71.4369 53.259C71.1423 53.5537 70.7869 53.7877 70.3709 53.961C69.9636 54.1257 69.5129 54.208 69.0189 54.208C68.5249 54.208 68.0699 54.1257 67.6539 53.961C67.2466 53.7877 66.8913 53.5537 66.5879 53.259C66.2933 52.9557 66.0593 52.596 65.8859 52.18C65.7213 51.764 65.6389 51.309 65.6389 50.815C65.6389 50.321 65.7213 49.866 65.8859 49.45C66.0593 49.034 66.2933 48.6787 66.5879 48.384C66.8913 48.0807 67.2466 47.8467 67.6539 47.682C68.0699 47.5087 68.5249 47.422 69.0189 47.422ZM69.0189 52.635C69.2356 52.635 69.4436 52.596 69.6429 52.518C69.8509 52.4313 70.0329 52.31 70.1889 52.154C70.3449 51.998 70.4663 51.8073 70.5529 51.582C70.6483 51.3567 70.6959 51.101 70.6959 50.815C70.6959 50.529 70.6483 50.2733 70.5529 50.048C70.4663 49.8227 70.3449 49.632 70.1889 49.476C70.0329 49.32 69.8509 49.203 69.6429 49.125C69.4436 49.0383 69.2356 48.995 69.0189 48.995C68.7936 48.995 68.5813 49.0383 68.3819 49.125C68.1826 49.203 68.0049 49.32 67.8489 49.476C67.6929 49.632 67.5673 49.8227 67.4719 50.048C67.3853 50.2733 67.3419 50.529 67.3419 50.815C67.3419 51.101 67.3853 51.3567 67.4719 51.582C67.5673 51.8073 67.6929 51.998 67.8489 52.154C68.0049 52.31 68.1826 52.4313 68.3819 52.518C68.5813 52.596 68.7936 52.635 69.0189 52.635Z" fill="black"/>
<path d="M77.8367 53.168H77.7327C77.5334 53.4887 77.2647 53.7443 76.9267 53.935C76.5887 54.117 76.203 54.208 75.7697 54.208C74.9637 54.208 74.3614 53.961 73.9627 53.467C73.5727 52.973 73.3777 52.3143 73.3777 51.491V47.63H75.0807V51.283C75.0807 51.7423 75.1804 52.0847 75.3797 52.31C75.5877 52.5267 75.8867 52.635 76.2767 52.635C76.5107 52.635 76.7144 52.5873 76.8877 52.492C77.0697 52.388 77.2214 52.2537 77.3427 52.089C77.4727 51.9157 77.568 51.7163 77.6287 51.491C77.698 51.257 77.7327 51.01 77.7327 50.75V47.63H79.4357V54H77.8367V53.168Z" fill="black"/>
<path d="M80.8945 47.63H82.4935V48.514H82.5975C82.6755 48.358 82.7795 48.215 82.9095 48.085C83.0395 47.955 83.1825 47.8423 83.3385 47.747C83.5032 47.6517 83.6765 47.578 83.8585 47.526C84.0492 47.474 84.2355 47.448 84.4175 47.448C84.6429 47.448 84.8335 47.4697 84.9895 47.513C85.1542 47.5563 85.2929 47.6127 85.4055 47.682L84.9505 49.229C84.8465 49.177 84.7295 49.138 84.5995 49.112C84.4782 49.0773 84.3265 49.06 84.1445 49.06C83.9105 49.06 83.6982 49.1077 83.5075 49.203C83.3169 49.2897 83.1522 49.4153 83.0135 49.58C82.8835 49.7447 82.7795 49.9397 82.7015 50.165C82.6322 50.3817 82.5975 50.62 82.5975 50.88V54H80.8945V47.63Z" fill="black"/>
<path d="M34.314 60.692H36.069V70H34.314V60.692Z" fill="black"/>
<path d="M39.3358 64.462H39.4398C39.6392 64.1413 39.9078 63.89 40.2458 63.708C40.5838 63.5173 40.9695 63.422 41.4028 63.422C41.8015 63.422 42.1525 63.487 42.4558 63.617C42.7592 63.747 43.0062 63.9333 43.1968 64.176C43.3962 64.41 43.5435 64.696 43.6388 65.034C43.7428 65.3633 43.7948 65.7317 43.7948 66.139V70H42.0918V66.347C42.0918 65.8877 41.9878 65.5497 41.7798 65.333C41.5805 65.1077 41.2858 64.995 40.8958 64.995C40.6618 64.995 40.4538 65.047 40.2718 65.151C40.0985 65.2463 39.9468 65.3807 39.8168 65.554C39.6955 65.7187 39.6002 65.918 39.5308 66.152C39.4702 66.3773 39.4398 66.62 39.4398 66.88V70H37.7368V63.63H39.3358V64.462Z" fill="black"/>
<path d="M45.5736 65.086H44.4556V63.63H45.5736V61.68H47.2766V63.63H48.8366V65.086H47.2766V67.556C47.2766 67.7033 47.2896 67.842 47.3156 67.972C47.3503 68.0933 47.4109 68.1973 47.4976 68.284C47.6189 68.4227 47.7923 68.492 48.0176 68.492C48.1649 68.492 48.2819 68.479 48.3686 68.453C48.4553 68.4183 48.5376 68.375 48.6156 68.323L49.0966 69.818C48.8973 69.9133 48.6806 69.9827 48.4466 70.026C48.2213 70.078 47.9699 70.104 47.6926 70.104C47.3719 70.104 47.0816 70.0563 46.8216 69.961C46.5703 69.857 46.3579 69.7183 46.1846 69.545C45.7773 69.155 45.5736 68.6003 45.5736 67.881V65.086Z" fill="black"/>
<path d="M56.0579 68.466C55.7632 68.986 55.3646 69.4063 54.8619 69.727C54.3679 70.0477 53.7612 70.208 53.0419 70.208C52.5566 70.208 52.1059 70.1257 51.6899 69.961C51.2826 69.7877 50.9272 69.5493 50.6239 69.246C50.3206 68.9427 50.0822 68.5873 49.9089 68.18C49.7442 67.764 49.6619 67.309 49.6619 66.815C49.6619 66.3557 49.7442 65.9223 49.9089 65.515C50.0736 65.099 50.3032 64.7393 50.5979 64.436C50.8926 64.124 51.2392 63.877 51.6379 63.695C52.0452 63.513 52.4916 63.422 52.9769 63.422C53.4882 63.422 53.9432 63.5087 54.3419 63.682C54.7406 63.8467 55.0742 64.0807 55.3429 64.384C55.6116 64.6787 55.8152 65.0297 55.9539 65.437C56.0926 65.8443 56.1619 66.2863 56.1619 66.763C56.1619 66.8237 56.1619 66.8757 56.1619 66.919C56.1532 66.971 56.1489 67.0187 56.1489 67.062C56.1402 67.1053 56.1359 67.153 56.1359 67.205H51.3389C51.3736 67.465 51.4429 67.6903 51.5469 67.881C51.6596 68.063 51.7939 68.219 51.9499 68.349C52.1146 68.4703 52.2922 68.5613 52.4829 68.622C52.6736 68.674 52.8686 68.7 53.0679 68.7C53.4579 68.7 53.7786 68.6133 54.0299 68.44C54.2899 68.258 54.4936 68.0327 54.6409 67.764L56.0579 68.466ZM54.5109 65.996C54.5022 65.8833 54.4632 65.7577 54.3939 65.619C54.3332 65.4803 54.2379 65.3503 54.1079 65.229C53.9866 65.1077 53.8306 65.008 53.6399 64.93C53.4579 64.852 53.2369 64.813 52.9769 64.813C52.6129 64.813 52.2922 64.917 52.0149 65.125C51.7376 65.333 51.5426 65.6233 51.4299 65.996H54.5109Z" fill="black"/>
<path d="M60.251 73.016C59.8003 73.016 59.3973 72.9553 59.042 72.834C58.6953 72.7213 58.392 72.5697 58.132 72.379C57.872 72.197 57.6553 71.9933 57.482 71.768C57.3087 71.5427 57.183 71.3173 57.105 71.092L58.73 70.442C58.8513 70.78 59.0507 71.04 59.328 71.222C59.6053 71.4127 59.913 71.508 60.251 71.508C60.7883 71.508 61.213 71.339 61.525 71.001C61.837 70.6717 61.993 70.208 61.993 69.61V69.168H61.889C61.6897 69.4453 61.4253 69.6663 61.096 69.831C60.7753 69.987 60.394 70.065 59.952 70.065C59.5707 70.065 59.198 69.987 58.834 69.831C58.4787 69.675 58.1623 69.454 57.885 69.168C57.6077 68.8733 57.3823 68.5223 57.209 68.115C57.0357 67.7077 56.949 67.2527 56.949 66.75C56.949 66.2473 57.0357 65.7923 57.209 65.385C57.3823 64.969 57.6077 64.618 57.885 64.332C58.1623 64.0373 58.4787 63.812 58.834 63.656C59.198 63.5 59.5707 63.422 59.952 63.422C60.394 63.422 60.7753 63.5043 61.096 63.669C61.4253 63.825 61.6897 64.0417 61.889 64.319H61.993V63.63H63.618V69.545C63.618 70.0823 63.5357 70.5633 63.371 70.988C63.2063 71.4213 62.9767 71.7853 62.682 72.08C62.3873 72.3833 62.032 72.613 61.616 72.769C61.2087 72.9337 60.7537 73.016 60.251 73.016ZM60.316 68.531C60.524 68.531 60.7277 68.492 60.927 68.414C61.135 68.336 61.317 68.2233 61.473 68.076C61.629 67.92 61.7547 67.7337 61.85 67.517C61.9453 67.2917 61.993 67.036 61.993 66.75C61.993 66.464 61.9453 66.2083 61.85 65.983C61.7547 65.7577 61.629 65.5713 61.473 65.424C61.317 65.268 61.135 65.151 60.927 65.073C60.7277 64.995 60.524 64.956 60.316 64.956C60.108 64.956 59.9043 64.995 59.705 65.073C59.5057 65.151 59.328 65.268 59.172 65.424C59.016 65.58 58.8903 65.7707 58.795 65.996C58.6997 66.2127 58.652 66.464 58.652 66.75C58.652 67.036 58.6997 67.2917 58.795 67.517C58.8903 67.7337 59.016 67.92 59.172 68.076C59.328 68.2233 59.5057 68.336 59.705 68.414C59.9043 68.492 60.108 68.531 60.316 68.531Z" fill="black"/>
<path d="M65.0698 63.63H66.6688V64.514H66.7728C66.8508 64.358 66.9548 64.215 67.0848 64.085C67.2148 63.955 67.3578 63.8423 67.5138 63.747C67.6785 63.6517 67.8518 63.578 68.0338 63.526C68.2245 63.474 68.4108 63.448 68.5928 63.448C68.8182 63.448 69.0088 63.4697 69.1648 63.513C69.3295 63.5563 69.4682 63.6127 69.5808 63.682L69.1258 65.229C69.0218 65.177 68.9048 65.138 68.7748 65.112C68.6535 65.0773 68.5018 65.06 68.3198 65.06C68.0858 65.06 67.8735 65.1077 67.6828 65.203C67.4922 65.2897 67.3275 65.4153 67.1888 65.58C67.0588 65.7447 66.9548 65.9397 66.8768 66.165C66.8075 66.3817 66.7728 66.62 66.7728 66.88V70H65.0698V63.63Z" fill="black"/>
<path d="M74.0359 69.324H73.9319C73.7325 69.5667 73.4899 69.7747 73.2039 69.948C72.9265 70.1213 72.5669 70.208 72.1249 70.208C71.7955 70.208 71.4835 70.1517 71.1889 70.039C70.9029 69.935 70.6515 69.7877 70.4349 69.597C70.2182 69.4063 70.0492 69.1767 69.9279 68.908C69.8065 68.6393 69.7459 68.3447 69.7459 68.024C69.7459 67.6947 69.8109 67.4 69.9409 67.14C70.0709 66.8713 70.2529 66.6417 70.4869 66.451C70.7209 66.2603 70.9939 66.1173 71.3059 66.022C71.6265 65.918 71.9732 65.866 72.3459 65.866C72.7619 65.866 73.1042 65.9007 73.3729 65.97C73.6415 66.0307 73.8625 66.0957 74.0359 66.165V65.97C74.0359 65.632 73.9015 65.3547 73.6329 65.138C73.3642 64.9127 73.0305 64.8 72.6319 64.8C72.0425 64.8 71.5442 65.047 71.1369 65.541L69.9019 64.696C70.5779 63.8467 71.5009 63.422 72.6709 63.422C73.6589 63.422 74.4129 63.656 74.9329 64.124C75.4529 64.5833 75.7129 65.268 75.7129 66.178V70H74.0359V69.324ZM74.0359 67.413C73.8365 67.3177 73.6285 67.244 73.4119 67.192C73.2039 67.1313 72.9742 67.101 72.7229 67.101C72.3155 67.101 71.9992 67.192 71.7739 67.374C71.5572 67.5473 71.4489 67.764 71.4489 68.024C71.4489 68.284 71.5529 68.492 71.7609 68.648C71.9775 68.804 72.2245 68.882 72.5019 68.882C72.7272 68.882 72.9352 68.843 73.1259 68.765C73.3165 68.6783 73.4769 68.57 73.6069 68.44C73.7455 68.3013 73.8495 68.1453 73.9189 67.972C73.9969 67.79 74.0359 67.6037 74.0359 67.413Z" fill="black"/>
<path d="M77.6419 65.086H76.5239V63.63H77.6419V61.68H79.3449V63.63H80.9049V65.086H79.3449V67.556C79.3449 67.7033 79.3579 67.842 79.3839 67.972C79.4186 68.0933 79.4793 68.1973 79.5659 68.284C79.6873 68.4227 79.8606 68.492 80.0859 68.492C80.2333 68.492 80.3503 68.479 80.4369 68.453C80.5236 68.4183 80.6059 68.375 80.6839 68.323L81.1649 69.818C80.9656 69.9133 80.7489 69.9827 80.5149 70.026C80.2896 70.078 80.0383 70.104 79.7609 70.104C79.4403 70.104 79.1499 70.0563 78.8899 69.961C78.6386 69.857 78.4263 69.7183 78.2529 69.545C77.8456 69.155 77.6419 68.6003 77.6419 67.881V65.086Z" fill="black"/>
<path d="M83.1702 62.707C83.0229 62.707 82.8799 62.681 82.7412 62.629C82.6112 62.5683 82.4942 62.4903 82.3902 62.395C82.2949 62.291 82.2169 62.174 82.1562 62.044C82.1042 61.914 82.0782 61.771 82.0782 61.615C82.0782 61.459 82.1042 61.316 82.1562 61.186C82.2169 61.056 82.2949 60.9433 82.3902 60.848C82.4942 60.744 82.6112 60.666 82.7412 60.614C82.8799 60.5533 83.0229 60.523 83.1702 60.523C83.4735 60.523 83.7335 60.6313 83.9502 60.848C84.1669 61.056 84.2752 61.3117 84.2752 61.615C84.2752 61.9183 84.1669 62.1783 83.9502 62.395C83.7335 62.603 83.4735 62.707 83.1702 62.707ZM82.3252 70V63.63H84.0282V70H82.3252Z" fill="black"/>
<path d="M88.538 63.422C89.032 63.422 89.4826 63.5087 89.89 63.682C90.306 63.8467 90.6613 64.0807 90.956 64.384C91.2593 64.6787 91.4933 65.034 91.658 65.45C91.8313 65.866 91.918 66.321 91.918 66.815C91.918 67.309 91.8313 67.764 91.658 68.18C91.4933 68.596 91.2593 68.9557 90.956 69.259C90.6613 69.5537 90.306 69.7877 89.89 69.961C89.4826 70.1257 89.032 70.208 88.538 70.208C88.044 70.208 87.589 70.1257 87.173 69.961C86.7656 69.7877 86.4103 69.5537 86.107 69.259C85.8123 68.9557 85.5783 68.596 85.405 68.18C85.2403 67.764 85.158 67.309 85.158 66.815C85.158 66.321 85.2403 65.866 85.405 65.45C85.5783 65.034 85.8123 64.6787 86.107 64.384C86.4103 64.0807 86.7656 63.8467 87.173 63.682C87.589 63.5087 88.044 63.422 88.538 63.422ZM88.538 68.635C88.7546 68.635 88.9626 68.596 89.162 68.518C89.37 68.4313 89.552 68.31 89.708 68.154C89.864 67.998 89.9853 67.8073 90.072 67.582C90.1673 67.3567 90.215 67.101 90.215 66.815C90.215 66.529 90.1673 66.2733 90.072 66.048C89.9853 65.8227 89.864 65.632 89.708 65.476C89.552 65.32 89.37 65.203 89.162 65.125C88.9626 65.0383 88.7546 64.995 88.538 64.995C88.3126 64.995 88.1003 65.0383 87.901 65.125C87.7016 65.203 87.524 65.32 87.368 65.476C87.212 65.632 87.0863 65.8227 86.991 66.048C86.9043 66.2733 86.861 66.529 86.861 66.815C86.861 67.101 86.9043 67.3567 86.991 67.582C87.0863 67.8073 87.212 67.998 87.368 68.154C87.524 68.31 87.7016 68.4313 87.901 68.518C88.1003 68.596 88.3126 68.635 88.538 68.635Z" fill="black"/>
<path d="M94.4843 64.462H94.5883C94.7876 64.1413 95.0563 63.89 95.3943 63.708C95.7323 63.5173 96.1179 63.422 96.5513 63.422C96.9499 63.422 97.3009 63.487 97.6043 63.617C97.9076 63.747 98.1546 63.9333 98.3453 64.176C98.5446 64.41 98.6919 64.696 98.7873 65.034C98.8913 65.3633 98.9433 65.7317 98.9433 66.139V70H97.2403V66.347C97.2403 65.8877 97.1363 65.5497 96.9283 65.333C96.7289 65.1077 96.4343 64.995 96.0443 64.995C95.8103 64.995 95.6023 65.047 95.4203 65.151C95.2469 65.2463 95.0953 65.3807 94.9653 65.554C94.8439 65.7187 94.7486 65.918 94.6793 66.152C94.6186 66.3773 94.5883 66.62 94.5883 66.88V70H92.8853V63.63H94.4843V64.462Z" fill="black"/>
<path d="M53.1157 76.692H54.8707V80.41H58.7837V76.692H60.5387V86H58.7837V82.074H54.8707V86H53.1157V76.692Z" fill="black"/>
<path d="M68.2327 84.466C67.938 84.986 67.5394 85.4063 67.0367 85.727C66.5427 86.0477 65.936 86.208 65.2167 86.208C64.7314 86.208 64.2807 86.1257 63.8647 85.961C63.4574 85.7877 63.102 85.5493 62.7987 85.246C62.4954 84.9427 62.257 84.5873 62.0837 84.18C61.919 83.764 61.8367 83.309 61.8367 82.815C61.8367 82.3557 61.919 81.9223 62.0837 81.515C62.2484 81.099 62.478 80.7393 62.7727 80.436C63.0674 80.124 63.414 79.877 63.8127 79.695C64.22 79.513 64.6664 79.422 65.1517 79.422C65.663 79.422 66.118 79.5087 66.5167 79.682C66.9154 79.8467 67.249 80.0807 67.5177 80.384C67.7864 80.6787 67.99 81.0297 68.1287 81.437C68.2674 81.8443 68.3367 82.2863 68.3367 82.763C68.3367 82.8237 68.3367 82.8757 68.3367 82.919C68.328 82.971 68.3237 83.0187 68.3237 83.062C68.315 83.1053 68.3107 83.153 68.3107 83.205H63.5137C63.5484 83.465 63.6177 83.6903 63.7217 83.881C63.8344 84.063 63.9687 84.219 64.1247 84.349C64.2894 84.4703 64.467 84.5613 64.6577 84.622C64.8484 84.674 65.0434 84.7 65.2427 84.7C65.6327 84.7 65.9534 84.6133 66.2047 84.44C66.4647 84.258 66.6684 84.0327 66.8157 83.764L68.2327 84.466ZM66.6857 81.996C66.677 81.8833 66.638 81.7577 66.5687 81.619C66.508 81.4803 66.4127 81.3503 66.2827 81.229C66.1614 81.1077 66.0054 81.008 65.8147 80.93C65.6327 80.852 65.4117 80.813 65.1517 80.813C64.7877 80.813 64.467 80.917 64.1897 81.125C63.9124 81.333 63.7174 81.6233 63.6047 81.996H66.6857Z" fill="black"/>
<path d="M69.4243 79.63H71.0233V80.514H71.1273C71.2053 80.358 71.3093 80.215 71.4393 80.085C71.5693 79.955 71.7123 79.8423 71.8683 79.747C72.033 79.6517 72.2063 79.578 72.3883 79.526C72.579 79.474 72.7653 79.448 72.9473 79.448C73.1727 79.448 73.3633 79.4697 73.5193 79.513C73.684 79.5563 73.8227 79.6127 73.9353 79.682L73.4803 81.229C73.3763 81.177 73.2593 81.138 73.1293 81.112C73.008 81.0773 72.8563 81.06 72.6743 81.06C72.4403 81.06 72.228 81.1077 72.0373 81.203C71.8467 81.2897 71.682 81.4153 71.5433 81.58C71.4133 81.7447 71.3093 81.9397 71.2313 82.165C71.162 82.3817 71.1273 82.62 71.1273 82.88V86H69.4243V79.63Z" fill="black"/>
<path d="M80.3567 84.466C80.062 84.986 79.6634 85.4063 79.1607 85.727C78.6667 86.0477 78.06 86.208 77.3407 86.208C76.8554 86.208 76.4047 86.1257 75.9887 85.961C75.5814 85.7877 75.226 85.5493 74.9227 85.246C74.6194 84.9427 74.381 84.5873 74.2077 84.18C74.043 83.764 73.9607 83.309 73.9607 82.815C73.9607 82.3557 74.043 81.9223 74.2077 81.515C74.3724 81.099 74.602 80.7393 74.8967 80.436C75.1914 80.124 75.538 79.877 75.9367 79.695C76.344 79.513 76.7904 79.422 77.2757 79.422C77.787 79.422 78.242 79.5087 78.6407 79.682C79.0394 79.8467 79.373 80.0807 79.6417 80.384C79.9104 80.6787 80.114 81.0297 80.2527 81.437C80.3914 81.8443 80.4607 82.2863 80.4607 82.763C80.4607 82.8237 80.4607 82.8757 80.4607 82.919C80.452 82.971 80.4477 83.0187 80.4477 83.062C80.439 83.1053 80.4347 83.153 80.4347 83.205H75.6377C75.6724 83.465 75.7417 83.6903 75.8457 83.881C75.9584 84.063 76.0927 84.219 76.2487 84.349C76.4134 84.4703 76.591 84.5613 76.7817 84.622C76.9724 84.674 77.1674 84.7 77.3667 84.7C77.7567 84.7 78.0774 84.6133 78.3287 84.44C78.5887 84.258 78.7924 84.0327 78.9397 83.764L80.3567 84.466ZM78.8097 81.996C78.801 81.8833 78.762 81.7577 78.6927 81.619C78.632 81.4803 78.5367 81.3503 78.4067 81.229C78.2854 81.1077 78.1294 81.008 77.9387 80.93C77.7567 80.852 77.5357 80.813 77.2757 80.813C76.9117 80.813 76.591 80.917 76.3137 81.125C76.0364 81.333 75.8414 81.6233 75.7287 81.996H78.8097Z" fill="black"/>
<defs>
<filter id="filter0_d_792_7140" x="0.983398" y="0.218079" width="130.282" height="140.929" filterUnits="userSpaceOnUse" color-interpolation-filters="sRGB">
<feFlood flood-opacity="0" result="BackgroundImageFix"/>
<feColorMatrix in="SourceAlpha" type="matrix" values="0 0 0 0 0 0 0 0 0 0 0 0 0 0 0 0 0 0 127 0" result="hardAlpha"/>
<feOffset dy="6"/>
<feGaussianBlur stdDeviation="10"/>
<feColorMatrix type="matrix" values="0 0 0 0 0.0561006 0 0 0 0 0.153723 0 0 0 0 0.237399 0 0 0 0.15 0"/>
<feBlend mode="normal" in2="BackgroundImageFix" result="effect1_dropShadow_792_7140"/>
<feBlend mode="normal" in="SourceGraphic" in2="effect1_dropShadow_792_7140" result="shape"/>
</filter>
</defs>
</svg>
