<svg width="135" height="146" viewBox="0 0 135 146" fill="none" xmlns="http://www.w3.org/2000/svg">
<g filter="url(#filter0_d_516_7732)">
<path d="M63.3946 15.3413C65.8568 13.9318 68.8814 13.9318 71.3436 15.3413L110.525 37.771C113.015 39.1961 114.55 41.8452 114.55 44.7138V89.4557C114.55 92.3243 113.015 94.9734 110.525 96.3985L71.3436 118.828C68.8814 120.238 65.8568 120.238 63.3946 118.828L24.2132 96.3985C21.7236 94.9734 20.1877 92.3243 20.1877 89.4557L20.1877 44.7138C20.1877 41.8452 21.7236 39.1961 24.2132 37.771L63.3946 15.3413Z" fill="white"/>
</g>
<path d="M94.7913 63.5829H78.6094L89.9803 52.3021C89.1054 51.0007 88.2306 50.1329 87.3558 48.8306C86.0972 47.9281 84.926 46.9114 83.8574 45.7935L72.4883 57.075V41.4558C71.0603 41.0972 69.5864 40.9511 68.1151 41.0223C66.6427 40.9281 65.1647 41.0745 63.7402 41.4558V57.5094L51.9324 45.7952C50.5746 46.5672 49.3852 47.5993 48.4331 48.8315C47.5583 50.1329 46.2465 51.0007 45.3717 52.303L56.7417 63.5829H40.9985L40.5615 67.9214C40.4668 69.3816 40.6144 70.8472 40.9985 72.2599H57.1812L45.3734 83.9742C47.1012 86.5553 49.3315 88.7679 51.9332 90.482L63.3041 79.2013V95.2558C64.7321 95.6144 66.2059 95.7605 67.6773 95.6893C69.1491 95.7833 70.6265 95.6368 72.0505 95.2558V79.203L83.4205 90.4846C84.7779 89.7122 85.9671 88.6798 86.9188 87.4474C88.0457 86.3873 89.0706 85.2254 89.9803 83.9767L78.6094 72.6943H94.7913C95.1531 71.2776 95.3006 69.8155 95.2291 68.3558C95.3218 66.7521 95.1745 65.1437 94.7922 63.5829H94.7913ZM74.6732 67.9214C74.6297 69.8314 74.3356 71.7276 73.7984 73.5622C71.9911 74.2652 70.0492 74.5616 68.1125 74.4301C66.1873 74.387 64.2759 74.0952 62.4267 73.5622C61.718 71.7693 61.4192 69.8427 61.5519 67.9214C61.5953 66.0114 61.8894 64.1152 62.4267 62.2806C64.2339 61.5776 66.1759 61.2812 68.1125 61.4127C70.0377 61.4558 71.9491 61.7476 73.7984 62.2806C74.3028 64.1223 74.5963 66.0145 74.6732 67.9214Z" fill="#FF4A00"/>
<defs>
<filter id="filter0_d_516_7732" x="0.187744" y="0.284119" width="134.363" height="145.601" filterUnits="userSpaceOnUse" color-interpolation-filters="sRGB">
<feFlood flood-opacity="0" result="BackgroundImageFix"/>
<feColorMatrix in="SourceAlpha" type="matrix" values="0 0 0 0 0 0 0 0 0 0 0 0 0 0 0 0 0 0 127 0" result="hardAlpha"/>
<feOffset dy="6"/>
<feGaussianBlur stdDeviation="10"/>
<feColorMatrix type="matrix" values="0 0 0 0 0.12549 0 0 0 0 0.152941 0 0 0 0 0.176471 0 0 0 0.15 0"/>
<feBlend mode="normal" in2="BackgroundImageFix" result="effect1_dropShadow_516_7732"/>
<feBlend mode="normal" in="SourceGraphic" in2="effect1_dropShadow_516_7732" result="shape"/>
</filter>
</defs>
</svg>
