<svg width="136" height="147" viewBox="0 0 136 147" fill="none" xmlns="http://www.w3.org/2000/svg">
<g filter="url(#filter0_d_516_7463)">
<path d="M64.3548 15.5217C66.817 14.1122 69.8416 14.1122 72.3038 15.5217L111.808 38.1362C114.298 39.5614 115.834 42.2105 115.834 45.0791V90.1906C115.834 93.0593 114.298 95.7083 111.808 97.1335L72.3038 119.748C69.8416 121.158 66.817 121.158 64.3548 119.748L24.8505 97.1335C22.3609 95.7083 20.825 93.0593 20.825 90.1906L20.825 45.0791C20.825 42.2105 22.361 39.5614 24.8505 38.1362L64.3548 15.5217Z" fill="white"/>
</g>
<path d="M102.865 60.3801V76.8227L100.618 79.0439V62.9535L102.865 60.3801Z" fill="#E79225"/>
<path d="M87.9426 60.3938L85.5842 62.9808L85.7062 63.1451L100.494 63.0903L100.629 62.9808L102.866 60.3801L87.9426 60.3938Z" fill="#FFF16D"/>
<path d="M85.5842 62.7994H100.619V79.0438H85.5842V62.7994Z" fill="url(#paint0_linear_516_7463)"/>
<path d="M98.4391 68.8016C98.138 68.0504 97.6862 67.3675 97.0975 66.7802C96.5362 66.2066 95.9065 65.7695 95.1946 65.4827C94.4964 65.1959 93.7434 65.0457 92.922 65.0457C92.1006 65.0457 91.334 65.1959 90.6358 65.4827C89.9239 65.7695 89.2941 66.2066 88.7328 66.7802C88.1442 67.3675 87.7061 68.0504 87.4049 68.8016C87.1037 69.5528 86.9668 70.3723 86.9668 71.2738C86.9668 72.1479 87.1174 72.9674 87.4186 73.7322C87.7178 74.4977 88.1696 75.1946 88.7465 75.7809C89.2941 76.3409 89.9239 76.7643 90.6221 77.0512C91.3203 77.338 92.1006 77.4882 92.9357 77.4882C93.7434 77.4882 94.4964 77.338 95.1946 77.0512C95.8928 76.7643 96.5362 76.3409 97.0975 75.7809C97.6862 75.18 98.138 74.4971 98.4391 73.7459C98.7403 72.9947 98.8909 72.1615 98.8909 71.2874C98.8909 70.3723 98.7403 69.5528 98.4391 68.8016ZM95.3041 74.1556C94.7154 74.8522 93.9351 75.2073 92.922 75.2073C91.9089 75.2073 91.1149 74.8522 90.5262 74.1556C89.9376 73.4591 89.6501 72.4893 89.6501 71.2601C89.6501 70.0036 89.9512 69.0338 90.5262 68.3236C91.1149 67.6134 91.8953 67.2719 92.922 67.2719C93.9351 67.2719 94.7154 67.627 95.3041 68.3236C95.8791 69.0338 96.1803 70.0036 96.1803 71.2601C96.1803 72.4893 95.8928 73.4591 95.3041 74.1556Z" fill="white"/>
<path d="M83.987 58.9973V59.0785L85.9297 73.8548L84.7942 76.9698L84.6437 76.8615L82.6462 62.6947L82.6873 62.5051L83.9323 59.0785L83.987 58.9973Z" fill="#009ADA"/>
<path d="M69.1117 61.0937L84.0281 58.9973L82.7725 62.6109L82.5951 62.804L68.6477 64.8729L68.7159 62.2937L69.1117 61.0937Z" fill="#91C9ED"/>
<path d="M82.8426 62.4534L84.8926 76.9834L70.271 79.0435L68.3025 65.0047L69.1578 64.3362L82.8426 62.4534Z" fill="url(#paint1_linear_516_7463)"/>
<path d="M80.2952 65.2942C80.2277 64.8477 80.079 64.5095 79.8357 64.2795C79.633 64.1036 79.3897 64.0089 79.1059 64.0089C79.0383 64.0089 78.9573 64.0089 78.8762 64.0224C78.4977 64.0765 78.2139 64.2524 78.0382 64.5365C77.9031 64.7395 77.849 64.9966 77.849 65.2942C77.849 65.4025 77.8625 65.5243 77.8761 65.646L78.4031 69.394L74.2135 70.0164L73.6864 66.2684C73.6189 65.8355 73.4702 65.4972 73.2269 65.2672C73.0242 65.0778 72.7809 64.983 72.5106 64.983C72.4431 64.983 72.3755 64.983 72.3079 64.9966C71.916 65.0507 71.6187 65.2266 71.4294 65.5107C71.2943 65.7137 71.2402 65.9708 71.2402 66.2684C71.2402 66.3767 71.2537 66.4985 71.2673 66.6338L72.6998 76.3892C72.7674 76.8357 72.9161 77.174 73.1864 77.404C73.3891 77.5799 73.6324 77.6611 73.9297 77.6611C74.0108 77.6611 74.0919 77.6611 74.173 77.6476C74.5379 77.5934 74.8082 77.4175 74.9839 77.1334C75.1055 76.9305 75.1596 76.6869 75.1596 76.4028C75.1596 76.2945 75.146 76.1727 75.1325 76.051L74.5514 72.1948L78.741 71.5724L79.3222 75.4286C79.3897 75.8751 79.5384 76.2133 79.7952 76.4298C79.9979 76.6057 80.2412 76.7004 80.525 76.7004C80.5926 76.7004 80.6736 76.7004 80.7547 76.6869C81.1332 76.6328 81.417 76.4569 81.5927 76.1727C81.7143 75.9698 81.7819 75.7262 81.7819 75.4286C81.7819 75.3203 81.7684 75.1986 81.7548 75.0768L80.2952 65.2942Z" fill="white"/>
<path d="M55.3018 55.1955L49.9839 67.8018L50.7084 73.3409L50.7495 73.3273L56.7236 59.916L56.6963 59.6295L55.4112 55.3729L55.3018 55.1955Z" fill="#66BF6B"/>
<path d="M55.3411 55.1955L56.741 59.8897L69.8166 65.7371L69.8574 65.71L68.7428 61.3142L55.3411 55.1955Z" fill="#98D0A0"/>
<path d="M56.6461 59.8614L69.8578 65.7751L63.8873 79.2165L50.6755 73.3028L56.6461 59.8614Z" fill="url(#paint2_linear_516_7463)"/>
<path d="M65.8466 66.8749C65.5614 66.1098 65.1676 65.454 64.6515 64.9075C64.1355 64.361 63.5108 63.9238 62.7775 63.6095C62.0442 63.2953 61.3109 63.145 60.564 63.145H60.5233C59.7628 63.145 59.0159 63.3226 58.2826 63.6505C57.5086 63.9921 56.8431 64.4566 56.2728 65.0714C55.7024 65.6726 55.2407 66.4104 54.8876 67.2575C54.5346 68.0909 54.3445 68.938 54.3037 69.7714V70.0583C54.3037 70.7961 54.4259 71.5202 54.6839 72.2307C54.9555 72.9821 55.3494 73.6242 55.8654 74.1708C56.3814 74.7173 57.0197 75.1545 57.7801 75.4687C58.4999 75.7829 59.2332 75.9332 59.9801 75.9332H59.9937C60.7406 75.9332 61.4874 75.7693 62.2208 75.455C62.9948 75.1135 63.6738 74.6353 64.2441 74.0205C64.8145 73.4193 65.2898 72.6952 65.6429 71.8481C65.9959 71.001 66.1861 70.1676 66.2268 69.3342V69.0883C66.2404 68.3368 66.1182 67.599 65.8466 66.8749ZM63.2257 70.8097C62.7368 71.9847 62.0714 72.7908 61.2702 73.228C60.8356 73.4603 60.3875 73.5833 59.9393 73.5833C59.5455 73.5833 59.1246 73.4876 58.7036 73.31C57.7801 72.9138 57.2098 72.2853 56.9654 71.3836C56.8839 71.083 56.8431 70.7688 56.8431 70.4409C56.8431 69.7851 57.0061 69.0609 57.332 68.2822C57.8345 67.0799 58.4999 66.2601 59.3011 65.8092C59.7356 65.5633 60.1838 65.454 60.6319 65.454C61.0393 65.454 61.4467 65.5496 61.8813 65.7273C62.7911 66.1235 63.3615 66.752 63.6059 67.6537C63.6874 67.9406 63.7281 68.2548 63.7281 68.5827C63.7281 69.2659 63.5652 70.0037 63.2257 70.8097Z" fill="white"/>
<path d="M48.9961 57.2692L51.1943 71.7171L50.1926 76.7971L50.0535 76.6195L47.9109 62.6632V62.3901L48.857 57.515L48.9961 57.2692Z" fill="#760D16"/>
<path d="M33.2214 64.7364L34.2435 59.6308L48.9474 57.2692L47.9526 62.4703V62.8116L33.3986 64.8729L33.2214 64.7364Z" fill="#EF463E"/>
<path d="M47.9855 62.4534L50.1571 76.7651L35.5706 79.0435L33.2214 64.7182L47.9855 62.4534Z" fill="url(#paint3_linear_516_7463)"/>
<path d="M46.4558 74.4485C46.347 74.312 46.1837 74.2164 45.9932 74.1482C45.8027 74.0799 45.5714 74.0526 45.2857 74.0526C45.0272 74.0526 44.7279 74.0799 44.4014 74.1345L40.5646 74.7898C40.6055 74.4895 40.7551 74.1072 41.0136 73.6294C41.2993 73.0969 41.7347 72.4552 42.2925 71.718C42.4382 71.5193 42.5879 71.3235 42.7415 71.1309C42.8095 71.0354 42.9184 70.9125 43.0544 70.735C43.9388 69.5745 44.4694 68.6325 44.6871 67.8953C44.8095 67.472 44.8776 67.0488 44.9048 66.6256C44.9184 66.5027 44.9184 66.3935 44.9184 66.2843C44.9184 65.9839 44.8912 65.6835 44.8368 65.3832C44.7959 65.1101 44.7279 64.8917 44.6327 64.7142C44.5374 64.5367 44.4286 64.4002 44.2925 64.3183C44.1429 64.2227 43.9116 64.1818 43.6259 64.1818C43.3946 64.1818 43.1089 64.2091 42.7687 64.2637L38.3333 65.0282C37.8027 65.1238 37.3946 65.274 37.1497 65.5197C36.9456 65.7109 36.8503 65.9566 36.8503 66.2297C36.8503 66.2979 36.8503 66.3798 36.8639 66.4617C36.932 66.844 37.1225 67.1171 37.4354 67.2536C37.6259 67.3355 37.8435 67.3765 38.1157 67.3765C38.2925 67.3765 38.4966 67.3628 38.7143 67.3219L42.415 66.6665C42.415 66.7348 42.4286 66.8031 42.4286 66.8577C42.4288 67.0907 42.3873 67.3219 42.3061 67.5403C42.1973 67.8543 41.9252 68.2912 41.4762 68.851L40.9048 69.5609C39.898 70.776 39.1905 71.8136 38.7551 72.6737C38.4422 73.2744 38.2381 73.8478 38.1157 74.4349C38.0476 74.7762 38.0068 75.0902 38.0068 75.4042C38.0068 75.6227 38.0204 75.8411 38.0612 76.0459C38.1157 76.3462 38.1837 76.592 38.2789 76.7831C38.3742 76.9743 38.5102 77.1244 38.6599 77.2064C38.8095 77.2883 39.0136 77.3156 39.3129 77.3156C39.6803 77.3156 40.1837 77.261 40.8231 77.1517L44.8504 76.4555C45.5578 76.3326 46.0612 76.1551 46.347 75.923C46.5783 75.7319 46.7007 75.4725 46.7007 75.1721C46.7007 75.0902 46.6871 75.0083 46.6735 74.9264C46.6463 74.7489 46.5783 74.5851 46.4558 74.4485Z" fill="white"/>
<defs>
<filter id="filter0_d_516_7463" x="0.824951" y="0.464539" width="135.009" height="146.341" filterUnits="userSpaceOnUse" color-interpolation-filters="sRGB">
<feFlood flood-opacity="0" result="BackgroundImageFix"/>
<feColorMatrix in="SourceAlpha" type="matrix" values="0 0 0 0 0 0 0 0 0 0 0 0 0 0 0 0 0 0 127 0" result="hardAlpha"/>
<feOffset dy="6"/>
<feGaussianBlur stdDeviation="10"/>
<feColorMatrix type="matrix" values="0 0 0 0 0.12549 0 0 0 0 0.152941 0 0 0 0 0.176471 0 0 0 0.15 0"/>
<feBlend mode="normal" in2="BackgroundImageFix" result="effect1_dropShadow_516_7463"/>
<feBlend mode="normal" in="SourceGraphic" in2="effect1_dropShadow_516_7463" result="shape"/>
</filter>
<linearGradient id="paint0_linear_516_7463" x1="93.1009" y1="63.0319" x2="93.1009" y2="78.5535" gradientUnits="userSpaceOnUse">
<stop offset="0.005618" stop-color="#FFE513"/>
<stop offset="1" stop-color="#FDB924"/>
</linearGradient>
<linearGradient id="paint1_linear_516_7463" x1="69.0511" y1="64.6921" x2="84.1747" y2="76.8974" gradientUnits="userSpaceOnUse">
<stop offset="0.005618" stop-color="#008CD2"/>
<stop offset="1" stop-color="#00649D"/>
</linearGradient>
<linearGradient id="paint2_linear_516_7463" x1="60.2669" y1="65.238" x2="60.2669" y2="78.7382" gradientUnits="userSpaceOnUse">
<stop stop-color="#26A146"/>
<stop offset="1" stop-color="#008A52"/>
</linearGradient>
<linearGradient id="paint3_linear_516_7463" x1="40.6281" y1="64.0953" x2="42.8749" y2="77.6408" gradientUnits="userSpaceOnUse">
<stop stop-color="#D92231"/>
<stop offset="1" stop-color="#BA2234"/>
</linearGradient>
</defs>
</svg>
