<svg width="405" height="453" viewBox="0 0 405 453" fill="none" xmlns="http://www.w3.org/2000/svg">
<line x1="272" y1="102" x2="230" y2="150" stroke="#42A4FF" stroke-width="2" stroke-linecap="round" stroke-dasharray="5 5">
    <animate attributeName="stroke-dashoffset" from="100" to="0" dur="5s" repeatCount="indefinite" />
</line>
<line x1="350" y1="200" x2="260" y2="200" stroke="#42A4FF" stroke-width="2" stroke-linecap="round" stroke-dasharray="5 5">
    <animate attributeName="stroke-dashoffset" from="100" to="0" dur="5s" repeatCount="indefinite" />
</line>
<line x1="290" y1="300" x2="200" y2="180" stroke="#42A4FF" stroke-width="2" stroke-linecap="round" stroke-dasharray="5 5">
    <animate attributeName="stroke-dashoffset" from="100" to="0" dur="5s" repeatCount="indefinite" />
</line> 
<line x1="199" y1="341" x2="199" y2="297" stroke="#42A4FF" stroke-width="2" stroke-linecap="round" stroke-dasharray="5 5">
    <animate attributeName="stroke-dashoffset" from="100" to="0" dur="5s" repeatCount="indefinite" />
</line> 
<line x1="55" y1="200" x2="260" y2="200" stroke="#42A4FF" stroke-width="2" stroke-linecap="round" stroke-dasharray="5 5">
    <animate attributeName="stroke-dashoffset" from="100" to="0" dur="5s" repeatCount="indefinite" />
</line>
<line x1="110" y1="305" x2="230" y2="150" stroke="#42A4FF" stroke-width="2" stroke-linecap="round" stroke-dasharray="5 5">
    <animate attributeName="stroke-dashoffset" from="100" to="0" dur="5s" repeatCount="indefinite" />
</line>
<line x1="130" y1="100" x2="190" y2="170" stroke="#42A4FF" stroke-width="2" stroke-linecap="round" stroke-dasharray="5 5">
    <animate attributeName="stroke-dashoffset" from="100" to="0" dur="5s" repeatCount="indefinite" />
</line>
<path d="M143 165C143 157.82 148.82 152 156 152H202.82C206.004 152 209.057 153.265 211.308 155.517L224.943 169.16L240.488 184.712C242.737 186.963 244 190.014 244 193.195V282C244 289.18 238.18 295 231 295H156C148.82 295 143 289.18 143 282V165Z" fill="white" stroke="#42A4FF" stroke-width="7"/>
<path d="M206 154V176C206 183.18 211.82 189 219 189H242" stroke="#42A4FF" stroke-width="7" stroke-linecap="round" stroke-linejoin="round"/>
<path d="M162 177H187" stroke="#42A4FF" stroke-width="7" stroke-linecap="round"/>
<path d="M162 196H194" stroke="#42A4FF" stroke-width="7" stroke-linecap="round"/>
<path d="M162 215H225" stroke="#42A4FF" stroke-width="7" stroke-linecap="round"/>
<path d="M162 234H225" stroke="#42A4FF" stroke-width="7" stroke-linecap="round"/>
<path d="M162 253H225" stroke="#42A4FF" stroke-width="7" stroke-linecap="round"/>
<path d="M162 272H225" stroke="#42A4FF" stroke-width="7" stroke-linecap="round"/>
<g filter="url(#filter0_d_712_7112)">
<path fill-rule="evenodd" clip-rule="evenodd" d="M145 14H107C102.582 14 99 17.5817 99 22V97C99 101.418 102.582 105 107 105H161C165.418 105 169 101.418 169 97V38H154C149.029 38 145 33.9706 145 29V14ZM169 34H154C151.239 34 149 31.7614 149 29V14L158.5 23.5L169 34Z" fill="white"/>
</g>
<path d="M124.405 58.326C124.405 59.2033 124.083 59.908 123.439 60.44C122.786 60.9627 121.992 61.224 121.059 61.224C120.228 61.224 119.496 60.9813 118.861 60.496C118.226 60.0107 117.788 59.348 117.545 58.508L118.777 58.004C118.861 58.3027 118.978 58.5733 119.127 58.816C119.276 59.0587 119.449 59.2687 119.645 59.446C119.85 59.614 120.074 59.7493 120.317 59.852C120.56 59.9453 120.816 59.992 121.087 59.992C121.675 59.992 122.156 59.8427 122.529 59.544C122.902 59.236 123.089 58.83 123.089 58.326C123.089 57.906 122.935 57.5467 122.627 57.248C122.338 56.9587 121.796 56.6787 121.003 56.408C120.2 56.1187 119.701 55.9227 119.505 55.82C118.441 55.2787 117.909 54.4807 117.909 53.426C117.909 52.6887 118.203 52.0587 118.791 51.536C119.388 51.0133 120.121 50.752 120.989 50.752C121.754 50.752 122.417 50.948 122.977 51.34C123.537 51.7227 123.91 52.2033 124.097 52.782L122.893 53.286C122.781 52.9127 122.557 52.6047 122.221 52.362C121.894 52.11 121.493 51.984 121.017 51.984C120.513 51.984 120.088 52.124 119.743 52.404C119.398 52.6653 119.225 53.006 119.225 53.426C119.225 53.7713 119.36 54.07 119.631 54.322C119.93 54.574 120.578 54.8727 121.577 55.218C122.594 55.5633 123.318 55.988 123.747 56.492C124.186 56.9867 124.405 57.598 124.405 58.326ZM128.092 61.112C127.532 61.112 127.065 60.9393 126.692 60.594C126.328 60.2487 126.141 59.768 126.132 59.152V55.316H124.928V54.14H126.132V52.04H127.42V54.14H129.1V55.316H127.42V58.732C127.42 59.1893 127.508 59.502 127.686 59.67C127.863 59.8287 128.064 59.908 128.288 59.908C128.39 59.908 128.488 59.8987 128.582 59.88C128.684 59.852 128.778 59.8193 128.862 59.782L129.268 60.93C128.932 61.0513 128.54 61.112 128.092 61.112ZM131.126 58.9C131.126 59.236 131.266 59.516 131.546 59.74C131.836 59.964 132.172 60.076 132.554 60.076C133.096 60.076 133.576 59.8753 133.996 59.474C134.426 59.0727 134.64 58.6013 134.64 58.06C134.239 57.7427 133.679 57.584 132.96 57.584C132.438 57.584 131.999 57.71 131.644 57.962C131.299 58.214 131.126 58.5267 131.126 58.9ZM132.792 53.916C133.744 53.916 134.496 54.1727 135.046 54.686C135.597 55.19 135.872 55.8853 135.872 56.772V61H134.64V60.048H134.584C134.052 60.832 133.343 61.224 132.456 61.224C131.7 61.224 131.066 61 130.552 60.552C130.048 60.104 129.796 59.544 129.796 58.872C129.796 58.1627 130.062 57.598 130.594 57.178C131.136 56.758 131.854 56.548 132.75 56.548C133.516 56.548 134.146 56.688 134.64 56.968V56.674C134.64 56.226 134.463 55.848 134.108 55.54C133.754 55.2227 133.338 55.064 132.862 55.064C132.144 55.064 131.574 55.3673 131.154 55.974L130.02 55.26C130.646 54.364 131.57 53.916 132.792 53.916ZM139.904 61.112C139.344 61.112 138.878 60.9393 138.504 60.594C138.14 60.2487 137.954 59.768 137.944 59.152V55.316H136.74V54.14H137.944V52.04H139.232V54.14H140.912V55.316H139.232V58.732C139.232 59.1893 139.321 59.502 139.498 59.67C139.676 59.8287 139.876 59.908 140.1 59.908C140.203 59.908 140.301 59.8987 140.394 59.88C140.497 59.852 140.59 59.8193 140.674 59.782L141.08 60.93C140.744 61.0513 140.352 61.112 139.904 61.112ZM145.149 61.224C144.141 61.224 143.31 60.8787 142.657 60.188C142.004 59.4973 141.677 58.6247 141.677 57.57C141.677 56.5247 141.994 55.6567 142.629 54.966C143.264 54.266 144.076 53.916 145.065 53.916C146.082 53.916 146.89 54.2473 147.487 54.91C148.094 55.5633 148.397 56.4827 148.397 57.668L148.383 57.808H142.993C143.012 58.48 143.236 59.0213 143.665 59.432C144.094 59.8427 144.608 60.048 145.205 60.048C146.026 60.048 146.67 59.6373 147.137 58.816L148.285 59.376C147.977 59.9547 147.548 60.4073 146.997 60.734C146.456 61.0607 145.84 61.224 145.149 61.224ZM143.091 56.744H147.025C146.988 56.268 146.792 55.876 146.437 55.568C146.092 55.2507 145.625 55.092 145.037 55.092C144.552 55.092 144.132 55.2413 143.777 55.54C143.432 55.8387 143.203 56.24 143.091 56.744ZM118.511 78V67.976H121.577C123.108 67.976 124.335 68.438 125.259 69.362C126.192 70.286 126.659 71.4947 126.659 72.988C126.659 74.4907 126.192 75.704 125.259 76.628C124.335 77.5427 123.108 78 121.577 78H118.511ZM119.799 69.208V76.768H121.577C122.744 76.768 123.663 76.4367 124.335 75.774C125.007 75.102 125.343 74.1733 125.343 72.988C125.343 71.812 125.007 70.888 124.335 70.216C123.663 69.544 122.744 69.208 121.577 69.208H119.799ZM127.37 74.57C127.37 73.5153 127.701 72.6427 128.364 71.952C129.036 71.2613 129.88 70.916 130.898 70.916C131.915 70.916 132.755 71.2613 133.418 71.952C134.09 72.6427 134.426 73.5153 134.426 74.57C134.426 75.634 134.09 76.5067 133.418 77.188C132.755 77.8787 131.915 78.224 130.898 78.224C129.88 78.224 129.036 77.8787 128.364 77.188C127.701 76.4973 127.37 75.6247 127.37 74.57ZM128.658 74.57C128.658 75.3073 128.872 75.9047 129.302 76.362C129.731 76.8193 130.263 77.048 130.898 77.048C131.532 77.048 132.064 76.8193 132.494 76.362C132.923 75.9047 133.138 75.3073 133.138 74.57C133.138 73.842 132.923 73.2493 132.494 72.792C132.055 72.3253 131.523 72.092 130.898 72.092C130.272 72.092 129.74 72.3253 129.302 72.792C128.872 73.2493 128.658 73.842 128.658 74.57ZM138.732 78.224C137.714 78.224 136.87 77.8787 136.198 77.188C135.535 76.4787 135.204 75.606 135.204 74.57C135.204 73.5153 135.535 72.6427 136.198 71.952C136.87 71.2613 137.714 70.916 138.732 70.916C139.432 70.916 140.043 71.0933 140.566 71.448C141.088 71.7933 141.48 72.274 141.742 72.89L140.566 73.38C140.202 72.5213 139.562 72.092 138.648 72.092C138.06 72.092 137.551 72.33 137.122 72.806C136.702 73.282 136.492 73.87 136.492 74.57C136.492 75.27 136.702 75.858 137.122 76.334C137.551 76.81 138.06 77.048 138.648 77.048C139.59 77.048 140.253 76.6187 140.636 75.76L141.784 76.25C141.532 76.866 141.135 77.3513 140.594 77.706C140.062 78.0513 139.441 78.224 138.732 78.224ZM148.16 76.096C148.16 76.6933 147.899 77.1973 147.376 77.608C146.853 78.0187 146.195 78.224 145.402 78.224C144.711 78.224 144.105 78.0467 143.582 77.692C143.059 77.328 142.686 76.852 142.462 76.264L143.61 75.774C143.778 76.1847 144.021 76.5067 144.338 76.74C144.665 76.964 145.019 77.076 145.402 77.076C145.813 77.076 146.153 76.9873 146.424 76.81C146.704 76.6327 146.844 76.4227 146.844 76.18C146.844 75.7413 146.508 75.4193 145.836 75.214L144.66 74.92C143.325 74.584 142.658 73.94 142.658 72.988C142.658 72.3627 142.91 71.8633 143.414 71.49C143.927 71.1073 144.581 70.916 145.374 70.916C145.981 70.916 146.527 71.0607 147.012 71.35C147.507 71.6393 147.852 72.0267 148.048 72.512L146.9 72.988C146.769 72.6987 146.555 72.4747 146.256 72.316C145.967 72.148 145.64 72.064 145.276 72.064C144.94 72.064 144.637 72.148 144.366 72.316C144.105 72.484 143.974 72.6893 143.974 72.932C143.974 73.324 144.343 73.604 145.08 73.772L146.116 74.038C147.479 74.374 148.16 75.06 148.16 76.096Z" fill="black"/>
<g filter="url(#filter1_d_712_7112)">
<path fill-rule="evenodd" clip-rule="evenodd" d="M283 14H245C240.582 14 237 17.5817 237 22V97C237 101.418 240.582 105 245 105H299C303.418 105 307 101.418 307 97V38H292C287.029 38 283 33.9706 283 29V14ZM307 34H292C289.239 34 287 31.7614 287 29V14L296.5 23.5L307 34Z" fill="white"/>
</g>
<path d="M259.926 58H258.914V50.124H259.926V58ZM261.338 52.61H262.306V53.358H262.35C262.504 53.094 262.738 52.874 263.054 52.698C263.376 52.522 263.71 52.434 264.055 52.434C264.715 52.434 265.221 52.6247 265.573 53.006C265.932 53.38 266.112 53.9153 266.112 54.612V58H265.1V54.678C265.078 53.798 264.634 53.358 263.769 53.358C263.365 53.358 263.028 53.523 262.757 53.853C262.485 54.1757 262.35 54.5643 262.35 55.019V58H261.338V52.61ZM271.371 56.504C271.371 56.9733 271.166 57.3693 270.755 57.692C270.344 58.0147 269.827 58.176 269.204 58.176C268.661 58.176 268.185 58.0367 267.774 57.758C267.363 57.472 267.07 57.098 266.894 56.636L267.796 56.251C267.928 56.5737 268.119 56.8267 268.368 57.01C268.625 57.186 268.903 57.274 269.204 57.274C269.527 57.274 269.794 57.2043 270.007 57.065C270.227 56.9257 270.337 56.7607 270.337 56.57C270.337 56.2253 270.073 55.9723 269.545 55.811L268.621 55.58C267.572 55.316 267.048 54.81 267.048 54.062C267.048 53.5707 267.246 53.1783 267.642 52.885C268.045 52.5843 268.559 52.434 269.182 52.434C269.659 52.434 270.088 52.5477 270.469 52.775C270.858 53.0023 271.129 53.3067 271.283 53.688L270.381 54.062C270.278 53.8347 270.11 53.6587 269.875 53.534C269.648 53.402 269.391 53.336 269.105 53.336C268.841 53.336 268.603 53.402 268.39 53.534C268.185 53.666 268.082 53.8273 268.082 54.018C268.082 54.326 268.372 54.546 268.951 54.678L269.765 54.887C270.836 55.151 271.371 55.69 271.371 56.504ZM274.332 58.088C273.892 58.088 273.525 57.9523 273.232 57.681C272.946 57.4097 272.799 57.032 272.792 56.548V53.534H271.846V52.61H272.792V50.96H273.804V52.61H275.124V53.534H273.804V56.218C273.804 56.5773 273.874 56.823 274.013 56.955C274.152 57.0797 274.31 57.142 274.486 57.142C274.567 57.142 274.644 57.1347 274.717 57.12C274.798 57.098 274.871 57.0723 274.937 57.043L275.256 57.945C274.992 58.0403 274.684 58.088 274.332 58.088ZM276.716 56.35C276.716 56.614 276.826 56.834 277.046 57.01C277.274 57.186 277.538 57.274 277.838 57.274C278.264 57.274 278.641 57.1163 278.971 56.801C279.309 56.4857 279.477 56.1153 279.477 55.69C279.162 55.4407 278.722 55.316 278.157 55.316C277.747 55.316 277.402 55.415 277.123 55.613C276.852 55.811 276.716 56.0567 276.716 56.35ZM278.025 52.434C278.773 52.434 279.364 52.6357 279.796 53.039C280.229 53.435 280.445 53.9813 280.445 54.678V58H279.477V57.252H279.433C279.015 57.868 278.458 58.176 277.761 58.176C277.167 58.176 276.669 58 276.265 57.648C275.869 57.296 275.671 56.856 275.671 56.328C275.671 55.7707 275.88 55.327 276.298 54.997C276.724 54.667 277.288 54.502 277.992 54.502C278.594 54.502 279.089 54.612 279.477 54.832V54.601C279.477 54.249 279.338 53.952 279.059 53.71C278.781 53.4607 278.454 53.336 278.08 53.336C277.516 53.336 277.068 53.5743 276.738 54.051L275.847 53.49C276.339 52.786 277.065 52.434 278.025 52.434ZM282.599 50.124V58H281.587V50.124H282.599ZM284.844 50.124V58H283.832V50.124H284.844ZM247.132 64.367L245.845 67.92H248.463L247.176 64.367H247.132ZM244.734 71H243.612L246.582 63.124H247.726L250.696 71H249.574L248.815 68.866H245.504L244.734 71ZM253.757 70.252C254.255 70.252 254.662 70.0723 254.978 69.713C255.308 69.3537 255.473 68.8843 255.473 68.305C255.473 67.7403 255.308 67.2747 254.978 66.908C254.655 66.5413 254.248 66.358 253.757 66.358C253.273 66.358 252.866 66.5413 252.536 66.908C252.206 67.2747 252.041 67.7403 252.041 68.305C252.041 68.877 252.206 69.3427 252.536 69.702C252.866 70.0687 253.273 70.252 253.757 70.252ZM253.724 73.552C253.423 73.552 253.141 73.5117 252.877 73.431C252.613 73.3577 252.371 73.2513 252.151 73.112C251.938 72.9727 251.755 72.8077 251.601 72.617C251.447 72.4263 251.329 72.2137 251.249 71.979L252.206 71.583C252.316 71.8983 252.506 72.1513 252.778 72.342C253.049 72.5327 253.364 72.628 253.724 72.628C254.274 72.628 254.703 72.463 255.011 72.133C255.319 71.803 255.473 71.3483 255.473 70.769V70.252H255.429C255.238 70.538 254.978 70.7653 254.648 70.934C254.325 71.0953 253.973 71.176 253.592 71.176C252.888 71.176 252.283 70.901 251.777 70.351C251.278 69.7863 251.029 69.1043 251.029 68.305C251.029 67.5057 251.278 66.8273 251.777 66.27C252.283 65.7127 252.888 65.434 253.592 65.434C253.973 65.434 254.325 65.5183 254.648 65.687C254.978 65.8483 255.238 66.072 255.429 66.358H255.473V65.61H256.441V70.769C256.441 71.6343 256.195 72.3127 255.704 72.804C255.205 73.3027 254.545 73.552 253.724 73.552ZM258.687 71H257.675V65.61H258.643V66.49H258.687C258.789 66.204 258.998 65.962 259.314 65.764C259.636 65.5587 259.952 65.456 260.26 65.456C260.553 65.456 260.802 65.5 261.008 65.588L260.7 66.567C260.575 66.5157 260.377 66.49 260.106 66.49C259.724 66.49 259.391 66.644 259.105 66.952C258.826 67.26 258.687 67.6193 258.687 68.03V71ZM263.758 71.176C262.966 71.176 262.313 70.9047 261.8 70.362C261.286 69.8193 261.03 69.1337 261.03 68.305C261.03 67.4837 261.279 66.8017 261.778 66.259C262.276 65.709 262.914 65.434 263.692 65.434C264.491 65.434 265.125 65.6943 265.595 66.215C266.071 66.7283 266.31 67.4507 266.31 68.382L266.299 68.492H262.064C262.078 69.02 262.254 69.4453 262.592 69.768C262.929 70.0907 263.332 70.252 263.802 70.252C264.447 70.252 264.953 69.9293 265.32 69.284L266.222 69.724C265.98 70.1787 265.642 70.5343 265.21 70.791C264.784 71.0477 264.3 71.176 263.758 71.176ZM262.141 67.656H265.232C265.202 67.282 265.048 66.974 264.77 66.732C264.498 66.4827 264.132 66.358 263.67 66.358C263.288 66.358 262.958 66.4753 262.68 66.71C262.408 66.9447 262.229 67.26 262.141 67.656ZM269.709 71.176C268.917 71.176 268.264 70.9047 267.751 70.362C267.238 69.8193 266.981 69.1337 266.981 68.305C266.981 67.4837 267.23 66.8017 267.729 66.259C268.228 65.709 268.866 65.434 269.643 65.434C270.442 65.434 271.077 65.6943 271.546 66.215C272.023 66.7283 272.261 67.4507 272.261 68.382L272.25 68.492H268.015C268.03 69.02 268.206 69.4453 268.543 69.768C268.88 70.0907 269.284 70.252 269.753 70.252C270.398 70.252 270.904 69.9293 271.271 69.284L272.173 69.724C271.931 70.1787 271.594 70.5343 271.161 70.791C270.736 71.0477 270.252 71.176 269.709 71.176ZM268.092 67.656H271.183C271.154 67.282 271 66.974 270.721 66.732C270.45 66.4827 270.083 66.358 269.621 66.358C269.24 66.358 268.91 66.4753 268.631 66.71C268.36 66.9447 268.18 67.26 268.092 67.656ZM274.198 71H273.186V65.61H274.154V66.358H274.198C274.352 66.094 274.587 65.874 274.902 65.698C275.225 65.522 275.544 65.434 275.859 65.434C276.255 65.434 276.604 65.5257 276.904 65.709C277.205 65.8923 277.425 66.1453 277.564 66.468C278.012 65.7787 278.631 65.434 279.423 65.434C280.047 65.434 280.527 65.6247 280.864 66.006C281.202 66.3873 281.37 66.93 281.37 67.634V71H280.358V67.788C280.358 67.282 280.267 66.919 280.083 66.699C279.9 66.4717 279.592 66.358 279.159 66.358C278.771 66.358 278.444 66.523 278.18 66.853C277.916 67.183 277.784 67.5717 277.784 68.019V71H276.772V67.788C276.772 67.282 276.681 66.919 276.497 66.699C276.314 66.4717 276.006 66.358 275.573 66.358C275.185 66.358 274.858 66.523 274.594 66.853C274.33 67.183 274.198 67.5717 274.198 68.019V71ZM284.974 71.176C284.182 71.176 283.529 70.9047 283.016 70.362C282.502 69.8193 282.246 69.1337 282.246 68.305C282.246 67.4837 282.495 66.8017 282.994 66.259C283.492 65.709 284.13 65.434 284.908 65.434C285.707 65.434 286.341 65.6943 286.811 66.215C287.287 66.7283 287.526 67.4507 287.526 68.382L287.515 68.492H283.28C283.294 69.02 283.47 69.4453 283.808 69.768C284.145 70.0907 284.548 70.252 285.018 70.252C285.663 70.252 286.169 69.9293 286.536 69.284L287.438 69.724C287.196 70.1787 286.858 70.5343 286.426 70.791C286 71.0477 285.516 71.176 284.974 71.176ZM283.357 67.656H286.448C286.418 67.282 286.264 66.974 285.986 66.732C285.714 66.4827 285.348 66.358 284.886 66.358C284.504 66.358 284.174 66.4753 283.896 66.71C283.624 66.9447 283.445 67.26 283.357 67.656ZM288.451 65.61H289.419V66.358H289.463C289.617 66.094 289.852 65.874 290.167 65.698C290.49 65.522 290.823 65.434 291.168 65.434C291.828 65.434 292.334 65.6247 292.686 66.006C293.045 66.38 293.225 66.9153 293.225 67.612V71H292.213V67.678C292.191 66.798 291.747 66.358 290.882 66.358C290.479 66.358 290.141 66.523 289.87 66.853C289.599 67.1757 289.463 67.5643 289.463 68.019V71H288.451V65.61ZM296.268 71.088C295.828 71.088 295.461 70.9523 295.168 70.681C294.882 70.4097 294.735 70.032 294.728 69.548V66.534H293.782V65.61H294.728V63.96H295.74V65.61H297.06V66.534H295.74V69.218C295.74 69.5773 295.809 69.823 295.949 69.955C296.088 70.0797 296.246 70.142 296.422 70.142C296.502 70.142 296.579 70.1347 296.653 70.12C296.733 70.098 296.807 70.0723 296.873 70.043L297.192 70.945C296.928 71.0403 296.62 71.088 296.268 71.088ZM302.255 69.504C302.255 69.9733 302.049 70.3693 301.639 70.692C301.228 71.0147 300.711 71.176 300.088 71.176C299.545 71.176 299.068 71.0367 298.658 70.758C298.247 70.472 297.954 70.098 297.778 69.636L298.68 69.251C298.812 69.5737 299.002 69.8267 299.252 70.01C299.508 70.186 299.787 70.274 300.088 70.274C300.41 70.274 300.678 70.2043 300.891 70.065C301.111 69.9257 301.221 69.7607 301.221 69.57C301.221 69.2253 300.957 68.9723 300.429 68.811L299.505 68.58C298.456 68.316 297.932 67.81 297.932 67.062C297.932 66.5707 298.13 66.1783 298.526 65.885C298.929 65.5843 299.442 65.434 300.066 65.434C300.542 65.434 300.971 65.5477 301.353 65.775C301.741 66.0023 302.013 66.3067 302.167 66.688L301.265 67.062C301.162 66.8347 300.993 66.6587 300.759 66.534C300.531 66.402 300.275 66.336 299.989 66.336C299.725 66.336 299.486 66.402 299.274 66.534C299.068 66.666 298.966 66.8273 298.966 67.018C298.966 67.326 299.255 67.546 299.835 67.678L300.649 67.887C301.719 68.151 302.255 68.69 302.255 69.504Z" fill="black"/>
<g filter="url(#filter2_d_712_7112)">
<path fill-rule="evenodd" clip-rule="evenodd" d="M214 336H176C171.582 336 168 339.582 168 344V419C168 423.418 171.582 427 176 427H230C234.418 427 238 423.418 238 419V360H223C218.029 360 214 355.971 214 351V336ZM238 356H223C220.239 356 218 353.761 218 351V336L227.5 345.5L238 356Z" fill="white"/>
</g>
<path d="M183.338 378.208V381.736H185.41C185.933 381.736 186.376 381.568 186.74 381.232C187.104 380.887 187.286 380.462 187.286 379.958C187.286 379.491 187.113 379.085 186.768 378.74C186.432 378.385 186.007 378.208 185.494 378.208H183.338ZM183.338 387H182.05V376.976H185.466C186.334 376.976 187.071 377.265 187.678 377.844C188.294 378.413 188.602 379.118 188.602 379.958C188.602 380.649 188.373 381.265 187.916 381.806C187.468 382.338 186.899 382.679 186.208 382.828L186.18 382.87L188.994 386.944V387H187.468L184.766 382.94H183.338V387ZM192.863 387.224C191.855 387.224 191.024 386.879 190.371 386.188C189.718 385.497 189.391 384.625 189.391 383.57C189.391 382.525 189.708 381.657 190.343 380.966C190.978 380.266 191.79 379.916 192.779 379.916C193.796 379.916 194.604 380.247 195.201 380.91C195.808 381.563 196.111 382.483 196.111 383.668L196.097 383.808H190.707C190.726 384.48 190.95 385.021 191.379 385.432C191.808 385.843 192.322 386.048 192.919 386.048C193.74 386.048 194.384 385.637 194.851 384.816L195.999 385.376C195.691 385.955 195.262 386.407 194.711 386.734C194.17 387.061 193.554 387.224 192.863 387.224ZM190.805 382.744H194.739C194.702 382.268 194.506 381.876 194.151 381.568C193.806 381.251 193.339 381.092 192.751 381.092C192.266 381.092 191.846 381.241 191.491 381.54C191.146 381.839 190.917 382.24 190.805 382.744ZM200.915 387.224C200.411 387.224 199.949 387.117 199.529 386.902C199.118 386.687 198.801 386.403 198.577 386.048H198.521V387H197.289V376.976H198.577V380.14L198.521 381.092H198.577C198.801 380.737 199.118 380.453 199.529 380.238C199.949 380.023 200.411 379.916 200.915 379.916C201.82 379.916 202.586 380.271 203.211 380.98C203.855 381.699 204.177 382.562 204.177 383.57C204.177 384.587 203.855 385.451 203.211 386.16C202.586 386.869 201.82 387.224 200.915 387.224ZM200.705 386.048C201.321 386.048 201.839 385.815 202.259 385.348C202.679 384.891 202.889 384.298 202.889 383.57C202.889 382.851 202.679 382.259 202.259 381.792C201.839 381.325 201.321 381.092 200.705 381.092C200.08 381.092 199.557 381.325 199.137 381.792C198.726 382.259 198.521 382.851 198.521 383.57C198.521 384.298 198.726 384.895 199.137 385.362C199.557 385.819 200.08 386.048 200.705 386.048ZM206.293 384.9C206.293 385.236 206.433 385.516 206.713 385.74C207.003 385.964 207.339 386.076 207.721 386.076C208.263 386.076 208.743 385.875 209.163 385.474C209.593 385.073 209.807 384.601 209.807 384.06C209.406 383.743 208.846 383.584 208.127 383.584C207.605 383.584 207.166 383.71 206.811 383.962C206.466 384.214 206.293 384.527 206.293 384.9ZM207.959 379.916C208.911 379.916 209.663 380.173 210.213 380.686C210.764 381.19 211.039 381.885 211.039 382.772V387H209.807V386.048H209.751C209.219 386.832 208.51 387.224 207.623 387.224C206.867 387.224 206.233 387 205.719 386.552C205.215 386.104 204.963 385.544 204.963 384.872C204.963 384.163 205.229 383.598 205.761 383.178C206.303 382.758 207.021 382.548 207.917 382.548C208.683 382.548 209.313 382.688 209.807 382.968V382.674C209.807 382.226 209.63 381.848 209.275 381.54C208.921 381.223 208.505 381.064 208.029 381.064C207.311 381.064 206.741 381.367 206.321 381.974L205.187 381.26C205.813 380.364 206.737 379.916 207.959 379.916ZM215.071 387.112C214.511 387.112 214.045 386.939 213.671 386.594C213.307 386.249 213.121 385.768 213.111 385.152V381.316H211.907V380.14H213.111V378.04H214.399V380.14H216.079V381.316H214.399V384.732C214.399 385.189 214.488 385.502 214.665 385.67C214.843 385.829 215.043 385.908 215.267 385.908C215.37 385.908 215.468 385.899 215.561 385.88C215.664 385.852 215.757 385.819 215.841 385.782L216.247 386.93C215.911 387.051 215.519 387.112 215.071 387.112ZM220.316 387.224C219.308 387.224 218.477 386.879 217.824 386.188C217.171 385.497 216.844 384.625 216.844 383.57C216.844 382.525 217.161 381.657 217.796 380.966C218.431 380.266 219.243 379.916 220.232 379.916C221.249 379.916 222.057 380.247 222.654 380.91C223.261 381.563 223.564 382.483 223.564 383.668L223.55 383.808H218.16C218.179 384.48 218.403 385.021 218.832 385.432C219.261 385.843 219.775 386.048 220.372 386.048C221.193 386.048 221.837 385.637 222.304 384.816L223.452 385.376C223.144 385.955 222.715 386.407 222.164 386.734C221.623 387.061 221.007 387.224 220.316 387.224ZM218.258 382.744H222.192C222.155 382.268 221.959 381.876 221.604 381.568C221.259 381.251 220.792 381.092 220.204 381.092C219.719 381.092 219.299 381.241 218.944 381.54C218.599 381.839 218.37 382.24 218.258 382.744ZM188.011 404V393.976H191.077C192.608 393.976 193.835 394.438 194.759 395.362C195.692 396.286 196.159 397.495 196.159 398.988C196.159 400.491 195.692 401.704 194.759 402.628C193.835 403.543 192.608 404 191.077 404H188.011ZM189.299 395.208V402.768H191.077C192.244 402.768 193.163 402.437 193.835 401.774C194.507 401.102 194.843 400.173 194.843 398.988C194.843 397.812 194.507 396.888 193.835 396.216C193.163 395.544 192.244 395.208 191.077 395.208H189.299ZM196.87 400.57C196.87 399.515 197.201 398.643 197.864 397.952C198.536 397.261 199.38 396.916 200.398 396.916C201.415 396.916 202.255 397.261 202.918 397.952C203.59 398.643 203.926 399.515 203.926 400.57C203.926 401.634 203.59 402.507 202.918 403.188C202.255 403.879 201.415 404.224 200.398 404.224C199.38 404.224 198.536 403.879 197.864 403.188C197.201 402.497 196.87 401.625 196.87 400.57ZM198.158 400.57C198.158 401.307 198.372 401.905 198.802 402.362C199.231 402.819 199.763 403.048 200.398 403.048C201.032 403.048 201.564 402.819 201.994 402.362C202.423 401.905 202.638 401.307 202.638 400.57C202.638 399.842 202.423 399.249 201.994 398.792C201.555 398.325 201.023 398.092 200.398 398.092C199.772 398.092 199.24 398.325 198.802 398.792C198.372 399.249 198.158 399.842 198.158 400.57ZM208.232 404.224C207.214 404.224 206.37 403.879 205.698 403.188C205.035 402.479 204.704 401.606 204.704 400.57C204.704 399.515 205.035 398.643 205.698 397.952C206.37 397.261 207.214 396.916 208.232 396.916C208.932 396.916 209.543 397.093 210.066 397.448C210.588 397.793 210.98 398.274 211.242 398.89L210.066 399.38C209.702 398.521 209.062 398.092 208.148 398.092C207.56 398.092 207.051 398.33 206.622 398.806C206.202 399.282 205.992 399.87 205.992 400.57C205.992 401.27 206.202 401.858 206.622 402.334C207.051 402.81 207.56 403.048 208.148 403.048C209.09 403.048 209.753 402.619 210.136 401.76L211.284 402.25C211.032 402.866 210.635 403.351 210.094 403.706C209.562 404.051 208.941 404.224 208.232 404.224ZM217.66 402.096C217.66 402.693 217.399 403.197 216.876 403.608C216.353 404.019 215.695 404.224 214.902 404.224C214.211 404.224 213.605 404.047 213.082 403.692C212.559 403.328 212.186 402.852 211.962 402.264L213.11 401.774C213.278 402.185 213.521 402.507 213.838 402.74C214.165 402.964 214.519 403.076 214.902 403.076C215.313 403.076 215.653 402.987 215.924 402.81C216.204 402.633 216.344 402.423 216.344 402.18C216.344 401.741 216.008 401.419 215.336 401.214L214.16 400.92C212.825 400.584 212.158 399.94 212.158 398.988C212.158 398.363 212.41 397.863 212.914 397.49C213.427 397.107 214.081 396.916 214.874 396.916C215.481 396.916 216.027 397.061 216.512 397.35C217.007 397.639 217.352 398.027 217.548 398.512L216.4 398.988C216.269 398.699 216.055 398.475 215.756 398.316C215.467 398.148 215.14 398.064 214.776 398.064C214.44 398.064 214.137 398.148 213.866 398.316C213.605 398.484 213.474 398.689 213.474 398.932C213.474 399.324 213.843 399.604 214.58 399.772L215.616 400.038C216.979 400.374 217.66 401.06 217.66 402.096Z" fill="black"/>
<g filter="url(#filter3_d_712_7112)">
<path fill-rule="evenodd" clip-rule="evenodd" d="M328 287H290C285.582 287 282 290.582 282 295V370C282 374.418 285.582 378 290 378H344C348.418 378 352 374.418 352 370V311H337C332.029 311 328 306.971 328 302V287ZM352 307H337C334.239 307 332 304.761 332 302V287L341.5 296.5L352 307Z" fill="white"/>
</g>
<path d="M302.321 335H301.033V324.976H302.321V329.274H307.333V324.976H308.621V335H307.333V330.478H302.321V335ZM320.308 329.988C320.308 331.472 319.814 332.713 318.824 333.712C317.826 334.72 316.603 335.224 315.156 335.224C313.7 335.224 312.478 334.72 311.488 333.712C310.499 332.713 310.004 331.472 310.004 329.988C310.004 328.504 310.499 327.263 311.488 326.264C312.478 325.256 313.7 324.752 315.156 324.752C316.612 324.752 317.835 325.261 318.824 326.278C319.814 327.277 320.308 328.513 320.308 329.988ZM311.32 329.988C311.32 331.145 311.684 332.102 312.412 332.858C313.15 333.614 314.064 333.992 315.156 333.992C316.248 333.992 317.158 333.614 317.886 332.858C318.624 332.111 318.992 331.155 318.992 329.988C318.992 328.821 318.624 327.865 317.886 327.118C317.158 326.362 316.248 325.984 315.156 325.984C314.064 325.984 313.15 326.362 312.412 327.118C311.684 327.874 311.32 328.831 311.32 329.988ZM325.195 326.558L323.557 331.08H326.889L325.251 326.558H325.195ZM322.143 335H320.715L324.495 324.976H325.951L329.731 335H328.303L327.337 332.284H323.123L322.143 335ZM302.011 352V341.976H305.077C306.608 341.976 307.835 342.438 308.759 343.362C309.692 344.286 310.159 345.495 310.159 346.988C310.159 348.491 309.692 349.704 308.759 350.628C307.835 351.543 306.608 352 305.077 352H302.011ZM303.299 343.208V350.768H305.077C306.244 350.768 307.163 350.437 307.835 349.774C308.507 349.102 308.843 348.173 308.843 346.988C308.843 345.812 308.507 344.888 307.835 344.216C307.163 343.544 306.244 343.208 305.077 343.208H303.299ZM310.87 348.57C310.87 347.515 311.201 346.643 311.864 345.952C312.536 345.261 313.38 344.916 314.398 344.916C315.415 344.916 316.255 345.261 316.918 345.952C317.59 346.643 317.926 347.515 317.926 348.57C317.926 349.634 317.59 350.507 316.918 351.188C316.255 351.879 315.415 352.224 314.398 352.224C313.38 352.224 312.536 351.879 311.864 351.188C311.201 350.497 310.87 349.625 310.87 348.57ZM312.158 348.57C312.158 349.307 312.372 349.905 312.802 350.362C313.231 350.819 313.763 351.048 314.398 351.048C315.032 351.048 315.564 350.819 315.994 350.362C316.423 349.905 316.638 349.307 316.638 348.57C316.638 347.842 316.423 347.249 315.994 346.792C315.555 346.325 315.023 346.092 314.398 346.092C313.772 346.092 313.24 346.325 312.802 346.792C312.372 347.249 312.158 347.842 312.158 348.57ZM322.232 352.224C321.214 352.224 320.37 351.879 319.698 351.188C319.035 350.479 318.704 349.606 318.704 348.57C318.704 347.515 319.035 346.643 319.698 345.952C320.37 345.261 321.214 344.916 322.232 344.916C322.932 344.916 323.543 345.093 324.066 345.448C324.588 345.793 324.98 346.274 325.242 346.89L324.066 347.38C323.702 346.521 323.062 346.092 322.148 346.092C321.56 346.092 321.051 346.33 320.622 346.806C320.202 347.282 319.992 347.87 319.992 348.57C319.992 349.27 320.202 349.858 320.622 350.334C321.051 350.81 321.56 351.048 322.148 351.048C323.09 351.048 323.753 350.619 324.136 349.76L325.284 350.25C325.032 350.866 324.635 351.351 324.094 351.706C323.562 352.051 322.941 352.224 322.232 352.224ZM331.66 350.096C331.66 350.693 331.399 351.197 330.876 351.608C330.353 352.019 329.695 352.224 328.902 352.224C328.211 352.224 327.605 352.047 327.082 351.692C326.559 351.328 326.186 350.852 325.962 350.264L327.11 349.774C327.278 350.185 327.521 350.507 327.838 350.74C328.165 350.964 328.519 351.076 328.902 351.076C329.313 351.076 329.653 350.987 329.924 350.81C330.204 350.633 330.344 350.423 330.344 350.18C330.344 349.741 330.008 349.419 329.336 349.214L328.16 348.92C326.825 348.584 326.158 347.94 326.158 346.988C326.158 346.363 326.41 345.863 326.914 345.49C327.427 345.107 328.081 344.916 328.874 344.916C329.481 344.916 330.027 345.061 330.512 345.35C331.007 345.639 331.352 346.027 331.548 346.512L330.4 346.988C330.269 346.699 330.055 346.475 329.756 346.316C329.467 346.148 329.14 346.064 328.776 346.064C328.44 346.064 328.137 346.148 327.866 346.316C327.605 346.484 327.474 346.689 327.474 346.932C327.474 347.324 327.843 347.604 328.58 347.772L329.616 348.038C330.979 348.374 331.66 349.06 331.66 350.096Z" fill="black"/>
<g filter="url(#filter4_d_712_7112)">
<path fill-rule="evenodd" clip-rule="evenodd" d="M100 287H62C57.5817 287 54 290.582 54 295V370C54 374.418 57.5817 378 62 378H116C120.418 378 124 374.418 124 370V311H109C104.029 311 100 306.971 100 302V287ZM124 307H109C106.239 307 104 304.761 104 302V287L113.5 296.5L124 307Z" fill="white"/>
</g>
<path d="M74.7808 327.558L73.1428 332.08H76.4748L74.8368 327.558H74.7808ZM71.7288 336H70.3008L74.0808 325.976H75.5368L79.3168 336H77.8888L76.9228 333.284H72.7088L71.7288 336ZM83.1433 335.048C83.778 335.048 84.296 334.819 84.6973 334.362C85.1173 333.905 85.3273 333.307 85.3273 332.57C85.3273 331.851 85.1173 331.259 84.6973 330.792C84.2866 330.325 83.7686 330.092 83.1433 330.092C82.5273 330.092 82.0093 330.325 81.5893 330.792C81.1693 331.259 80.9593 331.851 80.9593 332.57C80.9593 333.298 81.1693 333.891 81.5893 334.348C82.0093 334.815 82.5273 335.048 83.1433 335.048ZM82.9333 336.224C82.0373 336.224 81.2673 335.869 80.6233 335.16C79.9886 334.441 79.6713 333.578 79.6713 332.57C79.6713 331.562 79.9886 330.699 80.6233 329.98C81.2673 329.271 82.0373 328.916 82.9333 328.916C83.4373 328.916 83.8946 329.023 84.3053 329.238C84.7253 329.453 85.0473 329.737 85.2713 330.092H85.3273L85.2713 329.14V325.976H86.5593V336H85.3273V335.048H85.2713C85.0473 335.403 84.7253 335.687 84.3053 335.902C83.8946 336.117 83.4373 336.224 82.9333 336.224ZM91.1413 335.048C91.776 335.048 92.294 334.819 92.6953 334.362C93.1153 333.905 93.3253 333.307 93.3253 332.57C93.3253 331.851 93.1153 331.259 92.6953 330.792C92.2847 330.325 91.7667 330.092 91.1413 330.092C90.5253 330.092 90.0073 330.325 89.5873 330.792C89.1673 331.259 88.9573 331.851 88.9573 332.57C88.9573 333.298 89.1673 333.891 89.5873 334.348C90.0073 334.815 90.5253 335.048 91.1413 335.048ZM90.9313 336.224C90.0353 336.224 89.2653 335.869 88.6213 335.16C87.9867 334.441 87.6693 333.578 87.6693 332.57C87.6693 331.562 87.9867 330.699 88.6213 329.98C89.2653 329.271 90.0353 328.916 90.9313 328.916C91.4353 328.916 91.8927 329.023 92.3033 329.238C92.7233 329.453 93.0453 329.737 93.2693 330.092H93.3253L93.2693 329.14V325.976H94.5573V336H93.3253V335.048H93.2693C93.0453 335.403 92.7233 335.687 92.3033 335.902C91.8927 336.117 91.4353 336.224 90.9313 336.224ZM99.1394 336.224C98.1314 336.224 97.3007 335.879 96.6474 335.188C95.9941 334.497 95.6674 333.625 95.6674 332.57C95.6674 331.525 95.9847 330.657 96.6194 329.966C97.2541 329.266 98.0661 328.916 99.0554 328.916C100.073 328.916 100.88 329.247 101.477 329.91C102.084 330.563 102.387 331.483 102.387 332.668L102.373 332.808H96.9834C97.0021 333.48 97.2261 334.021 97.6554 334.432C98.0847 334.843 98.5981 335.048 99.1954 335.048C100.017 335.048 100.661 334.637 101.127 333.816L102.275 334.376C101.967 334.955 101.538 335.407 100.987 335.734C100.446 336.061 99.8301 336.224 99.1394 336.224ZM97.0814 331.744H101.015C100.978 331.268 100.782 330.876 100.427 330.568C100.082 330.251 99.6154 330.092 99.0274 330.092C98.5421 330.092 98.1221 330.241 97.7674 330.54C97.4221 330.839 97.1934 331.24 97.0814 331.744ZM104.853 336H103.565V329.14H104.797V330.26H104.853C104.984 329.896 105.25 329.588 105.651 329.336C106.062 329.075 106.463 328.944 106.855 328.944C107.229 328.944 107.546 329 107.807 329.112L107.415 330.358C107.257 330.293 107.005 330.26 106.659 330.26C106.174 330.26 105.749 330.456 105.385 330.848C105.031 331.24 104.853 331.697 104.853 332.22V336ZM74.5109 353V342.976H77.5769C79.1076 342.976 80.3349 343.438 81.2589 344.362C82.1923 345.286 82.6589 346.495 82.6589 347.988C82.6589 349.491 82.1923 350.704 81.2589 351.628C80.3349 352.543 79.1076 353 77.5769 353H74.5109ZM75.7989 344.208V351.768H77.5769C78.7436 351.768 79.6629 351.437 80.3349 350.774C81.0069 350.102 81.3429 349.173 81.3429 347.988C81.3429 346.812 81.0069 345.888 80.3349 345.216C79.6629 344.544 78.7436 344.208 77.5769 344.208H75.7989ZM83.3695 349.57C83.3695 348.515 83.7009 347.643 84.3635 346.952C85.0355 346.261 85.8802 345.916 86.8975 345.916C87.9149 345.916 88.7549 346.261 89.4175 346.952C90.0895 347.643 90.4255 348.515 90.4255 349.57C90.4255 350.634 90.0895 351.507 89.4175 352.188C88.7549 352.879 87.9149 353.224 86.8975 353.224C85.8802 353.224 85.0355 352.879 84.3635 352.188C83.7009 351.497 83.3695 350.625 83.3695 349.57ZM84.6575 349.57C84.6575 350.307 84.8722 350.905 85.3015 351.362C85.7309 351.819 86.2629 352.048 86.8975 352.048C87.5322 352.048 88.0642 351.819 88.4935 351.362C88.9229 350.905 89.1375 350.307 89.1375 349.57C89.1375 348.842 88.9229 348.249 88.4935 347.792C88.0549 347.325 87.5229 347.092 86.8975 347.092C86.2722 347.092 85.7402 347.325 85.3015 347.792C84.8722 348.249 84.6575 348.842 84.6575 349.57ZM94.7315 353.224C93.7142 353.224 92.8695 352.879 92.1975 352.188C91.5349 351.479 91.2035 350.606 91.2035 349.57C91.2035 348.515 91.5349 347.643 92.1975 346.952C92.8695 346.261 93.7142 345.916 94.7315 345.916C95.4315 345.916 96.0429 346.093 96.5655 346.448C97.0882 346.793 97.4802 347.274 97.7415 347.89L96.5655 348.38C96.2015 347.521 95.5622 347.092 94.6475 347.092C94.0595 347.092 93.5509 347.33 93.1215 347.806C92.7015 348.282 92.4915 348.87 92.4915 349.57C92.4915 350.27 92.7015 350.858 93.1215 351.334C93.5509 351.81 94.0595 352.048 94.6475 352.048C95.5902 352.048 96.2529 351.619 96.6355 350.76L97.7835 351.25C97.5315 351.866 97.1349 352.351 96.5935 352.706C96.0615 353.051 95.4409 353.224 94.7315 353.224ZM104.16 351.096C104.16 351.693 103.899 352.197 103.376 352.608C102.853 353.019 102.195 353.224 101.402 353.224C100.711 353.224 100.105 353.047 99.582 352.692C99.0593 352.328 98.686 351.852 98.462 351.264L99.61 350.774C99.778 351.185 100.021 351.507 100.338 351.74C100.665 351.964 101.019 352.076 101.402 352.076C101.813 352.076 102.153 351.987 102.424 351.81C102.704 351.633 102.844 351.423 102.844 351.18C102.844 350.741 102.508 350.419 101.836 350.214L100.66 349.92C99.3253 349.584 98.658 348.94 98.658 347.988C98.658 347.363 98.91 346.863 99.414 346.49C99.9273 346.107 100.581 345.916 101.374 345.916C101.981 345.916 102.527 346.061 103.012 346.35C103.507 346.639 103.852 347.027 104.048 347.512L102.9 347.988C102.769 347.699 102.555 347.475 102.256 347.316C101.967 347.148 101.64 347.064 101.276 347.064C100.94 347.064 100.637 347.148 100.366 347.316C100.105 347.484 99.974 347.689 99.974 347.932C99.974 348.324 100.343 348.604 101.08 348.772L102.116 349.038C103.479 349.374 104.16 350.06 104.16 351.096Z" fill="black"/>
<path d="M155 153C155 145.82 160.82 140 168 140H214.82C218.004 140 221.057 141.265 223.308 143.517L236.943 157.16L252.488 172.712C254.737 174.963 256 178.014 256 181.195V270C256 277.18 250.18 283 243 283H168C160.82 283 155 277.18 155 270V153Z" fill="white" stroke="#42A4FF" stroke-width="7"/>
<path d="M218 142V164C218 171.18 223.82 177 231 177H254" stroke="#42A4FF" stroke-width="7" stroke-linecap="round" stroke-linejoin="round"/>
<path d="M174 165H199" stroke="#42A4FF" stroke-width="7" stroke-linecap="round"/>
<path d="M174 184H206" stroke="#42A4FF" stroke-width="7" stroke-linecap="round"/>
<path d="M174 203H237" stroke="#42A4FF" stroke-width="7" stroke-linecap="round"/>
<path d="M174 222H237" stroke="#42A4FF" stroke-width="7" stroke-linecap="round"/>
<path d="M174 241H237" stroke="#42A4FF" stroke-width="7" stroke-linecap="round"/>
<path d="M174 260H237" stroke="#42A4FF" stroke-width="7" stroke-linecap="round"/>
<path d="M167 141C167 133.82 172.82 128 180 128H226.82C230.004 128 233.057 129.265 235.308 131.517L248.943 145.16L264.488 160.712C266.737 162.963 268 166.014 268 169.195V258C268 265.18 262.18 271 255 271H180C172.82 271 167 265.18 167 258V141Z" fill="white" stroke="#42A4FF" stroke-width="7"/>
<path d="M230 130V152C230 159.18 235.82 165 243 165H266" stroke="#42A4FF" stroke-width="7" stroke-linecap="round" stroke-linejoin="round"/>
<path d="M186 153H211" stroke="#42A4FF" stroke-width="7" stroke-linecap="round"/>
<path d="M186 172H218" stroke="#42A4FF" stroke-width="7" stroke-linecap="round"/>
<path d="M186 191H249" stroke="#42A4FF" stroke-width="7" stroke-linecap="round"/>
<path d="M186 210H249" stroke="#42A4FF" stroke-width="7" stroke-linecap="round"/>
<path d="M186 229H249" stroke="#42A4FF" stroke-width="7" stroke-linecap="round"/>
<path d="M186 248H249" stroke="#42A4FF" stroke-width="7" stroke-linecap="round"/>
<g filter="url(#filter5_d_712_7112)">
<path fill-rule="evenodd" clip-rule="evenodd" d="M361 150H323C318.582 150 315 153.582 315 158V233C315 237.418 318.582 241 323 241H377C381.418 241 385 237.418 385 233V174H370C365.029 174 361 169.971 361 165V150ZM385 170H370C367.239 170 365 167.761 365 165V150L374.5 159.5L385 170Z" fill="white"/>
</g>
<path d="M336.597 194.224C335.486 194.224 334.59 193.86 333.909 193.132C333.227 192.413 332.887 191.461 332.887 190.276V183.976H334.175V190.332C334.175 191.153 334.389 191.802 334.819 192.278C335.248 192.754 335.841 192.992 336.597 192.992C337.353 192.992 337.945 192.754 338.375 192.278C338.804 191.802 339.019 191.153 339.019 190.332V183.976H340.307V190.276C340.307 191.489 339.971 192.451 339.299 193.16C338.627 193.869 337.726 194.224 336.597 194.224ZM344.448 194.112C343.888 194.112 343.422 193.939 343.048 193.594C342.684 193.249 342.498 192.768 342.488 192.152V188.316H341.284V187.14H342.488V185.04H343.776V187.14H345.456V188.316H343.776V191.732C343.776 192.189 343.865 192.502 344.042 192.67C344.22 192.829 344.42 192.908 344.644 192.908C344.747 192.908 344.845 192.899 344.938 192.88C345.041 192.852 345.134 192.819 345.218 192.782L345.624 193.93C345.288 194.051 344.896 194.112 344.448 194.112ZM348.416 184.774C348.416 185.026 348.327 185.241 348.15 185.418C347.972 185.595 347.758 185.684 347.506 185.684C347.254 185.684 347.039 185.595 346.862 185.418C346.684 185.241 346.596 185.026 346.596 184.774C346.596 184.522 346.684 184.307 346.862 184.13C347.039 183.953 347.254 183.864 347.506 183.864C347.758 183.864 347.972 183.953 348.15 184.13C348.327 184.307 348.416 184.522 348.416 184.774ZM348.15 187.14V194H346.862V187.14H348.15ZM351.114 183.976V194H349.826V183.976H351.114ZM354.349 184.774C354.349 185.026 354.261 185.241 354.083 185.418C353.906 185.595 353.691 185.684 353.439 185.684C353.187 185.684 352.973 185.595 352.795 185.418C352.618 185.241 352.529 185.026 352.529 184.774C352.529 184.522 352.618 184.307 352.795 184.13C352.973 183.953 353.187 183.864 353.439 183.864C353.691 183.864 353.906 183.953 354.083 184.13C354.261 184.307 354.349 184.522 354.349 184.774ZM354.083 187.14V194H352.795V187.14H354.083ZM358.407 194.112C357.847 194.112 357.381 193.939 357.007 193.594C356.643 193.249 356.457 192.768 356.447 192.152V188.316H355.243V187.14H356.447V185.04H357.735V187.14H359.415V188.316H357.735V191.732C357.735 192.189 357.824 192.502 358.001 192.67C358.179 192.829 358.379 192.908 358.603 192.908C358.706 192.908 358.804 192.899 358.897 192.88C359 192.852 359.093 192.819 359.177 192.782L359.583 193.93C359.247 194.051 358.855 194.112 358.407 194.112ZM366.841 187.14L362.543 197.024H361.213L362.809 193.566L359.981 187.14H361.381L363.425 192.068H363.453L365.441 187.14H366.841ZM335.011 211V200.976H338.077C339.608 200.976 340.835 201.438 341.759 202.362C342.692 203.286 343.159 204.495 343.159 205.988C343.159 207.491 342.692 208.704 341.759 209.628C340.835 210.543 339.608 211 338.077 211H335.011ZM336.299 202.208V209.768H338.077C339.244 209.768 340.163 209.437 340.835 208.774C341.507 208.102 341.843 207.173 341.843 205.988C341.843 204.812 341.507 203.888 340.835 203.216C340.163 202.544 339.244 202.208 338.077 202.208H336.299ZM343.87 207.57C343.87 206.515 344.201 205.643 344.864 204.952C345.536 204.261 346.38 203.916 347.398 203.916C348.415 203.916 349.255 204.261 349.918 204.952C350.59 205.643 350.926 206.515 350.926 207.57C350.926 208.634 350.59 209.507 349.918 210.188C349.255 210.879 348.415 211.224 347.398 211.224C346.38 211.224 345.536 210.879 344.864 210.188C344.201 209.497 343.87 208.625 343.87 207.57ZM345.158 207.57C345.158 208.307 345.372 208.905 345.802 209.362C346.231 209.819 346.763 210.048 347.398 210.048C348.032 210.048 348.564 209.819 348.994 209.362C349.423 208.905 349.638 208.307 349.638 207.57C349.638 206.842 349.423 206.249 348.994 205.792C348.555 205.325 348.023 205.092 347.398 205.092C346.772 205.092 346.24 205.325 345.802 205.792C345.372 206.249 345.158 206.842 345.158 207.57ZM355.232 211.224C354.214 211.224 353.37 210.879 352.698 210.188C352.035 209.479 351.704 208.606 351.704 207.57C351.704 206.515 352.035 205.643 352.698 204.952C353.37 204.261 354.214 203.916 355.232 203.916C355.932 203.916 356.543 204.093 357.066 204.448C357.588 204.793 357.98 205.274 358.242 205.89L357.066 206.38C356.702 205.521 356.062 205.092 355.148 205.092C354.56 205.092 354.051 205.33 353.622 205.806C353.202 206.282 352.992 206.87 352.992 207.57C352.992 208.27 353.202 208.858 353.622 209.334C354.051 209.81 354.56 210.048 355.148 210.048C356.09 210.048 356.753 209.619 357.136 208.76L358.284 209.25C358.032 209.866 357.635 210.351 357.094 210.706C356.562 211.051 355.941 211.224 355.232 211.224ZM364.66 209.096C364.66 209.693 364.399 210.197 363.876 210.608C363.353 211.019 362.695 211.224 361.902 211.224C361.211 211.224 360.605 211.047 360.082 210.692C359.559 210.328 359.186 209.852 358.962 209.264L360.11 208.774C360.278 209.185 360.521 209.507 360.838 209.74C361.165 209.964 361.519 210.076 361.902 210.076C362.313 210.076 362.653 209.987 362.924 209.81C363.204 209.633 363.344 209.423 363.344 209.18C363.344 208.741 363.008 208.419 362.336 208.214L361.16 207.92C359.825 207.584 359.158 206.94 359.158 205.988C359.158 205.363 359.41 204.863 359.914 204.49C360.427 204.107 361.081 203.916 361.874 203.916C362.481 203.916 363.027 204.061 363.512 204.35C364.007 204.639 364.352 205.027 364.548 205.512L363.4 205.988C363.269 205.699 363.055 205.475 362.756 205.316C362.467 205.148 362.14 205.064 361.776 205.064C361.44 205.064 361.137 205.148 360.866 205.316C360.605 205.484 360.474 205.689 360.474 205.932C360.474 206.324 360.843 206.604 361.58 206.772L362.616 207.038C363.979 207.374 364.66 208.06 364.66 209.096Z" fill="black"/>
<g filter="url(#filter6_d_712_7112)">
<path fill-rule="evenodd" clip-rule="evenodd" d="M66 150H28C23.5817 150 20 153.582 20 158V233C20 237.418 23.5817 241 28 241H82C86.4183 241 90 237.418 90 233V174H75C70.0294 174 66 169.971 66 165V150ZM90 170H75C72.2386 170 70 167.761 70 165V150L79.5 159.5L90 170Z" fill="white"/>
</g>
<path d="M38.4699 188.976H39.8139L37.1399 199H35.8239L33.6679 192.392H33.6119L31.4559 199H30.1399L27.3539 188.976H28.6979L30.8119 196.858H30.8679L33.0379 190.32H34.2419L36.4119 196.858H36.4679L38.4699 188.976ZM41.1976 196.9C41.1976 197.236 41.3376 197.516 41.6176 197.74C41.9069 197.964 42.2429 198.076 42.6256 198.076C43.1669 198.076 43.6476 197.875 44.0676 197.474C44.4969 197.073 44.7116 196.601 44.7116 196.06C44.3103 195.743 43.7503 195.584 43.0316 195.584C42.5089 195.584 42.0703 195.71 41.7156 195.962C41.3703 196.214 41.1976 196.527 41.1976 196.9ZM42.8636 191.916C43.8156 191.916 44.5669 192.173 45.1176 192.686C45.6683 193.19 45.9436 193.885 45.9436 194.772V199H44.7116V198.048H44.6556C44.1236 198.832 43.4143 199.224 42.5276 199.224C41.7716 199.224 41.1369 199 40.6236 198.552C40.1196 198.104 39.8676 197.544 39.8676 196.872C39.8676 196.163 40.1336 195.598 40.6656 195.178C41.2069 194.758 41.9256 194.548 42.8216 194.548C43.5869 194.548 44.2169 194.688 44.7116 194.968V194.674C44.7116 194.226 44.5343 193.848 44.1796 193.54C43.8249 193.223 43.4096 193.064 42.9336 193.064C42.2149 193.064 41.6456 193.367 41.2256 193.974L40.0916 193.26C40.7169 192.364 41.6409 191.916 42.8636 191.916ZM48.6843 199H47.3963V192.14H48.6283V193.26H48.6843C48.815 192.896 49.081 192.588 49.4823 192.336C49.893 192.075 50.2943 191.944 50.6863 191.944C51.0596 191.944 51.377 192 51.6383 192.112L51.2463 193.358C51.0876 193.293 50.8356 193.26 50.4903 193.26C50.005 193.26 49.5803 193.456 49.2163 193.848C48.8616 194.24 48.6843 194.697 48.6843 195.22V199ZM53.7702 199H52.4822V192.14H53.7142V193.26H53.7702C53.9009 192.896 54.1669 192.588 54.5682 192.336C54.9789 192.075 55.3802 191.944 55.7722 191.944C56.1456 191.944 56.4629 192 56.7242 192.112L56.3322 193.358C56.1736 193.293 55.9216 193.26 55.5762 193.26C55.0909 193.26 54.6662 193.456 54.3022 193.848C53.9476 194.24 53.7702 194.697 53.7702 195.22V199ZM58.2327 196.9C58.2327 197.236 58.3727 197.516 58.6527 197.74C58.9421 197.964 59.2781 198.076 59.6607 198.076C60.2021 198.076 60.6827 197.875 61.1027 197.474C61.5321 197.073 61.7467 196.601 61.7467 196.06C61.3454 195.743 60.7854 195.584 60.0667 195.584C59.5441 195.584 59.1054 195.71 58.7507 195.962C58.4054 196.214 58.2327 196.527 58.2327 196.9ZM59.8987 191.916C60.8507 191.916 61.6021 192.173 62.1527 192.686C62.7034 193.19 62.9787 193.885 62.9787 194.772V199H61.7467V198.048H61.6907C61.1587 198.832 60.4494 199.224 59.5627 199.224C58.8067 199.224 58.1721 199 57.6587 198.552C57.1547 198.104 56.9027 197.544 56.9027 196.872C56.9027 196.163 57.1687 195.598 57.7007 195.178C58.2421 194.758 58.9607 194.548 59.8567 194.548C60.6221 194.548 61.2521 194.688 61.7467 194.968V194.674C61.7467 194.226 61.5694 193.848 61.2147 193.54C60.8601 193.223 60.4447 193.064 59.9687 193.064C59.2501 193.064 58.6807 193.367 58.2607 193.974L57.1267 193.26C57.7521 192.364 58.6761 191.916 59.8987 191.916ZM64.4315 192.14H65.6635V193.092H65.7195C65.9155 192.756 66.2141 192.476 66.6155 192.252C67.0261 192.028 67.4508 191.916 67.8895 191.916C68.7295 191.916 69.3735 192.159 69.8215 192.644C70.2788 193.12 70.5075 193.801 70.5075 194.688V199H69.2195V194.772C69.1915 193.652 68.6268 193.092 67.5255 193.092C67.0121 193.092 66.5828 193.302 66.2375 193.722C65.8921 194.133 65.7195 194.627 65.7195 195.206V199H64.4315V192.14ZM74.3799 199.112C73.8199 199.112 73.3532 198.939 72.9799 198.594C72.6159 198.249 72.4292 197.768 72.4199 197.152V193.316H71.2159V192.14H72.4199V190.04H73.7079V192.14H75.3879V193.316H73.7079V196.732C73.7079 197.189 73.7965 197.502 73.9739 197.67C74.1512 197.829 74.3519 197.908 74.5759 197.908C74.6785 197.908 74.7765 197.899 74.8699 197.88C74.9725 197.852 75.0659 197.819 75.1499 197.782L75.5559 198.93C75.2199 199.051 74.8279 199.112 74.3799 199.112ZM82.8135 192.14L78.5155 202.024H77.1855L78.7815 198.566L75.9535 192.14H77.3535L79.3975 197.068H79.4255L81.4135 192.14H82.8135ZM40.5109 216V205.976H43.5769C45.1076 205.976 46.3349 206.438 47.2589 207.362C48.1923 208.286 48.6589 209.495 48.6589 210.988C48.6589 212.491 48.1923 213.704 47.2589 214.628C46.3349 215.543 45.1076 216 43.5769 216H40.5109ZM41.7989 207.208V214.768H43.5769C44.7436 214.768 45.6629 214.437 46.3349 213.774C47.0069 213.102 47.3429 212.173 47.3429 210.988C47.3429 209.812 47.0069 208.888 46.3349 208.216C45.6629 207.544 44.7436 207.208 43.5769 207.208H41.7989ZM49.3695 212.57C49.3695 211.515 49.7009 210.643 50.3635 209.952C51.0355 209.261 51.8802 208.916 52.8975 208.916C53.9149 208.916 54.7549 209.261 55.4175 209.952C56.0895 210.643 56.4255 211.515 56.4255 212.57C56.4255 213.634 56.0895 214.507 55.4175 215.188C54.7549 215.879 53.9149 216.224 52.8975 216.224C51.8802 216.224 51.0355 215.879 50.3635 215.188C49.7009 214.497 49.3695 213.625 49.3695 212.57ZM50.6575 212.57C50.6575 213.307 50.8722 213.905 51.3015 214.362C51.7309 214.819 52.2629 215.048 52.8975 215.048C53.5322 215.048 54.0642 214.819 54.4935 214.362C54.9229 213.905 55.1375 213.307 55.1375 212.57C55.1375 211.842 54.9229 211.249 54.4935 210.792C54.0549 210.325 53.5229 210.092 52.8975 210.092C52.2722 210.092 51.7402 210.325 51.3015 210.792C50.8722 211.249 50.6575 211.842 50.6575 212.57ZM60.7315 216.224C59.7142 216.224 58.8695 215.879 58.1975 215.188C57.5349 214.479 57.2035 213.606 57.2035 212.57C57.2035 211.515 57.5349 210.643 58.1975 209.952C58.8695 209.261 59.7142 208.916 60.7315 208.916C61.4315 208.916 62.0429 209.093 62.5655 209.448C63.0882 209.793 63.4802 210.274 63.7415 210.89L62.5655 211.38C62.2015 210.521 61.5622 210.092 60.6475 210.092C60.0595 210.092 59.5509 210.33 59.1215 210.806C58.7015 211.282 58.4915 211.87 58.4915 212.57C58.4915 213.27 58.7015 213.858 59.1215 214.334C59.5509 214.81 60.0595 215.048 60.6475 215.048C61.5902 215.048 62.2529 214.619 62.6355 213.76L63.7835 214.25C63.5315 214.866 63.1349 215.351 62.5935 215.706C62.0615 216.051 61.4409 216.224 60.7315 216.224ZM70.16 214.096C70.16 214.693 69.8986 215.197 69.376 215.608C68.8533 216.019 68.1953 216.224 67.402 216.224C66.7113 216.224 66.1046 216.047 65.582 215.692C65.0593 215.328 64.686 214.852 64.462 214.264L65.61 213.774C65.778 214.185 66.0206 214.507 66.338 214.74C66.6646 214.964 67.0193 215.076 67.402 215.076C67.8126 215.076 68.1533 214.987 68.424 214.81C68.704 214.633 68.844 214.423 68.844 214.18C68.844 213.741 68.508 213.419 67.836 213.214L66.66 212.92C65.3253 212.584 64.658 211.94 64.658 210.988C64.658 210.363 64.91 209.863 65.414 209.49C65.9273 209.107 66.5806 208.916 67.374 208.916C67.9806 208.916 68.5266 209.061 69.012 209.35C69.5066 209.639 69.852 210.027 70.048 210.512L68.9 210.988C68.7693 210.699 68.5546 210.475 68.256 210.316C67.9666 210.148 67.64 210.064 67.276 210.064C66.94 210.064 66.6366 210.148 66.366 210.316C66.1046 210.484 65.974 210.689 65.974 210.932C65.974 211.324 66.3426 211.604 67.08 211.772L68.116 212.038C69.4786 212.374 70.16 213.06 70.16 214.096Z" fill="black"/>
<defs>
<filter id="filter0_d_712_7112" x="79" y="0" width="110" height="131" filterUnits="userSpaceOnUse" color-interpolation-filters="sRGB">
<feFlood flood-opacity="0" result="BackgroundImageFix"/>
<feColorMatrix in="SourceAlpha" type="matrix" values="0 0 0 0 0 0 0 0 0 0 0 0 0 0 0 0 0 0 127 0" result="hardAlpha"/>
<feOffset dy="6"/>
<feGaussianBlur stdDeviation="10"/>
<feColorMatrix type="matrix" values="0 0 0 0 0.0561006 0 0 0 0 0.153723 0 0 0 0 0.237399 0 0 0 0.15 0"/>
<feBlend mode="normal" in2="BackgroundImageFix" result="effect1_dropShadow_712_7112"/>
<feBlend mode="normal" in="SourceGraphic" in2="effect1_dropShadow_712_7112" result="shape"/>
</filter>
<filter id="filter1_d_712_7112" x="217" y="0" width="110" height="131" filterUnits="userSpaceOnUse" color-interpolation-filters="sRGB">
<feFlood flood-opacity="0" result="BackgroundImageFix"/>
<feColorMatrix in="SourceAlpha" type="matrix" values="0 0 0 0 0 0 0 0 0 0 0 0 0 0 0 0 0 0 127 0" result="hardAlpha"/>
<feOffset dy="6"/>
<feGaussianBlur stdDeviation="10"/>
<feColorMatrix type="matrix" values="0 0 0 0 0.0561006 0 0 0 0 0.153723 0 0 0 0 0.237399 0 0 0 0.15 0"/>
<feBlend mode="normal" in2="BackgroundImageFix" result="effect1_dropShadow_712_7112"/>
<feBlend mode="normal" in="SourceGraphic" in2="effect1_dropShadow_712_7112" result="shape"/>
</filter>
<filter id="filter2_d_712_7112" x="148" y="322" width="110" height="131" filterUnits="userSpaceOnUse" color-interpolation-filters="sRGB">
<feFlood flood-opacity="0" result="BackgroundImageFix"/>
<feColorMatrix in="SourceAlpha" type="matrix" values="0 0 0 0 0 0 0 0 0 0 0 0 0 0 0 0 0 0 127 0" result="hardAlpha"/>
<feOffset dy="6"/>
<feGaussianBlur stdDeviation="10"/>
<feColorMatrix type="matrix" values="0 0 0 0 0.0561006 0 0 0 0 0.153723 0 0 0 0 0.237399 0 0 0 0.15 0"/>
<feBlend mode="normal" in2="BackgroundImageFix" result="effect1_dropShadow_712_7112"/>
<feBlend mode="normal" in="SourceGraphic" in2="effect1_dropShadow_712_7112" result="shape"/>
</filter>
<filter id="filter3_d_712_7112" x="262" y="273" width="110" height="131" filterUnits="userSpaceOnUse" color-interpolation-filters="sRGB">
<feFlood flood-opacity="0" result="BackgroundImageFix"/>
<feColorMatrix in="SourceAlpha" type="matrix" values="0 0 0 0 0 0 0 0 0 0 0 0 0 0 0 0 0 0 127 0" result="hardAlpha"/>
<feOffset dy="6"/>
<feGaussianBlur stdDeviation="10"/>
<feColorMatrix type="matrix" values="0 0 0 0 0.0561006 0 0 0 0 0.153723 0 0 0 0 0.237399 0 0 0 0.15 0"/>
<feBlend mode="normal" in2="BackgroundImageFix" result="effect1_dropShadow_712_7112"/>
<feBlend mode="normal" in="SourceGraphic" in2="effect1_dropShadow_712_7112" result="shape"/>
</filter>
<filter id="filter4_d_712_7112" x="34" y="273" width="110" height="131" filterUnits="userSpaceOnUse" color-interpolation-filters="sRGB">
<feFlood flood-opacity="0" result="BackgroundImageFix"/>
<feColorMatrix in="SourceAlpha" type="matrix" values="0 0 0 0 0 0 0 0 0 0 0 0 0 0 0 0 0 0 127 0" result="hardAlpha"/>
<feOffset dy="6"/>
<feGaussianBlur stdDeviation="10"/>
<feColorMatrix type="matrix" values="0 0 0 0 0.0561006 0 0 0 0 0.153723 0 0 0 0 0.237399 0 0 0 0.15 0"/>
<feBlend mode="normal" in2="BackgroundImageFix" result="effect1_dropShadow_712_7112"/>
<feBlend mode="normal" in="SourceGraphic" in2="effect1_dropShadow_712_7112" result="shape"/>
</filter>
<filter id="filter5_d_712_7112" x="295" y="136" width="110" height="131" filterUnits="userSpaceOnUse" color-interpolation-filters="sRGB">
<feFlood flood-opacity="0" result="BackgroundImageFix"/>
<feColorMatrix in="SourceAlpha" type="matrix" values="0 0 0 0 0 0 0 0 0 0 0 0 0 0 0 0 0 0 127 0" result="hardAlpha"/>
<feOffset dy="6"/>
<feGaussianBlur stdDeviation="10"/>
<feColorMatrix type="matrix" values="0 0 0 0 0.0561006 0 0 0 0 0.153723 0 0 0 0 0.237399 0 0 0 0.15 0"/>
<feBlend mode="normal" in2="BackgroundImageFix" result="effect1_dropShadow_712_7112"/>
<feBlend mode="normal" in="SourceGraphic" in2="effect1_dropShadow_712_7112" result="shape"/>
</filter>
<filter id="filter6_d_712_7112" x="0" y="136" width="110" height="131" filterUnits="userSpaceOnUse" color-interpolation-filters="sRGB">
<feFlood flood-opacity="0" result="BackgroundImageFix"/>
<feColorMatrix in="SourceAlpha" type="matrix" values="0 0 0 0 0 0 0 0 0 0 0 0 0 0 0 0 0 0 127 0" result="hardAlpha"/>
<feOffset dy="6"/>
<feGaussianBlur stdDeviation="10"/>
<feColorMatrix type="matrix" values="0 0 0 0 0.0561006 0 0 0 0 0.153723 0 0 0 0 0.237399 0 0 0 0.15 0"/>
<feBlend mode="normal" in2="BackgroundImageFix" result="effect1_dropShadow_712_7112"/>
<feBlend mode="normal" in="SourceGraphic" in2="effect1_dropShadow_712_7112" result="shape"/>
</filter>
</defs>
</svg>
