<svg width="50" height="49" viewBox="0 0 50 49" fill="none" xmlns="http://www.w3.org/2000/svg">
<path fill-rule="evenodd" clip-rule="evenodd" d="M49.0628 47.8337L49.0628 24.292L21.9795 47.8337H49.0628ZM43.8545 42.8337L43.8545 35.542L35.5212 42.8337H43.8545Z" fill="url(#paint0_linear_3142_5279)"/>
<path fill-rule="evenodd" clip-rule="evenodd" d="M19.7484 20.5889L23.2839 24.1244L35.9528 11.4555L32.4173 7.92L19.7484 20.5889ZM33.7431 6.59418L37.2786 10.1297L38.7514 8.65691L35.2159 5.12137L33.7431 6.59418ZM40.0773 7.33108L41.8452 5.56308C42.0486 5.35969 42.0486 5.02991 41.8452 4.82651L39.0463 2.02755C38.8429 1.82415 38.5131 1.82415 38.3097 2.02755L36.5417 3.79555L40.0773 7.33108ZM18.4924 21.9846L21.8882 25.3804L17.9271 26.8033L17.0695 25.9457L18.4924 21.9846ZM14.3012 28.1058C14.2586 28.2246 14.2364 28.3428 14.2322 28.4579H11.0416C10.5239 28.4579 10.1041 28.8777 10.1041 29.3954C10.1041 29.9132 10.5239 30.3329 11.0416 30.3329H35.2083C35.7261 30.3329 36.1458 29.9132 36.1458 29.3954C36.1458 28.8777 35.7261 28.4579 35.2083 28.4579H18.8671L22.6304 27.1061C22.9629 26.9866 23.2648 26.7952 23.5146 26.5454L38.7891 11.2709H40.5208C42.4193 11.2709 43.9583 12.8099 43.9583 14.7084V27.4864L25.943 43.1459C25.9412 43.1459 25.9393 43.1459 25.9375 43.1459H25.8414L25.8333 43.1458H6.14583C3.78812 43.1458 1.87662 41.2353 1.875 38.878V38.872C1.87662 36.5147 3.78812 34.6042 6.14583 34.6042H7.08333C7.6011 34.6042 8.02083 34.1844 8.02083 33.6667V11.2709H26.4147L17.3274 20.3582C17.0776 20.608 16.8862 20.9099 16.7667 21.2424L14.3012 28.1058ZM23.786 45.0209L5.3125 45.0209C2.37849 45.0209 0 42.6424 0 39.7084V38.875V33.0417V27.2084V8.14583C0 4.29134 3.12468 1.16666 6.97917 1.16666H7.08333C7.6011 1.16666 8.02083 1.58639 8.02083 2.10416V9.39587H28.2897L36.9839 0.701723C37.9195 -0.233908 39.4365 -0.233908 40.3721 0.701723L43.1711 3.50069C44.1067 4.43632 44.1067 5.95328 43.1711 6.88891L40.6623 9.39771C43.5309 9.47268 45.8333 11.8216 45.8333 14.7084V25.8566L48.4483 23.5836C48.7255 23.3426 49.1179 23.2857 49.4521 23.4381C49.7863 23.5904 50.0008 23.9239 50.0008 24.2911L50.0009 47.8328C50.0009 48.0815 49.9021 48.3199 49.7263 48.4957C49.5505 48.6716 49.312 48.7703 49.0634 48.7703H21.98C21.5889 48.7703 21.2389 48.5275 21.1019 48.1611C20.9649 47.7948 21.0698 47.3819 21.365 47.1253L23.786 45.0209ZM6.14583 32.7292C4.4865 32.7292 2.98076 33.3868 1.875 34.4556L1.875 27.2084L1.875 8.14583C1.875 5.61066 3.72327 3.50717 6.14583 3.10935V32.7292ZM24.4876 46.8953H48.1259L48.1259 42.1038H46.9796C46.4618 42.1038 46.0421 41.6841 46.0421 41.1663C46.0421 40.6485 46.4618 40.2288 46.9796 40.2288H48.1259L48.1259 36.895H46.9796C46.4618 36.895 46.0421 36.4752 46.0421 35.9575C46.0421 35.4397 46.4618 35.02 46.9796 35.02H48.1258L48.1258 32.2076H46.9796C46.4618 32.2076 46.0421 31.7879 46.0421 31.2701C46.0421 30.7524 46.4618 30.3326 46.9796 30.3326H48.1258L48.1258 26.3482L24.4876 46.8953ZM44.2424 34.6874C44.5774 34.8394 44.7925 35.1733 44.7925 35.5411L44.7925 42.8328C44.7925 43.0815 44.6938 43.3199 44.5179 43.4957C44.3421 43.6716 44.1037 43.7703 43.855 43.7703H35.5217C35.1311 43.7703 34.7815 43.5282 34.6441 43.1626C34.5067 42.797 34.6104 42.3845 34.9043 42.1273L43.2377 34.8356C43.5145 34.5934 43.9074 34.5354 44.2424 34.6874ZM38.0168 41.8953H42.9175L42.9175 37.6072L38.0168 41.8953Z" fill="#15212B"/>
<defs>
<linearGradient id="paint0_linear_3142_5279" x1="36.4587" y1="34.0836" x2="45.6498" y2="48.0759" gradientUnits="userSpaceOnUse">
<stop stop-color="#42A4FF"/>
<stop offset="1" stop-color="white"/>
</linearGradient>
</defs>
</svg>
