<svg width="160" height="160" viewBox="0 0 160 160" fill="none" xmlns="http://www.w3.org/2000/svg">
<g filter="url(#filter0_d_662_7406)">
<circle cx="80" cy="74" r="60" fill="white"/>
</g>
<path d="M44.8523 80.1389L45.1896 78.6773L44.8523 80.1389ZM49.9995 81.3267L51.4629 80.9976C51.3364 80.435 50.8986 79.9948 50.3368 79.8651L49.9995 81.3267ZM54.1947 91.4307L55.4667 92.2257C55.7726 91.7362 55.7705 91.1146 55.4612 90.6271L54.1947 91.4307ZM51.4824 95.7703L52.7544 96.5653L51.4824 95.7703ZM51.9051 99.4816L52.9658 98.421L51.9051 99.4816ZM56.0993 103.676L55.0386 104.736L56.0993 103.676ZM59.8106 104.099L59.0156 102.827L59.0156 102.827L59.8106 104.099ZM64.1502 101.386L64.9538 100.12C64.4664 99.8104 63.8447 99.8083 63.3552 100.114L64.1502 101.386ZM74.1456 105.557L75.6084 105.225C75.4807 104.662 75.042 104.223 74.4798 104.094L74.1456 105.557ZM74.1504 105.578L72.6876 105.91L72.6888 105.915L74.1504 105.578ZM75.4419 111.175L73.9803 111.512V111.512L75.4419 111.175ZM81.3308 113.5L81.3308 115C82.1593 115 82.8308 114.328 82.8308 113.5L81.3308 113.5ZM81.3308 99.2273L82.8308 99.2273C82.8308 98.8294 82.6728 98.4479 82.3915 98.1666C82.1102 97.8853 81.7287 97.7273 81.3308 97.7273L81.3308 99.2273ZM56.3536 74.25L57.8536 74.25L56.3536 74.25ZM81.3308 49.2727L81.3308 50.7727C82.1593 50.7727 82.8308 50.1012 82.8308 49.2727L81.3308 49.2727ZM81.3308 35L82.8308 35C82.8308 34.1716 82.1593 33.5 81.3308 33.5L81.3308 35ZM78.3651 35L78.3651 33.5L78.3651 35ZM75.4419 37.3254L76.9035 37.6627L75.4419 37.3254ZM74.1504 42.922L72.6888 42.5847L72.6876 42.5899L74.1504 42.922ZM74.1456 42.9433L74.4798 44.4055C75.042 44.2771 75.4807 43.8377 75.6084 43.2753L74.1456 42.9433ZM64.0939 47.1496L63.2989 48.4216C63.7894 48.7281 64.4124 48.7253 64.9001 48.4145L64.0939 47.1496ZM59.8106 44.4725L60.6056 43.2005L60.6056 43.2005L59.8106 44.4725ZM56.0993 44.8952L55.0386 43.8345L55.0386 43.8345L56.0993 44.8952ZM51.9051 49.0894L52.9658 50.15L52.9658 50.15L51.9051 49.0894ZM51.4824 52.8007L52.7544 52.0057L52.7544 52.0057L51.4824 52.8007ZM54.1723 57.1045L55.44 57.9065C55.7482 57.4192 55.7499 56.7984 55.4443 56.3095L54.1723 57.1045ZM49.9995 67.1733L50.3368 68.6349C50.8986 68.5052 51.3364 68.065 51.4629 67.5024L49.9995 67.1733ZM44.8523 68.3611L44.515 66.8995L44.8523 68.3611ZM45.1896 78.6773C44.509 78.5203 44.0269 77.9142 44.0269 77.2157L41.0269 77.2157C41.0269 79.3112 42.4732 81.1293 44.515 81.6005L45.1896 78.6773ZM50.3368 79.8651L45.1896 78.6773L44.515 81.6005L49.6622 82.7883L50.3368 79.8651ZM55.4612 90.6271C53.6125 87.7133 52.2431 84.4667 51.4629 80.9976L48.536 81.6559C49.3934 85.4681 50.8982 89.0349 52.9281 92.2343L55.4612 90.6271ZM52.7544 96.5653L55.4667 92.2257L52.9227 90.6357L50.2104 94.9753L52.7544 96.5653ZM52.9658 98.421C52.4719 97.9271 52.3842 97.1576 52.7544 96.5653L50.2104 94.9753C49.0998 96.7523 49.3627 99.0606 50.8444 100.542L52.9658 98.421ZM57.1599 102.615L52.9658 98.421L50.8444 100.542L55.0386 104.736L57.1599 102.615ZM59.0156 102.827C58.4233 103.197 57.6538 103.109 57.1599 102.615L55.0386 104.736C56.5203 106.218 58.8287 106.481 60.6056 105.37L59.0156 102.827ZM63.3552 100.114L59.0156 102.827L60.6056 105.37L64.9452 102.658L63.3552 100.114ZM74.4798 104.094C71.0497 103.31 67.8387 101.95 64.9538 100.12L63.3466 102.653C66.5142 104.663 70.0419 106.157 73.8113 107.019L74.4798 104.094ZM75.6132 105.246L75.6084 105.225L72.6828 105.889L72.6876 105.91L75.6132 105.246ZM76.9035 110.837L75.612 105.241L72.6888 105.915L73.9803 111.512L76.9035 110.837ZM78.3651 112C77.6666 112 77.0606 111.518 76.9035 110.837L73.9803 111.512C74.4515 113.554 76.2696 115 78.3651 115L78.3651 112ZM81.3308 112L78.3651 112L78.3651 115L81.3308 115L81.3308 112ZM82.8308 113.5L82.8308 99.2273L79.8308 99.2273L79.8308 113.5L82.8308 113.5ZM54.8536 74.25C54.8536 88.873 66.7078 100.727 81.3308 100.727L81.3308 97.7273C68.3647 97.7273 57.8536 87.2161 57.8536 74.25L54.8536 74.25ZM81.3308 47.7727C66.7078 47.7727 54.8536 59.627 54.8536 74.25L57.8536 74.25C57.8536 61.2839 68.3647 50.7727 81.3308 50.7727L81.3308 47.7727ZM82.8308 49.2727L82.8308 35L79.8308 35L79.8308 49.2727L82.8308 49.2727ZM78.3651 36.5L81.3308 36.5L81.3308 33.5L78.3651 33.5L78.3651 36.5ZM76.9035 37.6627C77.0606 36.9821 77.6666 36.5 78.3651 36.5L78.3651 33.5C76.2696 33.5 74.4515 34.9463 73.9803 36.9881L76.9035 37.6627ZM75.612 43.2593L76.9035 37.6627L73.9803 36.9881L72.6888 42.5847L75.612 43.2593ZM75.6084 43.2753L75.6132 43.2541L72.6876 42.5899L72.6828 42.6112L75.6084 43.2753ZM64.9001 48.4145C67.7988 46.5669 71.0284 45.1944 74.4798 44.4055L73.8114 41.481C70.0185 42.3479 66.4704 43.8561 63.2877 45.8847L64.9001 48.4145ZM59.0156 45.7445L63.2989 48.4216L64.8889 45.8776L60.6056 43.2005L59.0156 45.7445ZM57.1599 45.9558C57.6538 45.4619 58.4233 45.3743 59.0156 45.7445L60.6056 43.2005C58.8286 42.0899 56.5203 42.3528 55.0386 43.8345L57.1599 45.9558ZM52.9658 50.15L57.1599 45.9558L55.0386 43.8345L50.8444 48.0287L52.9658 50.15ZM52.7544 52.0057C52.3842 51.4134 52.4719 50.6439 52.9658 50.15L50.8444 48.0287C49.3627 49.5104 49.0998 51.8187 50.2104 53.5957L52.7544 52.0057ZM55.4443 56.3095L52.7544 52.0057L50.2104 53.5957L52.9003 57.8995L55.4443 56.3095ZM51.4629 67.5024C52.2401 64.0467 53.602 60.8117 55.44 57.9065L52.9047 56.3026C50.8866 59.4925 49.3901 63.0465 48.536 66.8441L51.4629 67.5024ZM45.1896 69.8227L50.3368 68.6349L49.6622 65.7117L44.515 66.8995L45.1896 69.8227ZM44.0269 71.2843C44.0269 70.5858 44.509 69.9797 45.1896 69.8227L44.515 66.8995C42.4732 67.3707 41.0269 69.1888 41.0269 71.2843L44.0269 71.2843ZM44.0269 77.2157L44.0269 71.2843L41.0269 71.2843L41.0269 77.2157L44.0269 77.2157Z" fill="#42A4FF"/>
<path d="M81.331 93.875L81.331 95.375C81.7288 95.375 82.1103 95.217 82.3916 94.9357C82.6729 94.6544 82.831 94.2728 82.831 93.875L81.331 93.875ZM81.331 54.625L82.831 54.625C82.831 54.2272 82.6729 53.8456 82.3916 53.5643C82.1103 53.283 81.7288 53.125 81.331 53.125L81.331 54.625ZM82.831 93.875L82.831 54.625L79.831 54.625L79.831 93.875L82.831 93.875ZM81.331 92.375C71.3208 92.375 63.2061 84.2601 63.2061 74.25L60.2061 74.25C60.2061 85.917 69.664 95.3749 81.331 95.375L81.331 92.375ZM63.2061 74.25C63.2061 64.2399 71.3208 56.125 81.331 56.125L81.331 53.125C69.664 53.1251 60.2061 62.583 60.2061 74.25L63.2061 74.25Z" fill="#42A4FF"/>
<path d="M81.3311 92.9829L90.3737 92.9829C92.0305 92.9829 93.3737 94.3261 93.3737 95.9829L93.3737 104.58" stroke="#42A4FF" stroke-width="3" stroke-linecap="round" stroke-linejoin="round"/>
<path d="M81.3311 55.5171L90.3737 55.5171C92.0305 55.5171 93.3737 54.1739 93.3737 52.5171L93.3737 43.9205" stroke="#42A4FF" stroke-width="3" stroke-linecap="round" stroke-linejoin="round"/>
<path d="M81.3311 87.6307L97.3879 87.6307" stroke="#42A4FF" stroke-width="3" stroke-linecap="round" stroke-linejoin="round"/>
<path d="M81.3311 60.8693L97.3879 60.8693" stroke="#42A4FF" stroke-width="3" stroke-linecap="round" stroke-linejoin="round"/>
<path d="M81.7769 80.9403L103.754 80.9403C105.411 80.9403 106.754 82.2835 106.754 83.9403L106.754 91.1989" stroke="#42A4FF" stroke-width="3" stroke-linecap="round" stroke-linejoin="round"/>
<path d="M81.7769 67.5597L103.754 67.5597C105.411 67.5597 106.754 66.2165 106.754 64.5597L106.754 57.3011" stroke="#42A4FF" stroke-width="3" stroke-linecap="round" stroke-linejoin="round"/>
<path d="M81.7769 74.25L114.783 74.25" stroke="#42A4FF" stroke-width="3" stroke-linecap="round" stroke-linejoin="round"/>
<circle cx="93.3736" cy="107.702" r="3.12216" transform="rotate(-90 93.3736 107.702)" stroke="#42A4FF" stroke-width="3"/>
<circle cx="93.3736" cy="40.7983" r="3.12216" transform="rotate(-90 93.3736 40.7983)" stroke="#42A4FF" stroke-width="3"/>
<circle cx="106.754" cy="94.321" r="3.12216" transform="rotate(-90 106.754 94.321)" stroke="#42A4FF" stroke-width="3"/>
<circle cx="106.754" cy="54.179" r="3.12216" transform="rotate(-90 106.754 54.179)" stroke="#42A4FF" stroke-width="3"/>
<circle cx="118.351" cy="74.25" r="3.12216" transform="rotate(-90 118.351 74.25)" stroke="#42A4FF" stroke-width="3"/>
<defs>
<filter id="filter0_d_662_7406" x="0" y="0" width="160" height="160" filterUnits="userSpaceOnUse" color-interpolation-filters="sRGB">
<feFlood flood-opacity="0" result="BackgroundImageFix"/>
<feColorMatrix in="SourceAlpha" type="matrix" values="0 0 0 0 0 0 0 0 0 0 0 0 0 0 0 0 0 0 127 0" result="hardAlpha"/>
<feOffset dy="6"/>
<feGaussianBlur stdDeviation="10"/>
<feColorMatrix type="matrix" values="0 0 0 0 0.0561006 0 0 0 0 0.153723 0 0 0 0 0.237399 0 0 0 0.15 0"/>
<feBlend mode="normal" in2="BackgroundImageFix" result="effect1_dropShadow_662_7406"/>
<feBlend mode="normal" in="SourceGraphic" in2="effect1_dropShadow_662_7406" result="shape"/>
</filter>
</defs>
</svg>
