<svg width="93" height="79" viewBox="0 0 93 79" fill="none" xmlns="http://www.w3.org/2000/svg">
<path d="M18 8C18 4.68629 20.6863 2 24 2H50.3431C51.404 2 52.4214 2.42143 53.1716 3.17157L61 11L69.8284 19.8284C70.5786 20.5786 71 21.596 71 22.6569V71C71 74.3137 68.3137 77 65 77H24C20.6863 77 18 74.3137 18 71V8Z" stroke="#42A4FF" stroke-width="3"/>
<path d="M51 3V15.5C51 18.8137 53.6863 21.5 57 21.5H70" stroke="#42A4FF" stroke-width="3" stroke-linecap="round" stroke-linejoin="round"/>
<path d="M28 17H41" stroke="#42A4FF" stroke-width="3" stroke-linecap="round"/>
<path d="M28 27H50" stroke="#42A4FF" stroke-width="3" stroke-linecap="round"/>
<path d="M28 37H61" stroke="#42A4FF" stroke-width="3" stroke-linecap="round"/>
<path d="M28 47H61" stroke="#42A4FF" stroke-width="3" stroke-linecap="round"/>
<path d="M28.084 65.9997C27.6507 60.5498 28.9502 56.3021 30.6826 56.0172C33.7142 55.5188 31.7613 66 34.5802 66C36.7454 66 35.8792 58.4534 40.2104 58.4535C42.3758 58.4535 43.6239 61.7562 44.5424 62.6457C46.7071 64.7421 47.5733 60.5495 49.7396 60.5495C52.3373 60.5495 52.7704 62.6458 54.0697 63.0651C55.3689 63.4843 60.1338 60.9687 61 60.9687" stroke="#42A4FF" stroke-width="3" stroke-linecap="round" stroke-linejoin="round"/>
<path d="M78.5 29L79.4119 31.9725C80.6768 36.0957 83.9043 39.3232 88.0275 40.5881L91 41.5L89.0356 42.1026C84.3699 43.534 80.8989 47.4579 80.0476 52.2634L78.5 61L76.9524 52.2634C76.1011 47.4579 72.6301 43.534 67.9644 42.1026L66 41.5L68.9725 40.5881C73.0957 39.3232 76.3232 36.0957 77.5881 31.9725L78.5 29Z" fill="white" stroke="#42A4FF" stroke-width="3" stroke-linejoin="round"/>
<path d="M6 14L6.46216 15.4712C6.7604 16.4206 7.51002 17.1603 8.4633 17.4459L10 17.9062L8.70152 18.2953C7.62012 18.6192 6.81214 19.5229 6.61065 20.6336L6 24L5.38935 20.6336C5.18786 19.5229 4.37988 18.6192 3.29848 18.2953L2 17.9062L3.5367 17.4459C4.48998 17.1603 5.2396 16.4206 5.53784 15.4712L6 14Z" fill="#42A4FF" stroke="#42A4FF" stroke-width="3" stroke-linejoin="round"/>
</svg>
