<svg width="160" height="160" viewBox="0 0 160 160" fill="none" xmlns="http://www.w3.org/2000/svg">
<g filter="url(#filter0_d_662_7409)">
<circle cx="80" cy="74" r="60" fill="white"/>
</g>
<rect x="56" y="45.7941" width="45.2059" height="64.8235" rx="4" stroke="#42A4FF" stroke-width="3" stroke-linejoin="round"/>
<rect x="61.9707" y="51.7646" width="33.2647" height="11.0882" rx="2" stroke="#42A4FF" stroke-width="3" stroke-linejoin="round"/>
<rect x="61.9707" y="68.8234" width="7.67647" height="8.52941" rx="2" stroke="#42A4FF" stroke-width="3" stroke-linejoin="round"/>
<rect x="61.9707" y="82.4705" width="7.67647" height="8.52941" rx="2" stroke="#42A4FF" stroke-width="3" stroke-linejoin="round"/>
<rect x="61.9707" y="96.1176" width="7.67647" height="8.52941" rx="2" stroke="#42A4FF" stroke-width="3" stroke-linejoin="round"/>
<rect x="74.7646" y="68.8234" width="7.67647" height="8.52941" rx="2" stroke="#42A4FF" stroke-width="3" stroke-linejoin="round"/>
<rect x="74.7646" y="82.4705" width="7.67647" height="8.52941" rx="2" stroke="#42A4FF" stroke-width="3" stroke-linejoin="round"/>
<rect x="74.7646" y="96.1176" width="7.67647" height="8.52941" rx="2" stroke="#42A4FF" stroke-width="3" stroke-linejoin="round"/>
<rect x="87.5586" y="68.8234" width="7.67647" height="8.52941" rx="2" stroke="#42A4FF" stroke-width="3" stroke-linejoin="round"/>
<rect x="88.4116" y="82.4705" width="6.82353" height="23.0294" rx="2" stroke="#42A4FF" stroke-width="3" stroke-linejoin="round"/>
<circle cx="101.206" cy="45.7941" r="12.7941" fill="white" stroke="#42A4FF" stroke-width="3"/>
<path d="M101.168 41.409C100.205 41.5677 99.7234 42.038 99.7234 42.82C99.7234 43.5793 100.216 44.1517 101.202 44.537C101.293 44.5597 101.338 44.5257 101.338 44.435V41.528C101.338 41.426 101.282 41.3863 101.168 41.409ZM104.347 48.515C104.347 48.0617 104.24 47.699 104.024 47.427C103.82 47.1437 103.452 46.9 102.919 46.696C102.885 46.6847 102.851 46.6903 102.817 46.713C102.783 46.7243 102.766 46.747 102.766 46.781V50.028C102.766 50.062 102.783 50.096 102.817 50.13C102.851 50.1527 102.885 50.1583 102.919 50.147C103.871 49.9317 104.347 49.3877 104.347 48.515ZM101.185 46.169C100.052 45.8063 99.2304 45.353 98.7204 44.809C98.2217 44.265 97.9724 43.602 97.9724 42.82C97.9724 41.9927 98.2387 41.3297 98.7714 40.831C99.3154 40.321 100.114 40.0093 101.168 39.896C101.282 39.8733 101.338 39.8167 101.338 39.726V38.859C101.338 38.6663 101.406 38.502 101.542 38.366C101.69 38.2187 101.86 38.145 102.052 38.145C102.245 38.145 102.409 38.2187 102.545 38.366C102.693 38.502 102.766 38.6663 102.766 38.859V39.726C102.766 39.828 102.812 39.879 102.902 39.879C103.662 39.9357 104.336 40.0263 104.925 40.151C105.163 40.1963 105.35 40.321 105.486 40.525C105.634 40.7177 105.707 40.933 105.707 41.171C105.707 41.3637 105.622 41.5223 105.452 41.647C105.294 41.7603 105.118 41.7887 104.925 41.732C104.279 41.5507 103.611 41.4317 102.919 41.375C102.817 41.375 102.766 41.4203 102.766 41.511V44.843C102.766 44.9223 102.817 44.9847 102.919 45.03C104.109 45.3927 104.942 45.846 105.418 46.39C105.894 46.9227 106.132 47.631 106.132 48.515C106.132 49.4103 105.86 50.13 105.316 50.674C104.772 51.2067 103.979 51.541 102.936 51.677C102.823 51.6997 102.766 51.7563 102.766 51.847V52.714C102.766 52.9067 102.693 53.0767 102.545 53.224C102.409 53.3713 102.245 53.445 102.052 53.445C101.86 53.445 101.69 53.3713 101.542 53.224C101.406 53.0767 101.338 52.9067 101.338 52.714V51.881C101.338 51.779 101.287 51.728 101.185 51.728C100.403 51.6713 99.6894 51.5467 99.0434 51.354C98.794 51.2747 98.5957 51.133 98.4484 50.929C98.301 50.7137 98.2274 50.4757 98.2274 50.215C98.2274 50.0223 98.3067 49.875 98.4654 49.773C98.6354 49.671 98.811 49.654 98.9924 49.722C99.6724 49.9827 100.403 50.147 101.185 50.215C101.287 50.215 101.338 50.1697 101.338 50.079V46.356C101.338 46.2767 101.287 46.2143 101.185 46.169Z" fill="#42A4FF"/>
<path d="M101.168 41.409L101.201 41.6065L101.208 41.6051L101.168 41.409ZM101.202 44.537L101.13 44.7233L101.141 44.7279L101.154 44.731L101.202 44.537ZM104.024 47.427L103.862 47.544L103.868 47.5511L104.024 47.427ZM102.919 46.696L102.991 46.509L102.983 46.5063L102.919 46.696ZM102.817 46.713L102.881 46.9027L102.906 46.8943L102.928 46.8794L102.817 46.713ZM102.817 50.13L102.676 50.2714L102.69 50.2854L102.706 50.2964L102.817 50.13ZM102.919 50.147L102.875 49.9519L102.866 49.9541L102.856 49.9573L102.919 50.147ZM101.185 46.169L101.267 45.9862L101.257 45.9818L101.246 45.9785L101.185 46.169ZM98.7204 44.809L98.5729 44.9442L98.5745 44.9458L98.7204 44.809ZM98.7714 40.831L98.9081 40.977L98.9082 40.9769L98.7714 40.831ZM101.168 39.896L101.19 40.0949L101.199 40.0939L101.208 40.0921L101.168 39.896ZM101.542 38.366L101.684 38.5074L101.542 38.366ZM102.545 38.366L102.398 38.5017L102.404 38.5075L102.41 38.513L102.545 38.366ZM102.902 39.879L102.917 39.6796L102.91 39.679H102.902V39.879ZM104.925 40.151L104.884 40.3467L104.888 40.3475L104.925 40.151ZM105.486 40.525L105.32 40.6362L105.328 40.6465L105.486 40.525ZM105.452 41.647L105.569 41.8098L105.571 41.8083L105.452 41.647ZM104.925 41.732L104.982 41.5401L104.979 41.5394L104.925 41.732ZM102.919 41.375L102.936 41.1757L102.928 41.175H102.919V41.375ZM102.919 45.03L102.838 45.2128L102.849 45.2177L102.861 45.2213L102.919 45.03ZM105.418 46.39L105.268 46.5217L105.269 46.5233L105.418 46.39ZM105.316 50.674L105.456 50.8169L105.458 50.8154L105.316 50.674ZM102.936 51.677L102.91 51.4782L102.897 51.4809L102.936 51.677ZM102.545 53.224L102.404 53.0825L102.398 53.0883L102.545 53.224ZM101.542 53.224L101.395 53.3598L101.401 53.3654L101.542 53.224ZM101.185 51.728L101.171 51.9275L101.178 51.928H101.185V51.728ZM99.0434 51.354L98.9827 51.5446L98.9862 51.5457L99.0434 51.354ZM98.4484 50.929L98.2833 51.042L98.2862 51.0461L98.4484 50.929ZM98.4654 49.773L98.3624 49.6014L98.3572 49.6048L98.4654 49.773ZM98.9924 49.722L99.064 49.5352L99.0626 49.5347L98.9924 49.722ZM101.185 50.215L101.168 50.4142L101.177 50.415H101.185V50.215ZM101.136 41.2117C100.631 41.2948 100.226 41.4636 99.9449 41.7377C99.6593 42.0166 99.5234 42.3846 99.5234 42.82H99.9234C99.9234 42.4734 100.028 42.2153 100.224 42.0238C100.425 41.8276 100.742 41.6819 101.201 41.6063L101.136 41.2117ZM99.5234 42.82C99.5234 43.2473 99.6636 43.6266 99.9416 43.9493C100.216 44.2681 100.618 44.5232 101.13 44.7233L101.275 44.3507C100.801 44.1654 100.463 43.9417 100.245 43.6882C100.03 43.4386 99.9234 43.152 99.9234 42.82H99.5234ZM101.154 44.731C101.22 44.7477 101.33 44.7597 101.424 44.6885C101.522 44.6156 101.538 44.5052 101.538 44.435H101.138C101.138 44.4555 101.132 44.4074 101.184 44.3685C101.234 44.3313 101.275 44.349 101.251 44.343L101.154 44.731ZM101.538 44.435V41.528H101.138V44.435H101.538ZM101.538 41.528C101.538 41.4445 101.515 41.3307 101.411 41.2579C101.315 41.1912 101.205 41.1977 101.129 41.2129L101.208 41.6051C101.223 41.6021 101.227 41.6031 101.223 41.6027C101.218 41.6022 101.201 41.5994 101.181 41.5856C101.16 41.5709 101.148 41.552 101.142 41.5375C101.137 41.5251 101.138 41.5199 101.138 41.528H101.538ZM104.547 48.515C104.547 48.0305 104.432 47.6197 104.181 47.3029L103.868 47.5511C104.047 47.7783 104.147 48.0928 104.147 48.515H104.547ZM104.187 47.3101C103.95 46.9809 103.539 46.7192 102.991 46.5092L102.848 46.8828C103.365 47.0808 103.691 47.3064 103.862 47.5439L104.187 47.3101ZM102.983 46.5063C102.881 46.4725 102.784 46.4951 102.706 46.5466L102.928 46.8794C102.926 46.8809 102.917 46.8864 102.901 46.889C102.885 46.8918 102.869 46.89 102.856 46.8857L102.983 46.5063ZM102.754 46.5233C102.709 46.5384 102.658 46.5669 102.619 46.6185C102.58 46.671 102.566 46.7296 102.566 46.781H102.966C102.966 46.7984 102.961 46.8287 102.939 46.8585C102.917 46.8874 102.892 46.899 102.881 46.9027L102.754 46.5233ZM102.566 46.781V50.028H102.966V46.781H102.566ZM102.566 50.028C102.566 50.1338 102.62 50.2156 102.676 50.2714L102.959 49.9886C102.953 49.9829 102.955 49.983 102.958 49.9896C102.962 49.997 102.966 50.0104 102.966 50.028H102.566ZM102.706 50.2964C102.784 50.3479 102.881 50.3705 102.983 50.3367L102.856 49.9573C102.869 49.953 102.885 49.9512 102.901 49.954C102.917 49.9566 102.926 49.9621 102.928 49.9636L102.706 50.2964ZM102.964 50.3421C103.467 50.2283 103.867 50.0225 104.141 49.7092C104.417 49.3935 104.547 48.9893 104.547 48.515H104.147C104.147 48.9134 104.04 49.2175 103.84 49.4458C103.638 49.6765 103.324 49.8504 102.875 49.9519L102.964 50.3421ZM101.246 45.9785C100.128 45.6207 99.3431 45.1808 98.8663 44.6722L98.5745 44.9458C99.1177 45.5252 99.9761 45.992 101.124 46.3595L101.246 45.9785ZM98.8678 44.6739C98.4051 44.1691 98.1724 43.5552 98.1724 42.82H97.7724C97.7724 43.6488 98.0383 44.3609 98.5729 44.9441L98.8678 44.6739ZM98.1724 42.82C98.1724 42.0398 98.4214 41.4326 98.9081 40.977L98.6347 40.685C98.056 41.2267 97.7724 41.9455 97.7724 42.82H98.1724ZM98.9082 40.9769C99.4096 40.5068 100.161 40.2054 101.19 40.0949L101.147 39.6971C100.067 39.8132 99.2212 40.1352 98.6346 40.6851L98.9082 40.9769ZM101.208 40.0921C101.287 40.0763 101.371 40.044 101.437 39.9779C101.508 39.907 101.538 39.8168 101.538 39.726H101.138C101.138 39.7277 101.138 39.7235 101.141 39.7158C101.144 39.7077 101.149 39.7004 101.154 39.6951C101.159 39.6902 101.162 39.6897 101.158 39.6914C101.154 39.6932 101.145 39.6967 101.129 39.6999L101.208 40.0921ZM101.538 39.726V38.859H101.138V39.726H101.538ZM101.538 38.859C101.538 38.7193 101.585 38.6058 101.684 38.5074L101.401 38.2246C101.227 38.3982 101.138 38.6134 101.138 38.859H101.538ZM101.684 38.5074C101.797 38.3942 101.917 38.345 102.052 38.345V37.945C101.802 37.945 101.582 38.0431 101.401 38.2246L101.684 38.5074ZM102.052 38.345C102.187 38.345 102.299 38.3935 102.398 38.5017L102.692 38.2303C102.52 38.0439 102.303 37.945 102.052 37.945V38.345ZM102.41 38.513C102.518 38.6128 102.566 38.7247 102.566 38.859H102.966C102.966 38.608 102.867 38.3912 102.681 38.219L102.41 38.513ZM102.566 38.859V39.726H102.966V38.859H102.566ZM102.566 39.726C102.566 39.8024 102.583 39.8971 102.651 39.9736C102.723 40.0547 102.82 40.079 102.902 40.079V39.679C102.898 39.679 102.903 39.6783 102.913 39.6822C102.925 39.6865 102.938 39.6948 102.95 39.7079C102.973 39.7334 102.966 39.7516 102.966 39.726H102.566ZM102.887 40.0784C103.64 40.1346 104.305 40.2243 104.884 40.3467L104.967 39.9553C104.367 39.8284 103.683 39.7367 102.917 39.6796L102.887 40.0784ZM104.888 40.3475C105.073 40.3826 105.213 40.476 105.32 40.6359L105.653 40.4141C105.487 40.166 105.254 40.01 104.963 39.9545L104.888 40.3475ZM105.328 40.6465C105.449 40.805 105.507 40.9778 105.507 41.171H105.907C105.907 40.8882 105.819 40.6303 105.645 40.4035L105.328 40.6465ZM105.507 41.171C105.507 41.2933 105.458 41.3946 105.334 41.4857L105.571 41.8083C105.786 41.6501 105.907 41.434 105.907 41.171H105.507ZM105.336 41.4843C105.229 41.5606 105.118 41.5801 104.982 41.5401L104.869 41.9239C105.119 41.9973 105.358 41.96 105.569 41.8097L105.336 41.4843ZM104.979 41.5394C104.321 41.3545 103.639 41.2333 102.936 41.1757L102.903 41.5743C103.582 41.63 104.238 41.7468 104.871 41.9246L104.979 41.5394ZM102.919 41.175C102.843 41.175 102.748 41.1915 102.672 41.2595C102.591 41.3316 102.566 41.4283 102.566 41.511H102.966C102.966 41.5066 102.967 41.5115 102.963 41.5217C102.959 41.5332 102.951 41.5468 102.938 41.5585C102.912 41.5812 102.894 41.575 102.919 41.575V41.175ZM102.566 41.511V44.843H102.966V41.511H102.566ZM102.566 44.843C102.566 45.0332 102.698 45.1506 102.838 45.2128L103.001 44.8472C102.968 44.8326 102.959 44.8221 102.959 44.8226C102.96 44.8234 102.962 44.8264 102.964 44.8316C102.966 44.8367 102.966 44.841 102.966 44.843H102.566ZM102.861 45.2213C104.038 45.58 104.828 46.0194 105.268 46.5217L105.569 46.2583C105.056 45.6726 104.181 45.2053 102.978 44.8387L102.861 45.2213ZM105.269 46.5233C105.705 47.0111 105.932 47.668 105.932 48.515H106.332C106.332 47.594 106.084 46.8342 105.568 46.2567L105.269 46.5233ZM105.932 48.515C105.932 49.3667 105.675 50.0322 105.175 50.5326L105.458 50.8154C106.045 50.2278 106.332 49.454 106.332 48.515H105.932ZM105.176 50.5311C104.673 51.0237 103.926 51.3462 102.911 51.4787L102.962 51.8753C104.032 51.7358 104.871 51.3896 105.456 50.8169L105.176 50.5311ZM102.897 51.4809C102.818 51.4967 102.734 51.529 102.667 51.5951C102.597 51.666 102.566 51.7562 102.566 51.847H102.966C102.966 51.8453 102.967 51.8495 102.964 51.8572C102.961 51.8653 102.956 51.8726 102.95 51.8779C102.945 51.8828 102.943 51.8833 102.947 51.8816C102.95 51.8798 102.959 51.8763 102.976 51.8731L102.897 51.4809ZM102.566 51.847V52.714H102.966V51.847H102.566ZM102.566 52.714C102.566 52.849 102.517 52.9694 102.404 53.0826L102.687 53.3654C102.868 53.184 102.966 52.9643 102.966 52.714H102.566ZM102.398 53.0883C102.299 53.1965 102.187 53.245 102.052 53.245V53.645C102.303 53.645 102.52 53.5461 102.692 53.3597L102.398 53.0883ZM102.052 53.245C101.917 53.245 101.797 53.1958 101.684 53.0826L101.401 53.3654C101.582 53.5469 101.802 53.645 102.052 53.645V53.245ZM101.689 53.0883C101.586 52.9763 101.538 52.8542 101.538 52.714H101.138C101.138 52.9592 101.227 53.177 101.395 53.3597L101.689 53.0883ZM101.538 52.714V51.881H101.138V52.714H101.538ZM101.538 51.881C101.538 51.7992 101.518 51.7011 101.442 51.6248C101.365 51.5486 101.267 51.528 101.185 51.528V51.928C101.206 51.928 101.184 51.9329 101.159 51.9077C101.133 51.8824 101.138 51.8608 101.138 51.881H101.538ZM101.2 51.5285C100.43 51.4727 99.7306 51.3503 99.1005 51.1623L98.9862 51.5457C99.6482 51.7431 100.377 51.8699 101.171 51.9275L101.2 51.5285ZM99.104 51.1634C98.8938 51.0965 98.7317 50.9797 98.6105 50.8119L98.2862 51.0461C98.4597 51.2863 98.6943 51.4528 98.9827 51.5446L99.104 51.1634ZM98.6134 50.8161C98.4888 50.634 98.4274 50.4353 98.4274 50.215H98.0274C98.0274 50.516 98.1132 50.7934 98.2833 51.0419L98.6134 50.8161ZM98.4274 50.215C98.4274 50.0886 98.4736 50.0055 98.5735 49.9412L98.3572 49.6048C98.1398 49.7445 98.0274 49.956 98.0274 50.215H98.4274ZM98.5683 49.9445C98.6874 49.873 98.7995 49.8633 98.9222 49.9093L99.0626 49.5347C98.8226 49.4447 98.5833 49.469 98.3625 49.6015L98.5683 49.9445ZM98.9208 49.9087C99.6195 50.1766 100.369 50.3448 101.168 50.4142L101.203 50.0158C100.438 49.9492 99.7253 49.7887 99.064 49.5353L98.9208 49.9087ZM101.185 50.415C101.262 50.415 101.356 50.3985 101.433 50.3305C101.514 50.2584 101.538 50.1617 101.538 50.079H101.138C101.138 50.0834 101.138 50.0785 101.142 50.0683C101.146 50.0568 101.154 50.0432 101.167 50.0315C101.193 50.0088 101.211 50.015 101.185 50.015V50.415ZM101.538 50.079V46.356H101.138V50.079H101.538ZM101.538 46.356C101.538 46.1658 101.406 46.0484 101.267 45.9862L101.104 46.3518C101.137 46.3664 101.146 46.3769 101.145 46.3764C101.145 46.3756 101.142 46.3726 101.141 46.3674C101.139 46.3623 101.138 46.358 101.138 46.356H101.538Z" fill="#42A4FF"/>
<defs>
<filter id="filter0_d_662_7409" x="0" y="0" width="160" height="160" filterUnits="userSpaceOnUse" color-interpolation-filters="sRGB">
<feFlood flood-opacity="0" result="BackgroundImageFix"/>
<feColorMatrix in="SourceAlpha" type="matrix" values="0 0 0 0 0 0 0 0 0 0 0 0 0 0 0 0 0 0 127 0" result="hardAlpha"/>
<feOffset dy="6"/>
<feGaussianBlur stdDeviation="10"/>
<feColorMatrix type="matrix" values="0 0 0 0 0.0561006 0 0 0 0 0.153723 0 0 0 0 0.237399 0 0 0 0.15 0"/>
<feBlend mode="normal" in2="BackgroundImageFix" result="effect1_dropShadow_662_7409"/>
<feBlend mode="normal" in="SourceGraphic" in2="effect1_dropShadow_662_7409" result="shape"/>
</filter>
</defs>
</svg>
