<svg width="84" height="90" viewBox="0 0 84 90" fill="none" xmlns="http://www.w3.org/2000/svg">
<path fill-rule="evenodd" clip-rule="evenodd" d="M42 5.5C20.737 5.5 3.5 22.737 3.5 44C3.5 53.2218 6.74053 61.6835 12.1468 68.3133C12.6704 68.9553 12.6135 69.9014 11.9922 70.4494C11.3709 70.9974 10.4208 70.9397 9.89546 70.2992C4.02476 63.1406 0.5 53.9803 0.5 44C0.5 21.0802 19.0802 2.5 42 2.5C51.8812 2.5 60.9594 5.95525 68.0864 11.7221L66.1993 14.0543C59.5868 8.70375 51.1696 5.5 42 5.5ZM80.5 44C80.5 35.3692 77.6617 27.4049 72.8664 20.9848C72.3707 20.321 72.4678 19.3782 73.1118 18.8571C73.7558 18.336 74.7026 18.4341 75.2002 19.0964C80.4112 26.0328 83.5 34.6575 83.5 44C83.5 66.9198 64.9198 85.5 42 85.5C33.3901 85.5 25.3883 82.8764 18.7564 78.3848L20.4387 75.9009C26.5897 80.0667 34.0084 82.5 42 82.5C63.263 82.5 80.5 65.263 80.5 44Z" fill="#42A4FF"/>
<path d="M36.2865 20.5787L36.6424 22.0358L37.7865 21.7564V20.5787H36.2865ZM24.6711 27.2905L23.9211 28.5896L24.94 29.1778L25.7541 28.3284L24.6711 27.2905ZM20.8568 25.0883L21.6068 23.7893L21.6068 23.7893L20.8568 25.0883ZM18.1247 25.8204L16.8257 25.0704H16.8257L18.1247 25.8204ZM14.4104 32.2537L15.7095 33.0037L15.7095 33.0037L14.4104 32.2537ZM15.1425 34.9857L15.8925 33.6867H15.8925L15.1425 34.9857ZM18.9513 37.1847L20.3917 37.6033L20.7199 36.4738L19.7013 35.8857L18.9513 37.1847ZM18.9512 50.6034L19.7012 51.9025L20.7198 51.3144L20.3916 50.1849L18.9512 50.6034ZM15.1419 52.8027L15.8919 54.1017H15.8919L15.1419 52.8027ZM14.4099 55.5348L15.7089 54.7848L14.4099 55.5348ZM18.1242 61.9681L16.8251 62.7181H16.8251L18.1242 61.9681ZM20.8562 62.7001L20.1062 61.4011H20.1062L20.8562 62.7001ZM24.6709 60.4977L25.7539 59.4599L24.9398 58.6104L23.9209 59.1987L24.6709 60.4977ZM36.2865 67.2098H37.7865V66.032L36.6424 65.7526L36.2865 67.2098ZM47.7151 67.2098L47.3592 65.7526L46.2151 66.032V67.2098H47.7151ZM59.3308 60.4976L60.0808 59.1986L59.0619 58.6103L58.2478 59.4598L59.3308 60.4976ZM63.1454 62.7L62.3954 63.9991L63.1454 62.7ZM65.8775 61.968L64.5784 61.218L65.8775 61.968ZM69.5918 55.5346L70.8908 56.2846L69.5918 55.5346ZM68.8597 52.8026L68.1097 54.1016L68.8597 52.8026ZM65.0505 50.6033L63.6101 50.1848L63.2819 51.3143L64.3005 51.9024L65.0505 50.6033ZM65.0504 37.1848L64.3004 35.8858L63.2818 36.4739L63.61 37.6034L65.0504 37.1848ZM68.8592 34.9858L68.1092 33.6868L68.8592 34.9858ZM69.5912 32.2538L68.2922 33.0038V33.0038L69.5912 32.2538ZM65.8769 25.8205L64.5779 26.5705V26.5705L65.8769 25.8205ZM63.1449 25.0884L62.3949 23.7894V23.7894L63.1449 25.0884ZM59.3306 27.2906L58.2476 28.3285L59.0617 29.1779L60.0806 28.5896L59.3306 27.2906ZM47.7151 20.5787H46.2151V21.7564L47.3592 22.0358L47.7151 20.5787ZM37.7865 16.1799C37.7865 15.9038 38.0104 15.6799 38.2865 15.6799V12.6799C36.3535 12.6799 34.7865 14.2469 34.7865 16.1799H37.7865ZM37.7865 20.5787V16.1799H34.7865V20.5787H37.7865ZM25.7541 28.3284C28.6674 25.2885 32.4229 23.0664 36.6424 22.0358L35.9306 19.1215C31.1421 20.2911 26.8861 22.8114 23.5881 26.2526L25.7541 28.3284ZM20.1068 26.3873L23.9211 28.5896L25.4211 25.9915L21.6068 23.7893L20.1068 26.3873ZM19.4237 26.5704C19.5618 26.3312 19.8676 26.2493 20.1068 26.3873L21.6068 23.7893C19.9327 22.8228 17.7922 23.3963 16.8257 25.0704L19.4237 26.5704ZM15.7095 33.0037L19.4237 26.5704L16.8257 25.0704L13.1114 31.5037L15.7095 33.0037ZM15.8925 33.6867C15.6533 33.5486 15.5714 33.2428 15.7095 33.0037L13.1114 31.5037C12.1449 33.1777 12.7184 35.3183 14.3925 36.2848L15.8925 33.6867ZM19.7013 35.8857L15.8925 33.6867L14.3925 36.2848L18.2013 38.4838L19.7013 35.8857ZM19.5008 43.8942C19.5008 41.7084 19.8121 39.5979 20.3917 37.6033L17.5108 36.7662C16.853 39.03 16.5008 41.4223 16.5008 43.8942H19.5008ZM20.3916 50.1849C19.812 48.1903 19.5008 46.0799 19.5008 43.8942H16.5008C16.5008 46.3661 16.853 48.7582 17.5108 51.022L20.3916 50.1849ZM15.8919 54.1017L19.7012 51.9025L18.2012 49.3044L14.3919 51.5037L15.8919 54.1017ZM15.7089 54.7848C15.5709 54.5456 15.6528 54.2398 15.8919 54.1017L14.3919 51.5037C12.7179 52.4702 12.1443 54.6107 13.1108 56.2848L15.7089 54.7848ZM19.4232 61.2181L15.7089 54.7848L13.1108 56.2848L16.8251 62.7181L19.4232 61.2181ZM20.1062 61.4011C19.8671 61.5392 19.5613 61.4572 19.4232 61.2181L16.8251 62.7181C17.7916 64.3921 19.9322 64.9657 21.6062 63.9992L20.1062 61.4011ZM23.9209 59.1987L20.1062 61.4011L21.6062 63.9992L25.4209 61.7968L23.9209 59.1987ZM36.6424 65.7526C32.4228 64.722 28.6672 62.4998 25.7539 59.4599L23.5879 61.5356C26.886 64.977 31.142 67.4973 35.9306 68.6669L36.6424 65.7526ZM37.7865 71.6085V67.2098H34.7865V71.6085H37.7865ZM38.2865 72.1085C38.0104 72.1085 37.7865 71.8846 37.7865 71.6085H34.7865C34.7865 73.5415 36.3535 75.1085 38.2865 75.1085V72.1085ZM45.7151 72.1085H38.2865V75.1085H45.7151V72.1085ZM46.2151 71.6085C46.2151 71.8846 45.9913 72.1085 45.7151 72.1085V75.1085C47.6481 75.1085 49.2151 73.5415 49.2151 71.6085H46.2151ZM46.2151 67.2098V71.6085H49.2151V67.2098H46.2151ZM58.2478 59.4598C55.3345 62.4998 51.5789 64.722 47.3592 65.7526L48.071 68.6669C52.8597 67.4973 57.1157 64.9769 60.4138 61.5355L58.2478 59.4598ZM63.8954 61.401L60.0808 59.1986L58.5808 61.7967L62.3954 63.9991L63.8954 61.401ZM64.5784 61.218C64.4404 61.4571 64.1346 61.5391 63.8954 61.401L62.3954 63.9991C64.0695 64.9656 66.21 64.392 67.1765 62.718L64.5784 61.218ZM68.2927 54.7846L64.5784 61.218L67.1765 62.718L70.8908 56.2846L68.2927 54.7846ZM68.1097 54.1016C68.3489 54.2397 68.4308 54.5455 68.2927 54.7846L70.8908 56.2846C71.8573 54.6106 71.2837 52.47 69.6097 51.5036L68.1097 54.1016ZM64.3005 51.9024L68.1097 54.1016L69.6097 51.5036L65.8005 49.3043L64.3005 51.9024ZM64.5008 43.8942C64.5008 46.0799 64.1896 48.1903 63.6101 50.1848L66.4909 51.0219C67.1487 48.7581 67.5008 46.366 67.5008 43.8942H64.5008ZM63.61 37.6034C64.1896 39.598 64.5008 41.7085 64.5008 43.8942H67.5008C67.5008 41.4223 67.1487 39.0301 66.4908 36.7663L63.61 37.6034ZM68.1092 33.6868L64.3004 35.8858L65.8004 38.4839L69.6092 36.2849L68.1092 33.6868ZM68.2922 33.0038C68.4303 33.2429 68.3483 33.5487 68.1092 33.6868L69.6092 36.2849C71.2832 35.3184 71.8568 33.1778 70.8903 31.5038L68.2922 33.0038ZM64.5779 26.5705L68.2922 33.0038L70.8903 31.5038L67.176 25.0705L64.5779 26.5705ZM63.8949 26.3875C64.134 26.2494 64.4398 26.3313 64.5779 26.5705L67.176 25.0705C66.2095 23.3964 64.0689 22.8229 62.3949 23.7894L63.8949 26.3875ZM60.0806 28.5896L63.8949 26.3875L62.3949 23.7894L58.5806 25.9916L60.0806 28.5896ZM47.3592 22.0358C51.5788 23.0664 55.3343 25.2885 58.2476 28.3285L60.4136 26.2527C57.1156 22.8114 52.8596 20.2911 48.071 19.1215L47.3592 22.0358ZM46.2151 16.1799V20.5787H49.2151V16.1799H46.2151ZM45.7151 15.6799C45.9913 15.6799 46.2151 15.9038 46.2151 16.1799H49.2151C49.2151 14.2469 47.6481 12.6799 45.7151 12.6799V15.6799ZM38.2865 15.6799H45.7151V12.6799H38.2865V15.6799ZM54.2147 43.8942C54.2147 50.6399 48.7462 56.1085 42.0004 56.1085V59.1085C50.403 59.1085 57.2147 52.2968 57.2147 43.8942H54.2147ZM42.0004 31.6799C48.7462 31.6799 54.2147 37.1484 54.2147 43.8942H57.2147C57.2147 35.4916 50.403 28.6799 42.0004 28.6799V31.6799ZM29.7861 43.8942C29.7861 37.1484 35.2546 31.6799 42.0004 31.6799V28.6799C33.5978 28.6799 26.7861 35.4916 26.7861 43.8942H29.7861ZM42.0004 56.1085C35.2546 56.1085 29.7861 50.6399 29.7861 43.8942H26.7861C26.7861 52.2968 33.5978 59.1085 42.0004 59.1085V56.1085Z" fill="#42A4FF"/>
<path d="M65.8848 1.6084L67.3603 11.9321C67.4384 12.4788 67.0585 12.9853 66.5118 13.0635L56.1882 14.539" stroke="#42A4FF" stroke-width="3" stroke-linecap="round"/>
<path d="M22.4766 87.8738L19.4345 77.8988C19.2734 77.3705 19.571 76.8117 20.0993 76.6506L30.0743 73.6085" stroke="#42A4FF" stroke-width="3" stroke-linecap="round"/>
</svg>
