<svg width="160" height="160" viewBox="0 0 160 160" fill="none" xmlns="http://www.w3.org/2000/svg">
<g filter="url(#filter0_d_662_7412)">
<circle cx="80" cy="74" r="60" fill="white"/>
</g>
<path d="M82.5369 71.5945C80.9034 70.4231 79.5175 70.4066 78.3791 71.545C77.2736 72.6504 77.1581 74.2014 78.0326 76.1978C78.1316 76.3627 78.2471 76.3792 78.3791 76.2473L82.6111 72.0152C82.7596 71.8667 82.7348 71.7265 82.5369 71.5945ZM76.8199 86.5675C77.4799 85.9075 77.8511 85.2228 77.9336 84.5133C78.0491 83.8039 77.8676 82.9129 77.3891 81.8405C77.3561 81.7745 77.2984 81.7332 77.2159 81.7167C77.1499 81.6837 77.0921 81.692 77.0426 81.7415L72.3156 86.4685C72.2661 86.518 72.2414 86.5922 72.2414 86.6912C72.2579 86.7737 72.2991 86.8315 72.3651 86.8645C74.0645 87.9369 75.5495 87.8379 76.8199 86.5675ZM75.632 78.5489C74.51 76.371 73.9738 74.5148 74.0233 72.9804C74.0893 71.4625 74.6915 70.1343 75.8299 68.9959C77.0344 67.7914 78.3873 67.214 79.8887 67.2635C81.4232 67.313 83.0401 68.0224 84.7395 69.3919C84.9375 69.5238 85.1025 69.5238 85.2345 69.3919L86.4967 68.1297C86.7771 67.8492 87.1154 67.7089 87.5114 67.7089C87.9403 67.7089 88.2951 67.8492 88.5755 68.1297C88.856 68.4102 88.988 68.7566 88.9715 69.1691C88.988 69.5816 88.856 69.9281 88.5755 70.2086L87.3134 71.4707C87.1649 71.6192 87.1566 71.7595 87.2886 71.8915C88.3116 73.0794 89.1613 74.1931 89.8377 75.2326C90.1182 75.645 90.209 76.0988 90.11 76.5937C90.044 77.0887 89.8377 77.5094 89.4913 77.8559C89.2108 78.1364 88.856 78.2437 88.4271 78.1777C88.0311 78.1117 87.7341 77.8972 87.5361 77.5342C86.8596 76.3297 86.0594 75.1831 85.1355 74.0941C84.987 73.9456 84.8467 73.9374 84.7147 74.0694L79.864 78.9201C79.7485 79.0356 79.732 79.2006 79.8145 79.4151C81.0189 81.6755 81.5717 83.5481 81.4727 85.0331C81.3902 86.5015 80.7054 87.8792 79.4185 89.1661C78.1151 90.4695 76.6714 91.1212 75.0875 91.1212C73.5201 91.1047 71.8784 90.4365 70.1625 89.1166C69.9645 88.9846 69.7995 88.9846 69.6675 89.1166L68.4053 90.3788C68.1248 90.6593 67.7701 90.7995 67.3411 90.7995C66.9287 90.816 66.5822 90.684 66.3017 90.4035C66.0212 90.123 65.881 89.7683 65.881 89.3393C65.8975 88.9269 66.0459 88.5804 66.3264 88.2999L67.5391 87.0872C67.6876 86.9387 67.6876 86.7902 67.5391 86.6417C66.4832 85.4208 65.6252 84.1998 64.9653 82.9789C64.7178 82.5004 64.6353 82.0055 64.7178 81.494C64.8168 80.966 65.056 80.5123 65.4355 80.1328C65.716 79.8523 66.0459 79.7533 66.4254 79.8358C66.8214 79.9348 67.1019 80.1658 67.2669 80.5288C67.8774 81.8982 68.7023 83.2016 69.7418 84.4391C69.8903 84.5876 70.0305 84.5958 70.1625 84.4638L75.5825 79.0439C75.698 78.9284 75.7145 78.7634 75.632 78.5489Z" fill="#42A4FF"/>
<path d="M75.9355 50.169C77.6375 48.4669 79.9505 47.5176 82.3576 47.5332L102.866 47.6658C105.603 47.6835 107.816 49.8972 107.834 52.6333L107.967 73.1422C107.982 75.5493 107.033 77.8623 105.331 79.5644L78.552 106.343C75.4279 109.467 70.3625 109.467 67.2383 106.343L49.1567 88.2615C46.0325 85.1373 46.0325 80.072 49.1567 76.9478L75.9355 50.169Z" stroke="#42A4FF" stroke-width="3"/>
<circle cx="96.1665" cy="59.3333" r="4.33034" transform="rotate(45 96.1665 59.3333)" stroke="#42A4FF" stroke-width="3"/>
<path d="M98.2407 58.0914C98.2397 55.8831 100.361 51.8908 104.608 52.7384C110.553 53.925 110.015 63.7551 116.077 63.8591C120.918 63.9421 122.019 56.2135 117.008 54.7717" stroke="#42A4FF" stroke-width="3" stroke-linecap="round" stroke-linejoin="round"/>
<defs>
<filter id="filter0_d_662_7412" x="0" y="0" width="160" height="160" filterUnits="userSpaceOnUse" color-interpolation-filters="sRGB">
<feFlood flood-opacity="0" result="BackgroundImageFix"/>
<feColorMatrix in="SourceAlpha" type="matrix" values="0 0 0 0 0 0 0 0 0 0 0 0 0 0 0 0 0 0 127 0" result="hardAlpha"/>
<feOffset dy="6"/>
<feGaussianBlur stdDeviation="10"/>
<feColorMatrix type="matrix" values="0 0 0 0 0.0561006 0 0 0 0 0.153723 0 0 0 0 0.237399 0 0 0 0.15 0"/>
<feBlend mode="normal" in2="BackgroundImageFix" result="effect1_dropShadow_662_7412"/>
<feBlend mode="normal" in="SourceGraphic" in2="effect1_dropShadow_662_7412" result="shape"/>
</filter>
</defs>
</svg>
