<svg width="160" height="160" viewBox="0 0 160 160" fill="none" xmlns="http://www.w3.org/2000/svg">
<g filter="url(#filter0_d_662_7407)">
<circle cx="80" cy="74" r="60" fill="white"/>
</g>
<path fill-rule="evenodd" clip-rule="evenodd" d="M83.915 35.9248C82.7721 34.89 81.0309 34.89 79.888 35.9248L71.2499 43.7456C69.2149 45.588 70.5183 48.9695 73.2634 48.9695H77.5921V109.949H86.2111V48.9695H90.5396C93.2847 48.9695 94.588 45.588 92.5531 43.7456L83.915 35.9248Z" fill="white"/>
<path d="M79.888 35.9248L80.8947 37.0367V37.0367L79.888 35.9248ZM83.915 35.9248L82.9082 37.0367V37.0367L83.915 35.9248ZM71.2499 43.7456L70.2431 42.6337H70.2431L71.2499 43.7456ZM77.5921 48.9695H79.0921V47.4695H77.5921V48.9695ZM77.5921 109.949H76.0921V111.449H77.5921V109.949ZM86.2111 109.949V111.449H87.7111V109.949H86.2111ZM86.2111 48.9695V47.4695H84.7111V48.9695H86.2111ZM92.5531 43.7456L93.5598 42.6337L92.5531 43.7456ZM80.8947 37.0367C81.4662 36.5193 82.3368 36.5193 82.9082 37.0367L84.9217 34.8128C83.2074 33.2606 80.5956 33.2606 78.8812 34.8128L80.8947 37.0367ZM72.2566 44.8576L80.8947 37.0367L78.8812 34.8128L70.2431 42.6337L72.2566 44.8576ZM73.2634 47.4695C71.8908 47.4695 71.2391 45.7788 72.2566 44.8576L70.2431 42.6337C67.1907 45.3973 69.1457 50.4695 73.2634 50.4695V47.4695ZM77.5921 47.4695H73.2634V50.4695H77.5921V47.4695ZM79.0921 109.949V48.9695H76.0921V109.949H79.0921ZM86.2111 108.449H77.5921V111.449H86.2111V108.449ZM84.7111 48.9695V109.949H87.7111V48.9695H84.7111ZM90.5396 47.4695H86.2111V50.4695H90.5396V47.4695ZM91.5463 44.8576C92.5638 45.7788 91.9121 47.4695 90.5396 47.4695V50.4695C94.6572 50.4695 96.6122 45.3973 93.5598 42.6337L91.5463 44.8576ZM82.9082 37.0367L91.5463 44.8576L93.5598 42.6337L84.9217 34.8128L82.9082 37.0367Z" fill="#42A4FF"/>
<path fill-rule="evenodd" clip-rule="evenodd" d="M119.079 72.3605C120.114 71.2176 120.114 69.4764 119.079 68.3335L111.258 59.6953C109.416 57.6604 106.035 58.9638 106.035 61.7089V65.5612H93.106C84.5377 65.5612 77.5918 72.5072 77.5918 81.0754V109.949H86.2108V81.0754C86.2108 77.2673 89.2979 74.1802 93.106 74.1802H106.035V78.9851C106.035 81.7302 109.416 83.0335 111.258 80.9986L119.079 72.3605Z" fill="white"/>
<path d="M119.079 68.3335L120.191 67.3267V67.3267L119.079 68.3335ZM119.079 72.3605L120.191 73.3672V73.3672L119.079 72.3605ZM111.258 59.6953L112.37 58.6886V58.6886L111.258 59.6953ZM106.035 65.5612V67.0612H107.535V65.5612H106.035ZM77.5918 109.949H76.0918V111.449H77.5918V109.949ZM86.2108 109.949V111.449H87.7108V109.949H86.2108ZM106.035 74.1802H107.535V72.6802H106.035V74.1802ZM111.258 80.9986L112.37 82.0053L111.258 80.9986ZM117.967 69.3402C118.485 69.9117 118.485 70.7823 117.967 71.3537L120.191 73.3672C121.743 71.6529 121.743 69.0411 120.191 67.3267L117.967 69.3402ZM110.146 60.7021L117.967 69.3402L120.191 67.3267L112.37 58.6886L110.146 60.7021ZM107.535 61.7089C107.535 60.3363 109.225 59.6846 110.146 60.7021L112.37 58.6886C109.607 55.6362 104.535 57.5912 104.535 61.7089H107.535ZM107.535 65.5612V61.7089H104.535V65.5612H107.535ZM93.106 67.0612H106.035V64.0612H93.106V67.0612ZM79.0918 81.0754C79.0918 73.3356 85.3662 67.0612 93.106 67.0612V64.0612C83.7093 64.0612 76.0918 71.6787 76.0918 81.0754H79.0918ZM79.0918 109.949V81.0754H76.0918V109.949H79.0918ZM86.2108 108.449H77.5918V111.449H86.2108V108.449ZM84.7108 81.0754V109.949H87.7108V81.0754H84.7108ZM93.106 72.6802C88.4695 72.6802 84.7108 76.4389 84.7108 81.0754H87.7108C87.7108 78.0957 90.1263 75.6802 93.106 75.6802V72.6802ZM106.035 72.6802H93.106V75.6802H106.035V72.6802ZM107.535 78.9851V74.1802H104.535V78.9851H107.535ZM110.146 79.9918C109.225 81.0093 107.535 80.3576 107.535 78.9851H104.535C104.535 83.1027 109.607 85.0577 112.37 82.0053L110.146 79.9918ZM117.967 71.3537L110.146 79.9918L112.37 82.0053L120.191 73.3672L117.967 71.3537Z" fill="#42A4FF"/>
<path fill-rule="evenodd" clip-rule="evenodd" d="M44.0769 82.1239C43.0421 83.2668 43.0421 85.008 44.0769 86.1509L51.8977 94.789C53.7401 96.8239 57.1216 95.5206 57.1216 92.7755V88.8325H70.6966C74.5047 88.8325 77.5918 91.9196 77.5918 95.7277V109.949H86.2108V95.7277C86.2108 87.1595 79.2648 80.2135 70.6966 80.2135H57.1216V75.4993C57.1216 72.7542 53.7401 71.4508 51.8977 73.4858L44.0769 82.1239Z" fill="white"/>
<path d="M44.0769 86.1509L45.1888 85.1441H45.1888L44.0769 86.1509ZM44.0769 82.1239L42.9649 81.1171L42.9649 81.1171L44.0769 82.1239ZM51.8977 94.789L50.7858 95.7957H50.7858L51.8977 94.789ZM57.1216 88.8325V87.3325H55.6216V88.8325H57.1216ZM77.5918 109.949H76.0918V111.449H77.5918V109.949ZM86.2108 109.949V111.449H87.7108V109.949H86.2108ZM57.1216 80.2135H55.6216V81.7135H57.1216V80.2135ZM51.8977 73.4858L50.7858 72.479V72.479L51.8977 73.4858ZM45.1888 85.1441C44.6714 84.5727 44.6714 83.7021 45.1888 83.1306L42.9649 81.1171C41.4127 82.8315 41.4127 85.4433 42.9649 87.1576L45.1888 85.1441ZM53.0097 93.7822L45.1888 85.1441L42.9649 87.1576L50.7858 95.7957L53.0097 93.7822ZM55.6216 92.7755C55.6216 94.148 53.9309 94.7997 53.0097 93.7822L50.7858 95.7957C53.5494 98.8482 58.6216 96.8931 58.6216 92.7755H55.6216ZM55.6216 88.8325V92.7755H58.6216V88.8325H55.6216ZM70.6966 87.3325H57.1216V90.3325H70.6966V87.3325ZM79.0918 95.7277C79.0918 91.0912 75.3331 87.3325 70.6966 87.3325V90.3325C73.6763 90.3325 76.0918 92.7481 76.0918 95.7277H79.0918ZM79.0918 109.949V95.7277H76.0918V109.949H79.0918ZM86.2108 108.449H77.5918V111.449H86.2108V108.449ZM84.7108 95.7277V109.949H87.7108V95.7277H84.7108ZM70.6966 81.7135C78.4364 81.7135 84.7108 87.9879 84.7108 95.7277H87.7108C87.7108 86.3311 80.0933 78.7135 70.6966 78.7135V81.7135ZM57.1216 81.7135H70.6966V78.7135H57.1216V81.7135ZM55.6216 75.4993V80.2135H58.6216V75.4993H55.6216ZM53.0097 74.4925C53.9309 73.475 55.6216 74.1267 55.6216 75.4993H58.6216C58.6216 71.3816 53.5494 69.4266 50.7858 72.479L53.0097 74.4925ZM45.1888 83.1306L53.0097 74.4925L50.7858 72.479L42.9649 81.1171L45.1888 83.1306Z" fill="#42A4FF"/>
<defs>
<filter id="filter0_d_662_7407" x="0" y="0" width="160" height="160" filterUnits="userSpaceOnUse" color-interpolation-filters="sRGB">
<feFlood flood-opacity="0" result="BackgroundImageFix"/>
<feColorMatrix in="SourceAlpha" type="matrix" values="0 0 0 0 0 0 0 0 0 0 0 0 0 0 0 0 0 0 127 0" result="hardAlpha"/>
<feOffset dy="6"/>
<feGaussianBlur stdDeviation="10"/>
<feColorMatrix type="matrix" values="0 0 0 0 0.0561006 0 0 0 0 0.153723 0 0 0 0 0.237399 0 0 0 0.15 0"/>
<feBlend mode="normal" in2="BackgroundImageFix" result="effect1_dropShadow_662_7407"/>
<feBlend mode="normal" in="SourceGraphic" in2="effect1_dropShadow_662_7407" result="shape"/>
</filter>
</defs>
</svg>
