<svg width="55" height="49" viewBox="0 0 55 49" fill="none" xmlns="http://www.w3.org/2000/svg">
<path fill-rule="evenodd" clip-rule="evenodd" d="M2.89063 6.45314C2.89063 3.97648 4.89836 1.96875 7.37501 1.96875C9.85167 1.96875 11.8594 3.97648 11.8594 6.45314C11.8594 8.92979 9.85167 10.9375 7.37501 10.9375C4.89836 10.9375 2.89063 8.9298 2.89063 6.45314ZM7.37501 -2.82076e-07C3.81104 -1.2629e-07 0.921875 2.88917 0.921875 6.45314C0.921875 10.0171 3.81104 12.9063 7.37501 12.9063C10.939 12.9063 13.8282 10.0171 13.8282 6.45314C13.8282 2.88917 10.939 -4.37862e-07 7.37501 -2.82076e-07Z" fill="#15212B"/>
<path fill-rule="evenodd" clip-rule="evenodd" d="M34.3916 6.45314C34.3916 3.97648 36.3993 1.96875 38.876 1.96875C41.3526 1.96875 43.3604 3.97648 43.3604 6.45314C43.3604 8.92979 41.3526 10.9375 38.876 10.9375C36.3993 10.9375 34.3916 8.9298 34.3916 6.45314ZM38.876 -2.82076e-07C35.312 -1.2629e-07 32.4229 2.88917 32.4229 6.45314C32.4229 10.0171 35.312 12.9063 38.876 12.9063C42.44 12.9063 45.3291 10.0171 45.3291 6.45314C45.3291 2.88917 42.44 -4.37862e-07 38.876 -2.82076e-07Z" fill="#15212B"/>
<path d="M20.7158 30.0781C23.3737 30.0781 25.5283 27.9235 25.5283 25.2656C25.5283 22.6078 23.3737 20.4531 20.7158 20.4531C18.058 20.4531 15.9033 22.6078 15.9033 25.2656C15.9033 27.9235 18.058 30.0781 20.7158 30.0781Z" fill="url(#paint0_linear_3142_5360)"/>
<path fill-rule="evenodd" clip-rule="evenodd" d="M16.2354 25.2656C16.2354 22.789 18.2431 20.7813 20.7197 20.7813C23.1964 20.7813 25.2041 22.789 25.2041 25.2656C25.2041 27.7423 23.1964 29.75 20.7197 29.75C18.2431 29.75 16.2354 27.7423 16.2354 25.2656ZM20.7197 18.8125C17.1558 18.8125 14.2666 21.7017 14.2666 25.2656C14.2666 28.8296 17.1558 31.7188 20.7197 31.7188C24.2837 31.7188 27.1729 28.8296 27.1729 25.2656C27.1729 21.7017 24.2837 18.8125 20.7197 18.8125Z" fill="#15212B"/>
<path d="M45.7627 47.5791C49.5683 47.5791 52.6533 44.4941 52.6533 40.6885C52.6533 36.8829 49.5683 33.7979 45.7627 33.7979C41.9571 33.7979 38.8721 36.8829 38.8721 40.6885C38.8721 44.4941 41.9571 47.5791 45.7627 47.5791Z" fill="url(#paint1_linear_3142_5360)"/>
<path fill-rule="evenodd" clip-rule="evenodd" d="M39.4219 40.6875C39.4219 37.184 42.2621 34.3438 45.7656 34.3438C49.2692 34.3438 52.1094 37.184 52.1094 40.6875C52.1094 44.1911 49.2692 47.0313 45.7656 47.0313C42.2621 47.0313 39.4219 44.1911 39.4219 40.6875ZM45.7656 32.375C41.1748 32.375 37.4531 36.0966 37.4531 40.6875C37.4531 45.2784 41.1748 49 45.7656 49C50.3565 49 54.0782 45.2784 54.0782 40.6875C54.0782 36.0966 50.3565 32.375 45.7656 32.375Z" fill="#15212B"/>
<path fill-rule="evenodd" clip-rule="evenodd" d="M47.627 6.5625C47.627 6.01885 48.0677 5.57812 48.6114 5.57812H50.0332C51.785 5.57812 53.2051 6.99822 53.2051 8.75001V23.0782C53.2051 24.8299 51.785 26.25 50.0332 26.25H31.6582C31.1145 26.25 30.6738 25.8093 30.6738 25.2657C30.6738 24.722 31.1145 24.2813 31.6582 24.2813H50.0332C50.6977 24.2813 51.2364 23.7426 51.2364 23.0782V8.75001C51.2364 8.08554 50.6977 7.54688 50.0332 7.54688H48.6114C48.0677 7.54688 47.627 7.10616 47.627 6.5625Z" fill="#15212B"/>
<path fill-rule="evenodd" clip-rule="evenodd" d="M11.9677 25.2656C11.9677 24.722 11.527 24.2812 10.9834 24.2812H5.84272C4.09093 24.2812 2.67084 25.7013 2.67084 27.4531V41.7813C2.67084 43.5331 4.09093 44.9532 5.84272 44.9532H33.2959C33.8396 44.9532 34.2803 44.5124 34.2803 43.9688C34.2803 43.4251 33.8396 42.9844 33.2959 42.9844H5.84272C5.17825 42.9844 4.63959 42.4458 4.63959 41.7813V27.4531C4.63959 26.7887 5.17825 26.25 5.84272 26.25H10.9834C11.527 26.25 11.9677 25.8093 11.9677 25.2656Z" fill="#15212B"/>
<path fill-rule="evenodd" clip-rule="evenodd" d="M24.7229 1.70922C25.1073 1.32479 25.7306 1.32479 26.115 1.70922L29.8979 5.49204C30.3677 5.96189 30.3677 6.72367 29.8979 7.19352L26.115 10.9764C25.7306 11.3608 25.1073 11.3608 24.7229 10.9764C24.3385 10.5919 24.3385 9.96866 24.7229 9.58423L26.98 7.32716H16.8877C16.344 7.32716 15.9033 6.88644 15.9033 6.34278C15.9033 5.79913 16.344 5.35841 16.8877 5.35841H26.98L24.7229 3.10134C24.3385 2.71691 24.3385 2.09364 24.7229 1.70922Z" fill="#15212B"/>
<path fill-rule="evenodd" clip-rule="evenodd" d="M34.7556 29.9002C34.3712 30.2846 33.7479 30.2846 33.3635 29.9002L29.5807 26.1173C29.1108 25.6475 29.1108 24.8857 29.5807 24.4159L33.3635 20.633C33.7479 20.2486 34.3712 20.2486 34.7556 20.633C35.1401 21.0174 35.1401 21.6407 34.7556 22.0251L31.5142 25.2666L34.7556 28.508C35.1401 28.8925 35.1401 29.5157 34.7556 29.9002Z" fill="#15212B"/>
<path fill-rule="evenodd" clip-rule="evenodd" d="M29.8674 48.6013C30.2518 48.9858 30.8751 48.9858 31.2595 48.6013L35.0424 44.8185C35.5122 44.3487 35.5122 43.5869 35.0424 43.117L31.2595 39.3342C30.8751 38.9498 30.2518 38.9498 29.8674 39.3342C29.483 39.7186 29.483 40.3419 29.8674 40.7263L33.1089 43.9678L29.8674 47.2092C29.483 47.5936 29.483 48.2169 29.8674 48.6013Z" fill="#15212B"/>
<defs>
<linearGradient id="paint0_linear_3142_5360" x1="17.1244" y1="21.746" x2="24.4509" y2="28.2824" gradientUnits="userSpaceOnUse">
<stop stop-color="#42A4FF"/>
<stop offset="1" stop-color="white"/>
</linearGradient>
<linearGradient id="paint1_linear_3142_5360" x1="40.6204" y1="35.6491" x2="51.1107" y2="45.008" gradientUnits="userSpaceOnUse">
<stop stop-color="#42A4FF"/>
<stop offset="1" stop-color="white"/>
</linearGradient>
</defs>
</svg>
