<svg width="43" height="49" viewBox="0 0 43 49" fill="none" xmlns="http://www.w3.org/2000/svg">
<path fill-rule="evenodd" clip-rule="evenodd" d="M6.01562 8.0363C6.01562 7.54918 6.41051 7.1543 6.89763 7.1543H13.9537C14.4408 7.1543 14.8357 7.54918 14.8357 8.0363C14.8357 8.52342 14.4408 8.91831 13.9537 8.91831H6.89763C6.41051 8.91831 6.01562 8.52342 6.01562 8.0363Z" fill="black"/>
<path fill-rule="evenodd" clip-rule="evenodd" d="M6.01562 12.5441C6.01562 12.057 6.41051 11.6621 6.89763 11.6621H13.1697C13.6568 11.6621 14.0517 12.057 14.0517 12.5441C14.0517 13.0312 13.6568 13.4261 13.1697 13.4261H6.89763C6.41051 13.4261 6.01562 13.0312 6.01562 12.5441Z" fill="black"/>
<path fill-rule="evenodd" clip-rule="evenodd" d="M6.01562 17.0519C6.01562 16.5648 6.41051 16.1699 6.89763 16.1699H13.9537C14.4408 16.1699 14.8357 16.5648 14.8357 17.0519C14.8357 17.539 14.4408 17.9339 13.9537 17.9339H6.89763C6.41051 17.9339 6.01562 17.539 6.01562 17.0519Z" fill="black"/>
<path fill-rule="evenodd" clip-rule="evenodd" d="M22.8706 8.32758C21.0215 8.73151 19.6371 10.3785 19.6371 12.3488C19.6371 14.622 21.4799 16.4648 23.7531 16.4648C24.5957 16.4648 25.3792 16.2116 26.0316 15.7771L23.2438 12.9893C23.0049 12.7503 22.8706 12.4263 22.8706 12.0884V8.32758ZM27.2577 14.5085C27.6454 13.8807 27.8691 13.1408 27.8691 12.3488C27.8691 10.3782 26.4842 8.73098 24.6346 8.32738V11.8854L27.2577 14.5085ZM23.7531 6.46875C20.5056 6.46875 17.873 9.10133 17.873 12.3488C17.873 15.5962 20.5056 18.2288 23.7531 18.2288C27.0005 18.2288 29.6331 15.5962 29.6331 12.3488C29.6331 9.10133 27.0005 6.46875 23.7531 6.46875Z" fill="black"/>
<path fill-rule="evenodd" clip-rule="evenodd" d="M10.7185 21.9513C10.7185 21.4642 10.3236 21.0693 9.83648 21.0693C9.34937 21.0693 8.95448 21.4642 8.95448 21.9513V22.6078C7.41106 22.92 6.21128 24.2713 6.21128 26.0673C6.21128 27.2058 6.82923 28.0128 7.444 28.5704C7.75133 28.8492 8.08078 29.0869 8.36821 29.2864C8.45314 29.3453 8.53214 29.3995 8.60612 29.4502L8.60616 29.4502C8.73607 29.5392 8.85052 29.6177 8.95448 29.6929L8.95448 34.0712C8.29505 33.7042 7.87729 32.9426 7.87729 32.1434C7.87729 31.6563 7.4824 31.2614 6.99529 31.2614C6.50817 31.2614 6.11328 31.6563 6.11328 32.1434C6.11328 33.7142 7.12731 35.5144 8.95448 35.9598V36.4554C8.95448 36.9425 9.34936 37.3374 9.83648 37.3374C10.3236 37.3374 10.7185 36.9425 10.7185 36.4554V35.9769C11.4356 35.8304 12.0663 35.4982 12.5422 34.9847C13.2086 34.2656 13.4828 33.2862 13.3593 32.2363C13.2252 31.0968 12.5568 30.2776 11.9073 29.6972C11.5801 29.4048 11.2368 29.1545 10.9365 28.9438C10.8592 28.8896 10.7867 28.8393 10.7185 28.792V24.6063C10.7791 24.6468 10.836 24.6909 10.8888 24.7384C11.1776 24.9984 11.4053 25.414 11.4053 26.0673C11.4053 26.5545 11.8002 26.9494 12.2873 26.9494C12.7744 26.9494 13.1693 26.5545 13.1693 26.0673C13.1693 24.9567 12.76 24.0493 12.0688 23.4272C11.6743 23.0721 11.2096 22.8292 10.7185 22.6884V21.9513ZM8.95448 24.4499C8.38858 24.7053 7.97529 25.2811 7.97529 26.0673C7.97529 26.4969 8.19035 26.8659 8.62909 27.2638C8.73086 27.3561 8.83974 27.4454 8.95448 27.5335V24.4499ZM10.7185 31.0006V34.1432C10.9429 34.0516 11.1181 33.9262 11.2484 33.7856C11.513 33.5001 11.6798 33.0586 11.6074 32.4424C11.5454 31.916 11.2338 31.4611 10.7319 31.0125C10.7274 31.0086 10.723 31.0046 10.7185 31.0006Z" fill="black"/>
<rect x="25.4209" y="24.9902" width="16.0721" height="23.1281" rx="3" fill="url(#paint0_linear_3142_5312)"/>
<path fill-rule="evenodd" clip-rule="evenodd" d="M0.625977 4.99803C0.625977 2.23769 2.86367 0 5.624 0H29.1441C31.9045 0 34.1422 2.23769 34.1422 4.99803V24.1075H39.3363C41.0141 24.1075 42.3743 25.4676 42.3743 27.1455V45.9616C42.3743 47.6394 41.0141 48.9996 39.3363 48.9996H27.5762C25.8984 48.9996 24.5382 47.6394 24.5382 45.9616V43.1202H5.624C2.86367 43.1202 0.625977 40.8825 0.625977 38.1222V4.99803ZM24.5382 41.3562V36.1624H18.0703C17.5831 36.1624 17.1883 35.7675 17.1883 35.2804C17.1883 34.7933 17.5831 34.3984 18.0703 34.3984H24.5382V31.6557H18.0703C17.5831 31.6557 17.1883 31.2609 17.1883 30.7737C17.1883 30.2866 17.5831 29.8917 18.0703 29.8917H24.5382V27.2441H18.7574C17.7291 27.2441 16.8954 26.4105 16.8954 25.3821V22.6381C16.8954 21.6097 17.7291 20.7761 18.7574 20.7761H27.9695C28.9978 20.7761 29.8315 21.6097 29.8315 22.6381V24.1075H32.3782V4.99803C32.3782 3.21193 30.9302 1.76401 29.1441 1.76401H5.624C3.83791 1.76401 2.38999 3.21193 2.38999 4.99803V38.1222C2.38999 39.9083 3.8379 41.3562 5.624 41.3562H24.5382ZM28.0675 24.1075V22.6381C28.0675 22.584 28.0236 22.5401 27.9695 22.5401H18.7574C18.7033 22.5401 18.6594 22.584 18.6594 22.6381V25.3821C18.6594 25.4362 18.7033 25.4801 18.7574 25.4801H25.035C25.5778 24.6534 26.5133 24.1075 27.5762 24.1075H28.0675ZM26.3022 27.1455C26.3022 26.4419 26.8726 25.8715 27.5762 25.8715H39.3363C40.0399 25.8715 40.6103 26.4419 40.6103 27.1455V45.9616C40.6103 46.6652 40.0399 47.2356 39.3363 47.2356H27.5762C26.8726 47.2356 26.3022 46.6652 26.3022 45.9616V27.1455Z" fill="black"/>
<path d="M28.7529 28.7143C28.7529 28.4978 28.9284 28.3223 29.1449 28.3223H37.965C38.1815 28.3223 38.357 28.4978 38.357 28.7143V31.2623C38.357 31.4788 38.1815 31.6543 37.965 31.6543H29.1449C28.9284 31.6543 28.7529 31.4788 28.7529 31.2623V28.7143Z" fill="#D9EDFF"/>
<path fill-rule="evenodd" clip-rule="evenodd" d="M27.8701 28.7144C27.8701 28.0108 28.4405 27.4404 29.1441 27.4404H37.9642C38.6678 27.4404 39.2382 28.0108 39.2382 28.7144V31.2625C39.2382 31.9661 38.6678 32.5365 37.9642 32.5365H29.1441C28.4405 32.5365 27.8701 31.9661 27.8701 31.2625V28.7144ZM29.6341 29.2044V30.7724H37.4742V29.2044H29.6341Z" fill="black"/>
<path fill-rule="evenodd" clip-rule="evenodd" d="M27.8701 35.1818C27.8701 34.6947 28.265 34.2998 28.7521 34.2998H30.4181C30.9052 34.2998 31.3001 34.6947 31.3001 35.1818C31.3001 35.6689 30.9052 36.0638 30.4181 36.0638H28.7521C28.265 36.0638 27.8701 35.6689 27.8701 35.1818Z" fill="black"/>
<path fill-rule="evenodd" clip-rule="evenodd" d="M27.8701 38.5138C27.8701 38.0267 28.265 37.6318 28.7521 37.6318H30.4181C30.9052 37.6318 31.3001 38.0267 31.3001 38.5138C31.3001 39.001 30.9052 39.3958 30.4181 39.3958H28.7521C28.265 39.3958 27.8701 39.001 27.8701 38.5138Z" fill="black"/>
<path fill-rule="evenodd" clip-rule="evenodd" d="M27.8701 41.8459C27.8701 41.3588 28.265 40.9639 28.7521 40.9639H30.4181C30.9052 40.9639 31.3001 41.3588 31.3001 41.8459C31.3001 42.333 30.9052 42.7279 30.4181 42.7279H28.7521C28.265 42.7279 27.8701 42.333 27.8701 41.8459Z" fill="black"/>
<path fill-rule="evenodd" clip-rule="evenodd" d="M31.9854 35.1818C31.9854 34.6947 32.3802 34.2998 32.8674 34.2998H34.5334C35.0205 34.2998 35.4154 34.6947 35.4154 35.1818C35.4154 35.6689 35.0205 36.0638 34.5334 36.0638H32.8674C32.3802 36.0638 31.9854 35.6689 31.9854 35.1818Z" fill="black"/>
<path fill-rule="evenodd" clip-rule="evenodd" d="M31.9854 38.5138C31.9854 38.0267 32.3802 37.6318 32.8674 37.6318H34.5334C35.0205 37.6318 35.4154 38.0267 35.4154 38.5138C35.4154 39.001 35.0205 39.3958 34.5334 39.3958H32.8674C32.3802 39.3958 31.9854 39.001 31.9854 38.5138Z" fill="black"/>
<path fill-rule="evenodd" clip-rule="evenodd" d="M31.9854 41.8459C31.9854 41.3588 32.3802 40.9639 32.8674 40.9639H34.5334C35.0205 40.9639 35.4154 41.3588 35.4154 41.8459C35.4154 42.333 35.0205 42.7279 34.5334 42.7279H32.8674C32.3802 42.7279 31.9854 42.333 31.9854 41.8459Z" fill="black"/>
<path fill-rule="evenodd" clip-rule="evenodd" d="M31.9854 45.1779C31.9854 44.6908 32.3802 44.2959 32.8674 44.2959H34.5334C35.0205 44.2959 35.4154 44.6908 35.4154 45.1779C35.4154 45.665 35.0205 46.0599 34.5334 46.0599H32.8674C32.3802 46.0599 31.9854 45.665 31.9854 45.1779Z" fill="black"/>
<path fill-rule="evenodd" clip-rule="evenodd" d="M36.1025 35.1818C36.1025 34.6947 36.4974 34.2998 36.9845 34.2998H38.6506C39.1377 34.2998 39.5326 34.6947 39.5326 35.1818C39.5326 35.6689 39.1377 36.0638 38.6506 36.0638H36.9845C36.4974 36.0638 36.1025 35.6689 36.1025 35.1818Z" fill="black"/>
<path fill-rule="evenodd" clip-rule="evenodd" d="M36.1025 38.5138C36.1025 38.0267 36.4974 37.6318 36.9845 37.6318H38.6506C39.1377 37.6318 39.5326 38.0267 39.5326 38.5138C39.5326 39.001 39.1377 39.3958 38.6506 39.3958H36.9845C36.4974 39.3958 36.1025 39.001 36.1025 38.5138Z" fill="black"/>
<path fill-rule="evenodd" clip-rule="evenodd" d="M36.1025 41.8459C36.1025 41.3588 36.4974 40.9639 36.9845 40.9639H38.6506C39.1377 40.9639 39.5326 41.3588 39.5326 41.8459C39.5326 42.333 39.1377 42.7279 38.6506 42.7279H36.9845C36.4974 42.7279 36.1025 42.333 36.1025 41.8459Z" fill="black"/>
<defs>
<linearGradient id="paint0_linear_3142_5312" x1="27.5798" y1="27.9244" x2="42.9077" y2="39.8635" gradientUnits="userSpaceOnUse">
<stop stop-color="#42A4FF"/>
<stop offset="1" stop-color="white"/>
</linearGradient>
</defs>
</svg>
