<svg width="121" height="121" viewBox="0 0 121 121" fill="none" xmlns="http://www.w3.org/2000/svg">
<path d="M32.5455 37.4689C45.4928 38.3813 57.0582 30.8162 60.9386 26.9196C70.0245 36.4995 83.4638 37.9441 89.0476 37.4689C89.8994 55.4314 92.455 85.0838 60.9386 95.9183C29.1383 84.5135 32.5457 55.7165 32.5455 37.4689Z" stroke="white" stroke-width="5" stroke-linecap="round" stroke-linejoin="round"/>
<circle cx="60.515" cy="60.515" r="57.515" stroke="white" stroke-width="5"/>
<path d="M52.6363 59.4434C51.6767 58.4507 50.094 58.4239 49.1013 59.3835C48.1086 60.3431 48.0818 61.9258 49.0414 62.9185L52.6363 59.4434ZM57.7387 68.3188L55.9413 70.0563L57.7387 71.9158L59.5362 70.0563L57.7387 68.3188ZM72.876 56.2566C73.8356 55.2639 73.8088 53.6812 72.816 52.7216C71.8233 51.7619 70.2406 51.7888 69.281 52.7815L72.876 56.2566ZM49.0414 62.9185L55.9413 70.0563L59.5362 66.5812L52.6363 59.4434L49.0414 62.9185ZM59.5362 70.0563L72.876 56.2566L69.281 52.7815L55.9413 66.5812L59.5362 70.0563Z" fill="white"/>
</svg>
