<svg width="128" height="128" viewBox="0 0 128 128" fill="none" xmlns="http://www.w3.org/2000/svg">
<g clip-path="url(#clip0_37_2946)">
<path d="M10.2548 55.82C10.921 56.0865 11.6936 56.0865 12.3598 55.7668L33.1694 46.3079C34.5016 45.6684 35.0611 44.0697 34.4217 42.7375C33.8089 41.4586 32.2902 40.8723 30.9845 41.4586L16.4098 48.0931C23.364 27.2835 42.7348 13.375 65.0364 13.375C88.4039 13.375 108.84 28.9889 114.729 51.3437C115.102 52.7558 116.567 53.6086 117.979 53.2354C119.391 52.8625 120.244 51.3969 119.871 49.9848C113.37 25.3119 90.8282 8.04614 65.0362 8.04614C40.4432 8.04614 19.0473 23.3935 11.3205 46.3613L5.19226 31.0407C4.73938 29.6551 3.22063 28.8825 1.83502 29.3353C0.449415 29.7882 -0.323198 31.307 0.129679 32.6926C0.156407 32.7992 0.209613 32.9057 0.262819 33.0123L8.76256 54.328C9.02909 54.9942 9.5619 55.5537 10.2548 55.82Z" fill="white"/>
<path d="M127.838 95.1476C127.811 95.0944 127.785 95.0409 127.785 94.9877L119.285 73.672C119.019 73.0058 118.486 72.4463 117.793 72.18C117.127 71.9135 116.354 71.9402 115.688 72.2332L94.8785 81.6922C93.5196 82.2517 92.8801 83.8237 93.4397 85.1826C93.9992 86.5414 95.5712 87.1809 96.9301 86.6214C96.9833 86.5946 97.0367 86.5682 97.0899 86.5414L111.665 79.9069C104.657 100.716 85.2597 114.625 62.9848 114.625C39.6173 114.625 19.1809 99.0112 13.2925 76.6563C12.9195 75.2442 11.454 74.3914 10.0419 74.7646C8.62982 75.1376 7.77702 76.6031 8.15021 78.0152C14.6249 102.715 37.193 119.954 62.985 119.954C87.578 119.954 108.947 104.607 116.701 81.6387L122.829 96.9593C123.335 98.345 124.854 99.0644 126.239 98.558C127.625 98.0519 128.344 96.5332 127.838 95.1476Z" fill="white"/>
</g>
<defs>
<clipPath id="clip0_37_2946">
<rect width="128" height="128" fill="white"/>
</clipPath>
</defs>
</svg>
