<svg width="49" height="49" viewBox="0 0 49 49" fill="none" xmlns="http://www.w3.org/2000/svg">
<path fill-rule="evenodd" clip-rule="evenodd" d="M14.498 7.78188C14.498 7.32148 14.8713 6.94824 15.3317 6.94824H26.0764C26.5368 6.94824 26.91 7.32148 26.91 7.78188C26.91 8.24229 26.5368 8.61552 26.0764 8.61552H15.3317C14.8713 8.61552 14.498 8.24229 14.498 7.78188Z" fill="black"/>
<path fill-rule="evenodd" clip-rule="evenodd" d="M26.1699 30.0104C26.1699 29.55 26.5432 29.1768 27.0036 29.1768H33.6727C34.1331 29.1768 34.5063 29.55 34.5063 30.0104C34.5063 30.4708 34.1331 30.844 33.6727 30.844H27.0036C26.5432 30.844 26.1699 30.4708 26.1699 30.0104Z" fill="black"/>
<path fill-rule="evenodd" clip-rule="evenodd" d="M14.498 24.4538C14.498 23.9934 14.8713 23.6201 15.3317 23.6201H33.6718C34.1322 23.6201 34.5054 23.9934 34.5054 24.4538C34.5054 24.9142 34.1322 25.2874 33.6718 25.2874H15.3317C14.8713 25.2874 14.498 24.9142 14.498 24.4538Z" fill="black"/>
<path fill-rule="evenodd" clip-rule="evenodd" d="M14.498 13.3415C14.498 12.881 14.8713 12.5078 15.3317 12.5078H33.4865C33.9469 12.5078 34.3202 12.881 34.3202 13.3415C34.3202 13.8019 33.9469 14.1751 33.4865 14.1751H15.3317C14.8713 14.1751 14.498 13.8019 14.498 13.3415Z" fill="black"/>
<path fill-rule="evenodd" clip-rule="evenodd" d="M14.498 18.8961C14.498 18.4357 14.8713 18.0625 15.3317 18.0625H31.4487C31.9091 18.0625 32.2824 18.4357 32.2824 18.8961C32.2824 19.3565 31.9091 19.7298 31.4487 19.7298H15.3317C14.8713 19.7298 14.498 19.3565 14.498 18.8961Z" fill="black"/>
<path d="M1.71875 30.7507C1.71875 30.6484 1.80169 30.5654 1.904 30.5654H4.86806C5.78887 30.5654 6.53534 31.3119 6.53534 32.2327V46.4972C6.53534 47.418 5.78887 48.1645 4.86806 48.1645H1.904C1.80169 48.1645 1.71875 48.0816 1.71875 47.9793V30.7507Z" fill="url(#paint0_linear_3180_4869)"/>
<path fill-rule="evenodd" clip-rule="evenodd" d="M8.6615 4.72396C8.6615 2.11499 10.7765 0 13.3855 0H32.2999C32.8649 0 33.4068 0.224454 33.8064 0.623984L39.7158 6.53347C40.1154 6.933 40.3398 7.47488 40.3398 8.0399V33.5335L42.626 31.2733L42.6266 31.2727L42.6279 31.2714L42.6309 31.2685L42.6387 31.2608L42.6616 31.2389C42.6801 31.2216 42.7048 31.1988 42.7355 31.1719C42.7967 31.1181 42.8825 31.0466 42.9899 30.9672C43.2019 30.8105 43.5123 30.6119 43.8947 30.4619C44.6862 30.1515 45.8135 30.0518 46.8942 30.9419C47.9407 31.8038 48.156 32.9044 48.1114 33.7373C48.0895 34.1464 48.0062 34.4989 47.9297 34.7479C47.8911 34.8736 47.8532 34.9763 47.8235 35.0504C47.8087 35.0876 47.7958 35.1179 47.7859 35.1406L47.7731 35.169L47.7685 35.1789L47.7668 35.1827L47.7656 35.1851C47.7655 35.1854 47.7653 35.1858 47.0126 34.8273L47.7653 35.1858L47.7158 35.2897L41.457 42.4427C39.0473 45.1965 35.5661 46.7762 31.9069 46.7762L13.7597 46.7762C13.2992 46.7762 12.926 46.403 12.926 45.9425C12.926 45.4821 13.2992 45.1089 13.7597 45.1089H31.9069C35.0854 45.1089 38.1091 43.7368 40.2022 41.3447L46.2941 34.3825C46.3065 34.349 46.3209 34.3072 46.3359 34.2584C46.3838 34.1022 46.4337 33.8874 46.4465 33.6481C46.4713 33.1843 46.3625 32.6639 45.8343 32.2289C45.3404 31.8221 44.893 31.8613 44.5035 32.0141C44.2954 32.0957 44.1138 32.2098 43.9813 32.3078C43.9164 32.3557 43.8669 32.3972 43.8359 32.4244C43.8204 32.438 43.8098 32.4479 43.8044 32.453L43.801 32.4561L43.8003 32.4569L36.6783 39.4979C35.8634 40.3036 34.7636 40.7555 33.6176 40.7555H29.6812C29.0845 41.4512 28.2352 41.5977 27.6638 41.6081C27.3424 41.6139 27.0563 41.5791 26.8528 41.544C26.7498 41.5262 26.6649 41.5079 26.6033 41.4933C26.5724 41.486 26.5472 41.4795 26.5283 41.4746L26.5047 41.4682L26.4966 41.4659L26.4935 41.465L26.4916 41.4645C26.4913 41.4644 26.491 41.4643 26.7224 40.6634L26.491 41.4643L26.4223 41.4445L19.8614 38.2551H17.7376C17.2772 38.2551 16.9039 37.8819 16.9039 37.4215C16.9039 36.9611 17.2772 36.5878 17.7376 36.5878H20.2451L27.009 39.8758C27.0408 39.883 27.084 39.892 27.1361 39.901C27.2683 39.9238 27.4454 39.9445 27.6335 39.9411C28.0388 39.9337 28.3089 39.8239 28.4523 39.6231C28.6575 39.3359 28.6955 39.0011 28.6272 38.6739C28.593 38.5097 28.5341 38.3627 28.4702 38.2497C28.413 38.1486 28.3682 38.1032 28.359 38.0938L28.359 38.0938C28.3579 38.0927 28.3573 38.0921 28.3573 38.092C28.3573 38.0919 28.3576 38.0921 28.3583 38.0926C27.2387 37.2677 23.2081 34.3633 20.4375 32.3693C18.938 31.2901 17.0173 30.9874 15.2566 31.5509L7.36668 34.0756V46.4992C7.36668 47.8804 6.24698 49.0001 4.86576 49.0001H1.90171C1.33899 49.0001 0.882812 48.5439 0.882812 47.9812V30.7527C0.882812 30.1899 1.33899 29.7338 1.90171 29.7338H4.86576C6.24698 29.7338 7.36668 30.8535 7.36668 32.2347V32.3251L8.6615 31.9107V4.72396ZM30.3226 39.0882H33.6176C34.3247 39.0882 35.0033 38.8094 35.5061 38.3122L38.6726 35.1818V9.45072H33.7665C32.1806 9.45072 30.8951 8.16514 30.8951 6.57929V1.66728H13.3855C11.6973 1.66728 10.3288 3.0358 10.3288 4.72396V31.3772L14.7484 29.9629C17.0113 29.2388 19.482 29.6274 21.4114 31.016C24.1768 33.0063 28.218 35.9183 29.3473 36.7504C29.7937 37.0793 30.1278 37.7031 30.2593 38.3332C30.3084 38.5681 30.3336 38.8234 30.3226 39.0882ZM38.5369 7.71242C38.5588 7.73427 38.5782 7.75808 38.5951 7.78344H33.7665C33.1015 7.78344 32.5623 7.24433 32.5623 6.57929V1.7488C32.5855 1.76471 32.6073 1.7828 32.6274 1.80293L38.5369 7.71242ZM2.55009 47.3328V31.401H4.86576C5.32617 31.401 5.6994 31.7743 5.6994 32.2347V46.4992C5.6994 46.9596 5.32617 47.3328 4.86576 47.3328H2.55009ZM9.86933 45.1089C9.40893 45.1089 9.03569 45.4821 9.03569 45.9425C9.03569 46.403 9.40893 46.7762 9.86933 46.7762H10.6103C11.0708 46.7762 11.444 46.403 11.444 45.9425C11.444 45.4821 11.0708 45.1089 10.6103 45.1089H9.86933Z" fill="black"/>
<defs>
<linearGradient id="paint0_linear_3180_4869" x1="2.36575" y1="32.7981" x2="9.11145" y2="34.8675" gradientUnits="userSpaceOnUse">
<stop stop-color="#42A4FF"/>
<stop offset="1" stop-color="white"/>
</linearGradient>
</defs>
</svg>
