<svg width="179" height="40" viewBox="0 0 179 40" fill="none" xmlns="http://www.w3.org/2000/svg">
<g clip-path="url(#clip0_709_7044)">
<path d="M18.2993 0C18.9296 0.524649 19.5912 1.01312 20.1858 1.57395C25.011 6.09679 29.8302 10.6392 34.6435 15.2013C35.0097 15.5269 35.3011 15.9296 35.4973 16.3812C35.6934 16.8328 35.7896 17.3223 35.779 17.8155C35.779 24.4731 35.779 31.1322 35.779 37.7929C35.779 38.919 35.1621 39.5477 34.0534 39.5477C23.2824 39.5477 12.5144 39.5477 1.74936 39.5477C1.37319 39.5574 1.00333 39.4486 0.690969 39.2363C0.378611 39.024 0.139203 38.7187 0.00585938 38.3627V17.1461C0.238327 16.1239 0.899963 15.4138 1.6376 14.7264C6.58797 10.0829 11.5294 5.43193 16.4619 0.773402C16.8073 0.486071 17.1751 0.227432 17.5616 0H18.2993ZM7.56999 31.8725H28.1836C28.1836 31.7368 28.1836 31.6282 28.1836 31.5197C28.1836 27.6481 28.1836 23.7811 28.1836 19.9096C28.1603 19.6867 28.0588 19.4797 27.8975 19.3261C24.6429 16.2355 21.3839 13.1569 18.1204 10.0905C18.04 10.0181 17.955 9.9593 17.8746 9.89598L17.7539 9.98644C14.4337 13.1162 11.1136 16.2506 7.79351 19.3894C7.65639 19.5314 7.57666 19.7202 7.56999 19.9186C7.56999 23.7721 7.56999 27.6074 7.56999 31.4835V31.8725Z" fill="black"/>
<path d="M83.4869 0C83.9425 0.123357 84.3903 0.274392 84.828 0.452284C85.7802 0.910935 86.5438 1.692 86.9867 2.66023C87.4297 3.62847 87.524 4.72293 87.2534 5.75412C86.9828 6.7853 86.3643 7.6883 85.505 8.30676C84.6457 8.92522 83.5997 9.22021 82.548 9.14066C81.4631 9.04946 80.447 8.56552 79.6862 7.77759C78.9255 6.98967 78.4711 5.95063 78.4064 4.85112C78.3418 3.75162 78.6712 2.66539 79.3342 1.79176C79.9972 0.918129 80.9494 0.315686 82.016 0.0949758C82.0915 0.0730508 82.1648 0.0443024 82.2351 0.00905451L83.4869 0Z" fill="black"/>
<path d="M125.354 0L126.011 0.194479C127.038 0.509496 127.921 1.18359 128.502 2.09635C129.083 3.00912 129.325 4.10114 129.183 5.17737C129.042 6.25361 128.527 7.24399 127.731 7.97164C126.934 8.6993 125.908 9.11685 124.836 9.14971C123.693 9.19357 122.577 8.79776 121.711 8.04201C120.846 7.28626 120.295 6.22675 120.171 5.0769C120.047 3.92706 120.358 2.77234 121.042 1.84538C121.726 0.918422 122.732 0.288103 123.857 0.0814078C123.919 0.0599704 123.978 0.032718 124.035 0H125.354Z" fill="black"/>
<path d="M150.929 39.5207V38.9463C150.929 33.5505 150.929 28.1548 150.898 22.759C150.881 21.9728 150.73 21.1955 150.451 20.4614C149.781 18.6884 148.377 17.8336 146.557 17.6527C145.249 17.4641 143.919 17.7877 142.838 18.5573C142.228 19.0217 141.722 19.6118 141.355 20.2885C140.987 20.9653 140.766 21.7133 140.705 22.4831C140.648 23.0208 140.624 23.5616 140.634 24.1023C140.634 29.0533 140.634 34.0058 140.634 38.9598V39.5342H133.137V11.5378H140.594V14.5003C140.674 14.4641 140.723 14.4596 140.741 14.437C141.425 13.5022 142.285 12.7136 143.272 12.1167C144.259 11.5197 145.352 11.1263 146.49 10.9589C148.99 10.4378 151.591 10.8559 153.808 12.1349C156.173 13.5279 157.47 15.7215 158.038 18.3538C158.294 19.5304 158.429 20.7309 158.44 21.9359C158.48 27.6663 158.44 33.3922 158.44 39.1226V39.5207H150.929Z" fill="black"/>
<path d="M89.0176 11.5015H91.3288C93.1707 11.5015 95.0081 11.5015 96.85 11.5015C96.9084 11.4905 96.9685 11.4914 97.0266 11.5041C97.0848 11.5169 97.1398 11.5412 97.1885 11.5758C97.2372 11.6103 97.2786 11.6543 97.3103 11.7053C97.342 11.7562 97.3633 11.813 97.373 11.8724C99.4443 17.8546 101.531 23.8353 103.632 29.8145C103.685 29.9728 103.744 30.1266 103.833 30.3618C103.927 30.1221 103.994 29.9593 104.052 29.7874C106.12 23.8353 108.189 17.8818 110.257 11.9267C110.284 11.789 110.363 11.6675 110.478 11.5881C110.592 11.5087 110.733 11.4776 110.87 11.5015C113.436 11.5015 116.002 11.5015 118.621 11.5015C118.581 11.6372 118.559 11.7503 118.514 11.8588C114.92 20.9769 111.327 30.0949 107.736 39.213C107.71 39.3252 107.643 39.4232 107.548 39.487C107.453 39.5509 107.338 39.5758 107.226 39.5567C104.959 39.5567 102.693 39.5567 100.426 39.5567C100.321 39.5694 100.214 39.5436 100.126 39.4839C100.037 39.4242 99.9726 39.3346 99.9436 39.2311C96.3492 30.101 92.752 20.9709 89.1517 11.8408C89.0712 11.7548 89.0489 11.6598 89.0176 11.5015Z" fill="black"/>
<path d="M61.9969 30.3708C62.4798 29.014 62.9268 27.7204 63.3694 26.445C65.0533 21.6025 66.7357 16.7586 68.4166 11.9131C68.4375 11.7806 68.5095 11.6619 68.6167 11.5831C68.724 11.5042 68.8579 11.4716 68.9888 11.4925C71.4476 11.4925 73.9064 11.4925 76.3652 11.4925H76.781C76.7273 11.6643 76.6871 11.8046 76.6334 11.9448C73.057 21.0266 69.4806 30.107 65.9042 39.1858C65.8765 39.3023 65.8075 39.4045 65.7102 39.4729C65.613 39.5413 65.4942 39.5711 65.3767 39.5567C63.1235 39.5567 60.8704 39.5567 58.6172 39.5567C58.4993 39.5732 58.3796 39.5442 58.2819 39.4755C58.1841 39.4068 58.1155 39.3034 58.0897 39.1858C54.5133 30.0949 50.9294 21.0055 47.3381 11.9176C47.2934 11.8046 47.2621 11.687 47.2129 11.5287C47.3738 11.5287 47.5035 11.5015 47.6331 11.5015C50.0874 11.5015 52.5507 11.5015 55.005 11.5015C55.1292 11.4815 55.2562 11.5108 55.3595 11.5833C55.4628 11.6557 55.5344 11.7658 55.5594 11.8905C57.6456 17.8878 59.7319 23.882 61.8181 29.8733C61.8539 29.9999 61.9075 30.1356 61.9969 30.3708Z" fill="black"/>
<path d="M164.659 11.5152V3.28363H172.089V11.479H178.969V19.0864H172.125C172.125 19.29 172.098 19.4347 172.098 19.5794C172.098 22.9655 172.098 26.3501 172.098 29.7332C172.09 30.1362 172.12 30.5391 172.188 30.9363C172.474 32.4062 173.457 33.1977 175.138 33.1977C176.408 33.1977 177.677 33.071 178.978 32.9987C178.983 33.0589 178.983 33.1194 178.978 33.1796C178.978 34.9887 178.978 36.7617 178.978 38.5482C178.976 38.6289 178.956 38.708 178.919 38.7794C178.881 38.8508 178.828 38.9125 178.764 38.9598C175.634 40.1719 172.424 40.4388 169.259 39.1271C166.523 37.9919 165.146 35.7486 164.749 32.854C164.673 32.2359 164.64 31.6132 164.65 30.9906C164.65 27.2185 164.65 23.4495 164.65 19.6835V19.1407C164.476 19.1407 164.315 19.109 164.158 19.109C162.898 19.109 161.633 19.109 160.372 19.109C160.148 19.109 159.979 19.1091 159.979 18.7925C159.979 16.4315 159.979 14.0736 159.979 11.7187C159.985 11.653 159.997 11.5879 160.014 11.5242L164.659 11.5152Z" fill="black"/>
<path d="M128.424 39.5342H120.963V11.5288H128.424V39.5342Z" fill="black"/>
<path d="M86.6156 39.5296H79.1543V11.5333H86.6156V39.5296Z" fill="black"/>
<path d="M47.1773 35.0293C47.1683 35.9384 46.8924 36.8242 46.3846 37.5743C45.8769 38.3244 45.1603 38.9049 44.3258 39.2421C43.4913 39.5793 42.5765 39.658 41.6977 39.4681C40.8189 39.2782 40.0157 38.8284 39.3902 38.1758C38.7646 37.5231 38.3449 36.6971 38.1843 35.8026C38.0237 34.9081 38.1295 33.9855 38.4883 33.152C38.8471 32.3185 39.4427 31.6116 40.1993 31.1213C40.956 30.6309 41.8397 30.3791 42.7381 30.3979C43.3303 30.4067 43.9149 30.5336 44.4586 30.7712C45.0023 31.0088 45.4943 31.3525 45.9066 31.7826C46.3189 32.2128 46.6434 32.7209 46.8614 33.278C47.0794 33.8351 47.1868 34.4302 47.1773 35.0293Z" fill="black"/>
</g>
<defs>
<clipPath id="clip0_709_7044">
<rect width="179" height="40" fill="white"/>
</clipPath>
</defs>
</svg>
